<svg width="1440" height="127" viewBox="0 0 1440 127" fill="none" xmlns="http://www.w3.org/2000/svg">
<path d="M-10 48C2.81926 55.7505 45.6079 74.158 114.208 85.7837C199.959 100.316 244.133 85.2024 267 82.296M267 82.296L256.5 77.5M267 82.296L259 90.5" stroke="#78C081" stroke-width="2" stroke-linecap="round" stroke-linejoin="round"/>
<path d="M783 93.4955C810 107.674 853 124.941 915.5 125.937C1009.5 127.434 1045.5 101.98 1065 92.7927M1065 92.7927L1054.5 91M1065 92.7927L1059 101.98" stroke="#78C081" stroke-width="2" stroke-linecap="round" stroke-linejoin="round"/>
<path d="M383.5 77.5025C407 66.5016 446.5 48.5029 514.208 44.5022C593 39.8465 623 59.0014 667 76.0015M667 76.0015L661.5 67.4999M667 76.0015L657 79.9999" stroke="#78C081" stroke-width="2" stroke-linecap="round" stroke-linejoin="round"/>
<path d="M1181 59C1199 45.7908 1244.5 23.501 1315 10.4997C1340.87 5.72899 1406.5 -1.49822 1468 9.50135M1468 9.50135L1462.5 1M1468 9.50135L1458 13.4996" stroke="#78C081" stroke-width="2" stroke-linecap="round" stroke-linejoin="round"/>
<circle cx="325" cy="74" r="50" fill="#D9FADD"/>
<circle cx="725" cy="69" r="50" fill="#D9FADD"/>
<circle cx="1123" cy="69" r="50" fill="#D9FADD"/>
<path d="M745.101 50.7776V93.8008C745.101 95.5595 743.663 96.985 741.89 96.985H708.11C706.337 96.985 704.899 95.5594 704.899 93.8008V50.7776C704.899 49.019 706.337 47.5933 708.11 47.5933H715.513V52.0522C715.513 52.7112 716.052 53.2455 716.717 53.2455H733.283C733.947 53.2455 734.486 52.7112 734.486 52.0522V47.5933H741.89C743.663 47.5933 745.101 49.019 745.101 50.7776Z" fill="#D9FADD"/>
<path d="M734.487 46.5896V52.0541C734.487 52.7131 733.948 53.2474 733.283 53.2474H716.717C716.052 53.2474 715.513 52.7131 715.513 52.0541V46.5896C715.513 45.9306 716.052 45.3963 716.717 45.3963H721.272V45.3848C721.272 42.8472 723.898 40.9025 726.609 42.0473C727.927 42.604 728.716 43.9642 728.716 45.3848V45.3963H733.283C733.948 45.3964 734.487 45.9307 734.487 46.5896Z" fill="#D9FADD"/>
<path d="M733.284 44.5046H729.535C728.616 39.5549 721.424 39.6715 720.461 44.5046H716.716C715.557 44.5046 714.614 45.4401 714.614 46.5898V46.7017H708.11C705.844 46.7017 704 48.53 704 50.7774V93.8007C704 96.0482 705.844 97.8764 708.11 97.8764H741.89C744.156 97.8764 746 96.0481 746 93.8007V50.7774C746 48.5299 744.156 46.7017 741.89 46.7017H735.386V46.5898C735.386 45.4401 734.443 44.5046 733.284 44.5046ZM716.716 46.2877H721.272C721.769 46.2877 722.171 45.8772 722.171 45.3849C722.171 41.8189 727.817 41.5869 727.817 45.3963C727.817 45.8886 728.22 46.2878 728.717 46.2878H733.284C733.451 46.2878 733.588 46.4231 733.588 46.5899C733.588 47.1875 733.588 50.6866 733.587 52.0521C733.587 52.2189 733.451 52.3542 733.283 52.3542H716.717C716.549 52.3542 716.413 52.2189 716.413 52.0521C716.413 51.9606 716.412 46.4983 716.412 46.5899C716.412 46.423 716.549 46.2877 716.716 46.2877ZM716.716 54.1389H733.284C734.443 54.1389 735.386 53.2039 735.386 52.0542V52.052L739.938 52.0229C740.322 52.0229 740.634 52.3324 740.634 52.7133V91.8649C740.634 92.2459 740.322 92.5554 739.938 92.5554H710.062C709.678 92.5554 709.366 92.2459 709.366 91.8649V52.7132C709.366 52.3323 709.678 52.0228 710.062 52.0228H714.614V52.0541C714.614 53.2039 715.557 54.1389 716.716 54.1389ZM741.89 48.4847C743.165 48.4847 744.202 49.5133 744.202 50.7774V93.8007C744.202 95.0648 743.165 96.0935 741.89 96.0935H708.11C706.835 96.0935 705.798 95.0648 705.798 93.8007V50.7774C705.798 49.5133 706.835 48.4847 708.11 48.4847H714.614V50.2398H710.062C708.687 50.2398 707.568 51.3494 707.568 52.7132V91.8648C707.568 93.2287 708.687 94.3382 710.062 94.3382H739.938C741.313 94.3382 742.432 93.2286 742.432 91.8648V52.7132C742.432 51.3493 741.313 50.2398 739.938 50.2398H735.386V48.4847H741.89Z" fill="#5CCD6A"/>
<path d="M725.638 45.0096C725.971 44.6609 726 44.1437 725.638 43.7437C725.305 43.4137 724.703 43.4137 724.362 43.7437C724.01 44.1298 724.021 44.6532 724.362 45.0096C724.727 45.353 725.273 45.3532 725.638 45.0096Z" fill="#5CCD6A"/>
<path d="M726.002 60.7983H735.489C735.985 60.7983 736.388 60.3991 736.388 59.9067C736.388 59.4144 735.985 59.0152 735.489 59.0152H726.002C725.505 59.0152 725.103 59.4144 725.103 59.9067C725.103 60.3991 725.505 60.7983 726.002 60.7983Z" fill="#C3FF17"/>
<path d="M726.002 64.6477H731.617C732.114 64.6477 732.516 64.2485 732.516 63.7562C732.516 63.2638 732.114 62.8646 731.617 62.8646H726.002C725.505 62.8646 725.103 63.2638 725.103 63.7562C725.103 64.2485 725.505 64.6477 726.002 64.6477Z" fill="#C3FF17"/>
<path d="M714.5 64.11C714.5 65.3472 715.505 66.3537 716.743 66.3537H720.257C721.495 66.3537 722.5 65.3473 722.5 64.11V60.5927C722.5 59.3553 721.495 58.3487 720.257 58.3487H716.743C715.505 58.3487 714.5 59.3551 714.5 60.5927V64.11Z" fill="#C3FF17" stroke="#5CCD6A"/>
<path d="M726.002 71.768H735.489C735.985 71.768 736.388 71.3688 736.388 70.8765C736.388 70.3841 735.985 69.9849 735.489 69.9849H726.002C725.505 69.9849 725.103 70.3841 725.103 70.8765C725.103 71.3688 725.505 71.768 726.002 71.768Z" fill="#C3FF17"/>
<path d="M726.002 75.6174H731.617C732.114 75.6174 732.516 75.2183 732.516 74.7259C732.516 74.2335 732.114 73.8344 731.617 73.8344H726.002C725.505 73.8344 725.103 74.2335 725.103 74.7259C725.103 75.2183 725.505 75.6174 726.002 75.6174Z" fill="#C3FF17"/>
<path d="M722.5 71.6006V71.6005C722.5 70.3631 721.495 69.3565 720.257 69.3565H716.743C715.505 69.3565 714.5 70.3631 714.5 71.6006V75.1179C714.5 76.355 715.505 77.3615 716.743 77.3615H720.257C721.495 77.3615 722.5 76.355 722.5 75.1179V71.6006Z" fill="#C3FF17" stroke="#5CCD6A"/>
<path d="M726.002 82.7378H735.489C735.985 82.7378 736.388 82.3386 736.388 81.8462C736.388 81.3539 735.985 80.9547 735.489 80.9547H726.002C725.505 80.9547 725.103 81.3539 725.103 81.8462C725.103 82.3386 725.505 82.7378 726.002 82.7378Z" fill="#C3FF17"/>
<path d="M726.002 86.5872H731.617C732.114 86.5872 732.516 86.1881 732.516 85.6957C732.516 85.2033 732.114 84.8041 731.617 84.8041H726.002C725.505 84.8041 725.103 85.2033 725.103 85.6957C725.103 86.1881 725.505 86.5872 726.002 86.5872Z" fill="#C3FF17"/>
<path d="M722.5 82.6084V82.6083C722.5 81.3709 721.495 80.3643 720.257 80.3643H716.743C715.505 80.3643 714.5 81.3707 714.5 82.6084V86.1257C714.5 87.3628 715.505 88.3693 716.743 88.3693H720.257C721.495 88.3693 722.5 87.3629 722.5 86.1257V82.6084Z" fill="#C3FF17" stroke="#5CCD6A"/>
<path d="M333.879 83.4465C331.14 86.1972 331.482 91.7477 331.482 91.7477H317.593C317.593 91.7477 317.886 86.1972 315.197 83.4465C312.213 80.794 310.306 76.9627 310.306 72.6892C310.306 64.8301 316.664 58.4445 324.489 58.4445C332.314 58.4445 338.672 64.8301 338.672 72.6892C338.672 76.9627 336.813 80.794 333.879 83.4465Z" fill="#C3FF17"/>
<path d="M331.874 96.1194C331.874 96.8562 331.287 97.4456 330.554 97.4456H318.474C317.74 97.4456 317.153 96.8562 317.153 96.1194C317.153 95.3826 317.74 94.7932 318.474 94.7932H330.505C331.238 94.7932 331.874 95.3826 331.874 96.1194Z" fill="#D9FADD"/>
<path d="M330.064 101.621C330.064 102.358 329.477 102.947 328.744 102.947H320.283C319.549 102.947 318.963 102.358 318.963 101.621C318.963 100.884 319.549 100.295 320.283 100.295H328.744C329.477 100.295 330.064 100.884 330.064 101.621Z" fill="#D9FADD"/>
<path d="M334.613 83.9377C337.792 81.0396 339.602 76.9627 339.602 72.6892C339.602 64.3389 332.804 57.5112 324.489 57.5112C316.175 57.5112 309.377 64.3389 309.377 72.6892C309.377 77.0609 311.285 81.2361 314.513 84.085C316.909 86.4919 316.664 91.6003 316.664 91.6495C316.664 91.8951 316.762 92.1406 316.909 92.3371C317.105 92.5336 317.349 92.6318 317.594 92.6318H331.434C331.679 92.6318 331.923 92.5336 332.119 92.3371C332.314 92.1406 332.363 91.8951 332.363 91.6495C332.363 91.6003 332.119 86.4919 334.515 84.085C334.564 84.0359 334.613 83.9868 334.613 83.9377ZM333.244 82.7097C333.146 82.7588 333.097 82.857 333.048 82.9553C330.896 85.2639 330.554 89.0461 330.505 90.8144H318.523C318.474 88.997 318.083 85.0674 315.784 82.7588C312.899 80.2046 311.236 76.5697 311.236 72.7384C311.236 65.3704 317.202 59.4269 324.489 59.4269C331.825 59.4269 337.743 65.4195 337.743 72.7384C337.743 76.5206 336.129 80.2046 333.244 82.7097Z" fill="#5CCD6A"/>
<path d="M324.489 61.4409C324 61.4409 323.56 61.8338 323.56 62.3741C323.56 62.8653 323.951 63.3074 324.489 63.3074C329.967 63.3074 334.417 67.7773 334.417 73.2787C334.417 73.7699 334.809 74.212 335.346 74.212C335.836 74.212 336.276 73.819 336.276 73.2787C336.276 66.7458 330.994 61.4409 324.489 61.4409Z" fill="#5CCD6A"/>
<path d="M332.803 96.1194C332.803 94.8423 331.776 93.8599 330.553 93.8599H318.474C317.202 93.8599 316.224 94.8914 316.224 96.1194C316.224 97.3965 317.251 98.3789 318.474 98.3789H330.505C331.776 98.3789 332.803 97.3965 332.803 96.1194ZM330.505 96.5123H318.474C318.229 96.5123 318.082 96.3158 318.082 96.1194C318.082 95.8738 318.278 95.7264 318.474 95.7264H330.505C330.749 95.7264 330.896 95.9229 330.896 96.1194C330.945 96.365 330.749 96.5123 330.505 96.5123Z" fill="#5CCD6A"/>
<path d="M328.744 99.3613H320.283C319.012 99.3613 318.034 100.393 318.034 101.621C318.034 102.898 319.061 103.88 320.283 103.88H328.744C330.016 103.88 330.994 102.849 330.994 101.621C330.994 100.393 329.967 99.3613 328.744 99.3613ZM328.744 102.014H320.283C320.039 102.014 319.892 101.817 319.892 101.621C319.892 101.375 320.088 101.228 320.283 101.228H328.744C328.989 101.228 329.135 101.424 329.135 101.621C329.135 101.866 328.989 102.014 328.744 102.014Z" fill="#5CCD6A"/>
<path d="M325.418 52.059V45.7717C325.418 45.2805 325.027 44.8384 324.489 44.8384C324 44.8384 323.56 45.2313 323.56 45.7717V52.1081C323.56 52.5993 323.951 53.0414 324.489 53.0414C325.027 52.9923 325.418 52.5993 325.418 52.059Z" fill="#5CCD6A"/>
<path d="M339.895 49.5047C339.454 49.21 338.916 49.3574 338.623 49.7503L335.151 55.0061C334.857 55.4482 335.004 55.9885 335.395 56.2832C335.542 56.3815 335.738 56.4306 335.884 56.4306C336.178 56.4306 336.471 56.2832 336.667 56.0376L340.139 50.7818C340.433 50.3889 340.286 49.7994 339.895 49.5047Z" fill="#5CCD6A"/>
<path d="M313.436 56.2341C313.583 56.2341 313.779 56.185 313.925 56.0868C314.366 55.792 314.463 55.2517 314.219 54.8097L310.844 49.5047C310.551 49.0626 310.013 48.9644 309.573 49.21C309.133 49.5047 309.035 50.045 309.279 50.4871L312.654 55.792C312.849 56.0868 313.143 56.2341 313.436 56.2341Z" fill="#5CCD6A"/>
<path d="M300.476 60.6549L306.003 63.6512C306.149 63.7494 306.296 63.7494 306.443 63.7494C306.785 63.7494 307.079 63.553 307.274 63.2583C307.519 62.8162 307.372 62.2267 306.883 61.9811L301.357 58.9848C300.916 58.7392 300.33 58.8866 300.085 59.3778C299.889 59.869 300.036 60.4093 300.476 60.6549Z" fill="#5CCD6A"/>
<path d="M342.535 63.7986C342.682 63.7986 342.829 63.7495 342.976 63.7004L348.502 60.7041C348.942 60.4585 349.138 59.9181 348.893 59.427C348.649 58.9849 348.111 58.7884 347.622 59.034L342.095 62.0303C341.655 62.2759 341.46 62.8162 341.704 63.3074C341.851 63.6021 342.193 63.7986 342.535 63.7986Z" fill="#5CCD6A"/>
<path d="M1127.8 59.3576C1127.8 61.2414 1127.44 62.977 1126.84 64.367C1127.19 64.613 1127.52 64.8914 1127.81 65.1984L1136.34 56.6683C1132.97 53.2607 1128.31 51.1368 1123.16 51.0947C1125.72 51.1369 1127.8 54.8193 1127.8 59.3576Z" fill="#D9FADD"/>
<path d="M1112.19 73.8838C1113.52 72.5518 1115 71.578 1116.41 71.021C1116.34 70.6425 1116.3 70.2536 1116.3 69.8561C1116.3 69.8187 1116.31 69.7817 1116.31 69.7444H1104.25C1104.25 69.7818 1104.25 69.8189 1104.25 69.8562C1104.25 74.9827 1106.31 79.6282 1109.64 83.0147C1107.85 81.1687 1108.98 77.0944 1112.19 73.8838Z" fill="#D9FADD"/>
<path d="M1118.2 80.3546C1118.2 78.4708 1118.56 76.7351 1119.16 75.3452C1118.81 75.0992 1118.48 74.8208 1118.19 74.5137L1109.66 83.0439C1113.03 86.4515 1117.69 88.5754 1122.84 88.6175C1120.28 88.5754 1118.2 84.893 1118.2 80.3546Z" fill="#D9FADD"/>
<path d="M1118.98 59.0367C1120.31 60.3687 1121.28 61.8492 1121.84 63.2579C1122.21 63.1916 1122.6 63.1549 1123 63.1549C1123.04 63.1549 1123.07 63.1572 1123.11 63.1578V51.0942C1123.07 51.094 1123.04 51.0928 1123 51.0928C1117.88 51.0928 1113.24 53.1496 1109.85 56.4819C1111.7 54.6909 1115.77 55.8262 1118.98 59.0367Z" fill="#D9FADD"/>
<path d="M1112.51 65.0536C1114.39 65.0536 1116.13 65.412 1117.51 66.0143C1117.76 65.6636 1118.04 65.3375 1118.35 65.0406L1109.82 56.5104C1106.42 59.8779 1104.29 64.5407 1104.25 69.7001C1104.29 67.13 1107.97 65.0536 1112.51 65.0536Z" fill="#D9FADD"/>
<path d="M1133.49 74.6587C1131.61 74.6587 1129.87 74.3003 1128.49 73.698C1128.24 74.0488 1127.96 74.3747 1127.65 74.6718L1136.18 83.2019C1139.58 79.8344 1141.71 75.1716 1141.75 70.0122C1141.71 72.5823 1138.03 74.6587 1133.49 74.6587Z" fill="#D9FADD"/>
<path d="M1133.81 65.8285C1132.48 67.1605 1131 68.1343 1129.59 68.6914C1129.66 69.0699 1129.7 69.4587 1129.7 69.8563C1129.7 69.8937 1129.69 69.9306 1129.69 69.968H1141.75C1141.75 69.9306 1141.75 69.8936 1141.75 69.8563C1141.75 64.7298 1139.69 60.0844 1136.36 56.6978C1138.15 58.5438 1137.02 62.618 1133.81 65.8285Z" fill="#D9FADD"/>
<path d="M1127.02 80.6757C1125.69 79.3437 1124.72 77.8631 1124.16 76.4544C1123.79 76.5208 1123.4 76.5574 1123 76.5574C1122.96 76.5574 1122.93 76.5552 1122.89 76.5546V88.6181C1122.93 88.6183 1122.96 88.6195 1123 88.6195C1128.12 88.6195 1132.76 86.5628 1136.15 83.2304C1134.3 85.0214 1130.23 83.8862 1127.02 80.6757Z" fill="#D9FADD"/>
<path d="M1133.49 74.6587C1138.05 74.6587 1141.75 72.5585 1141.75 69.9678H1129.69C1129.67 71.3547 1129.23 72.6385 1128.49 73.698C1129.87 74.3003 1131.61 74.6587 1133.49 74.6587Z" fill="#C3FF17"/>
<path d="M1133.81 65.8285C1137.04 62.6009 1138.17 58.4993 1136.34 56.6675L1127.81 65.1986C1128.72 66.1396 1129.36 67.3463 1129.59 68.6913C1131 68.1342 1132.48 67.1605 1133.81 65.8285Z" fill="#C3FF17"/>
<path d="M1127.8 59.3576C1127.8 54.793 1125.7 51.0928 1123.11 51.0928V63.1578C1124.5 63.1806 1125.78 63.6242 1126.84 64.3671C1127.44 62.9771 1127.8 61.2414 1127.8 59.3576Z" fill="#C3FF17"/>
<path d="M1118.98 59.0367C1115.75 55.8091 1111.65 54.6776 1109.82 56.5095L1118.35 65.0405C1119.29 64.1302 1120.49 63.4938 1121.84 63.2579C1121.28 61.8492 1120.31 60.3687 1118.98 59.0367Z" fill="#C3FF17"/>
<path d="M1112.51 65.0536C1107.95 65.0536 1104.25 67.1538 1104.25 69.7445H1116.31C1116.33 68.3577 1116.77 67.0738 1117.51 66.0143C1116.13 65.412 1114.39 65.0536 1112.51 65.0536Z" fill="#C3FF17"/>
<path d="M1112.19 73.8838C1108.96 77.1114 1107.83 81.213 1109.66 83.0448L1118.19 74.5138C1117.28 73.5727 1116.64 72.3662 1116.41 71.0211C1115 71.5781 1113.52 72.5518 1112.19 73.8838Z" fill="#C3FF17"/>
<path d="M1118.2 80.3546C1118.2 84.9192 1120.3 88.6195 1122.89 88.6195V76.5544C1121.5 76.5317 1120.22 76.0881 1119.16 75.3451C1118.56 76.7352 1118.2 78.4708 1118.2 80.3546Z" fill="#C3FF17"/>
<path d="M1127.02 80.6757C1130.25 83.9032 1134.35 85.0347 1136.18 83.2028L1127.65 74.6717C1126.71 75.5821 1125.51 76.2184 1124.16 76.4543C1124.72 77.863 1125.69 79.3437 1127.02 80.6757Z" fill="#C3FF17"/>
<path d="M1123 63.1548C1119.3 63.1548 1116.3 66.155 1116.3 69.8561C1116.3 73.5571 1119.3 76.5572 1123 76.5572C1126.7 76.5572 1129.7 73.5571 1129.7 69.8561C1129.7 66.1551 1126.7 63.1548 1123 63.1548Z" fill="#D9FADD"/>
<path d="M1123 72.0898C1124.23 72.0898 1125.23 71.0897 1125.23 69.8561C1125.23 68.6224 1124.23 67.6224 1123 67.6224C1121.77 67.6224 1120.77 68.6224 1120.77 69.8561C1120.77 71.0897 1121.77 72.0898 1123 72.0898Z" fill="#C3FF17"/>
<path d="M1143.12 44.8384H1102.88C1100.19 44.8384 1098 47.0304 1098 49.7247V89.9876C1098 92.6819 1100.19 94.8739 1102.88 94.8739H1143.12C1145.81 94.8739 1148 92.6819 1148 89.9876V49.7247C1148 47.0304 1145.81 44.8384 1143.12 44.8384ZM1146.05 89.9876C1146.05 91.6042 1144.73 92.9194 1143.12 92.9194H1102.88C1101.27 92.9194 1099.95 91.6042 1099.95 89.9876V49.7247C1099.95 48.1081 1101.27 46.7929 1102.88 46.7929H1143.12C1144.73 46.7929 1146.05 48.1081 1146.05 49.7247V89.9876Z" fill="#5CCD6A"/>
<path d="M1143.02 85.0036C1142.48 85.0036 1142.04 85.4412 1142.04 85.9809C1142.04 87.5974 1140.73 88.9126 1139.11 88.9126C1138.57 88.9126 1138.14 89.3502 1138.14 89.8899C1138.14 90.4295 1138.57 90.8671 1139.11 90.8671C1141.81 90.8671 1144 88.6752 1144 85.9809C1144 85.4412 1143.56 85.0036 1143.02 85.0036Z" fill="#5CCD6A"/>
<path d="M1139.11 48.8452C1138.57 48.8452 1138.14 49.2828 1138.14 49.8224C1138.14 50.3621 1138.57 50.7997 1139.11 50.7997C1140.73 50.7997 1142.04 52.1149 1142.04 53.7314C1142.04 54.2711 1142.48 54.7087 1143.02 54.7087C1143.56 54.7087 1144 54.2711 1144 53.7314C1144 51.0371 1141.81 48.8452 1139.11 48.8452Z" fill="#5CCD6A"/>
<path d="M1102.98 54.7087C1103.52 54.7087 1103.96 54.2711 1103.96 53.7314C1103.96 52.1149 1105.27 50.7997 1106.89 50.7997C1107.43 50.7997 1107.86 50.3621 1107.86 49.8224C1107.86 49.2828 1107.43 48.8452 1106.89 48.8452C1104.19 48.8452 1102 51.0371 1102 53.7314C1102 54.2711 1102.44 54.7087 1102.98 54.7087Z" fill="#5CCD6A"/>
<path d="M1106.89 88.9126C1105.27 88.9126 1103.96 87.5974 1103.96 85.9809C1103.96 85.4412 1103.52 85.0036 1102.98 85.0036C1102.44 85.0036 1102 85.4412 1102 85.9809C1102 88.6752 1104.19 90.8671 1106.89 90.8671C1107.43 90.8671 1107.86 90.4295 1107.86 89.8899C1107.86 89.3502 1107.43 88.9126 1106.89 88.9126Z" fill="#5CCD6A"/>
<path d="M1139.11 87.0558C1139.71 87.0558 1140.19 86.5746 1140.19 85.9809C1140.19 85.3872 1139.71 84.9059 1139.11 84.9059C1138.52 84.9059 1138.04 85.3872 1138.04 85.9809C1138.04 86.5746 1138.52 87.0558 1139.11 87.0558Z" fill="#5CCD6A"/>
<path d="M1106.98 87.0558C1107.58 87.0558 1108.06 86.5746 1108.06 85.9809C1108.06 85.3872 1107.58 84.9059 1106.98 84.9059C1106.39 84.9059 1105.91 85.3872 1105.91 85.9809C1105.91 86.5746 1106.39 87.0558 1106.98 87.0558Z" fill="#5CCD6A"/>
<path d="M1139.11 54.8064C1139.71 54.8064 1140.19 54.3251 1140.19 53.7314C1140.19 53.1377 1139.71 52.6564 1139.11 52.6564C1138.52 52.6564 1138.04 53.1377 1138.04 53.7314C1138.04 54.3251 1138.52 54.8064 1139.11 54.8064Z" fill="#5CCD6A"/>
<path d="M1106.98 54.8064C1107.58 54.8064 1108.06 54.3251 1108.06 53.7314C1108.06 53.1377 1107.58 52.6564 1106.98 52.6564C1106.39 52.6564 1105.91 53.1377 1105.91 53.7314C1105.91 54.3251 1106.39 54.8064 1106.98 54.8064Z" fill="#5CCD6A"/>
<path d="M1136.95 83.7961C1140.46 80.2813 1142.65 75.4538 1142.72 70.1235C1142.73 70.0718 1142.73 70.0199 1142.73 69.9678C1142.73 69.9602 1142.73 69.953 1142.73 69.9454C1142.73 69.9155 1142.73 69.8859 1142.73 69.8561C1142.73 64.5675 1140.64 59.7582 1137.24 56.2107C1137.17 56.1302 1137.1 56.0517 1137.03 55.9764C1137 55.9456 1136.96 55.9181 1136.93 55.8922C1133.42 52.3833 1128.59 50.1901 1123.27 50.119C1123.22 50.1168 1123.16 50.1155 1123.11 50.1155C1123.1 50.1155 1123.1 50.1165 1123.09 50.1167C1123.06 50.1165 1123.03 50.1155 1123 50.1155C1117.72 50.1155 1112.91 52.2052 1109.37 55.6015C1109.29 55.6703 1109.21 55.7422 1109.13 55.8184C1109.1 55.8489 1109.07 55.8816 1109.05 55.9155C1105.54 59.4304 1103.35 64.258 1103.28 69.5887C1103.27 69.6404 1103.27 69.6923 1103.27 69.7444C1103.27 69.752 1103.27 69.7593 1103.27 69.7668C1103.27 69.7967 1103.27 69.8263 1103.27 69.8561C1103.27 75.1446 1105.36 79.9538 1108.76 83.5014C1108.83 83.582 1108.9 83.6605 1108.97 83.7358C1109 83.7668 1109.04 83.7942 1109.07 83.8202C1112.58 87.329 1117.41 89.5221 1122.73 89.5933C1122.78 89.5954 1122.84 89.5967 1122.89 89.5967C1122.9 89.5967 1122.9 89.5957 1122.91 89.5955C1122.94 89.5957 1122.97 89.5967 1123 89.5967C1128.29 89.5967 1133.1 87.5031 1136.64 84.1013C1136.72 84.0352 1136.8 83.9669 1136.87 83.8937C1136.9 83.8628 1136.93 83.8299 1136.95 83.7961ZM1109.84 57.9123L1116.55 64.6291C1115.34 64.274 1113.97 64.0763 1112.51 64.0763C1109.77 64.0763 1107.35 64.7721 1105.67 65.8974C1106.36 62.871 1107.82 60.1358 1109.84 57.9123ZM1117.28 69.8561C1117.28 66.7 1119.85 64.1322 1123 64.1322C1126.15 64.1322 1128.72 66.7 1128.72 69.8561C1128.72 73.0123 1126.15 75.58 1123 75.58C1119.85 75.58 1117.28 73.0123 1117.28 69.8561ZM1121.91 77.456V87.3578C1121.37 87.0451 1120.86 86.4832 1120.42 85.7163C1119.62 84.3001 1119.18 82.3958 1119.18 80.3547C1119.18 79.0796 1119.35 77.8588 1119.68 76.7762C1120.37 77.1112 1121.12 77.3432 1121.91 77.456ZM1115.76 72.3972C1116.02 73.1432 1116.4 73.8375 1116.86 74.4584L1109.86 81.4616C1109.7 80.8593 1109.74 80.0976 1109.97 79.2477C1110.4 77.6778 1111.44 76.0182 1112.88 74.5749C1113.78 73.673 1114.77 72.9319 1115.76 72.3972ZM1115.41 68.7672H1105.51C1105.82 68.228 1106.38 67.7126 1107.15 67.2774C1108.57 66.4735 1110.47 66.0308 1112.51 66.0308C1113.78 66.0308 1115 66.2046 1116.08 66.5305C1115.75 67.2247 1115.52 67.977 1115.41 68.7672ZM1111.4 56.7106C1112 56.5505 1112.77 56.5832 1113.62 56.8179C1115.18 57.2509 1116.84 58.2843 1118.28 59.7276C1119.19 60.6295 1119.93 61.6158 1120.46 62.6117C1119.72 62.8742 1119.02 63.2473 1118.4 63.7138L1111.4 56.7106ZM1124.09 62.2563V52.3544C1124.63 52.6672 1125.14 53.2291 1125.58 53.9959C1126.38 55.4122 1126.82 57.3164 1126.82 59.3576C1126.82 60.6328 1126.65 61.8534 1126.32 62.9358C1125.63 62.601 1124.88 62.369 1124.09 62.2563ZM1127.6 75.9985L1134.6 83.0017C1134 83.1618 1133.23 83.129 1132.38 82.8944C1130.82 82.4614 1129.16 81.4279 1127.72 79.9846C1126.81 79.0827 1126.07 78.0963 1125.54 77.1003C1126.29 76.8378 1126.98 76.4647 1127.6 75.9985ZM1130.59 70.9451H1140.49C1140.18 71.4842 1139.62 71.9996 1138.85 72.4348C1137.43 73.2387 1135.53 73.6814 1133.49 73.6814C1132.22 73.6814 1131 73.5077 1129.92 73.182C1130.25 72.4879 1130.48 71.7354 1130.59 70.9451ZM1129.14 65.2538L1136.14 58.2506C1136.3 58.8529 1136.26 59.6148 1136.03 60.4647C1135.6 62.0346 1134.56 63.694 1133.12 65.1373C1132.22 66.0393 1131.23 66.7799 1130.24 67.3147C1129.98 66.5688 1129.6 65.8747 1129.14 65.2538ZM1131.25 68.9906C1132.36 68.3816 1133.47 67.5521 1134.5 66.5196C1136.43 64.5857 1137.66 62.3827 1138.05 60.4028C1139.63 62.9142 1140.6 65.8463 1140.75 68.9906H1131.25ZM1128.22 63.405C1128.58 62.1888 1128.78 60.8178 1128.78 59.3577C1128.78 56.6183 1128.08 54.1929 1126.96 52.5148C1129.98 53.2053 1132.71 54.6697 1134.94 56.6883L1128.22 63.405ZM1122.14 61.5984C1121.53 60.4874 1120.7 59.3782 1119.67 58.3456C1117.99 56.667 1116.02 55.4553 1114.13 54.9337C1113.94 54.8794 1113.74 54.8356 1113.55 54.7971C1116.06 53.215 1118.99 52.2429 1122.14 52.0915V61.5984ZM1114.75 70.7217C1113.64 71.3306 1112.53 72.1602 1111.5 73.1927C1109.57 75.1267 1108.34 77.3295 1107.95 79.3093C1106.37 76.7981 1105.4 73.8658 1105.25 70.7217H1114.75ZM1117.78 76.3074C1117.42 77.5236 1117.22 78.8946 1117.22 80.3547C1117.22 83.094 1117.92 85.5194 1119.04 87.1975C1116.02 86.507 1113.29 85.0427 1111.06 83.0241L1117.78 76.3074ZM1123.86 78.1138C1124.47 79.2249 1125.3 80.3342 1126.33 81.3666C1128.27 83.3003 1130.47 84.5225 1132.45 84.9156C1129.94 86.4974 1127.01 87.4694 1123.86 87.6208V78.1138ZM1129.45 75.0832C1130.66 75.4382 1132.03 75.6359 1133.49 75.6359C1136.23 75.6359 1138.65 74.9401 1140.33 73.8149C1139.64 76.8414 1138.18 79.5765 1136.16 81.8001L1129.45 75.0832Z" fill="#5CCD6A"/>
<path d="M1126.21 69.8457C1126.2 68.0752 1124.76 66.6394 1122.99 66.6452C1121.22 66.6509 1119.79 68.0961 1119.79 69.8667C1119.8 71.6372 1121.24 73.073 1123.01 73.0672C1124.78 73.0613 1126.21 71.6162 1126.21 69.8457ZM1121.74 69.8602C1121.74 69.1674 1122.3 68.6019 1123 68.5997C1123.69 68.5974 1124.25 69.1592 1124.26 69.852C1124.26 70.5448 1123.7 71.1103 1123 71.1126C1122.31 71.1148 1121.75 70.5531 1121.74 69.8602Z" fill="#5CCD6A"/>
</svg>
