<svg width="375" height="542" viewBox="0 0 375 542" fill="none" xmlns="http://www.w3.org/2000/svg">
<circle cx="155" cy="119.986" r="50" fill="#D9FADD"/>
<path d="M163.879 129.432C161.14 132.183 161.482 137.733 161.482 137.733H147.593C147.593 137.733 147.886 132.183 145.197 129.432C142.213 126.78 140.306 122.948 140.306 118.675C140.306 110.816 146.664 104.43 154.489 104.43C162.314 104.43 168.672 110.816 168.672 118.675C168.672 122.948 166.813 126.78 163.879 129.432Z" fill="#C3FF17"/>
<path d="M161.874 142.105C161.874 142.842 161.287 143.431 160.554 143.431H148.474C147.74 143.431 147.153 142.842 147.153 142.105C147.153 141.368 147.74 140.779 148.474 140.779H160.505C161.238 140.779 161.874 141.368 161.874 142.105Z" fill="#D9FADD"/>
<path d="M160.064 147.606C160.064 148.343 159.477 148.933 158.744 148.933H150.283C149.549 148.933 148.963 148.343 148.963 147.606C148.963 146.87 149.549 146.28 150.283 146.28H158.744C159.477 146.28 160.064 146.87 160.064 147.606Z" fill="#D9FADD"/>
<path d="M164.613 129.923C167.792 127.025 169.602 122.948 169.602 118.675C169.602 110.324 162.804 103.497 154.489 103.497C146.175 103.497 139.377 110.324 139.377 118.675C139.377 123.047 141.285 127.222 144.513 130.071C146.909 132.478 146.664 137.586 146.664 137.635C146.664 137.881 146.762 138.126 146.909 138.323C147.105 138.519 147.349 138.617 147.594 138.617H161.434C161.679 138.617 161.923 138.519 162.119 138.323C162.314 138.126 162.363 137.881 162.363 137.635C162.363 137.586 162.119 132.478 164.515 130.071C164.564 130.022 164.613 129.972 164.613 129.923ZM163.244 128.695C163.146 128.744 163.097 128.843 163.048 128.941C160.896 131.25 160.554 135.032 160.505 136.8H148.523C148.474 134.983 148.083 131.053 145.784 128.744C142.899 126.19 141.236 122.555 141.236 118.724C141.236 111.356 147.202 105.413 154.489 105.413C161.825 105.413 167.743 111.405 167.743 118.724C167.743 122.506 166.129 126.19 163.244 128.695Z" fill="#5CCD6A"/>
<path d="M154.489 107.426C154 107.426 153.56 107.819 153.56 108.36C153.56 108.851 153.951 109.293 154.489 109.293C159.967 109.293 164.417 113.763 164.417 119.264C164.417 119.755 164.809 120.198 165.346 120.198C165.836 120.198 166.276 119.805 166.276 119.264C166.276 112.731 160.994 107.426 154.489 107.426Z" fill="#5CCD6A"/>
<path d="M162.803 142.105C162.803 140.828 161.776 139.845 160.553 139.845H148.474C147.202 139.845 146.224 140.877 146.224 142.105C146.224 143.382 147.251 144.364 148.474 144.364H160.505C161.776 144.364 162.803 143.382 162.803 142.105ZM160.505 142.498H148.474C148.229 142.498 148.082 142.301 148.082 142.105C148.082 141.859 148.278 141.712 148.474 141.712H160.505C160.749 141.712 160.896 141.909 160.896 142.105C160.945 142.351 160.749 142.498 160.505 142.498Z" fill="#5CCD6A"/>
<path d="M158.744 145.347H150.283C149.012 145.347 148.034 146.378 148.034 147.606C148.034 148.884 149.061 149.866 150.283 149.866H158.744C160.016 149.866 160.994 148.834 160.994 147.606C160.994 146.378 159.967 145.347 158.744 145.347ZM158.744 147.999H150.283C150.039 147.999 149.892 147.803 149.892 147.606C149.892 147.361 150.088 147.213 150.283 147.213H158.744C158.989 147.213 159.135 147.41 159.135 147.606C159.135 147.852 158.989 147.999 158.744 147.999Z" fill="#5CCD6A"/>
<path d="M155.418 98.0446V91.7572C155.418 91.2661 155.027 90.824 154.489 90.824C154 90.824 153.56 91.2169 153.56 91.7572V98.0937C153.56 98.5849 153.951 99.027 154.489 99.027C155.027 98.9779 155.418 98.5849 155.418 98.0446Z" fill="#5CCD6A"/>
<path d="M169.895 95.4903C169.454 95.1956 168.916 95.343 168.623 95.7359L165.151 100.992C164.857 101.434 165.004 101.974 165.395 102.269C165.542 102.367 165.738 102.416 165.884 102.416C166.178 102.416 166.471 102.269 166.667 102.023L170.139 96.7675C170.433 96.3745 170.286 95.7851 169.895 95.4903Z" fill="#5CCD6A"/>
<path d="M143.436 102.22C143.583 102.22 143.779 102.171 143.925 102.072C144.366 101.778 144.463 101.237 144.219 100.795L140.844 95.4903C140.551 95.0483 140.013 94.95 139.573 95.1956C139.133 95.4903 139.035 96.0307 139.279 96.4727L142.654 101.778C142.849 102.072 143.143 102.22 143.436 102.22Z" fill="#5CCD6A"/>
<path d="M130.476 106.641L136.003 109.637C136.149 109.735 136.296 109.735 136.443 109.735C136.785 109.735 137.079 109.539 137.274 109.244C137.519 108.802 137.372 108.212 136.883 107.967L131.357 104.97C130.916 104.725 130.33 104.872 130.085 105.363C129.889 105.855 130.036 106.395 130.476 106.641Z" fill="#5CCD6A"/>
<path d="M172.535 109.784C172.682 109.784 172.829 109.735 172.976 109.686L178.502 106.69C178.942 106.444 179.138 105.904 178.893 105.413C178.649 104.97 178.111 104.774 177.622 105.02L172.095 108.016C171.655 108.261 171.46 108.802 171.704 109.293C171.851 109.588 172.193 109.784 172.535 109.784Z" fill="#5CCD6A"/>
<path d="M-60.5093 1.9856C-55.4085 11.3933 -35.7556 37.4249 2.04948 66.2901C49.3059 102.372 81.6066 104.697 96.5959 109.439M96.5959 109.439L91.8714 102.851M96.5959 109.439L88.8215 112.952" stroke="#78C081" stroke-width="2" stroke-linecap="round" stroke-linejoin="round"/>
<path d="M218 129.486C271.5 129.486 324.753 146.346 338.545 191.758C347.563 229.082 330.027 256.333 298.221 289.307M298.221 289.307L306.5 287.986M298.221 289.307L298 279.986" stroke="#78C081" stroke-width="2" stroke-linecap="round" stroke-linejoin="round"/>
<circle cx="225" cy="293.986" r="50" fill="#D9FADD"/>
<path d="M245.101 275.763V318.786C245.101 320.545 243.663 321.971 241.89 321.971H208.11C206.337 321.971 204.899 320.545 204.899 318.786V275.763C204.899 274.005 206.337 272.579 208.11 272.579H215.513V277.038C215.513 277.697 216.052 278.231 216.717 278.231H233.283C233.947 278.231 234.486 277.697 234.486 277.038V272.579H241.89C243.663 272.579 245.101 274.005 245.101 275.763Z" fill="#D9FADD"/>
<path d="M234.487 271.575V277.04C234.487 277.699 233.948 278.233 233.283 278.233H216.717C216.052 278.233 215.513 277.699 215.513 277.04V271.575C215.513 270.916 216.052 270.382 216.717 270.382H221.272V270.37C221.272 267.833 223.898 265.888 226.609 267.033C227.927 267.59 228.716 268.95 228.716 270.37V270.382H233.283C233.948 270.382 234.487 270.916 234.487 271.575Z" fill="#D9FADD"/>
<path d="M233.284 269.49H229.535C228.616 264.54 221.424 264.657 220.461 269.49H216.716C215.557 269.49 214.614 270.426 214.614 271.575V271.687H208.11C205.844 271.687 204 273.516 204 275.763V318.786C204 321.034 205.844 322.862 208.11 322.862H241.89C244.156 322.862 246 321.034 246 318.786V275.763C246 273.516 244.156 271.687 241.89 271.687H235.386V271.575C235.386 270.426 234.443 269.49 233.284 269.49ZM216.716 271.273H221.272C221.769 271.273 222.171 270.863 222.171 270.37C222.171 266.804 227.817 266.573 227.817 270.382C227.817 270.874 228.22 271.273 228.717 271.273H233.284C233.451 271.273 233.588 271.409 233.588 271.575C233.588 272.173 233.588 275.672 233.587 277.038C233.587 277.204 233.451 277.34 233.283 277.34H216.717C216.549 277.34 216.413 277.204 216.413 277.038C216.413 276.946 216.412 271.484 216.412 271.575C216.412 271.409 216.549 271.273 216.716 271.273ZM216.716 279.124H233.284C234.443 279.124 235.386 278.189 235.386 277.04V277.038L239.938 277.008C240.322 277.008 240.634 277.318 240.634 277.699V316.851C240.634 317.231 240.322 317.541 239.938 317.541H210.062C209.678 317.541 209.366 317.231 209.366 316.851V277.699C209.366 277.318 209.678 277.008 210.062 277.008H214.614V277.04C214.614 278.189 215.557 279.124 216.716 279.124ZM241.89 273.47C243.165 273.47 244.202 274.499 244.202 275.763V318.786C244.202 320.05 243.165 321.079 241.89 321.079H208.11C206.835 321.079 205.798 320.05 205.798 318.786V275.763C205.798 274.499 206.835 273.47 208.11 273.47H214.614V275.225H210.062C208.687 275.225 207.568 276.335 207.568 277.699V316.85C207.568 318.214 208.687 319.324 210.062 319.324H239.938C241.313 319.324 242.432 318.214 242.432 316.85V277.699C242.432 276.335 241.313 275.225 239.938 275.225H235.386V273.47H241.89Z" fill="#5CCD6A"/>
<path d="M225.638 269.995C225.971 269.646 226 269.129 225.638 268.729C225.305 268.399 224.703 268.399 224.362 268.729C224.01 269.115 224.021 269.639 224.362 269.995C224.727 270.339 225.273 270.339 225.638 269.995Z" fill="#5CCD6A"/>
<path d="M226.002 285.784H235.489C235.985 285.784 236.388 285.385 236.388 284.892C236.388 284.4 235.985 284.001 235.489 284.001H226.002C225.505 284.001 225.103 284.4 225.103 284.892C225.103 285.385 225.505 285.784 226.002 285.784Z" fill="#C3FF17"/>
<path d="M226.002 289.633H231.617C232.114 289.633 232.516 289.234 232.516 288.742C232.516 288.249 232.114 287.85 231.617 287.85H226.002C225.505 287.85 225.103 288.249 225.103 288.742C225.103 289.234 225.505 289.633 226.002 289.633Z" fill="#C3FF17"/>
<path d="M214.5 289.096C214.5 290.333 215.505 291.339 216.743 291.339H220.257C221.495 291.339 222.5 290.333 222.5 289.096V285.578C222.5 284.341 221.495 283.334 220.257 283.334H216.743C215.505 283.334 214.5 284.341 214.5 285.578V289.096Z" fill="#C3FF17" stroke="#5CCD6A"/>
<path d="M226.002 296.754H235.489C235.985 296.754 236.388 296.354 236.388 295.862C236.388 295.37 235.985 294.971 235.489 294.971H226.002C225.505 294.971 225.103 295.37 225.103 295.862C225.103 296.354 225.505 296.754 226.002 296.754Z" fill="#C3FF17"/>
<path d="M226.002 300.603H231.617C232.114 300.603 232.516 300.204 232.516 299.711C232.516 299.219 232.114 298.82 231.617 298.82H226.002C225.505 298.82 225.103 299.219 225.103 299.711C225.103 300.204 225.505 300.603 226.002 300.603Z" fill="#C3FF17"/>
<path d="M222.5 296.586V296.586C222.5 295.349 221.495 294.342 220.257 294.342H216.743C215.505 294.342 214.5 295.349 214.5 296.586V300.103C214.5 301.341 215.505 302.347 216.743 302.347H220.257C221.495 302.347 222.5 301.341 222.5 300.103V296.586Z" fill="#C3FF17" stroke="#5CCD6A"/>
<path d="M226.002 307.723H235.489C235.985 307.723 236.388 307.324 236.388 306.832C236.388 306.339 235.985 305.94 235.489 305.94H226.002C225.505 305.94 225.103 306.339 225.103 306.832C225.103 307.324 225.505 307.723 226.002 307.723Z" fill="#C3FF17"/>
<path d="M226.002 311.573H231.617C232.114 311.573 232.516 311.174 232.516 310.681C232.516 310.189 232.114 309.79 231.617 309.79H226.002C225.505 309.79 225.103 310.189 225.103 310.681C225.103 311.174 225.505 311.573 226.002 311.573Z" fill="#C3FF17"/>
<path d="M222.5 307.594V307.594C222.5 306.357 221.495 305.35 220.257 305.35H216.743C215.505 305.35 214.5 306.356 214.5 307.594V311.111C214.5 312.348 215.505 313.355 216.743 313.355H220.257C221.495 313.355 222.5 312.349 222.5 311.111V307.594Z" fill="#C3FF17" stroke="#5CCD6A"/>
<path d="M166 328.986C121 343.985 25.7101 383.794 21.4396 425.418C18.1181 457.791 38 470.985 56.81 472.225M56.81 472.225L52.5001 465.986M56.81 472.225L50.0001 475.986" stroke="#78C081" stroke-width="2" stroke-linecap="round" stroke-linejoin="round"/>
<circle cx="118" cy="467.986" r="50" fill="#D9FADD"/>
<path d="M122.799 458.343C122.799 460.227 122.441 461.963 121.839 463.353C122.19 463.599 122.515 463.877 122.812 464.184L131.336 455.654C127.971 452.246 123.312 450.122 118.156 450.08C120.724 450.123 122.799 453.805 122.799 458.343Z" fill="#D9FADD"/>
<path d="M107.188 472.869C108.519 471.537 109.999 470.564 111.406 470.007C111.34 469.628 111.304 469.239 111.304 468.842C111.304 468.804 111.306 468.767 111.306 468.73H99.2514C99.2512 468.767 99.25 468.804 99.25 468.842C99.25 473.968 101.305 478.614 104.635 482C102.846 480.154 103.98 476.08 107.188 472.869Z" fill="#D9FADD"/>
<path d="M113.201 479.34C113.201 477.456 113.559 475.721 114.161 474.331C113.81 474.085 113.485 473.806 113.188 473.499L104.664 482.03C108.029 485.437 112.688 487.561 117.844 487.603C115.276 487.561 113.201 483.879 113.201 479.34Z" fill="#D9FADD"/>
<path d="M113.975 458.022C115.306 459.354 116.279 460.835 116.836 462.244C117.214 462.177 117.603 462.141 118 462.141C118.038 462.141 118.074 462.143 118.112 462.143V450.08C118.074 450.08 118.037 450.078 118 450.078C112.877 450.078 108.235 452.135 104.851 455.468C106.696 453.676 110.767 454.812 113.975 458.022Z" fill="#D9FADD"/>
<path d="M107.509 464.039C109.391 464.039 111.126 464.398 112.515 465C112.761 464.649 113.039 464.323 113.346 464.026L104.821 455.496C101.416 458.863 99.2939 463.526 99.2518 468.686C99.294 466.116 102.974 464.039 107.509 464.039Z" fill="#D9FADD"/>
<path d="M128.491 473.644C126.609 473.644 124.874 473.286 123.485 472.684C123.239 473.034 122.961 473.36 122.654 473.657L131.179 482.188C134.584 478.82 136.706 474.157 136.748 468.998C136.706 471.568 133.026 473.644 128.491 473.644Z" fill="#D9FADD"/>
<path d="M128.812 464.814C127.481 466.146 126.001 467.12 124.594 467.677C124.66 468.055 124.696 468.444 124.696 468.842C124.696 468.879 124.694 468.916 124.694 468.954H136.749C136.749 468.916 136.75 468.879 136.75 468.842C136.75 463.715 134.695 459.07 131.365 455.683C133.154 457.529 132.02 461.604 128.812 464.814Z" fill="#D9FADD"/>
<path d="M122.025 479.661C120.694 478.329 119.721 476.849 119.164 475.44C118.786 475.506 118.397 475.543 118 475.543C117.963 475.543 117.926 475.541 117.888 475.54V487.604C117.926 487.604 117.963 487.605 118 487.605C123.123 487.605 127.765 485.548 131.149 482.216C129.305 484.007 125.233 482.872 122.025 479.661Z" fill="#D9FADD"/>
<path d="M128.491 473.644C133.052 473.644 136.75 471.544 136.75 468.953H124.694C124.671 470.34 124.227 471.624 123.485 472.684C124.874 473.286 126.609 473.644 128.491 473.644Z" fill="#C3FF17"/>
<path d="M128.812 464.814C132.037 461.587 133.168 457.485 131.337 455.653L122.812 464.184C123.722 465.125 124.358 466.332 124.594 467.677C126.001 467.12 127.481 466.146 128.812 464.814Z" fill="#C3FF17"/>
<path d="M122.799 458.343C122.799 453.779 120.7 450.078 118.112 450.078V462.143C119.497 462.166 120.78 462.61 121.839 463.353C122.441 461.963 122.799 460.227 122.799 458.343Z" fill="#C3FF17"/>
<path d="M113.975 458.022C110.75 454.795 106.651 453.663 104.821 455.495L113.346 464.026C114.286 463.116 115.492 462.479 116.836 462.244C116.279 460.835 115.306 459.354 113.975 458.022Z" fill="#C3FF17"/>
<path d="M107.509 464.039C102.948 464.039 99.25 466.139 99.25 468.73H111.306C111.329 467.343 111.772 466.059 112.515 465C111.126 464.398 109.391 464.039 107.509 464.039Z" fill="#C3FF17"/>
<path d="M107.188 472.869C103.963 476.097 102.832 480.199 104.663 482.03L113.188 473.499C112.278 472.558 111.642 471.352 111.407 470.007C109.999 470.564 108.519 471.537 107.188 472.869Z" fill="#C3FF17"/>
<path d="M113.201 479.34C113.201 483.905 115.3 487.605 117.888 487.605V475.54C116.503 475.517 115.22 475.074 114.161 474.331C113.559 475.721 113.201 477.456 113.201 479.34Z" fill="#C3FF17"/>
<path d="M122.025 479.661C125.25 482.889 129.349 484.02 131.179 482.188L122.654 473.657C121.714 474.568 120.508 475.204 119.164 475.44C119.721 476.849 120.694 478.329 122.025 479.661Z" fill="#C3FF17"/>
<path d="M118 462.14C114.302 462.14 111.304 465.141 111.304 468.842C111.304 472.543 114.302 475.543 118 475.543C121.698 475.543 124.696 472.543 124.696 468.842C124.696 465.141 121.698 462.14 118 462.14Z" fill="#D9FADD"/>
<path d="M118 471.075C119.233 471.075 120.232 470.075 120.232 468.842C120.232 467.608 119.233 466.608 118 466.608C116.767 466.608 115.768 467.608 115.768 468.842C115.768 470.075 116.767 471.075 118 471.075Z" fill="#C3FF17"/>
<path d="M138.117 443.824H97.8828C95.1904 443.824 93 446.016 93 448.71V488.973C93 491.668 95.1904 493.86 97.8828 493.86H138.117C140.81 493.86 143 491.668 143 488.973V448.71C143 446.016 140.81 443.824 138.117 443.824ZM141.047 488.973C141.047 490.59 139.733 491.905 138.117 491.905H97.8828C96.2674 491.905 94.9531 490.59 94.9531 488.973V448.71C94.9531 447.094 96.2674 445.778 97.8828 445.778H138.117C139.733 445.778 141.047 447.094 141.047 448.71V488.973Z" fill="#5CCD6A"/>
<path d="M138.02 483.989C137.48 483.989 137.043 484.427 137.043 484.966C137.043 486.583 135.729 487.898 134.113 487.898C133.574 487.898 133.137 488.336 133.137 488.875C133.137 489.415 133.574 489.853 134.113 489.853C136.806 489.853 138.996 487.661 138.996 484.966C138.996 484.427 138.559 483.989 138.02 483.989Z" fill="#5CCD6A"/>
<path d="M134.113 447.831C133.574 447.831 133.137 448.268 133.137 448.808C133.137 449.348 133.574 449.785 134.113 449.785C135.729 449.785 137.043 451.1 137.043 452.717C137.043 453.257 137.48 453.694 138.02 453.694C138.559 453.694 138.996 453.257 138.996 452.717C138.996 450.023 136.806 447.831 134.113 447.831Z" fill="#5CCD6A"/>
<path d="M97.9805 453.694C98.5198 453.694 98.957 453.257 98.957 452.717C98.957 451.1 100.271 449.785 101.887 449.785C102.426 449.785 102.863 449.348 102.863 448.808C102.863 448.268 102.426 447.831 101.887 447.831C99.1943 447.831 97.0039 450.023 97.0039 452.717C97.0039 453.257 97.4411 453.694 97.9805 453.694Z" fill="#5CCD6A"/>
<path d="M101.887 487.898C100.271 487.898 98.957 486.583 98.957 484.966C98.957 484.427 98.5198 483.989 97.9805 483.989C97.4411 483.989 97.0039 484.427 97.0039 484.966C97.0039 487.661 99.1943 489.853 101.887 489.853C102.426 489.853 102.863 489.415 102.863 488.875C102.863 488.336 102.426 487.898 101.887 487.898Z" fill="#5CCD6A"/>
<path d="M134.113 486.041C134.707 486.041 135.188 485.56 135.188 484.966C135.188 484.373 134.707 483.891 134.113 483.891C133.52 483.891 133.039 484.373 133.039 484.966C133.039 485.56 133.52 486.041 134.113 486.041Z" fill="#5CCD6A"/>
<path d="M101.984 486.041C102.578 486.041 103.059 485.56 103.059 484.966C103.059 484.373 102.578 483.891 101.984 483.891C101.391 483.891 100.91 484.373 100.91 484.966C100.91 485.56 101.391 486.041 101.984 486.041Z" fill="#5CCD6A"/>
<path d="M134.113 453.792C134.707 453.792 135.188 453.311 135.188 452.717C135.188 452.123 134.707 451.642 134.113 451.642C133.52 451.642 133.039 452.123 133.039 452.717C133.039 453.311 133.52 453.792 134.113 453.792Z" fill="#5CCD6A"/>
<path d="M101.984 453.792C102.578 453.792 103.059 453.311 103.059 452.717C103.059 452.123 102.578 451.642 101.984 451.642C101.391 451.642 100.91 452.123 100.91 452.717C100.91 453.311 101.391 453.792 101.984 453.792Z" fill="#5CCD6A"/>
<path d="M131.954 482.782C135.461 479.267 137.652 474.439 137.723 469.109C137.725 469.057 137.727 469.006 137.727 468.953C137.727 468.946 137.726 468.939 137.725 468.931C137.726 468.901 137.727 468.872 137.727 468.842C137.727 463.553 135.637 458.744 132.242 455.196C132.174 455.116 132.103 455.037 132.028 454.962C131.997 454.931 131.964 454.904 131.93 454.878C128.418 451.369 123.594 449.176 118.267 449.105C118.215 449.102 118.163 449.101 118.111 449.101C118.104 449.101 118.097 449.102 118.089 449.102C118.059 449.102 118.03 449.101 118 449.101C112.717 449.101 107.912 451.191 104.367 454.587C104.286 454.656 104.206 454.728 104.13 454.804C104.1 454.835 104.072 454.867 104.047 454.901C100.54 458.416 98.348 463.244 98.277 468.574C98.2748 468.626 98.2735 468.678 98.2735 468.73C98.2735 468.738 98.2745 468.745 98.2747 468.752C98.2744 468.782 98.2734 468.812 98.2734 468.842C98.2734 474.13 100.363 478.939 103.758 482.487C103.826 482.568 103.897 482.646 103.972 482.721C104.003 482.752 104.036 482.78 104.07 482.806C107.582 486.315 112.406 488.508 117.733 488.579C117.784 488.581 117.836 488.582 117.888 488.582C117.896 488.582 117.903 488.581 117.911 488.581C117.941 488.581 117.97 488.582 118 488.582C123.288 488.582 128.097 486.489 131.642 483.087C131.72 483.021 131.797 482.953 131.87 482.879C131.901 482.848 131.928 482.816 131.954 482.782ZM104.841 456.898L111.553 463.615C110.338 463.26 108.968 463.062 107.509 463.062C104.771 463.062 102.348 463.758 100.671 464.883C101.361 461.857 102.824 459.121 104.841 456.898ZM112.28 468.842C112.28 465.686 114.846 463.118 118 463.118C121.154 463.118 123.72 465.686 123.72 468.842C123.72 471.998 121.154 474.566 118 474.566C114.846 474.566 112.28 471.998 112.28 468.842ZM116.912 476.442V486.343C116.373 486.031 115.858 485.469 115.423 484.702C114.62 483.286 114.177 481.381 114.177 479.34C114.177 478.065 114.351 476.844 114.676 475.762C115.37 476.097 116.122 476.329 116.912 476.442ZM110.761 471.383C111.023 472.129 111.396 472.823 111.862 473.444L104.864 480.447C104.704 479.845 104.737 479.083 104.971 478.233C105.404 476.663 106.436 475.004 107.879 473.561C108.78 472.659 109.765 471.918 110.761 471.383ZM110.406 467.753H100.511C100.823 467.214 101.385 466.698 102.151 466.263C103.566 465.459 105.469 465.016 107.509 465.016C108.783 465.016 110.003 465.19 111.085 465.516C110.75 466.21 110.518 466.963 110.406 467.753ZM106.403 455.696C107.005 455.536 107.766 455.569 108.615 455.803C110.184 456.237 111.842 457.27 113.285 458.713C114.186 459.615 114.926 460.601 115.46 461.597C114.715 461.86 114.021 462.233 113.401 462.699L106.403 455.696ZM119.088 461.242V451.34C119.627 451.653 120.142 452.215 120.577 452.982C121.38 454.398 121.823 456.302 121.823 458.343C121.823 459.618 121.649 460.839 121.323 461.921C120.63 461.587 119.878 461.355 119.088 461.242ZM122.599 474.984L129.597 481.987C128.995 482.147 128.234 482.115 127.385 481.88C125.816 481.447 124.158 480.414 122.715 478.97C121.814 478.068 121.075 477.082 120.54 476.086C121.285 475.823 121.979 475.45 122.599 474.984ZM125.594 469.931H135.489C135.177 470.47 134.615 470.985 133.849 471.42C132.434 472.224 130.531 472.667 128.491 472.667C127.217 472.667 125.997 472.493 124.915 472.168C125.25 471.473 125.482 470.721 125.594 469.931ZM124.138 464.239L131.136 457.236C131.296 457.839 131.263 458.6 131.029 459.45C130.596 461.02 129.564 462.68 128.121 464.123C127.22 465.025 126.234 465.766 125.239 466.3C124.977 465.554 124.604 464.86 124.138 464.239ZM126.251 467.976C127.362 467.367 128.47 466.538 129.502 465.505C131.435 463.571 132.656 461.368 133.048 459.388C134.629 461.9 135.601 464.832 135.752 467.976H126.251ZM123.223 462.391C123.578 461.174 123.776 459.803 123.776 458.343C123.776 455.604 123.08 453.179 121.956 451.5C124.98 452.191 127.713 453.655 129.935 455.674L123.223 462.391ZM117.135 460.584C116.527 459.473 115.698 458.364 114.666 457.331C112.988 455.653 111.024 454.441 109.135 453.919C108.938 453.865 108.745 453.821 108.554 453.783C111.063 452.201 113.993 451.229 117.135 451.077V460.584ZM109.748 469.707C108.638 470.316 107.529 471.146 106.498 472.178C104.565 474.112 103.344 476.315 102.952 478.295C101.371 475.784 100.399 472.851 100.248 469.707H109.748ZM112.777 475.293C112.422 476.509 112.224 477.88 112.224 479.34C112.224 482.08 112.92 484.505 114.044 486.183C111.02 485.493 108.287 484.028 106.065 482.01L112.777 475.293ZM118.865 477.099C119.473 478.211 120.302 479.32 121.334 480.352C123.267 482.286 125.467 483.508 127.446 483.901C124.936 485.483 122.007 486.455 118.865 486.606V477.099ZM124.447 474.069C125.662 474.424 127.032 474.622 128.491 474.622C131.228 474.622 133.652 473.926 135.329 472.801C134.639 475.827 133.176 478.562 131.158 480.786L124.447 474.069Z" fill="#5CCD6A"/>
<path d="M121.209 468.831C121.203 467.061 119.759 465.625 117.99 465.631C116.22 465.636 114.786 467.082 114.792 468.852C114.797 470.623 116.241 472.059 118.011 472.053C119.78 472.047 121.215 470.602 121.209 468.831ZM116.745 468.846C116.742 468.153 117.304 467.587 117.996 467.585C118.688 467.583 119.254 468.145 119.256 468.838C119.258 469.53 118.697 470.096 118.004 470.098C117.312 470.1 116.747 469.539 116.745 468.846Z" fill="#5CCD6A"/>
<path d="M175 500.161C214.716 521.116 280.428 533.04 319.661 531.994C342.097 531.396 386.408 529.916 417.824 495.174M417.824 495.174L413.446 500.882M417.824 495.174L409.089 493.166" stroke="#78C081" stroke-width="2" stroke-linecap="round" stroke-linejoin="round"/>
</svg>
