<svg width="24" height="32" viewBox="0 0 24 32" fill="none" xmlns="http://www.w3.org/2000/svg">
<path d="M12 0.5C15.0487 0.50422 17.9713 1.71717 20.1271 3.87293C22.283 6.02885 23.496 8.95174 23.5 12.0007C23.4999 14.052 22.8324 16.2653 21.7938 18.4597C20.757 20.6502 19.3648 22.7918 17.9497 24.6913C15.1227 28.4857 12.2351 31.2728 12 31.4981C11.7649 31.2728 8.87727 28.4857 6.05033 24.6913C4.6352 22.7918 3.24302 20.6502 2.20623 18.4597C1.16753 16.2651 0.500071 14.0518 0.5 12.0003C0.504132 8.95153 1.71709 6.02877 3.87293 3.87293C6.02869 1.71717 8.95132 0.50422 12 0.5ZM12 18H12.0003C13.5912 17.999 15.1167 17.3666 16.2417 16.2417C17.3666 15.1167 17.999 13.5912 18 12.0003V12C18 10.8133 17.6481 9.65327 16.9888 8.66658C16.3295 7.67988 15.3925 6.91085 14.2961 6.45672C13.1997 6.0026 11.9933 5.88378 10.8295 6.11529C9.66557 6.3468 8.59647 6.91824 7.75736 7.75736C6.91824 8.59648 6.3468 9.66557 6.11529 10.8295C5.88378 11.9933 6.0026 13.1997 6.45672 14.2961C6.91085 15.3925 7.67988 16.3295 8.66658 16.9888C9.65327 17.6481 10.8133 18 12 18Z" fill="#78C081" stroke="#577A5B"/>
</svg>
