<svg width="212" height="66" viewBox="0 0 212 66" fill="none" xmlns="http://www.w3.org/2000/svg">
<path fill-rule="evenodd" clip-rule="evenodd" d="M74.5405 65.8872C66.6011 66.109 57.8274 66.4312 52.5277 60.9317C46.9738 55.1684 46.1994 46.5056 48.7719 39.147C51.103 32.4789 57.8953 28.635 64.8028 25.8184C71.3194 23.1613 78.4379 21.8776 85.0331 24.3614C92.1887 27.0563 98.2881 32.2182 100.235 39.1627C102.249 46.3439 100.274 54.213 94.9543 59.7463C89.9401 64.9615 82.0618 65.677 74.5405 65.8872Z" fill="#78C081" fill-opacity="0.15"/>
<path d="M80.079 32.8482V17.3843H88.0736C90.0198 17.3843 91.4271 17.7967 92.2955 18.6215C93.1788 19.4315 93.6204 20.7422 93.6204 22.5537C93.6204 24.3652 93.1788 25.6833 92.2955 26.508C91.4271 27.3327 90.0198 27.7451 88.0736 27.7451H83.2454V32.8482H80.079ZM83.2454 24.8291H87.8939C88.7922 24.8291 89.4435 24.6523 89.8477 24.2989C90.2669 23.9307 90.4765 23.349 90.4765 22.5537C90.4765 21.7731 90.2669 21.2061 89.8477 20.8527C89.4435 20.4845 88.7922 20.3004 87.8939 20.3004H83.2454V24.8291Z" fill="#495E4C"/>
<path d="M99.3774 33.047C97.8653 33.047 96.75 32.7672 96.0314 32.2075C95.3277 31.6332 94.9759 30.7201 94.9759 29.4682C94.9759 28.1869 95.3651 27.2738 96.1436 26.7289C96.9221 26.1693 98.1797 25.8894 99.9164 25.8894H103.42C103.36 25.1089 103.113 24.5493 102.679 24.2105C102.259 23.8571 101.601 23.6803 100.702 23.6803C99.2502 23.6803 98.3968 24.1884 98.1423 25.2046H95.2229C95.4026 23.7908 95.934 22.7672 96.8173 22.1339C97.7006 21.4859 99.0331 21.1619 100.815 21.1619C102.761 21.1619 104.176 21.5596 105.059 22.3549C105.942 23.1354 106.384 24.402 106.384 26.1545V32.8482H103.42V31.7657C102.566 32.6199 101.219 33.047 99.3774 33.047ZM97.9402 29.3357C97.9402 30.131 98.6663 30.5286 100.118 30.5286C101.137 30.5286 101.9 30.3519 102.409 29.9984C102.933 29.6302 103.27 29.0632 103.42 28.2974V28.0323H100.702C98.8609 28.0323 97.9402 28.4668 97.9402 29.3357Z" fill="#495E4C"/>
<path d="M108.462 29.181H111.381C111.666 30.0794 112.617 30.5286 114.233 30.5286C115.79 30.5286 116.569 30.2193 116.569 29.6008C116.569 29.0411 115.588 28.6288 113.627 28.3637C111.801 28.1575 110.506 27.7746 109.742 27.2149C108.979 26.6405 108.597 25.7864 108.597 24.6523C108.597 23.4594 109.001 22.5831 109.809 22.0235C110.618 21.4491 111.898 21.1619 113.65 21.1619C115.461 21.1619 116.808 21.4712 117.692 22.0898C118.59 22.6936 119.122 23.673 119.286 25.0279H116.367C116.202 24.5566 115.903 24.2179 115.469 24.0117C115.049 23.7908 114.428 23.6803 113.605 23.6803C112.182 23.6803 111.471 23.9675 111.471 24.5419C111.471 25.0721 112.37 25.455 114.166 25.6906C116.142 25.9705 117.512 26.3755 118.276 26.9056C119.039 27.4211 119.421 28.2385 119.421 29.3578C119.421 30.5949 118.994 31.5227 118.141 32.1413C117.303 32.7451 115.97 33.047 114.144 33.047C112.347 33.047 110.992 32.7377 110.079 32.1192C109.166 31.5006 108.627 30.5212 108.462 29.181Z" fill="#495E4C"/>
<path d="M126.867 33.047C124.816 33.047 123.326 32.5831 122.398 31.6552C121.485 30.7127 121.028 29.1958 121.028 27.1045C121.028 25.0279 121.492 23.5183 122.42 22.5758C123.349 21.6332 124.831 21.1619 126.867 21.1619C128.723 21.1619 130.116 21.5375 131.044 22.2886C131.972 23.025 132.519 24.2105 132.683 25.8453H129.764C129.599 25.1531 129.292 24.6523 128.843 24.3431C128.394 24.0338 127.758 23.8792 126.934 23.8792C125.901 23.8792 125.145 24.1369 124.666 24.6523C124.202 25.1531 123.97 25.9705 123.97 27.1045C123.97 28.2238 124.202 29.0411 124.666 29.5566C125.145 30.072 125.901 30.3298 126.934 30.3298C128.521 30.3298 129.464 29.6744 129.764 28.3637H132.683C132.519 29.9984 131.972 31.1913 131.044 31.9424C130.116 32.6788 128.723 33.047 126.867 33.047Z" fill="#495E4C"/>
<path d="M138.721 33.047C137.208 33.047 136.093 32.7672 135.375 32.2075C134.671 31.6332 134.319 30.7201 134.319 29.4682C134.319 28.1869 134.708 27.2738 135.487 26.7289C136.265 26.1693 137.523 25.8894 139.26 25.8894H142.763C142.703 25.1089 142.456 24.5493 142.022 24.2105C141.603 23.8571 140.944 23.6803 140.046 23.6803C138.593 23.6803 137.74 24.1884 137.485 25.2046H134.566C134.746 23.7908 135.277 22.7672 136.161 22.1339C137.044 21.4859 138.376 21.1619 140.158 21.1619C142.104 21.1619 143.519 21.5596 144.402 22.3549C145.285 23.1354 145.727 24.402 145.727 26.1545V32.8482H142.763V31.7657C141.909 32.6199 140.562 33.047 138.721 33.047ZM137.283 29.3357C137.283 30.131 138.009 30.5286 139.462 30.5286C140.48 30.5286 141.243 30.3519 141.752 29.9984C142.276 29.6302 142.613 29.0632 142.763 28.2974V28.0323H140.046C138.204 28.0323 137.283 28.4668 137.283 29.3357Z" fill="#495E4C"/>
<path d="M148.299 32.8482V16.2798H151.264V32.8482H148.299Z" fill="#495E4C"/>
<path d="M158.914 17.3843H162.261L167.65 29.5787L173.017 17.3843H176.386L169.424 32.8482H165.876L158.914 17.3843Z" fill="#495E4C"/>
<path d="M178.124 31.6332C177.181 30.6906 176.71 29.181 176.71 27.1045C176.71 25.0279 177.181 23.5183 178.124 22.5758C179.067 21.6332 180.595 21.1619 182.705 21.1619C184.801 21.1619 186.314 21.6332 187.242 22.5758C188.185 23.5183 188.657 25.0279 188.657 27.1045C188.657 27.3106 188.642 27.6199 188.612 28.0323H179.741C179.936 29.6965 180.931 30.5286 182.728 30.5286C184.075 30.5286 184.966 30.0794 185.4 29.181H188.454C188.155 30.6096 187.519 31.6111 186.546 32.1854C185.572 32.7598 184.292 33.047 182.705 33.047C180.595 33.047 179.067 32.5757 178.124 31.6332ZM182.728 23.6803C181.89 23.6803 181.223 23.8497 180.729 24.1884C180.235 24.5272 179.921 25.0868 179.786 25.8674H185.67C185.535 25.0868 185.221 24.5272 184.727 24.1884C184.248 23.8497 183.581 23.6803 182.728 23.6803Z" fill="#495E4C"/>
<path d="M193.699 32.8482H190.735V21.3608H193.699V22.5095C194.477 21.6111 195.735 21.1619 197.472 21.1619C199.118 21.1619 200.316 21.5743 201.065 22.399C201.828 23.2238 202.21 24.5493 202.21 26.3755V32.8482H199.246V26.3755C199.246 25.5065 199.029 24.8733 198.594 24.4756C198.175 24.078 197.509 23.8792 196.596 23.8792C195.563 23.8792 194.822 24.1369 194.373 24.6523C193.923 25.1531 193.699 25.9705 193.699 27.1045V32.8482Z" fill="#495E4C"/>
<path d="M208.609 21.3608H211.798V24.078H208.609V28.4962C208.609 29.0706 208.744 29.4903 209.013 29.7554C209.283 30.0058 209.732 30.131 210.361 30.131H212V32.8482H210.271C208.654 32.8482 207.479 32.5315 206.745 31.8983C206.012 31.265 205.645 30.2488 205.645 28.8497V24.078H203.938V21.3608H205.645V18.8645H208.609V21.3608Z" fill="#495E4C"/>
<path d="M82.8237 49.6375H85.9976V51.444H82.8237V59.8485H80.8675V51.444H79.031V49.6375H80.8675V49.284C80.8675 47.8178 81.1935 46.7509 81.8456 46.0832C82.4977 45.4156 83.5423 45.0818 84.9796 45.0818H86.1174V46.8883H85.0794C84.2942 46.8883 83.722 47.0782 83.3627 47.4578C83.0034 47.8374 82.8237 48.4462 82.8237 49.284V49.6375Z" fill="#78C081"/>
<path d="M91.5942 59.8485H89.6379V49.6375H91.5942V50.9531C92.2728 49.9713 93.4572 49.4804 95.1473 49.4804H96.0456V51.2869H94.5884C93.5238 51.2869 92.7586 51.5619 92.2928 52.1117C91.827 52.6484 91.5942 53.5255 91.5942 54.743V59.8485Z" fill="#78C081"/>
<path d="M100.081 58.7489C99.2563 57.911 98.8438 56.5757 98.8438 54.743C98.8438 52.9102 99.2563 51.5749 100.081 50.7371C100.92 49.8993 102.271 49.4804 104.134 49.4804C105.983 49.4804 107.314 49.8993 108.126 50.7371C108.951 51.5749 109.364 52.9102 109.364 54.743C109.364 54.8084 109.357 54.9066 109.344 55.0375C109.344 55.1684 109.344 55.2666 109.344 55.3321H100.84C100.906 56.3532 101.206 57.1059 101.738 57.5903C102.284 58.0747 103.089 58.3168 104.154 58.3168C105.711 58.3168 106.702 57.7932 107.128 56.7459H109.164C108.884 57.9503 108.312 58.7947 107.447 59.279C106.596 59.7634 105.491 60.0056 104.134 60.0056C102.271 60.0056 100.92 59.5867 100.081 58.7489ZM104.154 51.1691C103.155 51.1691 102.384 51.3851 101.838 51.8171C101.306 52.236 100.986 52.9233 100.88 53.879H107.407C107.301 52.9102 106.981 52.2164 106.449 51.7975C105.93 51.3786 105.165 51.1691 104.154 51.1691Z" fill="#78C081"/>
<path d="M112.8 56.7459H114.736C114.909 57.2957 115.242 57.695 115.734 57.9438C116.226 58.1925 116.925 58.3168 117.83 58.3168C119.6 58.3168 120.485 57.8979 120.485 57.0601C120.485 56.6805 120.245 56.3794 119.766 56.1568C119.287 55.9343 118.515 55.7445 117.451 55.5874C115.814 55.3779 114.656 55.0375 113.977 54.5663C113.312 54.0819 112.979 53.375 112.979 52.4455C112.979 51.4506 113.332 50.7109 114.037 50.2266C114.743 49.7291 115.854 49.4804 117.371 49.4804C118.888 49.4804 120.032 49.7422 120.804 50.2658C121.576 50.7764 122.055 51.6011 122.242 52.7401H120.305C120.132 52.1902 119.813 51.7909 119.347 51.5422C118.881 51.2935 118.209 51.1691 117.331 51.1691C115.694 51.1691 114.876 51.5684 114.876 52.367C114.876 52.7335 115.109 53.0281 115.574 53.2506C116.04 53.4601 116.779 53.6433 117.79 53.8004C119.507 54.0622 120.698 54.4157 121.363 54.8608C122.042 55.3059 122.381 55.9866 122.381 56.903C122.381 58.9714 120.844 60.0056 117.77 60.0056C116.24 60.0056 115.075 59.7438 114.277 59.2201C113.478 58.6965 112.986 57.8717 112.8 56.7459Z" fill="#78C081"/>
<path d="M126.379 45.121H128.335V51.012C129.054 49.9909 130.311 49.4804 132.108 49.4804C133.612 49.4804 134.71 49.8404 135.402 50.5604C136.094 51.2804 136.44 52.4259 136.44 53.9968V59.8485H134.503V53.9968C134.503 53.0542 134.264 52.367 133.785 51.9349C133.306 51.5029 132.56 51.2869 131.549 51.2869C130.418 51.2869 129.599 51.5619 129.094 52.1117C128.588 52.6484 128.335 53.5255 128.335 54.743V59.8485H126.379V45.121Z" fill="#78C081"/>
<path d="M151.587 60.0056C150.203 60.0056 149.192 59.7634 148.553 59.279C147.914 58.7947 147.595 58.0158 147.595 56.9423C147.595 55.8295 147.948 55.0375 148.653 54.5663C149.372 54.0819 150.523 53.8397 152.106 53.8397H155.64C155.64 52.9102 155.4 52.236 154.921 51.8171C154.442 51.3851 153.677 51.1691 152.625 51.1691C151.787 51.1691 151.142 51.3066 150.689 51.5815C150.237 51.8433 149.931 52.2688 149.771 52.8579H147.835C148.021 51.6797 148.5 50.8222 149.272 50.2855C150.044 49.7487 151.188 49.4804 152.705 49.4804C154.409 49.4804 155.646 49.8273 156.418 50.5211C157.203 51.2019 157.596 52.295 157.596 53.8004V59.8485H155.64V58.5329C154.854 59.5147 153.504 60.0056 151.587 60.0056ZM149.551 56.8637C149.551 57.3743 149.751 57.7474 150.15 57.983C150.563 58.2056 151.195 58.3168 152.046 58.3168C153.178 58.3168 154.023 58.1139 154.582 57.7081C155.154 57.3023 155.506 56.6543 155.64 55.7641V55.2928H152.605C150.569 55.2928 149.551 55.8165 149.551 56.8637Z" fill="#78C081"/>
<path d="M162.106 59.8485V49.6375H164.062V59.8485H162.106ZM162.086 47.6542C161.887 47.4578 161.787 47.1305 161.787 46.6723C161.787 46.2142 161.887 45.8869 162.086 45.6905C162.286 45.4941 162.619 45.396 163.084 45.396C163.55 45.396 163.883 45.4941 164.082 45.6905C164.282 45.8869 164.382 46.2142 164.382 46.6723C164.382 47.1305 164.282 47.4578 164.082 47.6542C163.883 47.8505 163.55 47.9487 163.084 47.9487C162.619 47.9487 162.286 47.8505 162.086 47.6542Z" fill="#78C081"/>
<path d="M170.572 59.8485H168.616V49.6375H170.572V50.9531C171.25 49.9713 172.435 49.4804 174.125 49.4804H175.023V51.2869H173.566C172.501 51.2869 171.736 51.5619 171.27 52.1117C170.805 52.6484 170.572 53.5255 170.572 54.743V59.8485Z" fill="#78C081"/>
<path fill-rule="evenodd" clip-rule="evenodd" d="M2.7293 26.0519C0.195665 34.9447 -0.383836 44.2642 0.219249 53.4157C-0.0536555 56.325 1.55345 59.1341 3.68952 61.1383C6.81613 64.0541 12.975 63.6565 17.018 63.2459C24.3797 62.5541 27.6546 55.9403 28.0858 49.5689C28.416 38.5555 28.4969 26.9829 28.4733 15.9501C28.4682 15.6359 28.4689 15.3062 28.4696 14.9671C28.4726 13.5133 28.476 11.8899 28.0252 10.6002C26.9302 6.99913 23.524 5.7061 20.1009 6.39787C19.4091 6.61387 18.7429 6.89881 18.113 7.24804C16.0574 8.34477 14.1362 9.65892 12.3854 11.1659C8.88519 14.1302 6.10147 17.7917 4.22859 21.8948C4.04359 22.2663 3.85583 22.7736 3.682 23.2432C3.58358 23.5092 3.48961 23.763 3.40314 23.9734C3.22412 24.4088 3.04133 25.0181 2.88159 25.5504C2.82788 25.7295 2.77678 25.8998 2.7293 26.0519ZM0.219249 53.4157C1.28728 44.1026 2.78994 34.8284 6.20967 26.0616C8.065 21.4434 11.1534 17.3744 15.165 14.2627C15.5327 13.9584 16.078 13.5644 16.5226 13.2432C16.6117 13.1789 16.6967 13.1174 16.7755 13.0602C16.7755 13.0602 19.5315 10.7457 21.024 10.6196C22.5166 10.4935 23.3353 10.597 23.6722 12.1874L23.7766 12.9471L23.8002 13.7875C23.7766 17.5987 23.7598 24.6425 23.8002 28.5216C23.8508 34.1172 23.9181 39.7128 24.0529 45.3051L24.1439 49.3846C24.1287 50.6558 23.9774 51.9221 23.6924 53.1635C23.0455 56.1019 21.4014 58.9628 18.4196 60.12C16.4992 60.7956 14.4137 61.0607 12.3921 61.2934C10.0236 61.4939 7.54387 61.6135 5.35727 60.6696C2.6855 59.1373 0.529215 56.4834 0.219249 53.4157Z" fill="#78C081"/>
<path d="M60.1902 28.5067C61.4847 31.6611 63.8427 36.5921 64.6575 42.5163C64.0735 31.6907 63.3132 31.6611 62.9369 30.0013C62.3346 27.3443 61.5288 24.7337 60.5261 22.1908C57.6525 15.635 52.5026 10.2392 45.9536 6.92247C45.3962 6.62326 44.7908 6.4155 44.1623 6.30772C43.802 6.28831 43.5933 6.23007 43.0916 6.23007C39.674 6.04241 37.0881 8.19401 36.4989 11.3519C36.1891 12.7205 36.2733 14.3997 36.2733 15.7489C36.2329 23.0708 36.2161 32.1561 36.3406 39.5201C36.3911 42.1667 36.4248 44.8134 36.4989 47.46C36.4872 48.8891 36.5998 50.3166 36.8356 51.7276C37.9636 58.1371 41.7279 63.0907 48.9199 63.3754C52.4957 63.6245 56.3106 63.7701 59.6372 62.2106C62.2467 60.8226 63.3092 58.4775 64.0735 55.8891C64.5732 54.1968 65.2502 52.465 68.094 49.6986C65.2502 51.3585 64.3088 52.1936 62.4064 56.8913C59.8576 61.0716 58.0278 61.5829 53.2668 61.295C51.9398 61.1963 50.6199 61.0234 49.3139 60.7773C48.1287 60.5476 46.8324 60.3276 45.7717 59.7743C42.5023 58.1662 41.1521 54.5554 40.7717 51.2035C40.6405 49.989 40.6101 48.7664 40.6808 47.5474C40.7952 42.94 40.9299 36.3299 40.9299 31.6611C40.9299 26.9922 41.0006 20.3239 40.9299 15.723C40.9434 14.3609 40.6437 12.2772 41.3676 11.1254C41.8794 10.2971 42.7157 10.0395 44.0983 10.6756C49.944 13.416 54.7203 17.8866 57.7247 23.43C58.6 25.1661 59.6303 27.1421 60.1902 28.5067Z" fill="#78C081"/>
<path d="M32.6461 14.0141C32.8837 13.5412 32.6866 12.9684 32.2059 12.7346C31.7253 12.5009 31.143 12.6947 30.9055 13.1676L26.3191 22.2976C26.0816 22.7704 26.2787 23.3433 26.7593 23.577C27.24 23.8108 27.8222 23.6169 28.0597 23.144L32.6461 14.0141Z" fill="#78C081"/>
<path d="M31.496 14.0141C31.2585 13.5412 31.4556 12.9684 31.9362 12.7346C32.4169 12.5009 32.9991 12.6947 33.2367 13.1676L37.823 22.2976C38.0606 22.7704 37.8635 23.3433 37.3828 23.577C36.9022 23.8108 36.32 23.6169 36.0824 23.144L31.496 14.0141Z" fill="#78C081"/>
<path d="M31.0659 1.94036C31.0659 1.41292 31.5006 0.985352 32.0367 0.985352C32.5729 0.985352 33.0076 1.41292 33.0076 1.94036V14.04C33.0076 14.5674 32.5729 14.995 32.0367 14.995C31.5006 14.995 31.0659 14.5674 31.0659 14.0399V1.94036Z" fill="#78C081"/>
<path d="M61.0647 59.7081C60.768 59.1392 60.468 58.6145 60.1621 58.0901C59.8562 57.5658 59.5447 57.0487 59.2179 56.5302C58.8912 56.0118 58.5479 55.5175 58.2138 55.025C58.1269 54.8963 58.0287 54.7799 57.9361 54.6562C57.8434 54.5324 57.7422 54.4162 57.6407 54.2953C57.5392 54.1745 57.4291 54.0611 57.3152 53.9364C57.2612 53.8762 57.2019 53.8189 57.1379 53.7648C57.0767 53.7062 57.0124 53.6477 56.9539 53.5843C57.3482 53.6634 57.7184 53.797 58.0465 53.9786C58.2125 54.0666 58.3702 54.1634 58.5186 54.2682C58.67 54.3706 58.8133 54.4798 58.9478 54.5952C59.4807 55.0499 59.9258 55.5616 60.2703 56.1152C60.6179 56.6636 60.8747 57.2448 61.0351 57.8459C61.2131 58.4542 61.2232 59.0883 61.0647 59.7081Z" fill="#78C081"/>
<path d="M60.7808 53.5603C60.5082 52.9158 60.0615 52.3489 59.4828 51.9129C58.9269 51.4881 58.2918 51.1597 57.6074 50.9431C56.9175 50.7321 56.204 50.59 55.479 50.519C54.7462 50.4377 53.9941 50.3994 53.2327 50.3623L53.8675 49.738C53.99 50.6491 54.1336 51.5545 54.2345 52.4684C54.2957 52.9239 54.3388 53.3847 54.4144 53.8065C54.4435 54.0229 54.4899 54.2283 54.5452 54.4297C54.6027 54.6316 54.6754 54.8293 54.7628 55.0213C55.1193 55.8024 55.6896 56.4817 56.4183 56.9931C57.1821 57.5372 58.0847 57.8929 59.0431 58.0276C58.0087 58.1461 56.9656 57.9605 56.0623 57.4971C55.1188 57.0255 54.3493 56.3071 53.848 55.4301C53.7235 55.2053 53.6166 54.9724 53.5283 54.733C53.4433 54.4993 53.3755 54.2604 53.3254 54.0178C53.2157 53.528 53.1548 53.0753 53.0828 52.6327C52.9376 51.7159 52.8155 50.8077 52.693 49.8966L52.6019 49.219L53.3309 49.2719C54.1135 49.3255 54.8917 49.4176 55.6623 49.5479C56.4555 49.6764 57.2247 49.9027 57.9497 50.2207C58.6843 50.5437 59.3339 51.0081 59.856 51.5833C60.3755 52.1369 60.6981 52.8265 60.7808 53.5603Z" fill="#78C081"/>
<path d="M62.1065 53.2065C61.8548 52.7996 61.6784 52.345 61.5889 51.8731C61.4979 51.3949 61.468 50.9108 61.5 50.436C61.5835 49.4866 61.8188 48.5775 62.195 47.7511C62.5638 46.9086 63.0464 46.1435 63.6272 45.48C63.9317 45.1393 64.2729 44.8419 64.6442 44.5938C65.0122 44.3568 65.4 44.1565 65.8036 43.9949C66.1988 43.8255 66.6006 43.6991 66.9966 43.5791C67.3927 43.459 67.7823 43.3546 68.1789 43.2479C68.9643 43.0461 69.7308 42.846 70.4545 42.5876C71.1526 42.3518 71.8087 42.0044 72.404 41.5553C73.0311 41.09 73.5371 40.4537 73.8805 39.6983C74.1381 39.0686 74.3528 38.4032 74.5895 37.7577C74.5237 37.946 74.7409 38.6105 74.7776 38.8376C74.9758 40.0506 75.0611 41.2717 75.0321 42.4807C75.0232 43.2751 74.9653 44.0626 74.8586 44.8378L74.8105 45.1376L74.6428 45.9907C74.5644 46.3636 74.479 46.7388 74.3747 47.1156C74.1596 47.8829 73.8365 48.5969 73.4166 49.2321C73.207 49.5437 72.9764 49.8359 72.7266 50.1066C72.4717 50.3701 72.217 50.6109 71.9548 50.8407C71.4296 51.3015 70.8708 51.7143 70.283 52.0757C69.1152 52.7963 67.8375 53.2978 66.4955 53.5626C67.7034 53.0141 68.8375 52.304 69.875 51.4463C70.3855 51.026 70.8687 50.5672 71.3216 50.0727C71.769 49.6019 72.1664 49.0748 72.5073 48.5C72.8187 47.9284 73.0448 47.2979 73.1778 46.6305C73.2516 46.2907 73.3143 45.941 73.3694 45.5802L73.449 45.0355L73.4899 44.7605L73.5221 44.5064C73.5896 43.7906 73.6192 43.067 73.6108 42.3394C73.61 41.5999 74.038 42.3129 73.3143 42.8871C72.6048 43.4316 71.8141 43.8414 70.9701 44.1021C70.1623 44.3653 69.3507 44.5351 68.5628 44.7061C67.775 44.8772 66.9866 45.0349 66.2652 45.2654C65.9106 45.3743 65.5676 45.5178 65.24 45.6942C64.9171 45.8707 64.6164 46.0897 64.3439 46.3471C63.769 46.8813 63.2706 47.5097 62.8631 48.2145C62.4353 48.9164 62.1198 49.7034 61.9292 50.5442C61.7186 51.4003 61.7812 52.339 62.1065 53.2065Z" fill="#78C081"/>
</svg>
