<svg width="1308" height="1315" viewBox="0 0 1308 1315" fill="none" xmlns="http://www.w3.org/2000/svg">
<g style="mix-blend-mode:overlay">
<path d="M241.197 1193.79L328.879 1253.87L331.145 1250.57L243.492 1190.43L241.197 1193.79Z" fill="#B7B7B7"/>
<path d="M479.808 1032.92L392.156 972.786L389.861 976.144L477.542 1036.25L479.808 1032.92Z" fill="#B7B7B7"/>
<path d="M470.54 1046.53L382.859 986.397L380.593 989.726L468.245 1049.86L470.54 1046.53Z" fill="#B7B7B7"/>
<path d="M461.244 1060.14L373.562 1000.01L371.296 1003.34L458.948 1063.47L461.244 1060.14Z" fill="#B7B7B7"/>
<path d="M451.946 1073.72L364.265 1013.62L361.999 1016.95L449.68 1077.05L451.946 1073.72Z" fill="#B7B7B7"/>
<path d="M442.649 1087.34L354.997 1027.2L352.702 1030.56L440.383 1090.66L442.649 1087.34Z" fill="#B7B7B7"/>
<path d="M433.352 1100.94L345.7 1040.81L343.405 1044.14L431.086 1104.27L433.352 1100.94Z" fill="#B7B7B7"/>
<path d="M424.056 1114.53L336.403 1054.42L334.108 1057.78L421.79 1117.88L424.056 1114.53Z" fill="#B7B7B7"/>
<path d="M414.788 1128.14L327.106 1068.03L324.84 1071.36L412.493 1131.47L414.788 1128.14Z" fill="#B7B7B7"/>
<path d="M405.491 1141.75L317.809 1081.61L315.543 1084.97L403.195 1145.07L405.491 1141.75Z" fill="#B7B7B7"/>
<path d="M308.526 1095.19L306.25 1098.55L393.924 1158.67L396.2 1155.32L308.526 1095.19Z" fill="#B7B7B7"/>
<path d="M296.949 1112.16L384.631 1172.27L386.897 1168.94L299.216 1108.83L296.949 1112.16Z" fill="#B7B7B7"/>
<path d="M287.652 1125.77L375.334 1185.88L377.6 1182.55L289.948 1122.44L287.652 1125.77Z" fill="#B7B7B7"/>
<path d="M278.355 1139.35L366.037 1199.49L368.332 1196.16L280.65 1136.02L278.355 1139.35Z" fill="#B7B7B7"/>
<path d="M274.622 1144.37L272.361 1147.74L360.449 1207.49L362.71 1204.12L274.622 1144.37Z" fill="#B7B7B7"/>
<path d="M262.051 1163.28L259.792 1166.61L347.466 1226.73L349.725 1223.4L262.051 1163.28Z" fill="#B7B7B7"/>
<path d="M250.493 1180.18L338.175 1240.29L340.441 1236.96L252.76 1176.85L250.493 1180.18Z" fill="#B7B7B7"/>
<path d="M700.174 1143.44C690.249 1153.99 679.419 1163.63 667.809 1172.27C657.55 1182 646.213 1190.52 634.02 1197.65C609.475 1211.97 582.296 1221.14 554.125 1224.61C511.624 1229.91 468.485 1223.67 429.198 1206.53C415.327 1202.33 401.798 1197.06 388.727 1190.78C399.586 1200.97 411.588 1209.85 424.491 1217.25C465.718 1235.22 510.98 1241.78 555.578 1236.23C585.283 1232.54 613.94 1222.85 639.831 1207.75C652.736 1200.12 664.785 1191.11 675.769 1180.88C685.555 1169.57 693.765 1156.98 700.174 1143.44V1143.44Z" fill="#B7B7B7"/>
<path d="M996.717 981.957L994.683 980.759C986.503 994.307 973.315 1004.04 958.008 1007.84C942.701 1011.63 926.523 1009.17 913.015 1001L911.795 1003.01C925.842 1011.51 942.666 1014.06 958.582 1010.12C974.499 1006.17 988.211 996.045 996.717 981.957V981.957Z" fill="#B7B7B7"/>
<path d="M850.552 1066.45L850.029 1071.21C849.516 1076.11 850.952 1081 854.022 1084.84C857.093 1088.67 861.549 1091.12 866.415 1091.66L885.531 1093.76L890.093 1052.05L871.005 1049.95C868.583 1049.68 866.132 1049.89 863.792 1050.57C861.452 1051.26 859.269 1052.4 857.369 1053.93C855.469 1055.46 853.888 1057.36 852.718 1059.51C851.548 1061.66 850.812 1064.02 850.552 1066.45V1066.45ZM870.482 1054.77L885.009 1056.38L881.464 1088.77L866.938 1087.19C864.681 1086.92 862.52 1086.12 860.633 1084.85C858.556 1083.44 856.902 1081.48 855.848 1079.19C854.794 1076.9 854.379 1074.36 854.648 1071.85L855.2 1067.06C855.389 1065.24 855.934 1063.47 856.805 1061.86C857.676 1060.24 858.855 1058.82 860.275 1057.67C861.695 1056.51 863.328 1055.65 865.079 1055.14C866.831 1054.62 868.667 1054.45 870.482 1054.65V1054.77Z" fill="#B7B7B7"/>
<path d="M847.995 1103.22C845.23 1101.31 841.996 1100.18 838.642 1099.98C835.288 1099.77 831.943 1100.49 828.965 1102.06L824.695 1104.28C820.344 1106.55 817.069 1110.46 815.587 1115.16C814.106 1119.86 814.539 1124.96 816.792 1129.33L825.683 1146.42L862.87 1127.06L853.951 1109.85C852.543 1107.18 850.496 1104.9 847.995 1103.22ZM827.658 1140.11L820.947 1127.17C819.256 1123.91 818.918 1120.11 820.007 1116.59C821.095 1113.08 823.522 1110.14 826.758 1108.42L831.028 1106.2C833.259 1105.04 835.76 1104.51 838.266 1104.67C840.773 1104.82 843.191 1105.66 845.264 1107.08C847.134 1108.38 848.667 1110.11 849.738 1112.13L856.42 1125.04L827.658 1140.11Z" fill="#B7B7B7"/>
<path d="M1024.35 1114.61L1060.37 1139.29L1087.25 1099.92L1051.22 1075.24C1046.62 1072.08 1040.97 1070.88 1035.5 1071.89C1030.02 1072.9 1025.17 1076.05 1021.99 1080.65L1018.88 1085.23C1017.31 1087.52 1016.21 1090.09 1015.63 1092.81C1015.06 1095.53 1015.02 1098.33 1015.53 1101.06C1016.04 1103.8 1017.08 1106.4 1018.59 1108.72C1020.1 1111.05 1022.06 1113.05 1024.35 1114.61V1114.61ZM1022.66 1087.95L1025.8 1083.36C1028.26 1079.77 1032.04 1077.31 1036.3 1076.51C1040.56 1075.72 1044.96 1076.64 1048.55 1079.1L1080.77 1101.09L1059.18 1132.72L1027.02 1110.67C1023.45 1108.23 1020.98 1104.47 1020.17 1100.21C1019.35 1095.95 1020.25 1091.54 1022.66 1087.95V1087.95Z" fill="#B7B7B7"/>
<path d="M1057.79 1065.66L1093.78 1090.34L1120.69 1050.97L1084.66 1026.29C1080.06 1023.13 1074.4 1021.94 1068.92 1022.97C1063.44 1024 1058.59 1027.17 1055.43 1031.78L1052.29 1036.34C1050.74 1038.63 1049.65 1041.2 1049.08 1043.91C1048.51 1046.62 1048.48 1049.42 1048.99 1052.15C1049.5 1054.87 1050.54 1057.46 1052.05 1059.78C1053.56 1062.1 1055.51 1064.1 1057.79 1065.66V1065.66ZM1056.16 1039L1059.27 1034.41C1061.74 1030.84 1065.51 1028.39 1069.77 1027.59C1074.03 1026.79 1078.43 1027.71 1082.02 1030.15L1114.18 1052.2L1092.56 1083.83L1060.43 1061.78C1058.66 1060.57 1057.15 1059.01 1055.97 1057.21C1054.8 1055.41 1053.99 1053.39 1053.6 1051.28C1053.2 1049.16 1053.22 1046.99 1053.66 1044.88C1054.1 1042.77 1054.95 1040.78 1056.16 1039V1039Z" fill="#B7B7B7"/>
<path d="M1106.19 994.778L1142.21 1019.46L1169.09 980.117L1133.06 955.408C1128.45 952.265 1122.8 951.079 1117.32 952.108C1111.85 953.136 1107 956.295 1103.83 960.899L1100.73 965.484C1099.17 967.767 1098.08 970.337 1097.51 973.046C1096.94 975.754 1096.91 978.549 1097.41 981.27C1097.92 983.991 1098.96 986.584 1100.46 988.902C1101.97 991.22 1103.91 993.217 1106.19 994.778V994.778ZM1104.59 968.113L1107.7 963.557C1110.16 959.964 1113.93 957.497 1118.2 956.698C1122.46 955.898 1126.87 956.831 1130.45 959.292L1162.61 981.343L1140.99 1013L1108.83 990.923C1107.06 989.71 1105.54 988.156 1104.37 986.351C1103.19 984.546 1102.38 982.525 1101.99 980.405C1101.6 978.285 1101.62 976.108 1102.07 973.998C1102.51 971.888 1103.37 969.888 1104.59 968.113V968.113Z" fill="#B7B7B7"/>
<path d="M1139.63 945.829L1175.62 970.508L1202.53 931.167L1166.53 906.458C1161.92 903.314 1156.26 902.127 1150.78 903.155C1145.3 904.183 1140.45 907.344 1137.27 911.949L1134.17 916.534C1132.61 918.816 1131.51 921.386 1130.94 924.095C1130.37 926.804 1130.34 929.6 1130.84 932.322C1131.35 935.044 1132.39 937.638 1133.9 939.956C1135.4 942.274 1137.35 944.27 1139.63 945.829V945.829ZM1138.03 919.163L1141.14 914.607C1143.6 911.014 1147.37 908.547 1151.64 907.748C1155.9 906.948 1160.31 907.882 1163.89 910.343L1196.02 932.394L1174.4 964.024L1142.27 941.973C1140.5 940.758 1138.99 939.203 1137.81 937.397C1136.64 935.592 1135.84 933.572 1135.44 931.453C1135.05 929.334 1135.07 927.158 1135.52 925.049C1135.96 922.94 1136.82 920.94 1138.03 919.163V919.163Z" fill="#B7B7B7"/>
<path d="M886.897 756.19L983.934 822.723C993.172 829.06 1005.17 832.595 1009.21 826.666L1026.47 801.402L891.342 708.758L874.085 733.993C870.046 739.951 877.658 749.881 886.897 756.19ZM877.949 736.651L892.475 715.242L1019.9 802.628L1005.37 824.008C1003.89 826.169 995.845 825.234 986.548 818.867L889.541 752.335C880.302 745.997 876.496 738.929 877.949 736.651V736.651Z" fill="#B7B7B7"/>
<path d="M876.235 1021.33L893.492 996.063C897.559 990.221 889.918 980.203 880.68 973.866L783.672 907.333C774.433 900.995 762.434 897.461 758.367 903.419L741.11 928.77L876.235 1021.33ZM762.231 906.077C763.684 903.916 771.76 904.85 781.028 911.217L878.036 977.75C887.304 984.088 891.11 991.273 889.657 993.434L875.131 1014.81L747.734 927.456L762.231 906.077Z" fill="#B7B7B7"/>
<path d="M890.354 1314.3C888.503 1310.9 887.626 1307.06 887.82 1303.19C888.015 1299.32 889.275 1295.58 891.458 1292.39C894.506 1287.98 899.118 1284.89 904.351 1283.78C909.584 1282.67 915.042 1283.6 919.61 1286.4C924.177 1289.2 927.509 1293.65 928.925 1298.83C930.34 1304.02 929.731 1309.55 927.222 1314.3H932.394C934.039 1310.38 934.695 1306.12 934.302 1301.88C933.91 1297.65 932.481 1293.58 930.144 1290.04C927.806 1286.5 924.633 1283.59 920.907 1281.58C917.181 1279.57 913.017 1278.52 908.788 1278.52C904.559 1278.52 900.396 1279.57 896.67 1281.58C892.944 1283.59 889.77 1286.5 887.433 1290.04C885.096 1293.58 883.667 1297.65 883.274 1301.88C882.882 1306.12 883.537 1310.38 885.183 1314.3H890.354Z" fill="#B7B7B7"/>
<path d="M860.982 1030.12L806.362 992.676L739.047 1091.16L793.695 1128.63L860.982 1030.12ZM745.555 1089.96L807.67 999.16L854.59 1031.29L792.475 1122.12L745.555 1089.96Z" fill="#B7B7B7"/>
<path d="M808.774 1006.49L751.511 1090.34L761.795 1097.38L819.059 1013.47L808.774 1006.49ZM760.575 1090.87L758.019 1089.09L809.994 1013L812.551 1014.79L760.575 1090.87Z" fill="#B7B7B7"/>
<path d="M624.637 358.482L625.043 357.898L620.686 354.978L618.448 353.459C615.892 351.56 613.219 349.662 610.314 347.617L610.168 347.851C575.741 325.041 553.748 310.437 516.502 285.437L515.282 287.306C502.992 278.894 486.432 267.504 470.221 256.318L441.516 236.603L442.243 235.522C407.699 212.157 379.372 192.881 359.965 179.504L479.111 2.57018L475.334 0H472.429L444.509 41.4734L389.512 3.5048L391.923 0H372.08L0 544.616V573.648L65.3399 477.996L155.404 539.71L133.033 572.45L135.096 573.852L130.593 580.424L62.8995 533.226L61.5921 535.183L73.5038 543.448C62.6427 557.896 57.8683 576.057 60.211 594.013C62.5537 611.968 71.8256 628.278 86.0256 639.421L87.4782 637.581C73.7641 626.791 64.824 611.009 62.5897 593.647C60.3554 576.284 65.0063 558.735 75.5375 544.792L129.285 582.147L86.6066 644.445L84.6891 643.101L57.1179 683.436L71.6444 693.453L31.5224 752.363L0 730.779V750.611L161.011 861.012L170.25 847.489L210.459 788.579L233.498 804.38C202.982 851.535 191.913 908.775 202.633 963.989C213.353 1019.2 245.021 1068.06 290.935 1100.21L291.894 1100.89L344.189 1026L343.231 1025.33C317.106 1006.82 298.994 978.978 292.591 947.498C286.187 916.017 291.975 883.266 308.774 855.93L324.84 866.97L322.777 869.891L323.01 870.037C299.768 912.036 313.742 980.146 353.225 1009.7L356.13 1005.96C317.432 976.962 304.3 909.32 328.849 869.511L329.721 870.124L357.321 829.732L355.375 828.417L403.835 757.708L405.781 759.052L431.929 720.849L471.644 662.699L469.291 661.092C496.688 621.371 522.603 583.899 547.443 548.063L549.157 549.231L584.166 498.002L589.628 489.971C590.574 489.018 591.421 487.971 592.156 486.846L598.809 477.149C605.81 466.868 617.228 450.045 632.684 427.089L626.874 423.175C609.704 448.643 599.419 463.831 593.289 472.826C592.626 473.265 592.045 473.819 591.575 474.462V474.462L590.964 475.426C590.471 476.098 589.919 476.915 589.308 477.85L583.876 486.057L402.76 361.841L227.048 241.276L294.509 142.528L353.08 182.98L352.818 183.33L369.582 195.013C387.769 207.455 411.069 223.314 438.204 241.743L440.093 238.823L468.768 258.566C482.191 267.796 495.845 277.2 507.118 284.852L513.858 289.496L512.493 291.512C552.498 318.352 574.898 333.248 614.003 359.154C627.891 369.581 635.967 380.125 637.943 390.522C639.599 399.284 637.129 408.251 630.36 417.859L636.171 421.919C644.073 410.645 646.92 399.956 644.887 389.208C642.853 378.46 636.258 368.471 624.637 358.482ZM69.2911 472.213L144.277 362.454L319.843 482.844L303.632 506.56L305.549 507.874L269.175 561.118L267.257 559.804L244.858 592.603L159.268 533.897L69.2911 472.213ZM33.6142 753.824L73.8233 694.943L80.2731 699.353L40.0639 758.234L33.6142 753.824ZM42.1557 759.665L82.3649 700.784L88.7856 705.224L48.6055 764.104L42.1557 759.665ZM50.6973 765.506L90.9064 706.801L97.3271 711.211L57.1179 769.946L50.6973 765.506ZM59.2097 771.348L99.448 712.642L105.898 717.082L65.6595 775.787L59.2097 771.348ZM67.7513 777.189L107.96 718.483L114.41 722.894L74.201 781.657L67.7513 777.189ZM76.2928 783.03L116.531 724.325L122.952 728.735L82.7426 787.499L76.2928 783.03ZM84.8344 788.872L124.927 730.166L131.377 734.576L91.2841 793.369L84.8344 788.872ZM93.3759 794.713L133.643 736.007L140.093 740.447L99.8257 799.211L93.3759 794.713ZM101.917 800.554L142.156 741.849L148.576 746.288L108.367 805.081L101.917 800.554ZM110.459 806.395L150.668 747.69L157.118 752.1L116.909 810.952L110.459 806.395ZM119.001 812.237L159.21 753.531L165.601 757.912L125.45 816.793L119.001 812.237ZM127.542 818.078L167.751 759.373L174.317 763.783L133.992 822.664L127.542 818.078ZM136.084 823.919L176.293 765.214L182.743 769.624L142.533 828.505L136.084 823.919ZM144.625 829.761L184.834 771.055L191.284 775.466L151.075 834.346L144.625 829.761ZM159.616 840.042L153.167 835.631L193.376 776.897L199.826 781.336L159.616 840.042ZM168.158 845.883L161.708 841.443L201.917 782.738L208.367 787.148L168.158 845.883ZM205.055 882.041L289.744 898.864C289.134 902.106 288.64 905.377 288.292 908.648L202.469 900.032C203.08 893.899 203.922 887.882 205.055 882.041ZM202.15 902.485L287.972 911.101C287.682 914.372 287.507 917.644 287.478 920.944L201.278 920.535C201.356 914.343 201.675 908.249 202.237 902.252L202.15 902.485ZM202.15 940.863C201.627 934.885 201.356 928.888 201.336 922.872L287.623 922.93C287.623 926.201 287.623 929.472 288.03 932.714L202.15 940.863ZM202.353 943.17L288.175 935.401C288.495 938.643 288.96 941.885 289.512 945.098L204.852 960.957C203.864 954.902 203.041 948.895 202.382 942.937L202.353 943.17ZM340.994 1026.88L291.284 1097.91C285.996 1094.17 280.97 1090.17 276.118 1086.02L332.713 1020.36C335.415 1022.38 338.146 1024.57 341.023 1026.64L340.994 1026.88ZM330.912 1018.84L274.375 1084.27C269.582 1080.09 265.078 1075.71 260.75 1071.18L323.475 1011.48C325.857 1013.94 328.297 1016.39 330.941 1018.61L330.912 1018.84ZM321.819 1010.08L259.123 1069.49C254.881 1064.93 250.872 1060.2 247.066 1055.35L315.224 1002.11C317.345 1004.71 319.582 1007.31 321.848 1009.79L321.819 1010.08ZM313.771 1000.27L245.613 1053.51C241.894 1048.61 238.408 1043.57 235.154 1038.41L307.96 992.091C309.849 994.895 311.766 997.611 313.771 1000.27ZM306.798 990.105L233.905 1036.46C230.67 1031.3 227.697 1026.01 224.985 1020.6L301.888 981.489C303.428 984.41 305.055 987.185 306.798 990.105ZM300.988 979.386L224.085 1018.52C221.412 1013.11 218.971 1007.6 216.763 1001.99L296.978 970.42C298.053 973.458 299.419 976.466 300.842 979.386H300.988ZM296.136 968.23L215.776 999.802C213.626 994.194 211.737 988.528 209.965 982.774L292.766 958.942C293.783 962.096 294.829 965.163 295.991 968.23H296.136ZM292.359 956.693L209.558 980.496C207.931 974.655 206.653 968.814 205.433 962.972L290.122 947.113C290.529 950.384 291.371 953.539 292.214 956.693H292.359ZM290.325 896.41L205.636 879.617C206.827 873.629 208.251 867.671 209.965 861.771L292.766 886.714C291.662 889.927 290.848 893.168 290.18 896.41H290.325ZM293.434 884.465L210.517 859.552C212.299 853.71 214.342 847.869 216.647 842.028L296.688 874.944C295.41 878.078 294.325 881.252 293.434 884.465V884.465ZM297.734 872.782L217.548 839.837C219.93 833.996 222.584 828.281 225.508 822.693L301.976 863.407C300.378 866.474 298.925 869.599 297.589 872.753L297.734 872.782ZM303.225 861.392L226.612 820.707C229.305 815.683 232.21 810.728 235.328 805.841L306.827 854.879C305.646 856.981 304.397 859.143 303.08 861.362L303.225 861.392ZM400.145 755.109L401.307 755.926L395.497 764.367L326.554 717.111L325.247 719.038L337.013 727.245C326.246 741.762 321.588 759.953 324.045 777.892C326.502 795.831 335.876 812.079 350.145 823.131L351.569 821.291C337.777 810.595 328.721 794.876 326.357 777.527C323.993 760.179 328.509 742.591 338.931 728.56L393.957 766.324C379.837 786.924 366.008 807.087 352.469 826.811L351.424 826.11L327.833 860.661L66.8216 681.654L90.4416 647.073L86.9262 644.678L88.5241 645.759L136.868 574.962L138.815 576.276L161.069 543.682L422.109 722.66L400.145 755.109ZM404.561 371.479L579.982 491.752L578.414 494.118L543.55 545.259L545.7 546.748L507.496 601.657L449.245 561.702C458.553 546.842 473.281 536.236 490.272 532.159C507.264 528.081 525.169 530.854 540.151 539.885L541.342 537.87C525.861 528.561 507.375 525.702 489.827 529.903C472.279 534.105 457.059 545.034 447.414 560.359L440.674 555.744L439.338 557.672L446.107 562.286C435.365 576.802 430.729 594.979 433.196 612.899C435.663 630.82 445.037 647.048 459.297 658.084L460.72 656.244C446.943 645.583 437.883 629.908 435.492 612.595C433.101 595.283 437.57 577.72 447.937 563.688L506.043 603.643L467.344 659.778L465.805 658.727L426.903 715.709L251.453 595.377L273.097 563.688L271.179 562.374L307.554 509.13L306.595 508.458L309.5 510.445L345.729 457.288L343.783 455.974L380.186 402.73L379.024 401.913L382.103 404.045L404.561 371.479ZM398.751 367.507L377.048 399.284L317.461 358.395L316.153 360.322L326.758 367.595C317.092 380.6 312.917 396.911 315.136 412.991C317.355 429.07 325.79 443.623 338.611 453.492L340.035 451.622C327.692 442.115 319.577 428.097 317.45 412.612C315.324 397.127 319.357 381.423 328.675 368.909L377.687 402.497L342.068 454.631L340.151 453.316L323.94 477.032L148.17 356.642L223.068 247.088L398.751 367.507ZM388.03 5.60768L443.027 43.5763L438.698 50.0894L383.498 12.1208L388.03 5.60768ZM382.22 14.1652L437.42 52.1339L432.888 58.6762L377.687 20.7075L382.22 14.1652ZM376.409 22.7228L431.609 60.6914L427.077 67.1753L371.877 29.2066L376.409 22.7228ZM370.598 31.2803L425.799 69.395L421.267 75.9373L366.066 37.735L370.598 31.2803ZM364.788 39.8379L419.988 77.9817L415.456 84.4656L360.256 46.2925L364.788 39.8379ZM358.977 48.3954L414.178 86.5685L409.645 93.0524L354.445 54.8501L358.977 48.3954ZM353.167 56.953L408.541 95.1553L403.835 101.668L348.634 63.4076L353.167 56.953ZM347.356 65.5105L402.76 103.771L398.024 110.255L342.824 71.9652L347.356 65.5105ZM341.546 74.0681L397.007 112.358L392.65 118.842L336.839 80.5227L341.546 74.0681ZM335.735 82.6256L391.255 120.945L386.868 127.458L330.999 89.0803L335.735 82.6256ZM329.924 91.1831L385.503 129.561L381.116 136.045L325.16 97.6378L329.924 91.1831ZM324.114 99.7407L379.343 138.147L374.985 144.631L319.32 106.195L324.114 99.7407ZM318.303 108.298L373.998 146.734L369.64 153.247L313.451 114.753L318.303 108.298ZM312.493 116.856L368.245 155.35L363.887 161.834L307.612 123.31L312.493 116.856ZM354.445 180.877L295.933 140.426L300.349 133.971L356.188 172.524L353.777 176.116L356.682 177.956L354.445 180.877ZM301.772 131.868L306.188 125.413L361.999 163.937L357.612 170.421L301.772 131.868Z" fill="#B7B7B7"/>
<path d="M403.08 757.183L403.719 757.622L403.08 757.183Z" fill="#B7B7B7"/>
<path d="M280.36 1116.37C269.791 1106.42 259.991 1095.68 251.045 1084.24C241.06 1074.13 231.989 1063.16 223.939 1051.44C207.795 1027.98 195.986 1001.79 189.076 974.129C182.105 946.558 180.8 917.847 185.241 889.751C187.475 875.73 191.296 862.011 196.629 848.862C200.467 834.894 205.512 821.29 211.708 808.206C201.431 819.068 192.638 831.257 185.56 844.452C180.044 858.454 176.05 873.016 173.649 887.882C168.965 917.543 170.339 947.852 177.687 976.962C188.645 1020.67 211.127 1060.59 242.765 1092.53C254.344 1101.9 266.959 1109.9 280.36 1116.37V1116.37Z" fill="#B7B7B7"/>
<path d="M244.509 518.535C243.491 510.764 244.022 502.867 246.072 495.306C248.122 487.744 251.65 480.668 256.449 474.491L254.59 473.06C249.624 479.495 245.972 486.853 243.845 494.712C241.717 502.57 241.155 510.774 242.192 518.851C243.229 526.929 245.843 534.721 249.886 541.779C253.928 548.837 259.318 555.022 265.746 559.979L267.17 558.139C260.975 553.372 255.782 547.418 251.892 540.619C248.002 533.821 245.493 526.315 244.509 518.535V518.535Z" fill="#B7B7B7"/>
<path d="M205.607 641.233C208.383 643.14 211.623 644.253 214.98 644.454C218.336 644.655 221.684 643.935 224.666 642.372L228.907 640.181C233.258 637.909 236.533 633.993 238.015 629.295C239.497 624.597 239.063 619.499 236.81 615.122L227.92 598.036L190.761 617.4L199.651 634.486C201.06 637.189 203.104 639.505 205.607 641.233V641.233ZM225.944 604.345L232.655 617.283C234.345 620.542 234.682 624.341 233.593 627.85C232.504 631.358 230.078 634.29 226.845 636.005L222.574 638.225C220.346 639.387 217.846 639.923 215.34 639.773C212.834 639.624 210.414 638.796 208.338 637.377V637.377C206.469 636.074 204.935 634.342 203.864 632.325L197.153 619.386L225.944 604.345Z" fill="#B7B7B7"/>
<path d="M203.079 678.003L203.602 673.213C204.092 668.32 202.643 663.429 199.571 659.602C196.498 655.775 192.049 653.32 187.187 652.768L168.071 650.666L163.509 692.402L182.597 694.505C187.488 695.038 192.39 693.6 196.229 690.507C200.068 687.414 202.531 682.918 203.079 678.003V678.003ZM183.12 689.686L168.594 688.108L172.138 655.718L186.664 657.295C188.474 657.488 190.228 658.038 191.826 658.914C193.423 659.789 194.833 660.973 195.975 662.398C197.117 663.822 197.967 665.459 198.479 667.215C198.99 668.971 199.151 670.81 198.954 672.629L198.431 677.594C197.994 681.261 196.127 684.604 193.24 686.888C190.352 689.172 186.681 690.21 183.033 689.773L183.12 689.686Z" fill="#B7B7B7"/>
<path d="M148.17 455.916L112.173 431.207L85.2703 470.578L121.267 495.257C125.875 498.417 131.54 499.613 137.022 498.584C142.505 497.555 147.36 494.384 150.523 489.766L153.632 485.181C155.192 482.901 156.288 480.334 156.858 477.627C157.428 474.92 157.46 472.126 156.952 469.407C156.445 466.687 155.407 464.096 153.9 461.78C152.393 459.465 150.446 457.472 148.17 455.916V455.916ZM149.797 482.552L146.659 487.138C144.196 490.724 140.421 493.186 136.159 493.985C131.897 494.784 127.494 493.855 123.911 491.402L91.6909 469.351L113.306 437.72L145.468 459.771C147.235 460.987 148.746 462.54 149.915 464.343C151.085 466.146 151.89 468.163 152.283 470.278C152.677 472.394 152.653 474.567 152.211 476.673C151.769 478.779 150.919 480.777 149.71 482.552H149.797Z" fill="#B7B7B7"/>
<path d="M181.523 406.967L145.526 382.258L118.623 421.628L154.62 446.308C159.226 449.463 164.887 450.659 170.367 449.636C175.847 448.613 180.703 445.453 183.876 440.846L186.984 436.261C188.541 433.978 189.635 431.408 190.203 428.699C190.771 425.991 190.803 423.196 190.295 420.475C189.788 417.754 188.752 415.161 187.247 412.843C185.741 410.525 183.796 408.528 181.523 406.967V406.967ZM183.12 433.603L180.128 438.101C177.665 441.688 173.89 444.149 169.628 444.948C165.366 445.747 160.963 444.818 157.38 442.365L125.247 420.314L146.833 388.683L178.995 410.734C180.761 411.963 182.267 413.532 183.427 415.349C184.587 417.167 185.378 419.197 185.753 421.323C186.129 423.449 186.082 425.629 185.615 427.736C185.148 429.844 184.271 431.838 183.033 433.603H183.12Z" fill="#B7B7B7"/>
<path d="M203.05 375.451C205.336 377.034 207.91 378.147 210.625 378.728C213.339 379.309 216.141 379.345 218.87 378.835C221.599 378.325 224.201 377.278 226.526 375.755C228.852 374.233 230.856 372.263 232.423 369.96L235.328 365.375C238.442 360.767 239.612 355.106 238.583 349.632C237.554 344.157 234.409 339.316 229.837 336.168L193.84 311.489L166.938 350.83L203.05 375.451ZM195.148 317.914L227.28 339.936C230.855 342.392 233.313 346.175 234.114 350.452C234.915 354.73 233.993 359.152 231.551 362.746L228.413 367.303C225.955 370.896 222.18 373.362 217.916 374.162C213.652 374.961 209.246 374.028 205.665 371.567L173.533 349.545L195.148 317.914Z" fill="#B7B7B7"/>
<path d="M265.718 321.01L268.826 316.425C271.943 311.82 273.118 306.161 272.095 300.687C271.071 295.214 267.932 290.37 263.364 287.218L227.368 262.451L200.465 301.792L236.461 326.501C241.072 329.653 246.734 330.844 252.215 329.815C257.695 328.787 262.549 325.622 265.718 321.01V321.01ZM228.559 268.964L260.72 290.986C264.295 293.441 266.754 297.224 267.555 301.502C268.355 305.779 267.433 310.202 264.991 313.796L261.854 318.352C259.395 321.945 255.62 324.412 251.356 325.211C247.092 326.011 242.686 325.077 239.105 322.616L206.973 300.595L228.559 268.964Z" fill="#B7B7B7"/>
<path d="M394.567 405.155C390.499 410.997 398.111 421.044 407.35 427.352L504.387 493.885C513.626 500.223 525.624 503.757 529.692 497.828L546.92 472.564L411.824 379.892L394.567 405.155ZM540.412 473.791L525.886 495.17C524.404 497.332 516.356 496.397 507.089 490.03L409.994 423.497C400.726 417.13 396.949 409.945 398.373 407.813L412.899 386.405L540.412 473.791Z" fill="#B7B7B7"/>
<path d="M401.133 645.03L304.125 578.497C294.886 572.159 282.888 568.625 278.82 574.583L261.476 599.818L396.571 692.49L413.829 667.227C418.012 661.298 410.372 651.309 401.133 645.03ZM410.081 664.569L395.555 685.977L268.071 598.737L282.597 577.329C284.079 575.197 292.126 576.131 301.394 582.498L398.402 649.002C407.786 655.252 411.563 662.437 410.081 664.569Z" fill="#B7B7B7"/>
<path d="M1.07496 650.636L0 649.993V655.834C4.01023 659.178 6.63278 663.908 7.35303 669.095C8.07329 674.282 6.83926 679.553 3.89308 683.873C2.78929 685.427 1.47949 686.822 0 688.02L0 693.862C3.09306 691.95 5.73906 689.39 7.75712 686.355C11.5824 680.728 13.0274 673.803 11.7743 667.104C10.5212 660.406 6.67255 654.482 1.07496 650.636V650.636Z" fill="#B7B7B7"/>
<path d="M191.749 715.767L246.368 753.24L313.655 654.726L259.035 617.253L191.749 715.767ZM307.176 655.952L245.032 746.726L198.111 714.599L260.139 623.796L307.176 655.952Z" fill="#B7B7B7"/>
<path d="M242.563 741.294L299.826 657.471L289.512 650.403L232.249 734.255L242.563 741.294ZM290.732 656.916L293.318 658.698L241.343 734.81L238.728 733.028L290.732 656.916Z" fill="#B7B7B7"/>
<path d="M958.977 120.564L967.258 108.619L965.369 107.246L917.345 176.729L919.175 178.101L957.67 122.609C987.275 142.878 997.211 184.731 977.484 215.135L979.431 216.421C999.855 184.819 989.628 141.564 958.977 120.564Z" fill="#B7B7B7"/>
<path d="M1272.52 0L1250.17 32.7115L1202.44 0H1197.97L1248.75 34.8143L1244.33 41.269L1186.08 1.34351L1186.98 0H1178.53L1015.34 242.736L981.057 219.196L980.883 219.459L979.46 218.466L978.297 220.16L923.649 182.688C918.274 178.978 912.87 175.24 907.437 171.531L908.774 169.574L878.559 148.749L978.588 0H967.722L871.586 144.018C852.411 130.787 833.265 117.732 814.468 104.735L813.132 106.663L785.619 87.62L757.902 68.5772L796.049 9.31692C826.351 28.5933 837.711 70.1252 819.001 101.201L821.005 102.399C840.354 70.2712 828.675 27.3082 797.298 7.36008L801.859 0.467306L801.017 0H799.245L795.352 6.04578C792.314 3.757 789.087 1.73433 785.706 0L780.215 0C785.161 2.08113 789.827 4.7796 794.102 8.03183L755.985 67.3505L701.395 29.82L702.499 28.2136L701.743 27.6879L701.976 27.3666C688.059 17.7869 674.811 8.762 662.406 0H650.058C664.933 10.3099 681.028 21.4085 698.053 33.1496L700.174 30.2289L699.39 31.3387C725.828 49.5637 754.59 69.3074 784.34 89.752L811.941 108.707L813.045 107.101L810.575 110.518C841.517 131.78 873.329 153.656 904.823 175.386L906.159 173.458C930.041 189.931 953.777 206.316 976.816 222.321L975.479 224.249C995.148 237.917 1014.32 251.265 1032.8 264.233C1070.83 288.474 1076.38 326.706 1069.47 352.086C1065.33 367.104 1058.82 381.355 1050.17 394.29C1050.17 394.29 1042.18 405.972 1029.29 424.869C1029.95 425.21 1030.59 425.59 1031.2 426.008L931.842 571.457L933.788 572.801L1033.15 427.323C1033.9 427.867 1034.6 428.462 1035.27 429.104L1055.98 398.203L1053.86 396.772L1055.9 398.145C1065 384.59 1071.87 369.649 1076.23 353.897C1083.76 326.209 1077.86 284.56 1036.69 258.362L1020.71 247.176L1097.94 132.394L1164 177.693L1168.68 180.906L1292.21 0H1272.52ZM1156.65 169.632L1099.33 130.32L1103.69 123.836L1161.07 163.178L1156.65 169.632ZM1162.46 161.075L1105.11 121.704L1109.47 115.22L1166.91 154.62L1162.46 161.075ZM1168.27 152.517L1110.89 113.117L1115.25 106.633L1172.75 146.033L1168.27 152.517ZM1174.08 143.96L1116.56 104.531L1120.92 98.0175L1178.5 137.505L1174.08 143.96ZM1179.9 135.402L1122.46 95.9146L1126.82 89.4308L1184.46 128.947L1179.9 135.402ZM1185.71 126.844L1128.24 87.3279L1132.63 80.844L1190.3 120.39L1185.71 126.844ZM1191.52 118.287L1134.02 78.858L1138.41 72.3449L1196.14 111.949L1191.52 118.287ZM1197.33 109.729L1139.8 70.096L1144.19 63.6121L1201.98 103.246L1197.33 109.729ZM1203.14 101.172L1145.32 61.5384L1149.71 55.0253L1207.58 94.7172L1203.14 101.172ZM1208.95 92.6143L1151.39 52.9225L1155.75 46.4386L1213.68 86.1596L1208.95 92.6143ZM1214.76 84.0567L1157.18 44.3357L1161.53 37.9686L1219.64 77.7189L1214.76 84.0567ZM1220.57 75.4992L1162.46 35.7489L1166.82 29.2359L1224.93 69.0445L1220.57 75.4992ZM1226.38 66.9416L1168.27 27.133L1172.63 20.6491L1230.74 60.487L1226.38 66.9416ZM1232.19 58.3841L1174.08 18.5462L1178.44 12.0331L1236.55 51.9294L1232.19 58.3841ZM1238 49.8265L1179.9 9.93026L1184.25 3.44638L1242.36 43.3719L1238 49.8265Z" fill="#B7B7B7"/>
<path d="M732.132 0H726.525C716.797 4.87756 708.302 11.9193 701.685 20.5907L703.515 22.0218C710.947 12.2643 720.822 4.66492 732.132 0V0Z" fill="#B7B7B7"/>
<path d="M1307.38 799.269L1222.31 923.806L1046.75 803.416L864.933 678.704C888.379 643.889 912.26 609.104 936.113 574.377C933.912 573.38 931.883 572.039 930.099 570.405C904.474 608.023 878.675 645.934 857.147 677.652L857.757 678.061L819.291 734.488L820.976 735.627C794.131 775.524 768.681 813.317 744.131 849.533L741.778 847.927L702.063 906.077L675.915 944.28L677.833 945.594L629.343 1016.6L627.426 1015.28L599.826 1055.64L600.726 1056.26C572.574 1093.58 504.852 1105.91 463.916 1080.18L461.418 1084.15C503.225 1110.44 571.644 1098.75 602.295 1061.78L602.557 1061.95L604.619 1059.03L620.686 1070.07C601.299 1095.67 572.975 1112.92 541.43 1118.34C509.885 1123.76 477.47 1116.95 450.726 1099.28L449.739 1098.64L399.041 1174.57L400.029 1175.22C446.716 1206.43 503.607 1218.28 558.787 1208.27C613.966 1198.26 663.154 1167.18 696.049 1121.53L719.088 1137.34L678.879 1196.3L669.64 1209.83L819.959 1314.3H846.339L816.386 1293.21L857.815 1232.52L872.342 1242.54L899.913 1202.17L897.647 1200.6L897.995 1200.83L940.529 1138.53L994.741 1175.22C985.519 1190.1 970.872 1200.77 953.929 1204.95C936.987 1209.12 919.092 1206.47 904.067 1197.56L902.876 1199.57C918.413 1208.8 936.92 1211.55 954.447 1207.24C971.974 1202.94 987.133 1191.92 996.688 1176.53L1008.72 1184.65L1010.02 1182.72L941.836 1136.61L946.339 1130.03L948.286 1131.35L970.569 1098.75L1060.63 1160.47L955.578 1314.3H975.392L1307.38 828.3V799.269ZM747.53 851.841L745.991 850.789L784.253 794.157L842.359 834.083C833.03 848.856 818.335 859.386 801.401 863.434C784.466 867.481 766.629 864.726 751.685 855.754L750.494 857.74C765.953 867.061 784.422 869.942 801.964 865.768C819.505 861.594 834.73 850.696 844.393 835.397L851.133 840.012L852.469 838.084L845.729 833.44C856.518 818.923 861.191 800.721 858.739 782.769C856.288 764.816 846.907 748.554 832.626 737.496L831.203 739.366C845.013 750.057 854.078 765.788 856.432 783.15C858.787 800.513 854.242 818.108 843.783 832.126L785.677 792.201L822.981 736.883L825.131 738.344L861.679 684.837L1037.13 805.139L1014.88 837.763L1016.79 839.077L980.418 892.321L978.501 890.977L942.127 944.25L944.044 945.565L907.554 998.867L905.636 997.523L884.05 1029.15L708.6 908.881L747.53 851.841ZM402.295 1173.76L450.32 1101.62C453.225 1103.57 456.304 1105.35 459.384 1107.02L418.71 1183.63C413.248 1180.62 407.699 1177.35 402.295 1173.76ZM420.918 1184.77L461.592 1108.16C464.672 1109.74 467.78 1111.08 470.947 1112.54L438.117 1192.74C432.249 1190.35 426.525 1187.72 420.918 1184.77ZM440.18 1193.53L473.01 1113.33C476.148 1114.58 479.343 1115.72 482.568 1116.72L457.699 1199.66C451.801 1198 445.962 1195.98 440.18 1193.65V1193.53ZM459.936 1200.33L484.776 1117.39C488.001 1118.32 491.226 1119.14 494.48 1119.81L477.745 1204.69C471.761 1203.61 465.834 1202.17 459.936 1200.39V1200.33ZM480.041 1205.12L496.804 1120.37C500.058 1120.98 503.312 1121.48 506.595 1121.83L497.879 1207.81C492.01 1207.23 485.996 1206.38 480.041 1205.24V1205.12ZM518.361 1208.8C512.347 1208.8 506.334 1208.48 500.349 1207.93L508.89 1121.94C512.144 1122.24 515.427 1122.41 518.71 1122.44L518.361 1208.8ZM520.686 1208.8L521.034 1122.44C524.288 1122.44 527.542 1122.26 530.825 1122L538.64 1207.96C532.655 1208.56 526.671 1208.88 520.686 1208.92V1208.8ZM541.023 1207.75L533.207 1121.77C536.432 1121.45 539.657 1121.01 542.882 1120.42L558.774 1205.12C552.818 1206.44 546.92 1207.29 540.965 1207.87L541.023 1207.75ZM561.069 1204.83L545.177 1119.99C548.373 1119.34 551.54 1118.61 554.677 1117.74L578.501 1200.71C572.69 1202.44 566.851 1203.81 561.011 1204.95L561.069 1204.83ZM580.738 1200.07L556.915 1117.1C560.052 1116.16 563.132 1115.11 566.182 1113.97L597.705 1194.55C592.098 1196.6 586.432 1198.49 580.68 1200.19L580.738 1200.07ZM599.942 1193.47L568.361 1113.12C571.267 1111.9 574.404 1110.52 577.339 1109.09L616.415 1186.11C610.972 1188.88 605.462 1191.37 599.884 1193.59L599.942 1193.47ZM618.507 1185.06L579.431 1108.04C582.336 1106.52 585.241 1104.86 588.146 1103.13L634.428 1176.15C629.111 1179.45 623.823 1182.43 618.449 1185.18L618.507 1185.06ZM636.258 1174.98L589.977 1101.97C592.882 1100.16 595.468 1098.23 598.112 1096.12L651.278 1164.41C646.397 1168.27 641.371 1171.71 636.258 1174.98ZM653.138 1163.04L599.971 1094.78C602.624 1092.68 605.181 1090.46 607.641 1088.12L667.257 1150.95C662.686 1155.21 657.97 1159.24 653.109 1163.04H653.138ZM668.942 1149.34L609.297 1086.49C611.766 1084.09 614.12 1081.61 616.415 1079.01L681.958 1135.67C677.774 1140.46 673.417 1144.9 668.913 1149.34H668.942ZM683.469 1133.89L617.926 1077.23C619.523 1075.3 621.121 1073.31 622.632 1071.39L694.102 1120.42C690.732 1125.01 687.159 1129.54 683.469 1133.89ZM680.941 1197.76L721.179 1138.85L727.629 1143.29L687.333 1202.26L680.941 1197.76ZM689.396 1203.61L729.721 1144.61L736.171 1149.02L695.787 1208.1L689.396 1203.61ZM697.879 1209.45L738.263 1150.74L744.712 1155.15L704.271 1214.32L697.879 1209.45ZM706.333 1215.43L746.804 1156.58L753.254 1160.99L712.725 1220.31L706.333 1215.43ZM714.817 1221.28L755.375 1162.42L761.824 1166.86L721.15 1226.27L714.817 1221.28ZM723.271 1227.12L763.945 1167.68L770.395 1172.09L729.721 1231.61L723.271 1227.12ZM731.726 1232.96L772.4 1173.41L778.82 1177.85L738.146 1237.46L731.726 1232.96ZM745.003 1242.3L740.209 1238.95L780.883 1179.28L787.362 1183.69L746.688 1243.41L745.003 1242.3ZM748.693 1244.85L789.367 1185.12L795.845 1189.56L755.171 1249.26L748.693 1244.85ZM757.234 1250.69L797.908 1190.99L804.358 1195.4L763.684 1255.13L757.234 1250.69ZM765.776 1256.53L806.45 1196.8L812.899 1201.24L772.225 1260.94L765.776 1256.53ZM774.317 1262.37L815.137 1203.31L821.557 1207.72L780.883 1267.45L774.317 1262.37ZM782.859 1268.21L823.533 1208.48L829.982 1212.92L789.308 1272.62L782.859 1268.21ZM791.4 1274.05L832.074 1214.32L838.524 1218.73L797.85 1278.46L791.4 1274.05ZM799.942 1279.89L840.616 1220.17L847.066 1224.61L806.392 1284.3L799.942 1279.89ZM814.933 1290.93L808.483 1286.52L849.157 1226.8L855.607 1231.21L814.933 1290.93ZM942.591 1127.38L944.509 1128.69L896.165 1199.49L894.218 1198.17L870.598 1232.72L609.587 1053.75L633.353 1019.31L632.307 1018.61C645.865 998.808 659.626 978.588 673.591 957.948L728.617 995.683C719.295 1010.51 704.578 1021.08 687.608 1025.14C670.638 1029.2 652.762 1026.42 637.798 1017.41L636.578 1019.43C652.052 1028.76 670.543 1031.64 688.099 1027.45C705.656 1023.25 720.885 1012.33 730.535 996.998L742.504 1005.2L743.841 1003.28L674.753 955.933L680.564 947.434L681.726 948.252L703.864 915.861L964.875 1094.84L942.591 1127.38ZM1064.61 1154.63L974.55 1092.94L889.018 1034.32L911.418 1001.55L909.471 1000.21L945.845 946.967L944.654 946.149L947.792 948.281L964.003 924.565L1139.57 1044.95L1064.61 1154.63ZM1143.52 1039.17L967.955 918.782L984.166 895.037L982.22 893.723L1017.84 841.589L1066.82 875.177C1058.52 888.424 1045.38 897.869 1030.22 901.484C1015.06 905.1 999.104 902.596 985.764 894.511L984.544 896.498C998.395 904.922 1014.98 907.546 1030.74 903.805C1046.49 900.063 1060.16 890.256 1068.8 876.491L1079.43 883.763L1080.74 881.865L1021.15 840.976L1042.85 809.199L1218.42 929.589L1143.52 1039.17Z" fill="#B7B7B7"/>
<path d="M1024.29 0C1025.06 0.193548 1025.85 0.339884 1026.64 0.43821L1031.38 0.934847C1034.09 1.23621 1036.83 0.916598 1039.4 0L1024.29 0Z" fill="#B7B7B7"/>
<path d="M1170.83 431.791C1170.56 434.21 1170.76 436.661 1171.43 439.001C1172.1 441.341 1173.23 443.524 1174.75 445.424C1176.26 447.324 1178.14 448.905 1180.26 450.074C1182.39 451.243 1184.72 451.977 1187.13 452.235L1191.86 452.732C1195.2 453.093 1198.57 452.537 1201.61 451.123C1204.66 449.708 1207.26 447.488 1209.15 444.7V444.7C1210.87 442.188 1211.95 439.289 1212.29 436.259L1214.44 417.158L1172.98 412.689L1170.83 431.791ZM1175.45 432.287L1177.08 417.684L1209.27 421.159L1207.67 435.617C1207.42 437.883 1206.61 440.05 1205.32 441.925V441.925C1203.9 444.008 1201.95 445.668 1199.68 446.727C1197.4 447.787 1194.88 448.206 1192.39 447.942L1187.65 447.445C1184.03 447.055 1180.71 445.238 1178.42 442.391C1176.12 439.545 1175.05 435.901 1175.42 432.258L1175.45 432.287Z" fill="#B7B7B7"/>
<path d="M1307.38 530.364C1305.42 529.952 1303.58 529.11 1301.99 527.898C1300.4 526.686 1299.09 525.134 1298.17 523.354L1295.99 519.119C1294.84 516.885 1294.31 514.378 1294.47 511.867C1294.63 509.356 1295.47 506.935 1296.89 504.866V504.866C1298.17 502.982 1299.9 501.447 1301.92 500.398L1307.38 497.477V492.22L1299.77 496.221C1297.08 497.637 1294.77 499.693 1293.06 502.208V502.208C1291.15 504.972 1290.03 508.207 1289.82 511.563C1289.61 514.919 1290.32 518.269 1291.86 521.251L1294.04 525.515C1295.37 528.052 1297.26 530.243 1299.58 531.912C1301.89 533.58 1304.56 534.681 1307.38 535.124V530.364Z" fill="#B7B7B7"/>
<path d="M1003.08 569.529C1000.57 567.805 997.676 566.722 994.654 566.375L975.566 564.243L971.121 605.775L990.209 607.907C992.609 608.183 995.041 607.98 997.363 607.31C999.685 606.64 1001.85 605.516 1003.74 604.002C1005.63 602.488 1007.21 600.614 1008.37 598.487C1009.54 596.361 1010.28 594.023 1010.55 591.609L1011.07 586.849C1011.42 583.505 1010.87 580.127 1009.46 577.076C1008.05 574.025 1005.85 571.417 1003.08 569.529V569.529ZM1006.45 586.323L1005.93 591.084C1005.73 592.892 1005.18 594.642 1004.3 596.235C1003.43 597.828 1002.25 599.232 1000.84 600.367C999.423 601.501 997.799 602.343 996.06 602.845C994.321 603.347 992.501 603.499 990.703 603.292L976.177 601.656L979.634 569.529L994.16 571.135C996.406 571.405 998.557 572.206 1000.44 573.472V573.472C1002.48 574.852 1004.12 576.759 1005.18 578.995C1006.23 581.231 1006.67 583.711 1006.45 586.177V586.323Z" fill="#B7B7B7"/>
<path d="M1054.62 478.551C1056.91 482.919 1060.82 486.203 1065.5 487.691C1070.19 489.178 1075.26 488.748 1079.63 486.495L1083.85 484.304C1085.99 483.189 1087.9 481.657 1089.46 479.797C1091.02 477.937 1092.19 475.786 1092.92 473.468C1093.64 471.15 1093.91 468.71 1093.69 466.289C1093.48 463.868 1092.79 461.514 1091.66 459.362L1082.74 442.334L1045.64 461.465L1054.62 478.551ZM1087.42 461.465C1088.26 463.07 1088.78 464.828 1088.94 466.636C1089.11 468.443 1088.91 470.266 1088.37 471.998C1087.83 473.73 1086.96 475.338 1085.8 476.728C1084.64 478.118 1083.21 479.264 1081.61 480.099L1077.37 482.289C1075.14 483.45 1072.63 483.979 1070.12 483.819C1067.62 483.66 1065.2 482.818 1063.13 481.384V481.384C1061.26 480.087 1059.74 478.353 1058.69 476.331L1051.95 463.451L1080.77 448.614L1087.42 461.465Z" fill="#B7B7B7"/>
<path d="M1254.21 736.446C1251.44 734.544 1248.21 733.429 1244.86 733.218C1241.51 733.008 1238.17 733.709 1235.18 735.249L1230.97 737.439C1228.83 738.55 1226.93 740.074 1225.37 741.926C1223.82 743.777 1222.64 745.919 1221.91 748.229C1221.18 750.538 1220.92 752.969 1221.12 755.383C1221.33 757.797 1222.01 760.145 1223.13 762.294L1232.02 779.322L1269.06 760.133L1260.17 743.105C1258.74 740.442 1256.7 738.159 1254.21 736.446V736.446ZM1262.78 758.234L1234.02 773.13L1227.28 760.25C1226.43 758.643 1225.91 756.883 1225.75 755.072C1225.58 753.261 1225.77 751.435 1226.31 749.699C1226.85 747.964 1227.73 746.353 1228.89 744.961C1230.06 743.568 1231.48 742.421 1233.09 741.587L1237.33 739.396C1240.58 737.703 1244.37 737.366 1247.87 738.46C1251.36 739.553 1254.29 741.989 1256.01 745.237L1262.78 758.234Z" fill="#B7B7B7"/>
<path d="M1307.38 621.781C1305.6 624.294 1304.5 627.218 1304.15 630.28L1303.63 635.041C1303.12 639.81 1304.46 644.593 1307.38 648.389V621.781Z" fill="#B7B7B7"/>
<path d="M990.529 695.702L973.533 704.64L992.679 741.732L1009.67 732.824C1012.35 731.441 1014.66 729.439 1016.41 726.983C1018.31 724.21 1019.43 720.97 1019.63 717.609C1019.84 714.249 1019.13 710.896 1017.58 707.911L1015.4 703.676C1014.29 701.507 1012.77 699.58 1010.91 698.005C1009.06 696.429 1006.92 695.237 1004.61 694.496C1002.3 693.755 999.867 693.48 997.45 693.687C995.033 693.895 992.681 694.579 990.529 695.702ZM1012.55 724.208C1011.28 726.099 1009.55 727.636 1007.52 728.677L994.683 735.424L979.808 706.597L992.65 699.85C995.89 698.143 999.672 697.8 1003.16 698.895C1006.66 699.991 1009.57 702.435 1011.27 705.691L1013.45 709.926C1014.63 712.178 1015.17 714.713 1015.01 717.253C1014.86 719.793 1014 722.24 1012.55 724.325V724.208Z" fill="#B7B7B7"/>
<path d="M1117.63 776.371C1112.77 775.871 1107.91 777.32 1104.1 780.405C1100.29 783.489 1097.85 787.959 1097.3 792.844L1095.15 811.945L1136.61 816.384L1138.76 797.283C1139.03 794.866 1138.83 792.417 1138.16 790.079C1137.49 787.741 1136.36 785.559 1134.85 783.659C1133.34 781.759 1131.47 780.179 1129.35 779.008C1127.22 777.837 1124.89 777.1 1122.49 776.839L1117.63 776.371ZM1134.02 796.816L1132.39 811.273L1100.2 807.827L1101.8 793.224C1102.22 789.564 1104.07 786.22 1106.93 783.918C1109.79 781.616 1113.44 780.541 1117.08 780.928L1121.85 781.424C1123.65 781.62 1125.4 782.174 1127 783.054C1128.59 783.934 1129.99 785.123 1131.12 786.552C1132.26 787.981 1133.09 789.621 1133.59 791.378C1134.09 793.134 1134.23 794.973 1134.02 796.787V796.816Z" fill="#B7B7B7"/>
<path d="M1087.86 0L1099.8 23.1025L1086.93 29.8492C1083.69 31.5557 1079.9 31.899 1076.41 30.8036C1072.92 29.7083 1070 27.264 1068.3 24.0079L1066.24 19.7437C1065.09 17.51 1064.56 15.0028 1064.72 12.4915C1064.88 9.98026 1065.72 7.55997 1067.14 5.49085C1068.4 3.6273 1070.08 2.09472 1072.05 1.02223L1074 0H1065.66C1064.79 0.896 1064.01 1.8741 1063.34 2.92067C1061.43 5.69017 1060.31 8.92755 1060.1 12.2868C1059.88 15.646 1060.58 19.0008 1062.11 21.9926L1064.18 26.286C1066.45 30.6428 1070.35 33.9149 1075.01 35.3828C1079.68 36.8506 1084.74 36.394 1089.08 34.1134L1106.07 25.1761L1093.11 0H1087.86Z" fill="#B7B7B7"/>
<path d="M959.093 0L888.204 103.742L866.996 89.1387C864.875 87.6784 865.804 79.6173 872.167 70.3296L920.25 0H914.613L868.332 67.7594C861.999 77.0179 858.483 89.0219 864.352 93.0524L889.395 110.255L964.729 0H959.093Z" fill="#B7B7B7"/>
<path d="M996.775 0L1081.81 58.3257L1049.71 105.348L959.674 43.5763L989.454 0H983.817L953.196 44.8322L1050.9 111.832L1088.29 57.099L1005.05 0H996.775Z" fill="#B7B7B7"/>
<path d="M973.998 32.1274L966.938 42.4666L1050.09 99.3027L1057.15 88.9928L973.998 32.1274ZM1048.81 92.9065L973.271 41.1523L975.043 38.5529L1050.58 90.3071L1048.81 92.9065Z" fill="#B7B7B7"/>
<path d="M1064.35 742.141C1122.46 782.066 1210.11 755.751 1259.47 683.464C1308.83 611.178 1301.57 519.878 1243.46 479.982C1185.36 440.085 1097.7 466.371 1048.31 538.658C998.925 610.944 1006.13 702.215 1064.35 742.141ZM1052.15 541.286C1100.06 471.19 1184.69 445.372 1240.76 483.837C1296.83 522.302 1303.54 610.681 1255.61 680.836C1207.67 750.99 1123.1 776.896 1067 738.285C1010.89 699.674 1004.24 611.441 1052.15 541.286V541.286Z" fill="#B7B7B7"/>
<path d="M1307.38 236.574C1306.07 239.163 1305.4 242.025 1305.4 244.927C1305.4 247.829 1306.07 250.691 1307.38 253.28V236.574Z" fill="#B7B7B7"/>
<path d="M1258.54 200.065C1257.15 202.065 1256.16 204.321 1255.64 206.705C1255.12 209.089 1255.07 211.552 1255.5 213.954C1255.93 216.357 1256.83 218.65 1258.14 220.702C1259.46 222.754 1261.16 224.525 1263.16 225.913L1267.08 228.658C1269.08 230.056 1271.33 231.043 1273.71 231.564C1276.09 232.084 1278.54 232.127 1280.94 231.69C1283.33 231.253 1285.62 230.345 1287.66 229.017C1289.71 227.69 1291.47 225.97 1292.85 223.956L1303.75 208.097L1269.52 184.235L1258.54 200.065ZM1297.15 209.294L1288.9 221.269C1287.88 222.791 1286.57 224.094 1285.04 225.102C1283.52 226.11 1281.81 226.803 1280.01 227.14C1278.21 227.477 1276.37 227.452 1274.59 227.065C1272.8 226.679 1271.11 225.94 1269.61 224.891L1265.8 221.97C1263.75 220.53 1262.13 218.558 1261.11 216.264C1260.09 213.97 1259.7 211.44 1259.99 208.944C1260.27 206.678 1261.09 204.514 1262.38 202.635L1270.63 190.66L1297.15 209.294Z" fill="#B7B7B7"/>
<path d="M1307.38 188.12C1305.47 188.628 1303.48 188.714 1301.54 188.371C1299.6 188.028 1297.75 187.265 1296.14 186.134L1292.21 183.418C1290.72 182.378 1289.45 181.053 1288.47 179.517C1287.49 177.982 1286.82 176.268 1286.49 174.471C1286.17 172.675 1286.21 170.833 1286.6 169.051C1286.98 167.268 1287.72 165.58 1288.76 164.083L1296.98 152.108L1307.38 159.351V153.51L1295.76 145.42L1284.86 161.279C1282.07 165.327 1280.99 170.323 1281.86 175.171C1282.73 180.018 1285.49 184.319 1289.51 187.127L1293.43 189.843C1295.43 191.242 1297.7 192.222 1300.08 192.724C1302.47 193.225 1304.93 193.239 1307.32 192.764L1307.38 188.12Z" fill="#B7B7B7"/>
<path d="M1307.38 53.2728L1280.62 35.0479L1194.97 160.315L1227.57 182.658L1307.38 65.8317V53.2728ZM1226.35 176.145L1201.45 159.088L1281.81 41.4441L1306.71 58.4132L1226.35 176.145Z" fill="#B7B7B7"/>
<path d="M237.652 243.232L331.435 307.487L347.298 284.297L253.486 220.042L237.652 243.232ZM340.79 285.553L330.215 301.032L244.044 242.005L254.59 226.555L340.79 285.553Z" fill="#B7B7B7"/>
<path d="M467.751 366.982L354.968 289.614L339.134 312.804L451.946 390.172L467.751 366.982ZM345.729 311.49L356.275 296.039L461.359 368.121L450.813 383.572L345.729 311.49Z" fill="#B7B7B7"/>
<path d="M578.297 442.773L476.467 372.882L460.604 396.072L562.522 465.963L578.297 442.773ZM467.054 394.845L477.629 379.395L571.79 443.942L561.243 459.421L467.054 394.845Z" fill="#B7B7B7"/>
<path d="M439.018 246.183C420.831 275.74 434.282 317.856 466.647 338.388L467.751 336.577C436.49 316.746 423.416 276.003 440.993 247.468L439.018 246.183Z" fill="#B7B7B7"/>
<path d="M510.546 291.161L468.042 355.387L469.959 356.759L512.463 292.534L510.546 291.161Z" fill="#B7B7B7"/>
<path d="M1112.81 160.958L1096.28 185.141L1080.82 174.568L1084.49 219.488L1127.6 206.637L1111.91 195.86L1128.44 171.648L1112.81 160.958Z" fill="#B7B7B7"/>
<path d="M421.615 0L420.598 1.48954L436.229 12.2084L444.567 0H421.615Z" fill="#B7B7B7"/>
<path d="M875.683 1257.81L841.981 1263.51L847.617 1297.27L857.06 1284.01L873.533 1295.81L882.917 1282.61L866.415 1270.84L875.683 1257.81Z" fill="#B7B7B7"/>
<path d="M24.9271 713.49L16.0079 727.071L49.4768 720.12L42.5622 686.59L33.7882 699.938L16.8794 688.81L7.98926 702.333L24.9271 713.49Z" fill="#B7B7B7"/>
<path d="M481.755 931.428L438.64 944.279L454.067 954.881L437.536 979.093L453.167 989.783L469.698 965.6L485.386 976.348L481.755 931.428Z" fill="#B7B7B7"/>
</g>
</svg>
