<svg width="1308" height="1316" viewBox="0 0 1308 1316" fill="none" xmlns="http://www.w3.org/2000/svg">
<path d="M241.197 1194.78L328.879 1254.86L331.145 1251.55L243.492 1191.42L241.197 1194.78Z" fill="white"/>
<path d="M479.808 1033.91L392.156 973.771L389.861 977.13L477.542 1037.24L479.808 1033.91Z" fill="white"/>
<path d="M470.54 1047.52L382.859 987.382L380.593 990.712L468.245 1050.85L470.54 1047.52Z" fill="white"/>
<path d="M461.244 1061.13L373.562 1000.99L371.296 1004.32L458.948 1064.46L461.244 1061.13Z" fill="white"/>
<path d="M451.946 1074.71L364.265 1014.6L361.999 1017.93L449.68 1078.04L451.946 1074.71Z" fill="white"/>
<path d="M442.649 1088.32L354.997 1028.18L352.702 1031.54L440.383 1091.65L442.649 1088.32Z" fill="white"/>
<path d="M433.352 1101.93L345.7 1041.79L343.405 1045.12L431.086 1105.26L433.352 1101.93Z" fill="white"/>
<path d="M424.056 1115.51L336.403 1055.4L334.108 1058.76L421.79 1118.87L424.056 1115.51Z" fill="white"/>
<path d="M414.788 1129.12L327.106 1069.01L324.84 1072.34L412.493 1132.45L414.788 1129.12Z" fill="white"/>
<path d="M405.491 1142.73L317.809 1082.59L315.543 1085.95L403.195 1146.06L405.491 1142.73Z" fill="white"/>
<path d="M308.526 1096.18L306.25 1099.53L393.924 1159.66L396.2 1156.3L308.526 1096.18Z" fill="white"/>
<path d="M296.949 1113.15L384.631 1173.25L386.897 1169.92L299.215 1109.82L296.949 1113.15Z" fill="white"/>
<path d="M287.652 1126.75L375.334 1186.86L377.6 1183.53L289.947 1123.43L287.652 1126.75Z" fill="white"/>
<path d="M278.355 1140.34L366.037 1200.47L368.332 1197.14L280.65 1137.01L278.355 1140.34Z" fill="white"/>
<path d="M274.622 1145.35L272.361 1148.72L360.449 1208.47L362.71 1205.1L274.622 1145.35Z" fill="white"/>
<path d="M262.051 1164.27L259.792 1167.6L347.466 1227.72L349.725 1224.39L262.051 1164.27Z" fill="white"/>
<path d="M250.493 1181.17L338.175 1241.27L340.441 1237.94L252.76 1177.84L250.493 1181.17Z" fill="white"/>
<path d="M700.174 1144.43C690.249 1154.97 679.419 1164.62 667.809 1173.25C657.55 1182.99 646.213 1191.5 634.021 1198.63C609.475 1212.96 582.296 1222.13 554.125 1225.59C511.624 1230.9 468.485 1224.65 429.198 1207.51C415.327 1203.31 401.798 1198.05 388.727 1191.77C399.586 1201.96 411.588 1210.84 424.491 1218.23C465.718 1236.21 510.98 1242.76 555.578 1237.22C585.283 1233.52 613.94 1223.84 639.831 1208.74C652.736 1201.11 664.786 1192.1 675.77 1181.87C685.555 1170.56 693.765 1157.96 700.174 1144.43Z" fill="white"/>
<path d="M996.717 982.942L994.683 981.745C986.503 995.293 973.315 1005.03 958.008 1008.82C942.701 1012.62 926.523 1010.16 913.015 1001.99L911.795 1004C925.842 1012.5 942.666 1015.05 958.582 1011.1C974.499 1007.16 988.211 997.031 996.717 982.942Z" fill="white"/>
<path d="M850.552 1067.44L850.029 1072.2C849.516 1077.09 850.951 1081.99 854.022 1085.82C857.093 1089.65 861.549 1092.11 866.415 1092.64L885.531 1094.75L890.093 1053.04L871.005 1050.94C868.583 1050.66 866.132 1050.88 863.792 1051.56C861.452 1052.24 859.269 1053.38 857.369 1054.92C855.469 1056.45 853.888 1058.34 852.718 1060.49C851.548 1062.64 850.812 1065 850.552 1067.44ZM870.482 1055.75L885.008 1057.36L881.464 1089.75L866.938 1088.17C864.681 1087.91 862.52 1087.11 860.633 1085.84C858.556 1084.42 856.902 1082.46 855.848 1080.17C854.793 1077.88 854.379 1075.35 854.648 1072.84L855.2 1068.05C855.389 1066.22 855.934 1064.45 856.805 1062.84C857.676 1061.23 858.855 1059.8 860.275 1058.65C861.695 1057.5 863.328 1056.64 865.079 1056.12C866.831 1055.6 868.667 1055.44 870.482 1055.64V1055.75Z" fill="white"/>
<path d="M847.995 1104.21C845.23 1102.29 841.996 1101.17 838.642 1100.96C835.288 1100.76 831.943 1101.47 828.965 1103.04L824.695 1105.26C820.344 1107.53 817.069 1111.45 815.587 1116.15C814.106 1120.84 814.539 1125.94 816.792 1130.32L825.683 1147.41L862.87 1128.04L853.951 1110.84C852.543 1108.17 850.496 1105.89 847.995 1104.21ZM827.658 1141.1L820.947 1128.16C819.256 1124.89 818.918 1121.09 820.007 1117.58C821.095 1114.07 823.522 1111.13 826.758 1109.41L831.028 1107.19C833.259 1106.03 835.76 1105.5 838.266 1105.65C840.773 1105.81 843.191 1106.64 845.264 1108.06C847.134 1109.37 848.667 1111.1 849.738 1113.12L856.42 1126.03L827.658 1141.1Z" fill="white"/>
<path d="M1024.35 1115.6L1060.37 1140.28L1087.25 1100.91L1051.22 1076.23C1046.62 1073.07 1040.97 1071.86 1035.5 1072.88C1030.02 1073.89 1025.17 1077.04 1021.99 1081.63L1018.88 1086.22C1017.31 1088.5 1016.21 1091.08 1015.63 1093.8C1015.06 1096.51 1015.02 1099.32 1015.53 1102.05C1016.04 1104.78 1017.08 1107.38 1018.59 1109.71C1020.1 1112.04 1022.06 1114.04 1024.35 1115.6ZM1022.66 1088.93L1025.8 1084.35C1028.26 1080.76 1032.04 1078.3 1036.3 1077.5C1040.56 1076.7 1044.96 1077.63 1048.55 1080.08L1080.77 1102.08L1059.18 1133.71L1027.02 1111.66C1023.45 1109.22 1020.98 1105.46 1020.17 1101.2C1019.35 1096.94 1020.25 1092.53 1022.66 1088.93Z" fill="white"/>
<path d="M1057.79 1066.65L1093.78 1091.33L1120.69 1051.96L1084.66 1027.28C1080.06 1024.12 1074.4 1022.92 1068.92 1023.95C1063.44 1024.98 1058.59 1028.15 1055.43 1032.77L1052.29 1037.33C1050.74 1039.61 1049.65 1042.19 1049.08 1044.9C1048.51 1047.61 1048.48 1050.41 1048.99 1053.13C1049.5 1055.85 1050.54 1058.45 1052.05 1060.77C1053.56 1063.09 1055.51 1065.09 1057.79 1066.65ZM1056.16 1039.98L1059.27 1035.4C1061.74 1031.82 1065.51 1029.37 1069.77 1028.57C1074.03 1027.78 1078.43 1028.7 1082.02 1031.13L1114.18 1053.18L1092.56 1084.82L1060.43 1062.76C1058.66 1061.55 1057.15 1060 1055.97 1058.2C1054.8 1056.4 1053.99 1054.38 1053.6 1052.26C1053.2 1050.15 1053.22 1047.97 1053.66 1045.87C1054.1 1043.76 1054.95 1041.76 1056.16 1039.98Z" fill="white"/>
<path d="M1106.19 995.764L1142.21 1020.44L1169.09 981.102L1133.06 956.393C1128.45 953.251 1122.8 952.065 1117.32 953.093C1111.85 954.121 1107 957.281 1103.83 961.884L1100.73 966.47C1099.17 968.753 1098.08 971.322 1097.51 974.031C1096.94 976.74 1096.91 979.534 1097.41 982.255C1097.92 984.976 1098.96 987.57 1100.46 989.888C1101.97 992.206 1103.91 994.202 1106.19 995.764ZM1104.59 969.098L1107.7 964.542C1110.16 960.949 1113.93 958.482 1118.2 957.683C1122.46 956.884 1126.87 957.817 1130.45 960.278L1162.61 982.329L1140.99 1013.99L1108.83 991.909C1107.06 990.696 1105.54 989.142 1104.37 987.337C1103.19 985.532 1102.38 983.511 1101.99 981.391C1101.6 979.271 1101.62 977.093 1102.07 974.983C1102.51 972.874 1103.37 970.874 1104.59 969.098Z" fill="white"/>
<path d="M1139.63 946.814L1175.62 971.494L1202.53 932.152L1166.53 907.443C1161.92 904.299 1156.26 903.112 1150.78 904.14C1145.3 905.169 1140.45 908.329 1137.27 912.934L1134.17 917.52C1132.61 919.802 1131.51 922.371 1130.94 925.08C1130.37 927.79 1130.34 930.586 1130.84 933.308C1131.35 936.029 1132.39 938.624 1133.9 940.942C1135.4 943.259 1137.35 945.255 1139.63 946.814ZM1138.03 920.148L1141.14 915.592C1143.6 911.999 1147.37 909.532 1151.64 908.733C1155.9 907.934 1160.31 908.867 1163.89 911.328L1196.02 933.379L1174.4 965.01L1142.27 942.959C1140.5 941.743 1138.99 940.188 1137.81 938.383C1136.64 936.577 1135.84 934.557 1135.44 932.438C1135.05 930.319 1135.07 928.143 1135.52 926.034C1135.96 923.925 1136.82 921.925 1138.03 920.148Z" fill="white"/>
<path d="M886.897 757.175L983.933 823.708C993.172 830.046 1005.17 833.58 1009.21 827.651L1026.47 802.387L891.342 709.744L874.084 734.978C870.046 740.936 877.658 750.867 886.897 757.175ZM877.948 737.636L892.475 716.227L1019.9 803.614L1005.37 824.993C1003.89 827.154 995.845 826.22 986.548 819.853L889.541 753.32C880.302 746.982 876.496 739.914 877.948 737.636Z" fill="white"/>
<path d="M876.235 1022.31L893.492 997.048C897.559 991.207 889.918 981.189 880.68 974.851L783.672 908.318C774.433 901.98 762.434 898.446 758.367 904.405L741.11 929.756L876.235 1022.31ZM762.231 907.062C763.684 904.901 771.76 905.836 781.028 912.203L878.036 978.735C887.304 985.073 891.11 992.258 889.657 994.419L875.131 1015.8L747.734 928.442L762.231 907.062Z" fill="white"/>
<path d="M890.354 1315.28C888.503 1311.89 887.626 1308.04 887.821 1304.17C888.015 1300.31 889.275 1296.57 891.458 1293.38C894.506 1288.96 899.118 1285.88 904.351 1284.77C909.584 1283.65 915.042 1284.59 919.61 1287.39C924.177 1290.18 927.509 1294.63 928.925 1299.82C930.34 1305 929.731 1310.53 927.223 1315.28H932.394C934.039 1311.37 934.695 1307.1 934.302 1302.87C933.91 1298.64 932.481 1294.57 930.144 1291.02C927.807 1287.48 924.633 1284.57 920.907 1282.56C917.181 1280.55 913.017 1279.5 908.788 1279.5C904.559 1279.5 900.396 1280.55 896.67 1282.56C892.944 1284.57 889.77 1287.48 887.433 1291.02C885.096 1294.57 883.667 1298.64 883.275 1302.87C882.882 1307.1 883.538 1311.37 885.183 1315.28H890.354Z" fill="white"/>
<path d="M860.982 1031.1L806.362 993.661L739.047 1092.15L793.695 1129.62L860.982 1031.1ZM745.555 1090.95L807.67 1000.15L854.59 1032.27L792.475 1123.11L745.555 1090.95Z" fill="white"/>
<path d="M808.774 1007.48L751.511 1091.33L761.795 1098.37L819.059 1014.46L808.774 1007.48ZM760.575 1091.85L758.018 1090.07L809.994 1013.99L812.551 1015.77L760.575 1091.85Z" fill="white"/>
<path d="M624.637 359.468L625.043 358.884L620.686 355.963L618.448 354.444C615.892 352.546 613.219 350.647 610.314 348.603L610.168 348.836C575.741 326.026 553.748 311.423 516.502 286.422L515.282 288.291C502.992 279.88 486.432 268.489 470.221 257.303L441.516 237.588L442.243 236.508C407.699 213.142 379.372 193.866 359.965 180.489L479.111 3.55554L475.334 0.985352H472.429L444.509 42.4588L389.512 4.49015L391.923 0.985352H372.08L0 545.602V574.633L65.3399 478.981L155.404 540.695L133.033 573.436L135.096 574.838L130.593 581.409L62.8995 534.211L61.5921 536.168L73.5038 544.433C62.6427 558.881 57.8683 577.043 60.211 594.998C62.5537 612.954 71.8256 629.263 86.0256 640.406L87.4782 638.566C73.7641 627.776 64.824 611.995 62.5897 594.632C60.3554 577.27 65.0063 559.72 75.5375 545.777L129.285 583.132L86.6066 645.43L84.6891 644.086L57.1179 684.421L71.6444 694.439L31.5224 753.349L0 731.765V751.596L161.011 861.997L210.459 789.565L233.498 805.366C202.982 852.52 191.913 909.76 202.633 964.974C213.353 1020.19 245.021 1069.04 290.935 1101.2L291.894 1101.87L344.189 1026.99L343.231 1026.31C317.106 1007.8 298.994 979.963 292.591 948.483C286.187 917.002 291.975 884.252 308.774 856.915L324.84 867.955L322.777 870.876L323.01 871.022C299.768 913.021 313.742 981.131 353.225 1010.69L356.13 1006.95C317.432 977.948 304.3 910.305 328.849 870.496L329.721 871.11L357.321 830.717L355.375 829.403L403.835 758.693L405.781 760.037L431.929 721.835L471.644 663.684L469.291 662.078C496.688 622.357 522.603 584.885 547.443 549.048L549.157 550.216L584.166 498.988L589.628 490.956C590.574 490.003 591.421 488.956 592.156 487.831L598.809 478.134C605.81 467.854 617.228 451.031 632.684 428.074L626.874 424.16C609.704 449.629 599.419 464.816 593.289 473.812C592.626 474.251 592.045 474.804 591.575 475.447L590.964 476.411C590.471 477.083 589.919 477.901 589.308 478.835L583.876 487.042L227.048 242.261L294.509 143.514L353.08 183.965L352.818 184.315L369.582 195.998C387.769 208.44 411.069 224.299 438.204 242.729L440.093 239.808L468.768 259.552C482.19 268.781 495.845 278.186 507.118 285.838L513.858 290.482L512.493 292.497C552.498 319.338 574.898 334.233 614.003 360.139C627.891 370.566 635.967 381.11 637.943 391.507C639.599 400.269 637.129 409.236 630.36 418.845L636.171 422.905C644.073 411.631 646.92 400.941 644.887 390.193C642.853 379.445 636.258 369.456 624.637 359.468ZM69.2911 473.198L144.277 363.44L319.843 483.83L303.632 507.545L305.549 508.86L269.175 562.103L267.257 560.789L244.858 593.588L69.2911 473.198ZM33.6142 754.809L73.8233 695.928L80.2731 700.338L40.0639 759.219L33.6142 754.809ZM42.1557 760.65L82.3649 701.77L88.7856 706.209L48.6054 765.09L42.1557 760.65ZM50.6973 766.492L90.9064 707.786L97.3271 712.196L57.1179 770.931L50.6973 766.492ZM59.2097 772.333L99.448 713.628L105.898 718.067L65.6595 776.772L59.2097 772.333ZM67.7513 778.174L107.96 719.469L114.41 723.879L74.201 782.643L67.7513 778.174ZM76.2928 784.016L116.531 725.31L122.952 729.72L82.7426 788.484L76.2928 784.016ZM84.8344 789.857L124.927 731.151L131.377 735.562L91.2841 794.355L84.8344 789.857ZM93.3759 795.698L133.643 736.993L140.093 741.432L99.8257 800.196L93.3759 795.698ZM101.917 801.54L142.156 742.834L148.576 747.274L108.367 806.067L101.917 801.54ZM110.459 807.381L150.668 748.675L157.118 753.086L116.909 811.937L110.459 807.381ZM119.001 813.222L159.21 754.517L165.601 758.898L125.45 817.778L119.001 813.222ZM127.542 819.064L167.751 760.358L174.317 764.768L133.992 823.649L127.542 819.064ZM136.084 824.905L176.293 766.199L182.743 770.61L142.533 829.49L136.084 824.905ZM144.625 830.746L184.834 772.041L191.284 776.451L151.075 835.332L144.625 830.746ZM159.616 841.027L153.167 836.617L193.376 777.882L199.826 782.321L159.616 841.027ZM168.158 846.868L161.708 842.429L201.917 783.723L208.367 788.134L168.158 846.868ZM205.055 883.026L289.744 899.849C289.134 903.091 288.64 906.362 288.292 909.633L202.469 901.017C203.08 894.884 203.922 888.867 205.055 883.026ZM202.15 903.471L287.972 912.087C287.682 915.358 287.507 918.629 287.478 921.929L201.278 921.52C201.356 915.329 201.675 909.234 202.237 903.237L202.15 903.471ZM202.15 941.848C201.627 935.871 201.356 929.874 201.336 923.857L287.623 923.915C287.623 927.186 287.623 930.458 288.03 933.7L202.15 941.848ZM202.353 944.156L288.175 936.387C288.495 939.628 288.96 942.87 289.512 946.083L204.852 961.942C203.864 955.887 203.041 949.88 202.382 943.922L202.353 944.156ZM340.994 1027.86L291.284 1098.89C285.996 1095.15 280.97 1091.15 276.118 1087.01L332.713 1021.35C335.415 1023.36 338.146 1025.55 341.023 1027.63L340.994 1027.86ZM330.912 1019.83L274.375 1085.25C269.582 1081.08 265.078 1076.7 260.75 1072.17L323.475 1012.47C325.857 1014.92 328.297 1017.38 330.941 1019.6L330.912 1019.83ZM321.819 1011.07L259.123 1070.47C254.881 1065.92 250.872 1061.19 247.066 1056.34L315.224 1003.09C317.344 1005.69 319.582 1008.29 321.848 1010.78L321.819 1011.07ZM313.771 1001.25L245.613 1054.5C241.894 1049.59 238.408 1044.56 235.154 1039.4L307.96 993.077C309.849 995.88 311.766 998.597 313.771 1001.25ZM306.798 991.091L233.905 1037.44C230.67 1032.28 227.697 1027 224.985 1021.58L301.888 982.475C303.428 985.395 305.055 988.17 306.798 991.091ZM300.988 980.372L224.085 1019.51C221.412 1014.1 218.971 1008.59 216.763 1002.98L296.978 971.405C298.053 974.443 299.419 977.451 300.842 980.372H300.988ZM296.136 969.215L215.776 1000.79C213.626 995.18 211.737 989.513 209.965 983.76L292.766 959.927C293.783 963.081 294.829 966.148 295.991 969.215H296.136ZM292.359 957.678L209.558 981.482C207.931 975.64 206.653 969.799 205.433 963.958L290.122 948.098C290.529 951.37 291.371 954.524 292.214 957.678H292.359ZM290.325 897.396L205.636 880.602C206.827 874.615 208.251 868.656 209.965 862.757L292.766 887.699C291.662 890.912 290.848 894.154 290.18 897.396H290.325ZM293.434 885.45L210.517 860.537C212.299 854.696 214.342 848.854 216.647 843.013L296.688 875.929C295.41 879.064 294.325 882.237 293.434 885.45ZM297.734 873.768L217.548 840.822C219.93 834.981 222.584 829.266 225.508 823.678L301.976 864.392C300.378 867.459 298.925 870.584 297.589 873.738L297.734 873.768ZM303.225 862.377L226.612 821.692C229.305 816.669 232.21 811.713 235.328 806.826L306.827 855.864C305.646 857.967 304.397 860.128 303.08 862.348L303.225 862.377ZM400.145 756.094L401.307 756.912L395.497 765.352L326.554 718.096L325.247 720.024L337.013 728.231C326.246 742.748 321.588 760.938 324.045 778.877C326.502 796.816 335.876 813.065 350.145 824.116L351.569 822.276C337.777 811.58 328.721 795.862 326.357 778.513C323.993 761.164 328.509 743.576 338.931 729.545L393.957 767.309C379.837 787.91 366.008 808.072 352.469 827.796L351.424 827.095L327.833 861.647L66.8216 682.639L90.4416 648.059L86.9262 645.664L88.5241 646.744L136.868 575.947L138.815 577.262L161.069 544.667L422.109 723.645L400.145 756.094ZM404.561 372.465L579.982 492.738L578.414 495.103L543.55 546.244L545.7 547.734L507.496 602.642L449.245 562.688C458.553 547.827 473.281 537.222 490.272 533.144C507.264 529.066 525.169 531.839 540.151 540.87L541.342 538.855C525.861 529.546 507.375 526.687 489.827 530.889C472.279 535.09 457.059 546.019 447.414 561.344L440.674 556.729L439.337 558.657L446.107 563.272C435.365 577.787 430.729 595.964 433.196 613.885C435.663 631.805 445.037 648.033 459.297 659.07L460.72 657.229C446.943 646.568 437.883 630.893 435.492 613.581C433.101 596.269 437.57 578.705 447.937 564.674L506.043 604.628L467.344 660.763L465.805 659.712L426.903 716.694L251.453 596.363L273.097 564.674L271.179 563.359L307.554 510.116L306.595 509.444L309.5 511.43L345.729 458.274L343.783 456.959L380.186 403.716L379.024 402.898L382.103 405.03L404.561 372.465ZM398.751 368.493L377.048 400.269L317.461 359.38L316.153 361.308L326.758 368.58C317.092 381.585 312.917 397.896 315.136 413.976C317.355 430.056 325.79 444.608 338.611 454.477L340.035 452.608C327.692 443.1 319.577 429.083 317.45 413.597C315.324 398.112 319.357 382.409 328.675 369.894L377.687 403.482L342.068 455.616L340.151 454.302L323.94 478.017L148.17 357.628L223.068 248.074L398.751 368.493ZM388.03 6.59303L443.027 44.5617L438.698 51.0747L383.498 13.1061L388.03 6.59303ZM382.22 15.1506L437.42 53.1192L432.888 59.6615L377.687 21.6929L382.22 15.1506ZM376.409 23.7081L431.609 61.6768L427.077 68.1606L371.877 30.192L376.409 23.7081ZM370.598 32.2657L425.799 70.3803L421.267 76.9226L366.066 38.7203L370.598 32.2657ZM364.788 40.8232L419.988 78.9671L415.456 85.451L360.256 47.2779L364.788 40.8232ZM358.977 49.3808L414.178 87.5538L409.645 94.0377L354.445 55.8354L358.977 49.3808ZM353.167 57.9383L408.541 96.1406L403.835 102.654L348.634 64.393L353.167 57.9383ZM347.356 66.4959L402.76 104.757L398.024 111.24L342.824 72.9505L347.356 66.4959ZM341.546 75.0534L397.007 113.343L392.65 119.827L336.839 81.5081L341.546 75.0534ZM335.735 83.611L391.255 121.93L386.868 128.443L330.999 90.0656L335.735 83.611ZM329.924 92.1685L385.503 130.546L381.116 137.03L325.16 98.6232L329.924 92.1685ZM324.114 100.726L379.343 139.133L374.985 145.617L319.32 107.181L324.114 100.726ZM318.303 109.284L373.998 147.72L369.64 154.233L313.451 115.738L318.303 109.284ZM312.493 117.841L368.245 156.335L363.887 162.819L307.612 124.296L312.493 117.841ZM354.445 181.862L295.933 141.411L300.349 134.956L356.188 173.509L353.777 177.101L356.682 178.941L354.445 181.862ZM301.772 132.853L306.188 126.399L361.999 164.922L357.612 171.406L301.772 132.853Z" fill="white"/>
<path d="M280.36 1117.35C269.791 1107.41 259.991 1096.67 251.046 1085.22C241.06 1075.12 231.989 1064.14 223.939 1052.42C207.795 1028.97 195.986 1002.78 189.076 975.115C182.105 947.543 180.8 918.832 185.241 890.737C187.475 876.715 191.296 862.996 196.629 849.847C200.467 835.879 205.512 822.275 211.708 809.192C201.431 820.054 192.638 832.242 185.56 845.437C180.044 859.44 176.05 874.001 173.649 888.867C168.965 918.528 170.339 948.838 177.687 977.948C188.645 1021.65 211.127 1061.58 242.765 1093.52C254.344 1102.89 266.959 1110.89 280.36 1117.35Z" fill="white"/>
<path d="M244.509 519.52C243.491 511.749 244.022 503.853 246.072 496.291C248.122 488.729 251.65 481.653 256.449 475.476L254.59 474.045C249.624 480.48 245.972 487.838 243.845 495.697C241.717 503.555 241.155 511.759 242.192 519.836C243.229 527.914 245.843 535.706 249.886 542.764C253.928 549.822 259.318 556.007 265.746 560.964L267.17 559.124C260.975 554.358 255.782 548.403 251.892 541.605C248.002 534.806 245.493 527.3 244.509 519.52Z" fill="white"/>
<path d="M205.607 642.218C208.383 644.125 211.623 645.239 214.98 645.439C218.336 645.64 221.684 644.92 224.666 643.357L228.907 641.167C233.258 638.894 236.533 634.978 238.015 630.28C239.497 625.582 239.063 620.485 236.81 616.107L227.92 599.021L190.761 618.385L199.651 635.471C201.06 638.175 203.104 640.491 205.607 642.218ZM225.944 605.33L232.655 618.268C234.345 621.527 234.682 625.326 233.593 628.835C232.504 632.343 230.078 635.275 226.845 636.99L222.574 639.21C220.346 640.373 217.846 640.908 215.34 640.759C212.834 640.61 210.414 639.782 208.338 638.363C206.469 637.059 204.935 635.327 203.864 633.31L197.153 620.371L225.944 605.33Z" fill="white"/>
<path d="M203.079 678.988L203.602 674.199C204.092 669.305 202.643 664.415 199.571 660.588C196.498 656.761 192.049 654.306 187.187 653.754L168.071 651.651L163.509 693.387L182.597 695.49C187.488 696.023 192.39 694.586 196.229 691.493C200.068 688.4 202.531 683.903 203.079 678.988ZM183.12 690.671L168.594 689.094L172.138 656.704L186.664 658.281C188.474 658.474 190.228 659.024 191.826 659.899C193.423 660.775 194.833 661.959 195.975 663.383C197.117 664.808 197.967 666.445 198.479 668.201C198.99 669.956 199.151 671.796 198.954 673.614L198.431 678.58C197.994 682.247 196.127 685.59 193.24 687.874C190.352 690.158 186.681 691.195 183.033 690.759L183.12 690.671Z" fill="white"/>
<path d="M148.17 456.901L112.173 432.192L85.2703 471.563L121.267 496.242C125.875 499.402 131.54 500.598 137.023 499.569C142.505 498.54 147.36 495.369 150.523 490.751L153.632 486.166C155.192 483.886 156.288 481.319 156.858 478.612C157.428 475.905 157.46 473.112 156.952 470.392C156.445 467.673 155.408 465.081 153.9 462.765C152.393 460.45 150.446 458.457 148.17 456.901ZM149.797 483.537L146.659 488.123C144.196 491.71 140.421 494.171 136.159 494.97C131.897 495.769 127.494 494.84 123.911 492.387L91.691 470.336L113.306 438.705L145.468 460.756C147.235 461.972 148.746 463.525 149.915 465.328C151.085 467.131 151.89 469.148 152.284 471.263C152.677 473.379 152.653 475.552 152.211 477.658C151.77 479.764 150.92 481.762 149.71 483.537H149.797Z" fill="white"/>
<path d="M181.522 407.952L145.526 383.243L118.623 422.614L154.62 447.293C159.226 450.448 164.887 451.644 170.367 450.621C175.847 449.598 180.703 446.438 183.876 441.832L186.984 437.246C188.541 434.963 189.635 432.393 190.203 429.685C190.771 426.976 190.803 424.181 190.295 421.46C189.788 418.74 188.752 416.146 187.247 413.828C185.741 411.51 183.796 409.513 181.522 407.952ZM183.12 434.588L180.128 439.086C177.665 442.673 173.89 445.134 169.628 445.933C165.366 446.732 160.963 445.804 157.38 443.35L125.247 421.299L146.833 389.668L178.995 411.719C180.761 412.949 182.267 414.517 183.427 416.334C184.587 418.152 185.378 420.182 185.753 422.308C186.129 424.434 186.081 426.614 185.615 428.722C185.148 430.829 184.27 432.823 183.033 434.588H183.12Z" fill="white"/>
<path d="M203.05 376.437C205.336 378.019 207.91 379.133 210.625 379.713C213.34 380.294 216.142 380.33 218.87 379.82C221.599 379.31 224.201 378.264 226.526 376.741C228.852 375.218 230.856 373.249 232.423 370.946L235.328 366.36C238.442 361.752 239.613 356.091 238.583 350.617C237.554 345.143 234.409 340.302 229.837 337.154L193.841 312.474L166.938 351.815L203.05 376.437ZM195.148 318.899L227.28 340.921C230.855 343.377 233.314 347.16 234.114 351.437C234.915 355.715 233.993 360.137 231.551 363.732L228.413 368.288C225.955 371.881 222.18 374.348 217.916 375.147C213.652 375.946 209.246 375.013 205.665 372.552L173.533 350.53L195.148 318.899Z" fill="white"/>
<path d="M265.718 321.995L268.826 317.41C271.943 312.805 273.118 307.147 272.095 301.673C271.071 296.199 267.932 291.356 263.364 288.203L227.368 263.436L200.465 302.777L236.461 327.486C241.072 330.638 246.734 331.829 252.215 330.801C257.695 329.772 262.549 326.607 265.718 321.995ZM228.559 269.949L260.72 291.971C264.295 294.427 266.754 298.209 267.555 302.487C268.355 306.765 267.433 311.187 264.991 314.781L261.854 319.338C259.395 322.931 255.62 325.397 251.356 326.197C247.092 326.996 242.686 326.063 239.105 323.602L206.973 301.58L228.559 269.949Z" fill="white"/>
<path d="M394.567 406.141C390.499 411.982 398.111 422.029 407.35 428.338L504.387 494.871C513.626 501.208 525.624 504.742 529.692 498.813L546.92 473.55L411.824 380.877L394.567 406.141ZM540.412 474.776L525.886 496.156C524.404 498.317 516.356 497.382 507.089 491.015L409.994 424.482C400.726 418.115 396.949 410.931 398.373 408.798L412.899 387.39L540.412 474.776Z" fill="white"/>
<path d="M401.133 646.015L304.125 579.482C294.886 573.144 282.888 569.61 278.82 575.568L261.476 600.803L396.571 693.476L413.829 668.212C418.012 662.283 410.372 652.294 401.133 646.015ZM410.081 665.554L395.555 686.963L268.071 599.722L282.597 578.314C284.079 576.182 292.126 577.116 301.394 583.483L398.402 649.987C407.786 656.237 411.563 663.422 410.081 665.554Z" fill="white"/>
<path d="M1.07496 651.621L0 650.979V656.82C4.01023 660.163 6.63278 664.893 7.35303 670.08C8.07329 675.268 6.83926 680.538 3.89308 684.858C2.78929 686.412 1.47949 687.808 0 689.006V694.847C3.09306 692.935 5.73906 690.375 7.75712 687.341C11.5824 681.713 13.0274 674.788 11.7743 668.09C10.5212 661.391 6.67255 655.467 1.07496 651.621Z" fill="white"/>
<path d="M191.749 716.753L246.368 754.225L313.655 655.711L259.035 618.239L191.749 716.753ZM307.176 656.938L245.032 747.712L198.111 715.585L260.139 624.781L307.176 656.938Z" fill="white"/>
<path d="M242.563 742.279L299.826 658.456L289.512 651.388L232.249 735.241L242.563 742.279ZM290.732 657.901L293.318 659.683L241.343 735.796L238.728 734.014L290.732 657.901Z" fill="white"/>
<path d="M958.977 121.55L967.257 109.604L965.369 108.232L917.345 177.714L919.175 179.087L957.67 123.594C987.275 143.864 997.211 185.717 977.484 216.121L979.431 217.406C999.855 185.805 989.628 142.549 958.977 121.55Z" fill="white"/>
<path d="M1272.52 0.985352L1250.17 33.6968L1202.44 0.985352H1197.97L1248.75 35.7997L1244.33 42.2544L1186.08 2.32886L1186.98 0.985352H1178.53L1015.34 243.722L981.057 220.181L980.883 220.444L979.459 219.451L978.297 221.145L923.649 183.673C918.274 179.964 912.87 176.225 907.437 172.516L908.774 170.559L878.559 149.735L978.588 0.985352H967.722L871.586 145.003C852.411 131.773 833.265 118.717 814.468 105.72L813.132 107.648L785.619 88.6053L757.902 69.5626L796.049 10.3023C826.351 29.5787 837.71 71.1105 819 102.186L821.005 103.384C840.354 71.2566 828.675 28.2936 797.298 8.34543L801.859 1.45266L801.017 0.985352H799.245L795.351 7.03113C792.314 4.74235 789.087 2.71968 785.706 0.985352H780.215C785.161 3.06648 789.826 5.76495 794.102 9.01718L755.985 68.3359L701.394 30.8053L702.498 29.199L701.743 28.6733L701.975 28.352C688.059 18.7722 674.811 9.74735 662.405 0.985352H650.058C664.933 11.2953 681.028 22.3938 698.053 34.1349L700.174 31.2142L699.39 32.3241C725.828 50.549 754.59 70.2927 784.34 90.7374L811.941 109.693L813.045 108.086L810.575 111.503C841.516 132.766 873.329 154.642 904.823 176.371L906.159 174.444C930.04 190.916 953.777 207.301 976.816 223.306L975.479 225.234C995.148 238.903 1014.32 252.25 1032.8 265.218C1070.83 289.459 1076.38 327.691 1069.47 353.072C1065.33 368.09 1058.82 382.34 1050.17 395.275C1050.17 395.275 1042.18 406.958 1029.29 425.855C1029.95 426.195 1030.59 426.575 1031.2 426.994L931.842 572.443L933.788 573.786L1033.15 428.308C1033.9 428.852 1034.6 429.448 1035.27 430.089L1055.98 399.189L1053.86 397.758L1055.9 399.13C1065 385.576 1071.87 370.635 1076.23 354.882C1083.76 327.194 1077.86 285.546 1036.69 259.347L1020.71 248.161L1097.94 133.379L1168.68 181.891L1292.21 0.985352H1272.52ZM1156.65 170.618L1099.33 131.305L1103.69 124.822L1161.07 164.163L1156.65 170.618ZM1162.46 162.06L1105.11 122.689L1109.47 116.206L1166.91 155.605L1162.46 162.06ZM1168.27 153.503L1110.89 114.103L1115.25 107.619L1172.75 147.019L1168.27 153.503ZM1174.08 144.945L1116.56 105.516L1120.92 99.0029L1178.5 138.49L1174.08 144.945ZM1179.9 136.387L1122.46 96.9L1126.82 90.4161L1184.46 129.933L1179.9 136.387ZM1185.71 127.83L1128.24 88.3132L1132.63 81.8294L1190.3 121.375L1185.71 127.83ZM1191.52 119.272L1134.02 79.8433L1138.41 73.3302L1196.14 112.934L1191.52 119.272ZM1197.33 110.715L1139.8 71.0813L1144.19 64.5974L1201.98 104.231L1197.33 110.715ZM1203.14 102.157L1145.32 62.5238L1149.71 56.0107L1207.58 95.7025L1203.14 102.157ZM1208.95 93.5996L1151.39 53.9078L1155.75 47.4239L1213.68 87.145L1208.95 93.5996ZM1214.76 85.0421L1157.18 45.3211L1161.53 38.954L1219.64 78.7043L1214.76 85.0421ZM1220.57 76.4846L1162.46 36.7343L1166.82 30.2212L1224.93 70.0299L1220.57 76.4846ZM1226.38 67.927L1168.27 28.1183L1172.63 21.6345L1230.74 61.4723L1226.38 67.927ZM1232.19 59.3694L1174.08 19.5316L1178.44 13.0185L1236.55 52.9148L1232.19 59.3694ZM1238 50.8119L1179.9 10.9156L1184.25 4.43174L1242.36 44.3572L1238 50.8119Z" fill="white"/>
<path d="M732.132 0.985352H726.525C716.797 5.86291 708.302 12.9047 701.685 21.576L703.515 23.0072C710.947 13.2497 720.822 5.65027 732.132 0.985352Z" fill="white"/>
<path d="M1307.38 800.254L1222.31 924.791L864.933 679.689C888.379 644.875 912.26 610.089 936.113 575.363C933.912 574.365 931.883 573.025 930.099 571.391C904.474 609.009 878.675 646.919 857.147 678.637L857.757 679.046L819.291 735.474L820.976 736.613C794.131 776.509 768.681 814.302 744.131 850.519L741.778 848.912L702.063 907.063L675.915 945.265L677.833 946.579L629.343 1017.58L627.426 1016.27L599.826 1056.63L600.726 1057.24C572.574 1094.57 504.852 1106.89 463.916 1081.16L461.418 1085.14C503.225 1111.42 571.644 1099.74 602.295 1062.76L602.557 1062.94L604.619 1060.02L620.686 1071.06C601.299 1096.65 572.975 1113.9 541.43 1119.32C509.885 1124.75 477.47 1117.93 450.726 1100.26L449.739 1099.62L399.041 1175.56L400.029 1176.2C446.716 1207.42 503.607 1219.26 558.787 1209.26C613.966 1199.25 663.154 1168.17 696.049 1122.52L719.088 1138.32L669.64 1210.81L819.959 1315.28H846.339L816.386 1294.2L857.815 1233.51L872.342 1243.52L899.913 1203.16L897.647 1201.58L897.995 1201.82L940.529 1139.52L994.741 1176.2C985.519 1191.09 970.872 1201.76 953.929 1205.93C936.987 1210.11 919.092 1207.46 904.067 1198.55L902.876 1200.56C918.413 1209.78 936.92 1212.54 954.447 1208.23C971.974 1203.92 987.133 1192.9 996.688 1177.52L1008.72 1185.64L1010.02 1183.71L941.836 1137.59L946.339 1131.02L948.286 1132.33L970.569 1099.74L1060.63 1161.45L955.578 1315.28H975.392L1307.38 829.285V800.254ZM747.53 852.826L745.991 851.774L784.253 795.143L842.359 835.068C833.03 849.841 818.335 860.372 801.401 864.419C784.466 868.466 766.629 865.711 751.685 856.74L750.494 858.726C765.953 868.046 784.422 870.927 801.964 866.753C819.505 862.579 834.73 851.681 844.393 836.383L851.133 840.997L852.469 839.07L845.729 834.426C856.518 819.908 861.191 801.707 858.739 783.754C856.288 765.801 846.907 749.539 832.626 738.482L831.203 740.351C845.013 751.042 854.078 766.773 856.432 784.135C858.787 801.498 854.242 819.094 843.783 833.111L785.677 793.186L822.981 737.869L825.131 739.329L861.679 685.822L1037.13 806.125L1014.88 838.748L1016.79 840.063L980.418 893.306L978.501 891.963L942.127 945.236L944.044 946.55L907.554 999.852L905.636 998.509L884.05 1030.14L708.6 909.867L747.53 852.826ZM402.295 1174.74L450.32 1102.6C453.225 1104.56 456.304 1106.34 459.384 1108L418.71 1184.61C413.248 1181.61 407.699 1178.33 402.295 1174.74ZM420.918 1185.75L461.592 1109.14C464.672 1110.72 467.78 1112.06 470.947 1113.52L438.117 1193.73C432.249 1191.33 426.525 1188.7 420.918 1185.75ZM440.18 1194.51L473.01 1114.31C476.148 1115.57 479.343 1116.71 482.568 1117.7L457.699 1200.65C451.801 1198.98 445.962 1196.97 440.18 1194.63V1194.51ZM459.936 1201.32L484.776 1118.37C488.001 1119.31 491.226 1120.13 494.48 1120.8L477.745 1205.67C471.761 1204.59 465.834 1203.16 459.936 1201.38V1201.32ZM480.041 1206.11L496.804 1121.35C500.058 1121.97 503.312 1122.46 506.595 1122.81L497.879 1208.8C492.01 1208.21 485.996 1207.37 480.041 1206.23V1206.11ZM518.361 1209.79C512.347 1209.79 506.333 1209.47 500.349 1208.91L508.89 1122.93C512.144 1123.22 515.427 1123.4 518.71 1123.43L518.361 1209.79ZM520.686 1209.79L521.034 1123.43C524.288 1123.43 527.542 1123.25 530.825 1122.99L538.64 1208.94C532.655 1209.55 526.67 1209.87 520.686 1209.91V1209.79ZM541.023 1208.74L533.207 1122.75C536.432 1122.43 539.657 1121.99 542.882 1121.41L558.774 1206.11C552.818 1207.42 546.92 1208.27 540.965 1208.85L541.023 1208.74ZM561.069 1205.82L545.177 1120.97C548.373 1120.33 551.54 1119.6 554.677 1118.72L578.501 1201.7C572.69 1203.42 566.851 1204.8 561.011 1205.93L561.069 1205.82ZM580.738 1201.06L556.915 1118.08C560.052 1117.15 563.132 1116.09 566.182 1114.96L597.705 1195.54C592.098 1197.58 586.432 1199.48 580.68 1201.17L580.738 1201.06ZM599.942 1194.46L568.361 1114.11C571.267 1112.88 574.404 1111.51 577.339 1110.08L616.415 1187.1C610.972 1189.86 605.462 1192.35 599.884 1194.57L599.942 1194.46ZM618.507 1186.04L579.431 1109.03C582.336 1107.51 585.241 1105.84 588.146 1104.12L634.428 1177.14C629.111 1180.44 623.823 1183.42 618.449 1186.16L618.507 1186.04ZM636.258 1175.97L589.977 1102.95C592.882 1101.14 595.468 1099.21 598.112 1097.11L651.278 1165.4C646.397 1169.25 641.371 1172.7 636.258 1175.97ZM653.138 1164.02L599.971 1095.77C602.624 1093.66 605.181 1091.44 607.641 1089.11L667.257 1151.93C662.686 1156.2 657.97 1160.23 653.109 1164.02H653.138ZM668.942 1150.32L609.297 1087.47C611.766 1085.08 614.12 1082.59 616.415 1080L681.958 1136.66C677.775 1141.45 673.417 1145.89 668.913 1150.32H668.942ZM683.469 1134.87L617.926 1078.21C619.524 1076.29 621.121 1074.3 622.632 1072.37L694.102 1121.41C690.732 1126 687.159 1130.52 683.469 1134.87ZM680.941 1198.75L721.18 1139.84L727.629 1144.28L687.333 1203.25L680.941 1198.75ZM689.396 1204.59L729.721 1145.59L736.171 1150L695.787 1209.09L689.396 1204.59ZM697.879 1210.43L738.263 1151.73L744.712 1156.14L704.271 1215.31L697.879 1210.43ZM706.333 1216.42L746.804 1157.57L753.254 1161.98L712.725 1221.3L706.333 1216.42ZM714.817 1222.26L755.375 1163.41L761.824 1167.85L721.15 1227.26L714.817 1222.26ZM723.271 1228.1L763.945 1168.67L770.395 1173.08L729.721 1232.6L723.271 1228.1ZM731.726 1233.94L772.4 1174.39L778.82 1178.83L738.146 1238.44L731.726 1233.94ZM745.003 1243.29L740.209 1239.93L780.883 1180.26L787.362 1184.67L746.688 1244.4L745.003 1243.29ZM748.693 1245.83L789.367 1186.1L795.845 1190.54L755.171 1250.24L748.693 1245.83ZM757.234 1251.67L797.908 1191.97L804.358 1196.38L763.684 1256.11L757.234 1251.67ZM765.776 1257.51L806.45 1197.79L812.899 1202.23L772.225 1261.92L765.776 1257.51ZM774.317 1263.35L815.137 1204.3L821.557 1208.71L780.883 1268.44L774.317 1263.35ZM782.859 1269.2L823.533 1209.47L829.982 1213.91L789.308 1273.61L782.859 1269.2ZM791.4 1275.04L832.074 1215.31L838.524 1219.72L797.85 1279.45L791.4 1275.04ZM799.942 1280.88L840.616 1221.15L847.066 1225.59L806.392 1285.29L799.942 1280.88ZM814.933 1291.92L808.483 1287.51L849.157 1227.78L855.607 1232.19L814.933 1291.92ZM942.591 1128.36L944.509 1129.68L896.165 1200.47L894.218 1199.16L870.598 1233.71L609.587 1054.73L633.353 1020.3L632.307 1019.6C645.865 999.794 659.626 979.573 673.591 958.934L728.617 996.669C719.295 1011.49 704.578 1022.06 687.608 1026.12C670.638 1030.18 652.762 1027.41 637.798 1018.4L636.578 1020.41C652.052 1029.74 670.543 1032.62 688.099 1028.43C705.656 1024.24 720.885 1013.31 730.534 997.983L742.504 1006.19L743.841 1004.26L674.753 956.918L680.564 948.419L681.726 949.237L703.864 916.847L964.875 1095.83L942.591 1128.36ZM1064.61 1155.61L889.018 1035.31L911.418 1002.54L909.471 1001.2L945.845 947.952L944.654 947.134L947.792 949.266L964.003 925.55L1139.57 1045.94L1064.61 1155.61ZM1143.52 1040.16L967.955 919.768L984.166 896.023L982.22 894.708L1017.84 842.574L1066.82 876.162C1058.52 889.409 1045.38 898.855 1030.22 902.47C1015.06 906.085 999.104 903.581 985.764 895.497L984.544 897.483C998.395 905.908 1014.98 908.531 1030.74 904.79C1046.49 901.049 1060.16 891.241 1068.8 877.476L1079.43 884.749L1080.74 882.85L1021.15 841.961L1042.85 810.184L1218.42 930.574L1143.52 1040.16Z" fill="white"/>
<path d="M1024.29 0.985352C1025.06 1.1789 1025.85 1.32524 1026.64 1.42356L1031.38 1.9202C1034.09 2.22156 1036.83 1.90195 1039.4 0.985352H1024.29Z" fill="white"/>
<path d="M1170.83 432.776C1170.56 435.196 1170.76 437.646 1171.43 439.986C1172.1 442.326 1173.23 444.509 1174.75 446.409C1176.26 448.31 1178.14 449.89 1180.26 451.059C1182.39 452.228 1184.72 452.963 1187.13 453.221L1191.86 453.717C1195.2 454.079 1198.57 453.523 1201.61 452.108C1204.66 450.693 1207.26 448.473 1209.15 445.685C1210.87 443.173 1211.95 440.274 1212.29 437.245L1214.44 418.143L1172.98 413.675L1170.83 432.776ZM1175.45 433.272L1177.08 418.669L1209.27 422.145L1207.67 436.602C1207.41 438.868 1206.61 441.035 1205.32 442.911C1203.9 444.994 1201.95 446.653 1199.68 447.713C1197.4 448.772 1194.88 449.192 1192.39 448.927L1187.65 448.431C1184.03 448.041 1180.71 446.223 1178.42 443.377C1176.12 440.53 1175.05 436.886 1175.42 433.243L1175.45 433.272Z" fill="white"/>
<path d="M1307.38 531.349C1305.42 530.938 1303.58 530.096 1301.99 528.884C1300.4 527.671 1299.09 526.119 1298.17 524.339L1295.99 520.104C1294.84 517.871 1294.31 515.363 1294.47 512.852C1294.63 510.341 1295.47 507.921 1296.89 505.852C1298.17 503.967 1299.9 502.432 1301.92 501.383L1307.38 498.462V493.205L1299.77 497.206C1297.08 498.622 1294.77 500.678 1293.06 503.194C1291.15 505.958 1290.03 509.192 1289.82 512.548C1289.61 515.904 1290.32 519.254 1291.86 522.236L1294.04 526.501C1295.37 529.038 1297.26 531.228 1299.58 532.897C1301.89 534.566 1304.56 535.666 1307.38 536.11V531.349Z" fill="white"/>
<path d="M1003.08 570.515C1000.57 568.79 997.676 567.708 994.654 567.36L975.566 565.228L971.121 606.76L990.209 608.892C992.609 609.168 995.041 608.966 997.363 608.296C999.685 607.625 1001.85 606.501 1003.74 604.987C1005.63 603.473 1007.21 601.599 1008.37 599.473C1009.54 597.346 1010.28 595.009 1010.55 592.595L1011.07 587.834C1011.42 584.49 1010.87 581.112 1009.46 578.062C1008.05 575.011 1005.85 572.402 1003.08 570.515ZM1006.45 587.308L1005.93 592.069C1005.73 593.877 1005.18 595.628 1004.3 597.221C1003.43 598.814 1002.25 600.218 1000.84 601.352C999.423 602.486 997.799 603.329 996.06 603.831C994.321 604.333 992.5 604.485 990.703 604.277L976.176 602.642L979.634 570.515L994.16 572.121C996.406 572.391 998.557 573.191 1000.44 574.458C1002.48 575.837 1004.12 577.745 1005.18 579.981C1006.23 582.216 1006.67 584.697 1006.45 587.162V587.308Z" fill="white"/>
<path d="M1054.62 479.536C1056.91 483.904 1060.82 487.188 1065.5 488.676C1070.19 490.163 1075.26 489.734 1079.63 487.48L1083.85 485.29C1085.99 484.174 1087.9 482.642 1089.46 480.782C1091.02 478.923 1092.19 476.772 1092.92 474.453C1093.64 472.135 1093.91 469.695 1093.69 467.274C1093.48 464.853 1092.79 462.499 1091.66 460.347L1082.74 443.32L1045.64 462.45L1054.62 479.536ZM1087.42 462.45C1088.26 464.056 1088.78 465.813 1088.94 467.621C1089.11 469.428 1088.91 471.251 1088.37 472.983C1087.83 474.715 1086.96 476.323 1085.8 477.713C1084.64 479.104 1083.21 480.249 1081.61 481.084L1077.37 483.274C1075.14 484.435 1072.63 484.964 1070.12 484.804C1067.62 484.645 1065.2 483.803 1063.13 482.369C1061.26 481.073 1059.74 479.338 1058.69 477.316L1051.95 464.436L1080.77 449.599L1087.42 462.45Z" fill="white"/>
<path d="M1254.21 737.431C1251.44 735.529 1248.21 734.414 1244.86 734.204C1241.51 733.993 1238.17 734.694 1235.18 736.234L1230.97 738.424C1228.83 739.535 1226.93 741.06 1225.37 742.911C1223.82 744.763 1222.64 746.905 1221.91 749.214C1221.18 751.523 1220.92 753.955 1221.12 756.368C1221.33 758.782 1222.01 761.131 1223.13 763.279L1232.02 780.307L1269.06 761.118L1260.17 744.091C1258.74 741.427 1256.7 739.145 1254.21 737.431ZM1262.78 759.22L1234.02 774.115L1227.28 761.235C1226.43 759.628 1225.91 757.868 1225.75 756.057C1225.58 754.246 1225.77 752.42 1226.31 750.685C1226.85 748.949 1227.73 747.338 1228.89 745.946C1230.06 744.553 1231.48 743.407 1233.09 742.572L1237.33 740.381C1240.58 738.688 1244.37 738.352 1247.87 739.445C1251.36 740.539 1254.29 742.974 1256.01 746.223L1262.78 759.22Z" fill="white"/>
<path d="M1307.38 622.766C1305.6 625.279 1304.5 628.203 1304.15 631.266L1303.63 636.026C1303.12 640.795 1304.46 645.578 1307.38 649.374V622.766Z" fill="white"/>
<path d="M990.529 696.688L973.533 705.625L992.679 742.718L1009.67 733.81C1012.35 732.426 1014.66 730.424 1016.41 727.968C1018.31 725.196 1019.43 721.955 1019.63 718.595C1019.84 715.234 1019.13 711.881 1017.58 708.896L1015.4 704.661C1014.29 702.493 1012.77 700.565 1010.91 698.99C1009.06 697.415 1006.92 696.222 1004.61 695.482C1002.3 694.741 999.867 694.466 997.45 694.673C995.033 694.88 992.681 695.565 990.529 696.688ZM1012.55 725.194C1011.28 727.084 1009.55 728.621 1007.52 729.662L994.683 736.409L979.808 707.582L992.65 700.835C995.89 699.129 999.672 698.786 1003.16 699.881C1006.66 700.976 1009.57 703.421 1011.27 706.677L1013.45 710.912C1014.63 713.163 1015.17 715.698 1015.01 718.238C1014.86 720.779 1014 723.226 1012.55 725.31V725.194Z" fill="white"/>
<path d="M1117.64 777.357C1112.77 776.856 1107.91 778.306 1104.1 781.39C1100.29 784.474 1097.85 788.944 1097.3 793.829L1095.15 812.93L1136.61 817.37L1138.76 798.269C1139.03 795.851 1138.83 793.403 1138.16 791.065C1137.49 788.727 1136.36 786.545 1134.85 784.645C1133.34 782.745 1131.47 781.164 1129.35 779.993C1127.22 778.823 1124.89 778.086 1122.49 777.824L1117.64 777.357ZM1134.02 797.801L1132.39 812.259L1100.2 808.812L1101.8 794.209C1102.22 790.549 1104.07 787.206 1106.93 784.904C1109.79 782.601 1113.44 781.527 1117.08 781.913L1121.85 782.409C1123.65 782.605 1125.4 783.159 1127 784.039C1128.59 784.92 1129.99 786.108 1131.12 787.537C1132.26 788.966 1133.09 790.606 1133.59 792.363C1134.09 794.12 1134.23 795.958 1134.02 797.772V797.801Z" fill="white"/>
<path d="M1087.86 0.985352L1099.8 24.0878L1086.93 30.8345C1083.69 32.541 1079.9 32.8843 1076.41 31.789C1072.92 30.6937 1070 28.2493 1068.3 24.9932L1066.24 20.729C1065.09 18.4954 1064.56 15.9881 1064.72 13.4769C1064.88 10.9656 1065.72 8.54532 1067.14 6.4762C1068.4 4.61265 1070.08 3.08007 1072.05 2.00758L1074 0.985352H1065.66C1064.79 1.88135 1064.01 2.85945 1063.34 3.90602C1061.43 6.67552 1060.31 9.9129 1060.1 13.2721C1059.88 16.6314 1060.58 19.9862 1062.11 22.978L1064.18 27.2713C1066.45 31.6281 1070.35 34.9003 1075.01 36.3681C1079.68 37.836 1084.74 37.3794 1089.08 35.0987L1106.07 26.1615L1093.11 0.985352H1087.86Z" fill="white"/>
<path d="M959.093 0.985352L888.204 104.727L866.996 90.124C864.875 88.6637 865.805 80.6027 872.167 71.315L920.25 0.985352H914.613L868.332 68.7448C861.999 78.0033 858.483 90.0072 864.352 94.0377L889.395 111.24L964.73 0.985352H959.093Z" fill="white"/>
<path d="M996.775 0.985352L1081.81 59.311L1049.71 106.334L959.674 44.5617L989.453 0.985352H983.817L953.195 45.8176L1050.9 112.818L1088.29 58.0843L1005.05 0.985352H996.775Z" fill="white"/>
<path d="M973.997 33.113L966.938 43.4521L1050.09 100.288L1057.15 89.9783L973.997 33.113ZM1048.81 93.892L973.271 42.1378L975.043 39.5384L1050.58 91.2926L1048.81 93.892Z" fill="white"/>
<path d="M1064.35 743.126C1122.46 783.051 1210.11 756.736 1259.47 684.45C1308.83 612.163 1301.57 520.863 1243.46 480.967C1185.36 441.071 1097.7 467.357 1048.31 539.643C998.925 611.929 1006.13 703.2 1064.35 743.126ZM1052.15 542.272C1100.06 472.176 1184.69 446.357 1240.76 484.822C1296.83 523.287 1303.54 611.667 1255.61 681.821C1207.67 751.975 1123.1 777.882 1067 739.27C1010.89 700.659 1004.24 612.426 1052.15 542.272Z" fill="white"/>
<path d="M1307.38 237.559C1306.07 240.148 1305.4 243.01 1305.4 245.912C1305.4 248.815 1306.07 251.676 1307.38 254.265V237.559Z" fill="white"/>
<path d="M1258.54 201.05C1257.15 203.05 1256.16 205.306 1255.64 207.69C1255.12 210.074 1255.07 212.538 1255.5 214.94C1255.93 217.342 1256.83 219.635 1258.14 221.687C1259.46 223.739 1261.16 225.51 1263.16 226.898L1267.08 229.643C1269.08 231.041 1271.33 232.028 1273.71 232.549C1276.09 233.069 1278.54 233.112 1280.94 232.675C1283.33 232.238 1285.62 231.33 1287.66 230.003C1289.71 228.675 1291.47 226.955 1292.85 224.941L1303.75 209.082L1269.52 185.22L1258.54 201.05ZM1297.15 210.279L1288.9 222.254C1287.88 223.776 1286.57 225.08 1285.04 226.088C1283.52 227.095 1281.81 227.788 1280.01 228.125C1278.21 228.462 1276.37 228.437 1274.59 228.051C1272.8 227.664 1271.11 226.925 1269.61 225.876L1265.8 222.955C1263.75 221.515 1262.13 219.543 1261.11 217.249C1260.09 214.955 1259.7 212.425 1259.99 209.929C1260.27 207.663 1261.09 205.499 1262.38 203.62L1270.63 191.645L1297.15 210.279Z" fill="white"/>
<path d="M1307.38 189.106C1305.47 189.614 1303.48 189.699 1301.54 189.356C1299.6 189.013 1297.75 188.25 1296.14 187.12L1292.21 184.403C1290.72 183.364 1289.45 182.038 1288.47 180.503C1287.49 178.968 1286.82 177.253 1286.49 175.457C1286.17 173.661 1286.21 171.819 1286.6 170.036C1286.98 168.254 1287.72 166.565 1288.76 165.069L1296.98 153.094L1307.38 160.337V154.496L1295.76 146.406L1284.86 162.265C1282.07 166.312 1280.99 171.309 1281.86 176.156C1282.73 181.004 1285.49 185.304 1289.51 188.113L1293.43 190.829C1295.43 192.228 1297.7 193.207 1300.08 193.709C1302.47 194.211 1304.93 194.225 1307.32 193.749L1307.38 189.106Z" fill="white"/>
<path d="M1307.38 54.2582L1280.62 36.0333L1194.97 161.301L1227.57 183.644L1307.38 66.8171V54.2582ZM1226.35 177.131L1201.45 160.074L1281.81 42.4295L1306.71 59.3986L1226.35 177.131Z" fill="white"/>
<path d="M237.652 244.218L331.435 308.472L347.298 285.282L253.486 221.028L237.652 244.218ZM340.79 286.538L330.214 302.018L244.044 242.991L254.59 227.541L340.79 286.538Z" fill="white"/>
<path d="M467.751 367.968L354.968 290.599L339.134 313.789L451.946 391.158L467.751 367.968ZM345.729 312.475L356.275 297.025L461.359 369.107L450.813 384.557L345.729 312.475Z" fill="white"/>
<path d="M578.297 443.759L476.467 373.867L460.604 397.057L562.522 466.949L578.297 443.759ZM467.054 395.83L477.629 380.38L571.79 444.927L561.243 460.406L467.054 395.83Z" fill="white"/>
<path d="M439.018 247.168C420.831 276.725 434.282 318.841 466.647 339.373L467.751 337.562C436.49 317.731 423.416 276.988 440.993 248.453L439.018 247.168Z" fill="white"/>
<path d="M510.546 292.146L468.042 356.372L469.959 357.745L512.463 293.519L510.546 292.146Z" fill="white"/>
<path d="M1112.81 161.943L1096.28 186.126L1080.82 175.553L1084.49 220.473L1127.6 207.622L1111.91 196.845L1128.44 172.633L1112.81 161.943Z" fill="white"/>
<path d="M421.615 0.985352L420.598 2.47489L436.229 13.1937L444.567 0.985352H421.615Z" fill="white"/>
<path d="M875.683 1258.8L841.981 1264.49L847.617 1298.26L857.06 1285L873.533 1296.8L882.917 1283.6L866.415 1271.83L875.683 1258.8Z" fill="white"/>
<path d="M24.9272 714.475L16.0079 728.056L49.4768 721.105L42.5622 687.576L33.7883 700.923L16.8795 689.795L7.98933 703.318L24.9272 714.475Z" fill="white"/>
<path d="M481.755 932.414L438.64 945.265L454.067 955.867L437.536 980.079L453.167 990.769L469.698 966.585L485.386 977.334L481.755 932.414Z" fill="white"/>
</svg>
