<svg width="94" height="107" viewBox="0 0 94 107" fill="none" xmlns="http://www.w3.org/2000/svg">
<g opacity="0.5" clip-path="url(#clip0_101_1166)">
<path d="M75.7164 11.5008L91.6951 12.3473C92.3836 12.3831 93.0581 12.5557 93.679 12.855C94.2999 13.1543 94.8549 13.5743 95.3114 14.0905C95.7679 14.6067 96.1168 15.2086 96.3377 15.861C96.5585 16.5135 96.6469 17.2034 96.5976 17.8903L94.8339 42.5028C94.7397 43.8015 94.1599 45.0171 93.2097 45.9082C92.2595 46.7992 91.0085 47.3005 89.7052 47.3124C89.2679 47.3156 88.8484 47.4853 88.532 47.7868C88.2157 48.0883 88.0264 48.499 88.0026 48.9352L85.0729 101.011C84.9775 102.716 84.2106 104.314 82.9398 105.456C81.6691 106.597 79.9976 107.19 78.2905 107.105L17.2472 104.024C17.0198 104.013 16.7969 103.956 16.5914 103.858C16.3859 103.76 16.2018 103.623 16.0499 103.453C15.898 103.284 15.7813 103.086 15.7064 102.871C15.6316 102.656 15.6002 102.429 15.6139 102.202L21.4543 11.89C21.4831 11.4469 21.682 11.032 22.0095 10.7318C22.3371 10.4317 22.7681 10.2695 23.2125 10.2792L75.7164 11.5008Z" fill="#5CCD6A"/>
<g opacity="0.3">
<path d="M15.7264 100.485L15.6145 102.195L81.6452 102.38L88.926 12.1916C88.926 12.1916 72.8183 13.0935 72.5173 13.065C72.2162 13.0364 15.7264 100.485 15.7264 100.485Z" fill="black"/>
</g>
<path d="M67.887 5.88073L86.9927 6.52327L80.1121 100.064L12.6067 100.506L11.5573 6.70768L67.887 5.88073Z" fill="#EBEBEB"/>
<path d="M67.887 5.88094L66.8832 5.90592L63.9605 5.96254L52.7408 6.14699L11.558 6.77131L11.6208 6.70723C11.9109 31.8377 12.2833 64.4855 12.693 100.512L12.6076 100.427L27.7378 100.329L80.1229 99.9857L80.0423 100.061C83.0551 59.1609 85.539 25.6065 86.953 6.51972L86.9923 6.56346L72.7738 6.05703L69.1146 5.92386C68.2964 5.89305 67.8813 5.8704 67.8813 5.8704C67.8813 5.8704 68.298 5.87652 69.1168 5.90073L72.7779 6.01407L86.9974 6.47391L87.0404 6.47798L87.0363 6.52095C85.638 25.6192 83.1871 59.1768 80.1789 100.064L80.1717 100.14L80.0956 100.133L27.7387 100.496L12.6085 100.594L12.5225 100.585L12.5306 100.499C12.1339 64.478 11.7746 31.8315 11.5014 6.69926L11.5074 6.63646L11.5702 6.64242L52.7483 6.06767L63.9679 5.91989L66.8917 5.88671C67.5485 5.89557 67.887 5.88094 67.887 5.88094Z" fill="#495E4C"/>
<path d="M8.52959 3.29316L8.68196 98.1041L79.3289 98.1497L78.1249 3.30588L8.52959 3.29316Z" fill="white"/>
<path d="M8.52834 3.30622L78.1255 3.22908L78.195 3.23566L78.1884 3.30507C78.5304 29.931 78.9516 62.7336 79.4093 98.1472L79.4012 98.2331L79.3151 98.225L78.8142 98.2275L8.68107 98.1839L8.60498 98.1767L8.61218 98.1007C8.55792 41.9706 8.5319 3.97348 8.52834 3.30622C8.52971 3.99662 8.6189 41.9964 8.75743 98.1178L8.6813 98.0405L78.8286 98.0755L79.3292 98.0762L79.2411 98.1613C78.7988 62.7257 78.3869 29.9308 78.0548 3.30575L78.1249 3.37576L8.52834 3.30622Z" fill="#495E4C"/>
<path d="M56.5234 84.0657C56.7212 82.0266 57.5199 80.0919 58.8184 78.5065C60.1169 76.9211 61.8569 75.756 63.8185 75.1587C65.78 74.5614 67.8749 74.5587 69.8381 75.1509C71.8014 75.7431 73.545 76.9036 74.8482 78.4857C76.1514 80.0678 76.9558 82.0003 77.1597 84.0389C77.3635 86.0775 76.9576 88.1306 75.9934 89.9385C75.0291 91.7464 73.5498 93.2279 71.7425 94.1957C69.9351 95.1635 67.881 95.5741 65.8399 95.3755C63.1047 95.1067 60.5877 93.765 58.8411 91.6447C57.0945 89.5244 56.261 86.7988 56.5234 84.0657ZM76.9709 86.0491C77.1657 84.0473 76.762 82.0326 75.8107 80.2598C74.8594 78.4871 73.4033 77.0359 71.6265 76.0897C69.8498 75.1436 67.8321 74.745 65.8288 74.9445C63.8255 75.144 61.9266 75.9324 60.3721 77.2102C58.8176 78.488 57.6774 80.1978 57.0957 82.1231C56.514 84.0485 56.517 86.1031 57.1042 88.0271C57.6915 89.951 58.8366 91.6578 60.3948 92.9317C61.953 94.2056 63.8542 94.9894 65.8581 95.1838C68.5439 95.4417 71.2223 94.6248 73.3056 92.9124C75.3889 91.1999 76.7071 88.7316 76.9709 86.0491Z" fill="#E0E0E0"/>
<path d="M57.7111 84.1782C57.8841 82.4001 58.581 80.7134 59.7136 79.3312C60.8463 77.949 62.3637 76.9334 64.0742 76.4128C65.7847 75.8923 67.6114 75.8901 69.3234 76.4066C71.0353 76.9231 72.5556 77.9351 73.692 79.3146C74.8284 80.6941 75.5299 82.3792 75.7079 84.1568C75.8858 85.9344 75.5321 87.7248 74.6916 89.3014C73.8511 90.878 72.5614 92.1702 70.9857 93.0145C69.41 93.8588 67.619 94.2174 65.8391 94.0449C63.4526 93.8109 61.2565 92.6405 59.7326 90.7907C58.2087 88.9408 57.4817 86.5626 57.7111 84.1782ZM74.3844 85.7974C74.532 84.2812 74.2261 82.7552 73.5055 81.4124C72.7849 80.0697 71.6819 78.9705 70.3361 78.2539C68.9902 77.5374 67.462 77.2356 65.9446 77.3868C64.4272 77.5379 62.9889 78.1353 61.8115 79.1032C60.6341 80.0712 59.7706 81.3663 59.3302 82.8247C58.8897 84.2831 58.8921 85.8393 59.3371 87.2966C59.782 88.7538 60.6495 90.0465 61.8299 91.0113C63.0102 91.9761 64.4504 92.5695 65.9683 92.7166C68.0005 92.9082 70.0259 92.2875 71.6008 90.9905C73.1757 89.6934 74.1719 87.8257 74.3711 85.7962L74.3844 85.7974Z" fill="#E0E0E0"/>
<path d="M59.901 84.5292C59.9992 83.4953 60.3406 82.4993 60.8974 81.6224L62.0251 82.3328C61.5796 83.0368 61.3061 83.8356 61.2267 84.6647C61.1345 85.6119 61.2969 86.5666 61.697 87.4304C62.0971 88.2941 62.7205 89.0357 63.503 89.5787C64.2854 90.1216 65.1987 90.4463 66.1485 90.5193C67.0983 90.5923 68.0504 90.411 68.9066 89.9939L69.491 91.1897C68.4214 91.7107 67.2319 91.9372 66.0453 91.8458C64.8587 91.7544 63.7179 91.3484 62.7407 90.6696C61.7634 89.9909 60.9851 89.064 60.4859 87.9846C59.9867 86.9052 59.7849 85.7124 59.901 84.5292Z" fill="#E0E0E0"/>
<path d="M64.0457 78.9726C65.4075 78.4227 66.9126 78.3357 68.3289 78.7249C69.7452 79.1142 70.9941 79.9581 71.883 81.1266C72.7719 82.295 73.2513 83.723 73.2474 85.1905C73.2435 86.6579 72.7565 88.0832 71.8615 89.2466L70.8039 88.4295C71.5204 87.4981 71.9101 86.3572 71.9131 85.1825C71.9161 84.0078 71.5321 82.8647 70.8203 81.9296C70.1086 80.9944 69.1087 80.3191 67.9749 80.0078C66.841 79.6965 65.6362 79.7666 64.5463 80.2071L64.0457 78.9726Z" fill="#E0E0E0"/>
<path d="M74.1745 27.3206C74.1701 27.3669 60.8426 27.3917 44.3929 27.3942C27.9432 27.3968 14.6063 27.344 14.6074 27.2974C14.6085 27.2508 27.9393 27.2263 44.3926 27.2208C60.8459 27.2153 74.1759 27.2708 74.1745 27.3206Z" fill="#495E4C"/>
<path d="M42.2104 23.5466C42.2061 23.5928 36.054 23.6303 28.4603 23.628C20.8667 23.6257 14.7122 23.583 14.71 23.5361C14.7077 23.4892 20.8664 23.4523 28.4601 23.4546C36.0537 23.4569 42.2079 23.503 42.2104 23.5466Z" fill="#495E4C"/>
<path d="M74.0684 31.1892C74.064 31.2354 60.7332 31.2599 44.2868 31.2628C27.8404 31.2656 14.5003 31.2125 14.5014 31.1659C14.5024 31.1193 27.8332 31.0948 44.2863 31.0926C60.7393 31.0904 74.0711 31.1261 74.0684 31.1892Z" fill="#495E4C"/>
<path d="M73.9656 35.0241C73.9609 35.0736 60.6304 35.0948 44.1837 35.101C27.737 35.1071 14.3972 35.0507 14.3986 35.0008C14.3999 34.9509 27.7304 34.9297 44.1835 34.9275C60.6365 34.9253 73.9667 34.9775 73.9656 35.0241Z" fill="#495E4C"/>
<path d="M73.8608 38.8792C73.8564 38.9255 60.5256 38.95 44.0792 38.9528C27.6328 38.9556 14.2927 38.9025 14.2928 38.8659C14.2929 38.8292 27.6247 38.7948 44.078 38.7893C60.5313 38.7838 73.8612 38.8392 73.8608 38.8792Z" fill="#495E4C"/>
<path d="M73.7564 42.7309C73.752 42.7772 60.4212 42.8017 43.9715 42.8042C27.5218 42.8067 14.1883 42.7543 14.186 42.7074C14.1838 42.6605 27.5179 42.6363 43.9712 42.6308C60.4246 42.6253 73.7542 42.684 73.7564 42.7309Z" fill="#495E4C"/>
<path d="M73.6486 46.5819C73.6439 46.6314 60.3167 46.6529 43.8667 46.6588C27.4167 46.6646 14.0801 46.6085 14.0848 46.5589C14.0895 46.5094 27.4167 46.4879 43.8697 46.4856C60.3228 46.4834 73.6497 46.5353 73.6486 46.5819Z" fill="#495E4C"/>
<path d="M73.5438 50.4368C73.5395 50.4831 60.384 50.5242 44.1627 50.5117C27.9414 50.4991 14.7667 50.4617 14.7677 50.4151C14.7688 50.3685 27.9276 50.3278 44.1657 50.3385C60.4039 50.3493 73.5452 50.3869 73.5438 50.4368Z" fill="#495E4C"/>
<path d="M50.0986 55.6457C50.0942 55.692 42.1531 55.6934 32.3586 55.6327C22.5641 55.572 14.6156 55.5094 14.6167 55.4628C14.6178 55.4162 22.5589 55.4148 32.3583 55.4593C42.1577 55.5038 50.0967 55.5955 50.0986 55.6457Z" fill="#495E4C"/>
<path d="M37.5407 86.3817C37.5363 86.428 32.707 86.4207 26.7445 86.3595C20.782 86.2983 15.9529 86.2177 15.951 86.1675C15.9491 86.1173 20.7847 86.1285 26.7472 86.1897C32.7097 86.2509 37.5421 86.3318 37.5407 86.3817Z" fill="#495E4C"/>
<path d="M27.991 89.1622C27.9863 89.2118 25.2767 89.2386 21.9331 89.192C18.5896 89.1454 15.8742 89.0916 15.872 89.0447C15.8698 88.9978 18.5881 88.9852 21.9329 89.0186C25.2777 89.0519 27.9921 89.1156 27.991 89.1622Z" fill="#495E4C"/>
<path d="M29.8053 62.1499C29.8006 62.1994 26.6116 62.2475 22.6679 62.2641C18.7242 62.2807 15.5289 62.2549 15.5303 62.205C15.5316 62.1551 18.7242 62.104 22.6676 62.0907C26.611 62.0774 29.8063 62.1033 29.8053 62.1499Z" fill="#5CCD6A"/>
<g opacity="0.3">
<path d="M8.74519 82.0704L15.2906 81.4399L19.3961 76.3666L8.83533 78.7576L8.74519 82.0704Z" fill="black"/>
</g>
<path d="M-1.87428 74.0851L15.4428 74.0881L19.3961 76.3666L15.7468 79.759L-1.86564 79.9849L-1.87428 74.0851Z" fill="#5CCD6A"/>
<path d="M51.6105 63.7886L51.6682 63.8141C51.7243 63.8394 51.7773 63.8713 51.8261 63.9091C52.021 64.0549 52.1924 64.2297 52.3344 64.4274C52.8679 65.1956 53.2625 66.0512 53.5003 66.9554C53.9237 68.3755 54.0304 69.871 53.8129 71.3367C53.7367 71.7809 53.616 72.2163 53.4528 72.6364C53.27 73.0776 53.0511 73.503 52.7983 73.9083C52.2497 74.7908 51.5499 75.5699 50.731 76.2101C49.8353 76.9208 48.8142 77.4575 47.7205 77.7924C46.531 78.1615 45.2701 78.24 44.0438 78.021C42.6959 77.7476 41.4417 77.1306 40.4028 76.2299C39.364 75.3293 38.5759 74.1757 38.1151 72.881C37.871 72.1879 37.7438 71.4592 37.7386 70.7245C37.7174 69.9697 37.8683 69.22 38.1799 68.5321C38.4783 67.8095 39.0044 67.2037 39.6785 66.8067C40.0301 66.6153 40.4223 66.5105 40.8226 66.5009C41.2229 66.4912 41.6198 66.5771 41.9803 66.7513C42.7169 67.0975 43.3091 67.6904 43.6541 68.4271C43.9927 69.1668 44.1638 69.9721 44.155 70.7854C44.1659 72.4375 43.7673 74.0666 42.9949 75.5274C42.2306 76.9945 41.097 78.2375 39.7059 79.134C38.3426 79.9904 36.7695 80.4552 35.1592 80.4774C33.6037 80.5193 32.0684 80.1183 30.7324 79.3211C29.4636 78.534 28.4512 77.3954 27.8183 76.044C27.1997 74.7686 26.9561 73.344 27.1159 71.9359C27.1847 71.257 27.3797 70.597 27.6908 69.9896C27.9849 69.3964 28.4247 68.8873 28.9692 68.51C29.2357 68.3266 29.5372 68.2 29.855 68.1383C30.1727 68.0766 30.4997 68.0811 30.8157 68.1514C31.4191 68.311 31.9485 68.6746 32.3138 69.1803C32.6673 69.6578 32.8902 70.2191 32.9606 70.8088C33.0148 71.3646 32.9617 71.9256 32.8041 72.4613C32.4909 73.4514 32.0006 74.3766 31.3571 75.192C30.8074 75.9339 30.1834 76.6178 29.4948 77.2332C28.8966 77.7673 28.2568 78.2531 27.5814 78.6859C27.01 79.042 26.4157 79.36 25.8023 79.6378C24.9545 80.0259 24.067 80.3209 23.1554 80.5175C22.8393 80.5911 22.5196 80.6488 22.1977 80.6903C22.1977 80.6903 22.2799 80.668 22.4398 80.6365C22.5997 80.605 22.8402 80.5677 23.1486 80.4835C24.0527 80.2727 24.9326 79.9694 25.7745 79.5785C26.3812 79.2951 26.9692 78.9732 27.5348 78.6148C28.2025 78.1807 28.8346 77.6942 29.425 77.1599C30.1084 76.5553 30.7289 75.8835 31.2773 75.1545C31.907 74.346 32.387 73.4316 32.6946 72.4543C32.8495 71.9294 32.9016 71.3795 32.848 70.8349C32.7798 70.269 32.5637 69.731 32.2214 69.2749C31.8731 68.7963 31.3706 68.452 30.7983 68.2998C30.5013 68.2352 30.1942 68.2327 29.8962 68.2922C29.5981 68.3518 29.3157 68.4722 29.0665 68.646C28.5429 69.0109 28.1198 69.5018 27.8364 70.0734C27.5366 70.662 27.3492 71.3012 27.284 71.9585C27.1329 73.3405 27.3768 74.7371 27.9873 75.9866C28.6122 77.3052 29.6046 78.4158 30.8454 79.1851C32.1561 79.9604 33.6588 80.3512 35.1814 80.3128C36.7626 80.2889 38.3069 79.8319 39.6459 78.9916C41.0098 78.1073 42.1188 76.8824 42.8631 75.4382C43.6202 74.0017 44.0125 72.4014 44.0055 70.7779C44.0108 69.9897 43.8456 69.2097 43.5212 68.4912C43.1924 67.7922 42.6311 67.2287 41.9331 66.8969C41.5916 66.7361 41.2181 66.6551 40.8406 66.66C40.4694 66.6729 40.1061 66.7709 39.7788 66.9462C39.1364 67.325 38.6352 67.9027 38.3511 68.5917C38.0473 69.2574 37.9008 69.984 37.923 70.7153C37.9187 71.4298 38.0354 72.1399 38.2682 72.8155C38.7197 74.0846 39.4909 75.2161 40.5075 76.1009C41.524 76.9857 42.7516 77.5939 44.0718 77.8669C45.2758 78.0831 46.514 78.0095 47.6838 77.6521C48.7633 77.3241 49.772 76.7976 50.658 76.0998C51.8423 75.1759 52.7678 73.9622 53.3451 72.5762C53.5086 72.1666 53.6284 71.7409 53.7023 71.3062C53.9302 69.8497 53.8354 68.3609 53.4245 66.9449C53.1953 66.0451 52.8133 65.1911 52.295 64.4203C52.1579 64.223 51.9938 64.0458 51.8075 63.894C51.6874 63.8226 51.6063 63.7982 51.6105 63.7886Z" fill="#495E4C"/>
<path d="M61.2763 18.0562C61.2763 18.0562 61.2816 18.0001 61.2685 17.8921C61.2553 17.7841 61.2608 17.6213 61.2567 17.4175C61.2498 16.9967 61.2416 16.379 61.2271 15.5806L61.1315 8.69559L61.1833 8.74718L25.0977 9.12402L25.1825 9.03869C25.2122 12.2494 25.2494 15.3808 25.2705 18.4006L25.185 18.3158L50.9302 18.11L58.512 18.0612L60.5558 18.0513L61.0865 18.0516L61.2717 18.0691L61.0975 18.076L60.5758 18.0866L58.55 18.1181L50.987 18.2154L25.1922 18.4866L25.1062 18.4784L25.114 18.3958C25.0649 15.39 25.0525 12.2443 25.0195 9.03325L25.0276 8.94732L25.1136 8.95546L61.1847 8.62726L61.2376 8.63228L61.2329 8.68185C61.2491 11.6479 61.2639 13.9935 61.2718 15.6015C61.2734 16.3953 61.2757 17.0058 61.2759 17.426C61.2767 17.6294 61.2755 17.7827 61.2751 17.8927C61.2747 18.0027 61.2763 18.0562 61.2763 18.0562Z" fill="#455A64"/>
<path d="M27.0076 15.5445L27.0075 11.6812L28.9502 11.6812C29.4174 11.6811 29.7578 11.7823 29.9712 11.9847C30.1846 12.1833 30.2913 12.5034 30.2913 12.945C30.2913 13.3865 30.1847 13.7084 29.9713 13.9108C29.7579 14.1095 29.4175 14.2089 28.9502 14.2089L27.6754 14.2089L27.6754 15.5445L27.0076 15.5445ZM27.6753 13.5797L28.9116 13.5797C29.1581 13.5797 29.3384 13.53 29.4525 13.4307C29.5665 13.3276 29.6235 13.1657 29.6235 12.945C29.6235 12.7205 29.5665 12.5587 29.4524 12.4593C29.342 12.36 29.1617 12.3103 28.9115 12.3103L27.6753 12.3104L27.6753 13.5797Z" fill="#78C081"/>
<path d="M31.7776 15.594C31.4023 15.5941 31.1264 15.5242 30.9498 15.3844C30.7732 15.2409 30.6848 15.0164 30.6848 14.711C30.6848 14.3946 30.7805 14.1702 30.9718 14.0377C31.1668 13.9016 31.4814 13.8335 31.9155 13.8335L32.8372 13.8334C32.8299 13.6053 32.7655 13.4397 32.644 13.3367C32.5263 13.23 32.3386 13.1767 32.0811 13.1767C31.8714 13.1767 31.7095 13.2117 31.5954 13.2816C31.4814 13.3478 31.4059 13.4564 31.3692 13.6072L30.7455 13.6072C30.797 13.265 30.9295 13.0167 31.1428 12.8621C31.3562 12.7039 31.6763 12.6248 32.1032 12.6248C32.5815 12.6248 32.9273 12.7223 33.1407 12.9173C33.3578 13.1123 33.4664 13.425 33.4664 13.8555L33.4665 15.5443L32.8373 15.5443L32.8373 15.2187C32.6239 15.4689 32.2707 15.594 31.7776 15.594ZM31.3085 14.6889C31.3085 14.9244 31.5145 15.0421 31.9266 15.0421C32.2099 15.0421 32.4233 14.9906 32.5668 14.8876C32.7103 14.7846 32.8005 14.6227 32.8372 14.4019L32.8372 14.3026L32.0811 14.3026C31.566 14.3026 31.3085 14.4314 31.3085 14.6889Z" fill="#78C081"/>
<path d="M34.0526 14.6502L34.6763 14.6502C34.7535 14.9114 35.0129 15.042 35.4545 15.042C35.896 15.042 36.1167 14.9445 36.1167 14.7495C36.1167 14.5765 35.8555 14.4533 35.333 14.3797C34.8804 14.3209 34.5603 14.2252 34.3727 14.0928C34.1887 13.9566 34.0967 13.7524 34.0967 13.4802C34.0967 13.1895 34.1942 12.9743 34.3892 12.8344C34.5879 12.6946 34.8988 12.6247 35.3219 12.6247C35.7524 12.6247 36.0762 12.7001 36.2933 12.8509C36.5104 13.0018 36.6428 13.2409 36.6907 13.5684L36.067 13.5684C36.0265 13.4286 35.9456 13.3292 35.8242 13.2704C35.7064 13.2078 35.5353 13.1766 35.3109 13.1766C34.9062 13.1766 34.7038 13.2686 34.7038 13.4526C34.7038 13.5445 34.7627 13.6181 34.8804 13.6733C35.0018 13.7248 35.1895 13.769 35.4434 13.8057C35.9254 13.8756 36.2584 13.975 36.4423 14.1037C36.63 14.2288 36.7238 14.4257 36.7238 14.6943C36.7238 14.9923 36.6208 15.2167 36.4148 15.3676C36.2087 15.5185 35.8831 15.5939 35.4379 15.5939C35.0038 15.5939 34.6763 15.5185 34.4555 15.3677C34.2384 15.2168 34.1041 14.9777 34.0526 14.6502Z" fill="#78C081"/>
<path d="M38.6136 15.5938C38.1132 15.5938 37.7489 15.4761 37.5208 15.2406C37.2927 15.0051 37.1786 14.628 37.1786 14.1092C37.1786 13.5904 37.2926 13.2133 37.5207 12.9778C37.7489 12.7423 38.1131 12.6246 38.6135 12.6246C39.0587 12.6245 39.3935 12.7147 39.618 12.895C39.8424 13.0752 39.9804 13.3622 40.0319 13.7559L39.4083 13.7559C39.3678 13.5646 39.285 13.4266 39.1599 13.342C39.0348 13.2574 38.8564 13.2151 38.6246 13.2151C38.3376 13.2151 38.1297 13.2869 38.0009 13.4304C37.8721 13.5702 37.8078 13.7965 37.8078 14.1092C37.8078 14.4219 37.8722 14.6501 38.001 14.7936C38.1297 14.9334 38.3376 15.0033 38.6246 15.0033C38.8527 15.0032 39.0293 14.9609 39.1544 14.8763C39.2832 14.788 39.3678 14.65 39.4083 14.4624L40.032 14.4623C39.9841 14.8524 39.8462 15.1393 39.6181 15.3233C39.3936 15.5036 39.0588 15.5938 38.6136 15.5938Z" fill="#78C081"/>
<path d="M41.603 15.5937C41.2277 15.5937 40.9518 15.5238 40.7752 15.384C40.5985 15.2405 40.5102 15.0161 40.5102 14.7107C40.5102 14.3943 40.6059 14.1698 40.7972 14.0373C40.9922 13.9012 41.3068 13.8331 41.7409 13.8331L42.6626 13.8331C42.6552 13.605 42.5908 13.4394 42.4694 13.3364C42.3517 13.2297 42.164 13.1763 41.9065 13.1763C41.6968 13.1763 41.5349 13.2113 41.4208 13.2812C41.3067 13.3475 41.2313 13.456 41.1945 13.6068L40.5709 13.6069C40.6224 13.2647 40.7548 13.0163 40.9682 12.8618C41.1816 12.7036 41.5017 12.6245 41.9285 12.6244C42.4068 12.6244 42.7527 12.7219 42.9661 12.9169C43.1832 13.1119 43.2918 13.4246 43.2918 13.8551L43.2918 15.544L42.6627 15.544L42.6627 15.2184C42.4493 15.4686 42.0961 15.5937 41.603 15.5937ZM41.1339 14.6886C41.1339 14.9241 41.3399 15.0418 41.752 15.0418C42.0353 15.0418 42.2487 14.9902 42.3922 14.8872C42.5357 14.7842 42.6258 14.6223 42.6626 14.4015L42.6626 14.3022L41.9065 14.3022C41.3914 14.3022 41.1339 14.431 41.1339 14.6886Z" fill="#78C081"/>
<path d="M44.0215 15.5439L44.0214 11.4047L44.645 11.4046L44.6452 15.5439L44.0215 15.5439Z" fill="#78C081"/>
<path d="M46.6079 11.6805L47.3143 11.6805L48.7218 14.8428L50.129 11.6804L50.8354 11.6804L49.1026 15.5437L48.341 15.5438L46.6079 11.6805Z" fill="#78C081"/>
<path d="M50.9708 14.1087C50.9708 13.5936 51.0867 13.2183 51.3184 12.9828C51.5502 12.7437 51.9237 12.6241 52.4388 12.6241C52.9539 12.624 53.3255 12.7418 53.5537 12.9772C53.7818 13.2127 53.8959 13.5898 53.8959 14.1086C53.8959 14.1491 53.8922 14.2135 53.8848 14.3018L51.6165 14.3019C51.6386 14.5594 51.7159 14.7471 51.8483 14.8648C51.9845 14.9825 52.1832 15.0414 52.4444 15.0414C52.8307 15.0414 53.0791 14.9107 53.1895 14.6495L53.8407 14.6495C53.7671 14.999 53.6108 15.2437 53.3716 15.3835C53.1325 15.5234 52.8216 15.5933 52.4389 15.5933C51.9238 15.5933 51.5503 15.4756 51.3185 15.2401C51.0867 15.0046 50.9708 14.6275 50.9708 14.1087ZM51.622 13.8327L53.2612 13.8327C53.2281 13.5972 53.1453 13.4298 53.0128 13.3305C52.8803 13.2274 52.6908 13.1759 52.4443 13.176C52.1978 13.176 52.0065 13.2275 51.8704 13.3305C51.7379 13.4335 51.6551 13.6009 51.622 13.8327Z" fill="#78C081"/>
<path d="M54.4936 12.6736L55.1172 12.6736L55.1172 13.0158C55.3196 12.7546 55.6507 12.6239 56.1106 12.6239C56.519 12.6239 56.8171 12.7269 57.0047 12.933C57.1961 13.1353 57.2917 13.4609 57.2917 13.9098L57.2918 15.5434L56.6682 15.5435L56.6681 13.9098C56.6681 13.667 56.6074 13.4904 56.486 13.38C56.3682 13.2696 56.1824 13.2145 55.9285 13.2145C55.6415 13.2145 55.4337 13.2844 55.3049 13.4242C55.1798 13.564 55.1172 13.7921 55.1173 14.1086L55.1173 15.5435L54.4937 15.5435L54.4936 12.6736Z" fill="#78C081"/>
<path d="M58.8572 12.6735L59.6905 12.6735L59.6906 13.2585L58.8572 13.2585L58.8572 14.4948C58.8572 14.6567 58.8959 14.7744 58.9731 14.848C59.0504 14.9216 59.1774 14.9584 59.354 14.9583L59.7293 14.9583L59.7293 15.5434L59.3374 15.5434C58.9511 15.5434 58.6696 15.4661 58.493 15.3116C58.3201 15.1534 58.2336 14.905 58.2336 14.5665L58.2335 13.2585L57.781 13.2585L57.781 12.6735L58.2335 12.6735L58.2335 12.0443L58.8571 12.0443L58.8572 12.6735Z" fill="#78C081"/>
</g>
<defs>
<clipPath id="clip0_101_1166">
<rect width="93.299" height="106.086" fill="white" transform="translate(0.279053 0.511719)"/>
</clipPath>
</defs>
</svg>
