<svg width="141" height="125" viewBox="0 0 141 125" fill="none" xmlns="http://www.w3.org/2000/svg">
<g opacity="0.5" clip-path="url(#clip0_100_914)">
<path d="M6.08209 22.1546C6.55949 21.852 7.0759 21.6154 7.6172 21.4512L7.90273 19.9221L10.494 19.8242L10.8993 21.3319C11.4508 21.4566 11.9834 21.653 12.4835 21.9161L13.7761 21.0353L15.6765 22.7907L14.8936 24.1394C15.1946 24.616 15.4311 25.1302 15.5967 25.6685L17.1318 25.956L17.2301 28.5372L15.7164 28.9378C15.5932 29.4887 15.3959 30.0205 15.13 30.5189L16.0143 31.8034L14.2612 33.7087L12.8949 32.9105C12.4175 33.2131 11.9011 33.4497 11.3598 33.6139L11.0712 35.143L8.483 35.2409L8.07773 33.7332C7.52592 33.6095 6.99314 33.4131 6.4935 33.149L5.21935 34.0359L3.31888 32.2805L4.10179 30.9318C3.79983 30.4553 3.56239 29.9411 3.39564 29.4027L1.84211 29.1213L1.75 26.534L3.26362 26.1334C3.38689 25.5825 3.58414 25.0507 3.85003 24.5523L2.96274 23.2678L4.72505 21.3717L6.08209 22.1546ZM7.5343 25.5646C7.16091 25.9662 6.91546 26.4691 6.82898 27.0096C6.74251 27.5502 6.8189 28.1042 7.0485 28.6015C7.27809 29.0988 7.65057 29.5172 8.11885 29.8036C8.58713 30.0901 9.13016 30.2318 9.67929 30.2109C10.2284 30.1899 10.759 30.0072 11.2039 29.6859C11.6488 29.3646 11.988 28.9191 12.1788 28.4057C12.3695 27.8924 12.4031 27.3342 12.2754 26.8018C12.1476 26.2694 11.8643 25.7867 11.4611 25.4147C10.9201 24.9166 10.2028 24.6526 9.4666 24.6807C8.73041 24.7088 8.03548 25.0267 7.5343 25.5646Z" fill="#B4FFCD"/>
<path d="M124.854 76.7597C125.332 76.4595 125.848 76.224 126.389 76.0594L126.674 74.5302L129.266 74.4324L129.671 75.9401C130.223 76.0634 130.756 76.2599 131.255 76.5242L132.548 75.6404L134.448 77.3958L133.662 78.7476C133.966 79.2231 134.203 79.7375 134.368 80.2767L135.903 80.5642L136.002 83.1423L134.488 83.546C134.363 84.0955 134.166 84.6261 133.902 85.124L134.786 86.4116L133.024 88.3046L131.679 87.5339C131.2 87.8347 130.684 88.0712 130.144 88.2373L129.855 89.7665L127.264 89.8643L126.862 88.3566C126.309 88.2343 125.776 88.0378 125.277 87.7725L123.985 88.6563L122.081 86.9009L122.867 85.5491C122.563 85.0736 122.326 84.5592 122.161 84.02L120.626 83.7325L120.525 81.1544L122.038 80.7507C122.163 80.2012 122.36 79.6706 122.625 79.1727L121.74 77.8851L123.503 75.9921L124.857 76.7719L124.854 76.7597ZM126.306 80.1697C125.932 80.5714 125.685 81.0746 125.598 81.6158C125.511 82.1569 125.587 82.7117 125.816 83.2098C126.046 83.708 126.418 84.1272 126.887 84.4145C127.355 84.7017 127.899 84.8441 128.449 84.8235C128.999 84.803 129.53 84.6205 129.976 84.2991C130.421 83.9777 130.761 83.5319 130.953 83.018C131.144 82.5041 131.178 81.9452 131.05 81.4121C130.923 80.879 130.639 80.3955 130.236 80.0229C129.695 79.5234 128.977 79.2583 128.24 79.2859C127.503 79.3134 126.808 79.6313 126.306 80.1697Z" fill="#B4FFCD"/>
<path d="M9.51771 8.35278C9.74161 8.20903 9.98442 8.09685 10.2392 8.01943L10.3712 7.3038L11.5748 7.26099L11.7651 7.96133C12.0207 8.01803 12.2674 8.10855 12.4989 8.23045L13.1129 7.82065L13.9972 8.6372L13.6195 9.27332C13.7605 9.49516 13.871 9.73482 13.948 9.98589L14.6634 10.1174L14.7095 11.3162L14.0064 11.5058C13.9479 11.7613 13.856 12.0081 13.7331 12.2398L14.1445 12.8515L13.3248 13.717L12.7107 13.353C12.4818 13.496 12.2337 13.6062 11.9739 13.6803L11.8388 14.3928L10.6445 14.4418L10.4572 13.7414C10.2005 13.6837 9.95275 13.5921 9.72034 13.4692L9.1063 13.879L8.22515 13.0656L8.59664 12.4325C8.45637 12.2114 8.34592 11.9728 8.26813 11.723L7.55277 11.5884L7.50671 10.3896L8.21286 10.203C8.26978 9.94749 8.36064 9.70066 8.48304 9.46905L8.0747 8.87269L8.90367 7.99191L9.51771 8.35278ZM10.1932 9.94002C10.0217 10.1276 9.90968 10.3615 9.8712 10.6123C9.83273 10.8631 9.8695 11.1197 9.9769 11.3497C10.0843 11.5798 10.2575 11.7731 10.4749 11.9054C10.6922 12.0377 10.9439 12.1031 11.1984 12.0934C11.453 12.0837 11.6989 11.9993 11.9055 11.8508C12.112 11.7023 12.2699 11.4963 12.3593 11.2587C12.4487 11.0212 12.4656 10.7626 12.408 10.5155C12.3503 10.2683 12.2207 10.0437 12.0353 9.86968C11.9105 9.7534 11.7638 9.66292 11.6037 9.60347C11.4436 9.54402 11.2733 9.51678 11.1026 9.52332C10.9318 9.52986 10.7641 9.57006 10.609 9.64158C10.454 9.71311 10.3147 9.81454 10.1993 9.94002H10.1932Z" fill="#B4FFCD"/>
<path d="M17.3989 116.077L14.1967 117.379C14.1967 117.379 15.2958 120.058 12.5203 121.245C11.9916 121.485 11.4009 121.555 10.8304 121.446C10.2598 121.336 9.73766 121.052 9.33651 120.633C8.99517 120.285 8.74156 119.86 8.59642 119.395C8.45127 118.93 8.41871 118.437 8.5014 117.957C8.67948 116.844 9.53607 115.547 11.851 115.046L8.9036 107.844L5.7382 109.134L7.4606 113.346C7.4606 113.346 3.48773 116.3 5.49259 121.175C7.4084 125.839 12.0506 125.209 13.8497 124.478C15.2221 123.927 19.7691 121.676 17.3989 116.077Z" fill="#EBEBEB"/>
<path d="M5.09082 107.663L8.30469 106.354L7.07705 103.364L3.86318 104.674L5.09082 107.663Z" fill="#EBEBEB"/>
<path d="M129.309 35.9075L132.271 37.1308C132.271 37.1308 133.315 34.6536 135.919 35.6873C136.424 35.8782 136.857 36.221 137.158 36.6682C137.459 37.1153 137.613 37.6447 137.598 38.1828C137.591 38.636 137.475 39.081 137.262 39.4813C137.049 39.8816 136.743 40.2258 136.37 40.4857C135.52 41.0974 134.101 41.4032 132.253 40.2074L129.45 46.8622L132.382 48.0855L134.021 44.1862C134.021 44.1862 138.578 44.8468 140.469 40.3328C142.286 36.0176 138.823 33.3936 137.159 32.6871C135.906 32.1795 131.442 30.6748 129.309 35.9075Z" fill="#EBEBEB"/>
<path d="M131.845 49.4913L128.872 48.2495L127.708 51.0163L130.681 52.258L131.845 49.4913Z" fill="#EBEBEB"/>
<path d="M122.984 5.07116L119.373 15.2215C119.23 15.6224 119.24 16.0617 119.4 16.4561C119.56 16.8506 119.86 17.173 120.242 17.3623C120.644 17.5627 121.107 17.6014 121.536 17.4704C121.966 17.3394 122.328 17.0488 122.548 16.6589L127.909 7.19665C128.004 7.02778 128.062 6.84062 128.08 6.64758C128.097 6.45455 128.073 6.26004 128.009 6.07697C127.945 5.8939 127.843 5.72646 127.709 5.58574C127.575 5.44502 127.413 5.33425 127.233 5.26077L124.798 4.26378C124.627 4.19349 124.442 4.15871 124.256 4.16154C124.07 4.16437 123.887 4.20475 123.718 4.28025C123.548 4.35574 123.395 4.46477 123.269 4.60072C123.143 4.73668 123.046 4.89672 122.984 5.07116Z" fill="#E0E0E0"/>
<path d="M120.488 24.0415C120.143 24.4303 119.689 24.7083 119.186 24.8404C118.682 24.9726 118.15 24.9529 117.657 24.784C117.164 24.615 116.733 24.3043 116.418 23.8912C116.102 23.478 115.917 22.981 115.885 22.463C115.854 21.945 115.977 21.4292 116.239 20.9809C116.502 20.5325 116.892 20.1719 117.36 19.9444C117.829 19.7169 118.354 19.6329 118.87 19.703C119.387 19.773 119.87 19.994 120.261 20.338C120.52 20.5661 120.732 20.8429 120.883 21.1526C121.035 21.4623 121.124 21.7988 121.145 22.1428C121.166 22.4868 121.119 22.8316 121.006 23.1574C120.894 23.4832 120.717 23.7837 120.488 24.0415Z" fill="#E0E0E0"/>
<path d="M123.549 53.7982C125.807 49.9774 126.626 45.4801 125.858 41.1126C125.83 40.9383 125.793 40.767 125.75 40.5957C125.443 39.0941 125.188 37.8739 124.458 36.6017C124.384 36.4396 124.31 36.2958 124.23 36.1246C124.151 35.9533 124.071 35.8188 123.988 35.6567C122.444 32.8794 120.216 30.5395 117.513 28.8578C114.81 27.176 111.721 26.2079 108.539 26.0446C107.458 15.8514 100.307 6.52985 90.7312 2.80183C81.1552 -0.926179 69.5467 1.14732 61.8373 7.93358C53.6767 1.86907 42.4213 0.180909 32.8514 3.60004C23.2815 7.01917 15.6581 15.4447 13.2326 25.2922C12.4927 28.3046 12.1857 31.4944 10.6444 34.1856C9.47776 36.2194 7.69396 37.8127 6.17113 39.5926C3.72822 42.4437 1.94069 45.7924 0.93377 49.4041C-0.073147 53.0157 -0.275097 56.803 0.342067 60.5006C0.959232 64.1982 2.38058 67.7166 4.50655 70.8094C6.63251 73.9022 9.41166 76.4946 12.6493 78.4049C7.49439 85.4573 9.30275 96.5618 16.4318 101.629C20.5244 104.538 25.9833 105.654 29.1026 109.581C30.429 111.254 31.1965 113.29 32.3479 115.086C36.2624 121.202 44.9603 123.689 51.5367 120.591L86.4697 111.755C98.3535 112.646 110.121 108.913 119.3 101.342C122.649 98.5436 125.658 95.1795 127.107 91.06C128.556 86.9405 128.212 82.0443 125.428 78.6955C132.02 71.9367 131.065 59.4896 123.549 53.7982Z" fill="#E9E9E9"/>
<path d="M20.8893 91.579C20.8334 90.9942 20.8562 90.4044 20.9571 89.8254L19.6646 88.8304L20.7893 86.3814L22.3856 86.7163C22.762 86.262 23.1972 85.8595 23.6796 85.5194L23.4655 83.9084L26.0023 82.9711L26.8925 84.3328C27.4794 84.2776 28.0711 84.3002 28.6519 84.4001L29.6501 83.1088L32.1024 84.229L31.7487 85.8212C32.203 86.1957 32.6049 86.6292 32.9438 87.1102L34.5606 86.8962L35.497 89.4274L34.1291 90.316C34.1906 90.8958 34.1756 91.4813 34.0846 92.0574L35.3772 93.0524L34.2497 95.5L32.6534 95.1651C32.2789 95.6199 31.844 96.0216 31.3608 96.3593L31.5735 97.973L29.0367 98.9103L28.1452 97.5445C27.5589 97.6017 26.9676 97.5805 26.3871 97.4813L25.3889 98.7726L22.938 97.6497L23.2725 96.0546C22.818 95.6804 22.416 95.2469 22.0775 94.7656L20.4633 94.981L19.527 92.4498L20.8935 91.5571L20.8893 91.579ZM24.7546 91.8367C24.9536 92.3725 25.3073 92.8372 25.7711 93.172C26.2348 93.5068 26.7878 93.6967 27.36 93.7177C27.9323 93.7387 28.4981 93.5898 28.9859 93.2899C29.4737 92.9901 29.8616 92.5526 30.1006 92.0329C30.3395 91.5132 30.4188 90.9346 30.3284 90.3703C30.238 89.8059 29.9819 89.2812 29.5925 88.8625C29.2032 88.4438 28.6981 88.1498 28.1411 88.0178C27.584 87.8858 27.0001 87.9216 26.4632 88.1209C26.1065 88.2528 25.7792 88.4536 25.5002 88.7119C25.2212 88.9701 24.9959 89.2807 24.8372 89.6259C24.6784 89.971 24.5895 90.344 24.5753 90.7233C24.5611 91.1027 24.622 91.4811 24.7546 91.8367Z" fill="white"/>
<path d="M89.3435 26.9591C89.6134 26.7901 89.9045 26.6574 90.2093 26.5646L90.369 25.6991L91.8304 25.644L92.0576 26.4942C92.3679 26.5625 92.6675 26.6726 92.9479 26.8215L93.6756 26.326L94.7471 27.3139L94.305 28.0723C94.4756 28.341 94.6098 28.631 94.7041 28.9347L95.5699 29.0968L95.6252 30.5495L94.7747 30.7758C94.7034 31.0855 94.5919 31.3846 94.4431 31.6657L94.9405 32.3906L93.9488 33.4579L93.1874 33.0175C92.9176 33.1865 92.6264 33.3192 92.3216 33.412L92.1589 34.2775L90.7006 34.3325L90.4733 33.4824C90.1622 33.4136 89.8617 33.3035 89.5799 33.1551L88.8523 33.6506L87.7808 32.6627L88.2229 31.9012C88.0468 31.6345 87.9074 31.3455 87.8084 31.0419L86.9395 30.8798L86.8873 29.4271L87.7409 29.1977C87.8096 28.8882 87.9212 28.5897 88.0724 28.3108L87.5781 27.5922L88.5698 26.5248L89.3435 26.9591ZM90.1602 28.8797C89.95 29.1062 89.8119 29.3896 89.7635 29.6942C89.715 29.9989 89.7582 30.311 89.8878 30.5911C90.0174 30.8712 90.2274 31.1068 90.4913 31.268C90.7553 31.4293 91.0613 31.509 91.3707 31.497C91.6801 31.485 91.979 31.382 92.2296 31.2008C92.4802 31.0197 92.6713 30.7686 92.7786 30.4793C92.886 30.19 92.9048 29.8755 92.8328 29.5755C92.7607 29.2756 92.601 29.0036 92.3738 28.794C92.2227 28.6534 92.045 28.544 91.8512 28.4721C91.6574 28.4003 91.4511 28.3674 91.2445 28.3753C91.0378 28.3833 90.8348 28.432 90.6471 28.5185C90.4594 28.6051 90.2908 28.7278 90.151 28.8797H90.1602Z" fill="#78C081"/>
<path d="M39.5126 107.51C39.4685 107.099 39.4803 106.683 39.5476 106.275L38.6431 105.585L39.4295 103.872L40.5503 104.094C40.8136 103.777 41.1175 103.497 41.4543 103.26L41.305 102.131L43.0736 101.475L43.6943 102.426C44.1047 102.387 44.5184 102.403 44.9244 102.474L45.6175 101.567L47.3322 102.353L47.1085 103.472C47.4263 103.733 47.7076 104.035 47.9447 104.371L49.073 104.22L49.7307 105.986L48.7756 106.609C48.8104 107.022 48.7903 107.437 48.7159 107.845L49.619 108.537L48.834 110.248L47.7132 110.026C47.4509 110.343 47.1479 110.624 46.8119 110.862L46.964 111.978L45.1927 112.632L44.572 111.681C44.1679 111.719 43.7605 111.701 43.3611 111.63L42.668 112.536L40.9533 111.75L41.1771 110.631C40.8592 110.37 40.578 110.068 40.3408 109.732L39.2194 109.884L38.5617 108.118L39.5195 107.496L39.5126 107.51ZM42.211 107.69C42.3504 108.065 42.5979 108.389 42.9222 108.623C43.2466 108.857 43.6332 108.99 44.0332 109.004C44.4332 109.019 44.8287 108.914 45.1696 108.704C45.5105 108.495 45.7816 108.189 45.9485 107.825C46.1154 107.462 46.1707 107.058 46.1074 106.663C46.0441 106.269 45.865 105.902 45.5928 105.609C45.3205 105.317 44.9674 105.111 44.578 105.019C44.1886 104.927 43.7805 104.952 43.4051 105.091C42.902 105.278 42.4938 105.657 42.2699 106.145C42.0461 106.632 42.0249 107.188 42.211 107.69Z" fill="#78C081"/>
<path d="M92.1116 94.4255C92.4605 94.206 92.8374 94.0342 93.2322 93.9148L93.441 92.7954L95.3292 92.7251L95.6362 93.823C96.0383 93.9126 96.4266 94.0556 96.7906 94.2481L97.7331 93.6059L99.1178 94.8842L98.5468 95.869C98.7583 96.2173 98.9234 96.5915 99.038 96.9822L100.159 97.1932L100.232 99.071L99.1301 99.3768C99.0394 99.7772 98.8959 100.164 98.7033 100.527L99.3481 101.466L98.0647 102.845L97.0761 102.276C96.7298 102.486 96.3571 102.65 95.9678 102.762L95.759 103.882L93.8708 103.952L93.5638 102.854C93.1616 102.764 92.7734 102.621 92.4094 102.429L91.4699 103.071L90.0821 101.793L90.6563 100.808C90.4351 100.462 90.2616 100.087 90.1405 99.6949L89.0198 99.4869L88.9462 97.6061L90.0514 97.3003C90.1408 96.8995 90.2844 96.5126 90.4782 96.1503L89.8335 95.2115L91.1168 93.8322L92.1024 94.401L92.1116 94.4255ZM93.1708 96.9088C92.8984 97.2015 92.7191 97.5681 92.6558 97.9623C92.5925 98.3564 92.648 98.7604 92.8152 99.1232C92.9823 99.4859 93.2537 99.7912 93.5951 100C93.9364 100.209 94.3323 100.313 94.7327 100.298C95.1332 100.283 95.5201 100.15 95.8448 99.9163C96.1694 99.6822 96.4171 99.3576 96.5565 98.9834C96.6959 98.6091 96.7208 98.2021 96.628 97.8138C96.5353 97.4255 96.329 97.0733 96.0353 96.8018C95.8402 96.6214 95.6113 96.481 95.3618 96.3888C95.1122 96.2965 94.8468 96.2541 94.5808 96.2641C94.3148 96.274 94.0533 96.3361 93.8114 96.4467C93.5695 96.5573 93.3518 96.7143 93.1708 96.9088Z" fill="white"/>
<path d="M27.0794 55.8779C26.8607 55.3281 26.521 54.8342 26.0853 54.4324C25.6496 54.0307 25.129 53.7315 24.5618 53.5567C23.5855 53.2784 22.4341 53.3885 21.6727 52.7187C21.3104 52.4129 21.0955 51.9481 20.7762 51.5872C20.1634 50.969 19.3488 50.5894 18.4797 50.5168C15.6121 50.1315 12.9809 52.0857 11.937 54.3733C10.7642 55.147 9.56989 55.936 8.68566 57.0248C7.80144 58.1135 7.25494 59.5662 7.58038 60.9271C7.82293 61.9271 8.50145 62.7804 8.75014 63.7774C8.97427 64.6949 8.82382 65.649 8.89751 66.5849C8.9712 67.5207 9.37032 68.5483 10.2484 68.8908C11.3291 69.3098 12.6708 68.5177 13.6717 69.1079C14.3502 69.5086 14.5682 70.3863 15.1239 70.9429C16.0849 71.9124 17.706 71.6646 19.0016 71.2181C20.4998 70.7033 21.9345 70.021 23.2784 69.1844C24.1775 68.6663 24.9735 67.9884 25.6272 67.1843C25.9506 66.7808 26.19 66.3171 26.3313 65.8203C26.4726 65.3236 26.5129 64.8037 26.45 64.2912C26.3456 63.6795 26.0447 63.0862 26.0079 62.4562C25.9373 61.3491 26.671 60.3736 27.064 59.3368C27.5012 58.226 27.5067 56.9926 27.0794 55.8779Z" fill="white"/>
<path d="M24.9363 67.8848L22.1332 69.8084L22.1301 69.8115L24.9977 70.8237L24.9363 67.8848Z" fill="#F5F5F5"/>
<path d="M15.7994 60.9546C15.7994 61.182 15.7317 61.4043 15.6049 61.5934C15.478 61.7825 15.2977 61.9299 15.0868 62.017C14.8758 62.104 14.6437 62.1268 14.4198 62.0824C14.1959 62.038 13.9902 61.9285 13.8287 61.7677C13.6673 61.6069 13.5573 61.402 13.5128 61.1789C13.4682 60.9559 13.4911 60.7247 13.5785 60.5145C13.6658 60.3044 13.8138 60.1248 14.0037 59.9985C14.1935 59.8721 14.4167 59.8047 14.645 59.8047C14.9512 59.8047 15.2448 59.9258 15.4613 60.1415C15.6778 60.3571 15.7994 60.6496 15.7994 60.9546Z" fill="#495E4C"/>
<path d="M19.3884 60.9546C19.389 61.1828 19.3217 61.406 19.1949 61.596C19.068 61.786 18.8875 61.9342 18.676 62.022C18.4646 62.1097 18.2318 62.133 18.007 62.0888C17.7823 62.0447 17.5758 61.9351 17.4136 61.774C17.2514 61.6129 17.1409 61.4074 17.096 61.1837C17.051 60.96 17.0738 60.728 17.1613 60.5171C17.2488 60.3063 17.3972 60.126 17.5876 59.9992C17.778 59.8724 18.0019 59.8047 18.231 59.8047C18.5374 59.8047 18.8314 59.9257 19.0483 60.1413C19.2653 60.3569 19.3876 60.6493 19.3884 60.9546Z" fill="#495E4C"/>
<path d="M22.9745 60.9546C22.9745 61.182 22.9068 61.4043 22.7799 61.5934C22.6531 61.7825 22.4728 61.9299 22.2618 62.017C22.0509 62.104 21.8188 62.1268 21.5948 62.0824C21.3709 62.038 21.1652 61.9285 21.0038 61.7677C20.8423 61.6069 20.7324 61.402 20.6878 61.1789C20.6433 60.9559 20.6661 60.7247 20.7535 60.5145C20.8409 60.3044 20.9889 60.1248 21.1787 59.9985C21.3685 59.8721 21.5917 59.8047 21.8201 59.8047C22.1262 59.8047 22.4198 59.9258 22.6363 60.1415C22.8528 60.3571 22.9745 60.6496 22.9745 60.9546Z" fill="#495E4C"/>
<path d="M114.964 36.461C114.703 36.042 114.148 35.9411 113.653 35.8983C111.867 35.737 110.067 35.7997 108.296 36.0848C107.682 36.1827 106.779 36.1277 106.718 35.4977C106.727 35.3115 106.794 35.1328 106.911 34.9873C107.028 34.8417 107.188 34.7367 107.369 34.6872C107.983 34.4548 108.649 34.5649 109.297 34.5496C109.945 34.5343 110.678 34.3202 110.939 33.73C111.335 32.8339 110.307 31.895 109.334 31.7635C108.36 31.632 107.338 31.8889 106.402 31.5984L104.354 31.6412C102.84 31.6666 101.336 31.8845 99.8774 32.2896C99.469 32.4027 98.987 32.6198 98.9563 33.0388C98.9256 33.4578 99.3524 33.7331 99.5489 34.097C99.9449 34.831 99.3002 35.7515 98.5173 36.039C97.7344 36.3265 96.8655 36.2133 96.0335 36.2745C95.2014 36.3356 94.2742 36.6873 93.9979 37.4733C93.7799 38.0849 94.0409 38.7975 93.8505 39.4245C93.608 40.2227 92.7238 40.6478 91.9009 40.7884C91.0781 40.9291 90.2062 40.9108 89.4448 41.2594C88.8878 41.5128 88.4335 41.9467 88.156 42.4904C87.8784 43.034 87.7941 43.6553 87.9166 44.2529C88.0392 44.8504 88.3614 45.389 88.8307 45.7807C89.3001 46.1723 89.8888 46.394 90.5009 46.4095C91.0904 46.4095 91.6707 46.2474 92.2571 46.2168C92.6888 46.1844 93.1195 46.2917 93.4852 46.5227C93.5176 47.1486 93.7406 47.7499 94.1245 48.2465C94.5084 48.7431 95.0351 49.1115 95.6343 49.3026C96.4479 49.5198 97.3199 49.3821 98.1427 49.5565C98.9655 49.7308 99.816 50.4281 99.6594 51.2507C99.5458 51.841 98.9594 52.2722 98.9133 52.8686C98.855 53.5995 99.6502 54.1316 100.384 54.1989C101.118 54.2662 101.848 54.0399 102.582 54.0827C103.316 54.1255 104.136 54.5904 104.154 55.3213C104.173 56.1378 103.209 56.7128 103.193 57.5263C103.178 58.2083 103.832 58.7129 104.47 58.9575C105.109 59.2022 105.827 59.3306 106.331 59.7924C106.835 60.2542 106.917 61.2421 106.291 61.5173C107.304 61.4837 107.897 60.0188 107.212 59.294C106.776 58.8444 106.045 58.7221 105.711 58.193C105.336 57.6058 105.662 56.7923 106.202 56.358C106.742 55.9238 107.43 55.725 108.075 55.4405C108.72 55.1561 109.349 54.7035 109.515 54.0276C109.76 53.0154 108.787 52.0551 107.765 51.8287C106.742 51.6024 105.683 51.8593 104.639 51.9205C103.595 51.9817 102.407 51.7706 101.818 50.9082L105.232 49.2904C105.396 49.2375 105.547 49.1523 105.678 49.0398C105.808 48.9274 105.914 48.7901 105.99 48.6359C106.181 48.0518 105.511 47.5747 104.949 47.3209L102.727 46.3147C102.718 46.1793 102.688 46.0461 102.638 45.9202C103.988 45.3697 105.514 45.5807 106.96 45.7765C108.406 45.9722 109.951 46.1251 111.259 45.4706C112.567 44.8162 113.408 43.0485 112.564 41.8588C112.112 41.2197 111.237 40.7793 111.216 39.9933C111.216 39.345 111.83 38.8556 112.444 38.6477C113.058 38.4397 113.739 38.3969 114.311 38.0849C114.882 37.773 115.308 36.9993 114.964 36.461Z" fill="white"/>
<path d="M98.7507 41.2718C99.3611 41.2718 99.8559 40.7788 99.8559 40.1708C99.8559 39.5627 99.3611 39.0698 98.7507 39.0698C98.1402 39.0698 97.6454 39.5627 97.6454 40.1708C97.6454 40.7788 98.1402 41.2718 98.7507 41.2718Z" fill="#495E4C"/>
<path d="M103.285 40.1708C103.285 40.3885 103.221 40.6014 103.099 40.7825C102.978 40.9635 102.805 41.1046 102.603 41.188C102.401 41.2713 102.179 41.2931 101.964 41.2506C101.75 41.2081 101.553 41.1033 101.399 40.9493C101.244 40.7953 101.139 40.5992 101.096 40.3856C101.053 40.172 101.075 39.9506 101.159 39.7495C101.243 39.5483 101.384 39.3763 101.566 39.2554C101.748 39.1344 101.962 39.0698 102.18 39.0698C102.473 39.0698 102.754 39.1858 102.962 39.3923C103.169 39.5988 103.285 39.8788 103.285 40.1708Z" fill="#495E4C"/>
<path d="M105.613 41.2718C106.223 41.2718 106.718 40.7788 106.718 40.1708C106.718 39.5627 106.223 39.0698 105.613 39.0698C105.002 39.0698 104.507 39.5627 104.507 40.1708C104.507 40.7788 105.002 41.2718 105.613 41.2718Z" fill="#495E4C"/>
<path d="M28.2461 14.8086C27.0097 14.8032 25.7991 15.1603 24.7652 15.8357C23.7312 16.511 22.9197 17.4745 22.4319 18.6062C21.9441 19.7378 21.8015 20.9875 22.0219 22.1993C22.2424 23.4112 22.8161 24.5316 23.6715 25.4208C20.6504 26.063 18.7284 29.5892 19.5236 32.5557C20.3188 35.5222 23.5149 37.5498 26.5851 37.3388C29.6553 37.1278 32.4185 34.8922 33.5514 32.0205C33.9714 33.2138 34.7442 34.2525 35.768 35C36.7919 35.7476 38.0189 36.1689 39.2877 36.2086C40.5565 36.2483 41.8077 35.9045 42.8766 35.2225C43.9456 34.5405 44.7823 33.5522 45.2766 32.3875C46.6367 34.9105 50.5114 35.3295 52.7311 33.5129C54.9509 31.6963 55.4575 28.3139 54.3952 25.6624C53.3329 23.0109 50.9658 21.0352 48.3653 19.8303C50.0263 18.3379 50.235 15.6038 49.0499 13.7138C47.8648 11.8238 45.5345 10.8084 43.2902 10.9247C41.0459 11.0409 38.952 12.1694 37.3739 13.7444C37.0204 12.7854 36.3556 11.9715 35.485 11.4315C34.6145 10.8915 33.5879 10.6565 32.568 10.7636C31.5481 10.8707 30.5932 11.3138 29.8548 12.0228C29.1164 12.7317 28.6367 13.6658 28.4917 14.6771" fill="white"/>
<path d="M31.6571 20.2707L34.5431 25.3321C34.6568 25.5323 34.8402 25.684 35.0586 25.7584C35.2771 25.8328 35.5154 25.8247 35.7282 25.7358C35.9522 25.6432 36.1319 25.4684 36.2302 25.2475C36.3285 25.0267 36.3378 24.7767 36.2563 24.5492L34.273 19.029C34.2372 18.9304 34.1809 18.8404 34.1078 18.765C34.0347 18.6895 33.9463 18.6304 33.8486 18.5914C33.7509 18.5524 33.646 18.5344 33.5408 18.5387C33.4356 18.543 33.3325 18.5694 33.2383 18.6162L31.9703 19.2553C31.8814 19.3001 31.8026 19.3622 31.7384 19.4381C31.6742 19.5139 31.6261 19.6018 31.5968 19.6966C31.5676 19.7914 31.5579 19.8911 31.5682 19.9898C31.5786 20.0884 31.6088 20.184 31.6571 20.2707Z" fill="#495E4C"/>
<path d="M38.5528 28.0019C38.5892 28.2801 38.542 28.5628 38.4172 28.8143C38.2924 29.0658 38.0955 29.2748 37.8515 29.4148C37.6075 29.5549 37.3273 29.6198 37.0463 29.6013C36.7652 29.5828 36.496 29.4818 36.2726 29.3109C36.0492 29.1401 35.8817 28.9071 35.7912 28.6415C35.7006 28.3758 35.6912 28.0894 35.764 27.8184C35.8369 27.5474 35.9887 27.304 36.2004 27.1189C36.412 26.9339 36.674 26.8154 36.9532 26.7786C37.1389 26.7541 37.3276 26.7664 37.5086 26.8146C37.6895 26.8629 37.8591 26.9462 38.0077 27.0598C38.1563 27.1735 38.2809 27.3152 38.3744 27.4768C38.468 27.6385 38.5286 27.8169 38.5528 28.0019Z" fill="#495E4C"/>
<path d="M40.9875 17.2582L41.0827 22.2829C41.0861 22.4811 41.1624 22.6712 41.2971 22.8172C41.4317 22.9631 41.6154 23.0549 41.8134 23.075C42.0213 23.0971 42.2299 23.0386 42.3957 22.9116C42.5615 22.7846 42.6718 22.5989 42.7038 22.393L43.4897 17.3836C43.5037 17.2941 43.4984 17.2027 43.4742 17.1154C43.45 17.0281 43.4075 16.9469 43.3495 16.8773C43.2914 16.8076 43.2191 16.751 43.1375 16.7112C43.0558 16.6714 42.9666 16.6494 42.8757 16.6466L41.6476 16.6099C41.561 16.6074 41.4748 16.6224 41.3942 16.654C41.3136 16.6856 41.2402 16.7331 41.1786 16.7937C41.1169 16.8542 41.0682 16.9266 41.0353 17.0065C41.0025 17.0863 40.9862 17.172 40.9875 17.2582Z" fill="#E0E0E0"/>
<path d="M43.02 25.9529C42.9331 26.1787 42.7809 26.3737 42.5827 26.5134C42.3845 26.6531 42.1492 26.7311 41.9065 26.7377C41.6638 26.7442 41.4246 26.6789 41.2191 26.5501C41.0137 26.4212 40.8511 26.2346 40.7521 26.0138C40.6531 25.793 40.6219 25.5479 40.6627 25.3095C40.7034 25.0711 40.8142 24.8501 40.981 24.6744C41.1478 24.4986 41.3631 24.3761 41.5998 24.3222C41.8365 24.2684 42.0839 24.2856 42.3108 24.3717C42.4617 24.429 42.5997 24.5154 42.7171 24.6259C42.8344 24.7364 42.9287 24.8689 42.9946 25.0158C43.0605 25.1626 43.0966 25.321 43.101 25.4818C43.1054 25.6426 43.0778 25.8027 43.02 25.9529Z" fill="#E0E0E0"/>
<path d="M101.614 71.6147L99.0009 78.9545C98.8984 79.2454 98.9058 79.5635 99.0217 79.8494C99.1375 80.1353 99.3538 80.3695 99.6303 80.5081C99.9213 80.6525 100.257 80.68 100.568 80.585C100.879 80.4899 101.141 80.2796 101.3 79.9974L105.181 73.1469C105.251 73.0245 105.293 72.8889 105.306 72.749C105.318 72.6091 105.301 72.4681 105.255 72.3353C105.209 72.2026 105.135 72.0811 105.038 71.979C104.941 71.8769 104.824 71.7965 104.693 71.7431L102.931 71.0214C102.805 70.9708 102.671 70.946 102.536 70.9487C102.401 70.9513 102.268 70.9813 102.144 71.0368C102.021 71.0923 101.911 71.1721 101.819 71.2714C101.728 71.3708 101.658 71.4876 101.614 71.6147Z" fill="white"/>
<path d="M99.8083 85.3465C99.5583 85.6279 99.2302 85.8292 98.8654 85.9248C98.5006 86.0204 98.1156 86.0061 97.759 85.8837C97.4023 85.7612 97.0902 85.5362 96.862 85.237C96.6338 84.9378 96.4999 84.5779 96.4771 84.2028C96.4543 83.8278 96.5437 83.4544 96.734 83.13C96.9243 82.8056 97.207 82.5447 97.5462 82.3803C97.8854 82.216 98.2659 82.1555 98.6396 82.2066C99.0133 82.2577 99.3634 82.4181 99.6455 82.6675C99.833 82.8326 99.986 83.0329 100.096 83.257C100.205 83.4811 100.27 83.7245 100.285 83.9734C100.3 84.2222 100.265 84.4716 100.184 84.7072C100.102 84.9428 99.9744 85.16 99.8083 85.3465Z" fill="white"/>
<path d="M59.3688 17.723H61.8557C61.8557 17.723 61.8557 15.4385 64.0264 15.3988C64.4592 15.3946 64.8821 15.5287 65.2329 15.7813C65.5837 16.0339 65.8441 16.3918 65.976 16.8025C66.1078 17.1604 66.1604 17.5425 66.1302 17.9225C66.1 18.3026 65.9877 18.6716 65.801 19.0044C65.3773 19.7659 64.4531 20.4571 62.7768 20.136V26.2678H65.233V22.6743C65.233 22.6743 68.6839 21.7018 68.6839 17.5426C68.6839 13.5669 65.4203 12.6494 64.0233 12.6494C62.961 12.6402 59.3228 12.9124 59.3688 17.723Z" fill="white"/>
<path d="M65.2698 27.5308H62.7706V30.0813H65.2698V27.5308Z" fill="white"/>
<path d="M122.275 61.7497C122.275 61.7497 122.309 61.7161 122.379 61.658C122.491 61.5725 122.618 61.5092 122.754 61.4714C122.977 61.4121 123.212 61.4121 123.435 61.4714C123.75 61.5417 124.03 61.719 124.227 61.973C124.475 62.2963 124.615 62.6889 124.627 63.0954C124.637 63.5839 124.52 64.0667 124.286 64.496C123.675 65.5454 122.846 66.4526 121.854 67.1567C121.276 67.5861 120.676 67.9843 120.055 68.3494C119.407 68.7378 118.719 69.1354 117.976 69.5085C117.204 69.9023 116.397 70.2267 115.566 70.478C115.125 70.6137 114.675 70.7159 114.218 70.7838C113.744 70.8556 113.264 70.8812 112.785 70.8603C112.28 70.8791 111.781 70.7516 111.348 70.4933C111.127 70.3443 110.972 70.1166 110.915 69.8572C110.866 69.5946 110.899 69.3235 111.01 69.0804C111.246 68.6026 111.576 68.1772 111.98 67.8295C112.376 67.4578 112.798 67.1144 113.242 66.802C114.142 66.1658 115.103 65.5787 116.091 64.967C117.102 64.3293 118.187 63.8159 119.321 63.4379C119.913 63.2487 120.525 63.1286 121.145 63.0801C121.782 63.0185 122.425 63.0787 123.039 63.2574C123.684 63.4277 124.242 63.8325 124.602 64.3921C124.764 64.6901 124.852 65.0226 124.859 65.3616C124.865 65.7007 124.79 66.0363 124.639 66.3402C124.339 66.9589 123.855 67.4712 123.254 67.8081C122.655 68.1555 122.015 68.4258 121.348 68.6125C119.977 68.9796 118.554 69.116 117.138 69.0161C115.681 68.913 114.232 68.7086 112.803 68.4045C112.066 68.2695 111.337 68.0918 110.62 67.8724C110.258 67.7579 109.903 67.621 109.558 67.4625C109.193 67.3185 108.865 67.0961 108.597 66.8111C108.461 66.6579 108.371 66.469 108.339 66.2668C108.309 66.0574 108.344 65.8437 108.44 65.6551C108.635 65.3039 108.929 65.0169 109.285 64.8294C109.983 64.4527 110.755 64.2324 111.547 64.1841C113.139 64.0465 114.739 64.0465 116.331 64.1841C117.142 64.2577 117.947 64.3782 118.744 64.545C119.146 64.6275 119.545 64.7285 119.941 64.8508C120.354 64.9422 120.744 65.1114 121.093 65.3493C121.275 65.4761 121.419 65.6497 121.51 65.8517C121.601 66.0537 121.635 66.2764 121.608 66.4961C121.548 66.7062 121.445 66.9014 121.304 67.069C121.163 67.2365 120.989 67.3727 120.792 67.4687C120.048 67.8841 119.231 68.153 118.385 68.2608C117.96 68.3138 117.532 68.3272 117.104 68.3005C116.672 68.2829 116.244 68.2036 115.833 68.065C115.405 67.9291 115.037 67.6491 114.793 67.2729C114.684 67.0729 114.627 66.849 114.627 66.6215C114.627 66.394 114.684 66.1701 114.793 65.9701C115.008 65.5748 115.335 65.2512 115.734 65.0397C116.132 64.8282 116.584 64.738 117.034 64.7805C117.494 64.816 117.922 65.0276 118.228 65.3707C118.526 65.7252 118.671 66.1823 118.633 66.6429C118.613 66.875 118.536 67.0986 118.409 67.2943C118.278 67.4868 118.099 67.6425 117.89 67.747C117.472 67.9475 116.996 67.9951 116.546 67.8815C116.314 67.8411 116.094 67.7481 115.904 67.6097C115.714 67.4713 115.559 67.2912 115.45 67.0833C115.401 66.9692 115.382 66.8446 115.394 66.7211C115.406 66.5976 115.45 66.4792 115.52 66.3769C115.664 66.1793 115.876 66.0411 116.116 65.9885C116.575 65.9285 117.041 65.9842 117.473 66.1506C117.915 66.2703 118.334 66.4592 118.716 66.7102C119.106 66.9714 119.408 67.3433 119.582 67.7775C119.671 67.9979 119.711 68.235 119.698 68.4723C119.686 68.7095 119.621 68.9411 119.508 69.1507C119.273 69.5553 118.927 69.8851 118.511 70.1018C118.103 70.3318 117.653 70.4765 117.187 70.5269C116.249 70.6335 115.303 70.4013 114.522 69.8725C113.749 69.3337 113.151 68.5809 112.803 67.7072C112.419 66.8397 112.354 65.8654 112.619 64.9548C112.766 64.4944 113.055 64.092 113.445 63.8049C113.834 63.5338 114.273 63.3435 114.737 63.2452C115.644 63.046 116.574 62.9729 117.501 63.0281C118.422 63.0412 119.34 63.1436 120.242 63.3339C121.161 63.5267 121.979 64.0437 122.545 64.7896C122.812 65.1738 122.97 65.623 123.002 66.0894C123.027 66.551 122.954 67.0126 122.787 67.4442C122.438 68.2887 121.846 69.012 121.087 69.5238C120.723 69.786 120.341 70.0231 119.944 70.2333C119.554 70.4499 119.151 70.6429 118.738 70.8113C117.911 71.1702 116.997 71.2838 116.107 71.1386C114.379 70.7379 112.844 69.7534 111.762 68.3525C111.257 67.6401 110.951 66.8059 110.878 65.9365C110.806 65.0798 110.922 64.2176 111.219 63.4104C111.507 62.6113 111.961 61.8818 112.551 61.2696C113.133 60.6634 113.821 60.168 114.581 59.8077C115.334 59.4574 116.142 59.2371 116.969 59.1563C117.798 59.0809 118.634 59.1629 119.432 59.3979C120.226 59.6139 120.931 60.0767 121.443 60.7191C121.899 61.3845 122.158 62.1647 122.189 62.97C122.28 64.5295 122.005 66.0888 121.384 67.5237C121.088 68.2266 120.705 68.8902 120.245 69.4993C119.791 70.1051 119.218 70.6119 118.56 70.9887C117.905 71.3528 117.16 71.5255 116.411 71.4872C115.67 71.4287 114.969 71.1325 114.412 70.6431C113.877 70.1706 113.384 69.6517 112.941 69.0926C112.46 68.5744 112.061 67.9867 111.756 67.3494C111.621 67.0256 111.542 66.6812 111.523 66.331C111.511 65.9825 111.561 65.6347 111.67 65.3034C111.899 64.6631 112.247 64.0717 112.696 63.5602C113.527 62.5295 114.664 61.7859 115.944 61.4347C116.556 61.2705 117.195 61.2297 117.822 61.3148C118.45 61.3998 119.055 61.6091 119.601 61.9302C120.614 62.5943 121.38 63.5723 121.78 64.7132C122.19 65.7718 122.332 66.9144 122.195 68.0406C122.078 69.1183 121.586 70.1213 120.804 70.8756C120.034 71.538 119.098 71.9799 118.096 72.1539C117.175 72.3511 116.227 72.3914 115.293 72.2732C114.42 72.1571 113.605 71.7746 112.96 71.1783C112.377 70.6299 111.942 69.9442 111.695 69.1843C111.468 68.4948 111.397 67.7635 111.489 67.0436C111.644 65.8364 112.155 64.702 112.957 63.7835C113.541 63.1138 114.24 62.5517 115.02 62.1228C115.495 61.8572 115.993 61.6351 116.509 61.4592C116.859 61.3399 117.043 61.294 117.043 61.294L116.908 61.3399L116.515 61.4745C116.003 61.6575 115.508 61.8836 115.035 62.1504C114.263 62.5828 113.572 63.1457 112.993 63.8141C112.202 64.7281 111.7 65.855 111.55 67.0527C111.463 67.7619 111.534 68.4815 111.759 69.1599C112.006 69.9086 112.438 70.5837 113.015 71.1233C113.65 71.7065 114.452 72.0794 115.308 72.1906C116.23 72.3037 117.164 72.2613 118.072 72.0652C119.055 71.8917 119.974 71.4575 120.73 70.8083C121.493 70.0656 121.972 69.0815 122.084 68.0253C122.221 66.9116 122.081 65.7815 121.676 64.7346C121.28 63.6164 120.525 62.6596 119.527 62.0127C118.997 61.7021 118.411 61.5001 117.802 61.4187C117.193 61.3373 116.574 61.3781 115.981 61.5387C114.726 61.8838 113.613 62.6148 112.8 63.6275C112.361 64.1267 112.021 64.7049 111.799 65.3309C111.695 65.6476 111.648 65.9797 111.658 66.3126C111.678 66.6482 111.755 66.978 111.885 67.2882C112.175 67.9153 112.559 68.4949 113.024 69.007C113.463 69.5581 113.95 70.0698 114.479 70.5361C115.016 71.0079 115.691 71.2943 116.404 71.3526C117.13 71.3877 117.852 71.2193 118.486 70.8664C119.127 70.4966 119.685 70.0014 120.129 69.4107C120.582 68.8111 120.958 68.1577 121.249 67.4656C121.859 66.0516 122.129 64.5154 122.038 62.9791C122.009 62.2005 121.76 61.4459 121.32 60.8017C120.827 60.1842 120.148 59.7405 119.383 59.5355C118.613 59.3064 117.806 59.2255 117.006 59.297C116.196 59.3741 115.404 59.5893 114.667 59.9331C113.149 60.6307 111.97 61.8969 111.385 63.4562C111.097 64.2381 110.984 65.073 111.053 65.9028C111.119 66.7534 111.415 67.5703 111.91 68.2669C112.966 69.6365 114.467 70.5985 116.156 70.9887C117.016 71.135 117.9 71.0288 118.701 70.6829C119.108 70.5169 119.505 70.327 119.889 70.1141C120.279 69.9071 120.654 69.6741 121.013 69.4168C121.748 68.9222 122.321 68.2236 122.662 67.4075C122.819 66.9971 122.888 66.5585 122.864 66.12C122.836 65.6806 122.688 65.2574 122.434 64.8967C121.891 64.1819 121.105 63.6876 120.224 63.5052C119.333 63.3153 118.426 63.2129 117.516 63.1993C116.602 63.1439 115.684 63.2149 114.79 63.4104C114.349 63.5062 113.931 63.6881 113.561 63.9456C113.198 64.2128 112.928 64.5873 112.791 65.0159C112.538 65.8947 112.602 66.8339 112.972 67.6705C113.309 68.5153 113.886 69.2435 114.633 69.7654C115.385 70.2672 116.292 70.4842 117.19 70.3771C117.634 70.33 118.064 70.1926 118.452 69.9734C118.838 69.7648 119.158 69.4522 119.373 69.0712C119.475 68.8817 119.534 68.6723 119.545 68.4578C119.557 68.2433 119.521 68.0289 119.441 67.8295C119.277 67.4254 118.996 67.0792 118.633 66.8356C118.264 66.595 117.859 66.4134 117.433 66.2974C117.028 66.1422 116.59 66.0876 116.159 66.1383C115.957 66.1824 115.778 66.2976 115.655 66.4625C115.6 66.5438 115.566 66.6377 115.557 66.7356C115.548 66.8335 115.564 66.9321 115.603 67.0222C115.703 67.2058 115.843 67.3646 116.013 67.4864C116.183 67.6083 116.379 67.69 116.586 67.7256C116.997 67.8276 117.43 67.7855 117.814 67.6063C118 67.5141 118.159 67.375 118.275 67.2028C118.391 67.0306 118.459 66.8313 118.474 66.6246C118.494 66.4173 118.472 66.2081 118.409 66.0095C118.346 65.8109 118.243 65.6271 118.107 65.4692C117.97 65.3112 117.804 65.1823 117.616 65.0902C117.429 64.9981 117.224 64.9448 117.015 64.9334C116.598 64.8937 116.177 64.9769 115.806 65.1725C115.435 65.3682 115.13 65.6678 114.928 66.0343C114.831 66.2125 114.781 66.4116 114.781 66.6139C114.781 66.8162 114.831 67.0153 114.928 67.1934C115.153 67.5387 115.491 67.7951 115.886 67.9182C116.282 68.0512 116.696 68.1284 117.114 68.1476C117.532 68.1716 117.951 68.1573 118.366 68.1048C119.191 68.0015 119.989 67.7409 120.715 67.3372C120.893 67.2519 121.052 67.1303 121.18 66.9801C121.308 66.83 121.403 66.6546 121.458 66.4656C121.48 66.2732 121.449 66.0785 121.368 65.9024C121.288 65.7262 121.161 65.5752 121.001 65.4655C120.668 65.2396 120.295 65.0787 119.901 64.9915C119.505 64.8814 119.112 64.7805 118.713 64.6856C117.923 64.5189 117.123 64.3984 116.318 64.3248C114.737 64.1811 113.146 64.175 111.563 64.3064C110.792 64.348 110.04 64.5567 109.358 64.9181C109.026 65.092 108.752 65.3588 108.569 65.6857C108.487 65.8448 108.456 66.0251 108.481 66.2023C108.505 66.3794 108.583 66.545 108.704 66.6766C108.963 66.9451 109.277 67.1539 109.625 67.2882C109.965 67.4452 110.315 67.58 110.672 67.6919C111.384 67.9099 112.108 68.0866 112.84 68.221C114.259 68.5396 115.698 68.7593 117.147 68.8785C118.549 68.9805 119.957 68.8461 121.314 68.4809C121.97 68.3011 122.599 68.0369 123.187 67.695C123.767 67.3724 124.234 66.8803 124.525 66.2851C124.668 65.9993 124.74 65.6835 124.735 65.3643C124.73 65.0451 124.649 64.7316 124.498 64.4502C124.155 63.915 123.622 63.5283 123.005 63.3675C122.408 63.1922 121.783 63.1331 121.163 63.1932C120.551 63.2408 119.947 63.3578 119.361 63.5419C118.236 63.9168 117.16 64.424 116.156 65.0526C115.17 65.6643 114.206 66.2484 113.31 66.8876C112.869 67.1969 112.451 67.5361 112.057 67.9029C111.661 68.2429 111.339 68.659 111.108 69.1262C111.004 69.3506 110.972 69.6016 111.016 69.8449C111.07 70.0821 111.212 70.2905 111.412 70.4291C111.83 70.6775 112.311 70.7997 112.797 70.7808C113.271 70.8027 113.746 70.7781 114.215 70.7074C114.668 70.6395 115.114 70.5372 115.551 70.4015C116.378 70.1528 117.182 69.8314 117.952 69.4412C118.692 69.0742 119.38 68.6797 120.03 68.2944C120.65 67.9305 121.249 67.5345 121.826 67.1078C122.814 66.4134 123.641 65.5167 124.252 64.4777C124.486 64.0558 124.604 63.5802 124.596 63.0984C124.587 62.6996 124.452 62.3136 124.212 61.9944C124.019 61.7447 123.746 61.5687 123.438 61.4959C123.218 61.4386 122.986 61.4386 122.766 61.4959C122.584 61.5404 122.416 61.6274 122.275 61.7497Z" fill="#F5F5F5"/>
<path d="M89.8224 9.65541C89.8757 9.60226 89.9321 9.55223 89.9912 9.50556C90.1684 9.36674 90.3705 9.26293 90.5868 9.19973C90.9451 9.10591 91.3216 9.10591 91.6798 9.19973C92.1813 9.31408 92.6274 9.59839 92.9417 10.0041C93.3372 10.5201 93.5596 11.1472 93.5772 11.7962C93.5915 12.5762 93.4021 13.3466 93.0277 14.0318C92.2417 15.5242 90.8785 16.9708 89.1377 18.2827C88.2119 18.971 87.2495 19.609 86.2548 20.1942C85.214 20.8058 84.1056 21.4511 82.9236 22.0475C81.686 22.6825 80.3945 23.2075 79.0643 23.6163C78.3611 23.8289 77.6426 23.9873 76.9151 24.0904C76.1574 24.2047 75.3905 24.2467 74.6248 24.2158C73.8182 24.2407 73.0216 24.0325 72.3313 23.6163C71.9854 23.378 71.7421 23.0189 71.6497 22.6102C71.5713 22.1964 71.625 21.7687 71.8032 21.3869C72.1736 20.6252 72.696 19.9468 73.3383 19.3929C73.9713 18.7991 74.6453 18.2503 75.3555 17.7506C76.0739 17.2368 76.823 16.7536 77.5875 16.2704C78.352 15.7872 79.1226 15.2948 79.9209 14.8147C81.5383 13.7953 83.2732 12.9738 85.0881 12.3681C86.0361 12.0711 87.0144 11.8803 88.0048 11.7992C89.0218 11.7018 90.0482 11.7983 91.029 12.0837C91.5273 12.2339 92.0002 12.4576 92.432 12.7473C92.8748 13.0383 93.2437 13.4278 93.5097 13.885C93.766 14.358 93.9047 14.8853 93.9143 15.4227C93.9239 15.9601 93.8041 16.492 93.565 16.9738C93.0847 17.9571 92.316 18.7719 91.3605 19.3103C90.4051 19.8636 89.3826 20.2932 88.3179 20.5887C86.126 21.1792 83.8497 21.3974 81.585 21.234C79.2514 21.0613 76.9328 20.7261 74.6462 20.2309C73.4676 20.0126 72.3022 19.7287 71.1554 19.3807C70.5786 19.1961 70.0136 18.9765 69.4637 18.7231C68.8829 18.492 68.3592 18.1383 67.9286 17.6864C67.7232 17.4456 67.5902 17.152 67.5448 16.8393C67.5009 16.519 67.5578 16.1932 67.7075 15.9065C68.0161 15.3524 68.4788 14.8989 69.04 14.6006C70.1529 14.001 71.3844 13.6523 72.6475 13.5792C75.1957 13.3662 77.7577 13.3733 80.3047 13.6006C81.6014 13.7189 82.89 13.9129 84.1639 14.1816C84.8056 14.3131 85.4442 14.4875 86.0798 14.6495C86.739 14.7937 87.3644 15.0626 87.9219 15.4416C88.1947 15.649 88.4163 15.9157 88.5697 16.2215C88.7325 16.5325 88.7886 16.888 88.7294 17.2338C88.6587 17.5742 88.4914 17.8874 88.2473 18.136C88.0111 18.3826 87.7401 18.5938 87.4429 18.7629C86.2575 19.4237 84.9557 19.8515 83.6082 20.0229C82.9302 20.1079 82.2457 20.1305 81.5635 20.0902C80.8669 20.0638 80.1781 19.936 79.5187 19.711C78.8415 19.4993 78.2602 19.0577 77.8761 18.4632C77.6983 18.1514 77.6091 17.7972 77.6182 17.4387C77.6324 17.083 77.7235 16.7346 77.8853 16.4172C78.2264 15.7932 78.7441 15.2828 79.374 14.9494C80.0039 14.6161 80.7183 14.4746 81.4284 14.5425C81.7894 14.5635 82.1424 14.6568 82.4664 14.8167C82.7904 14.9767 83.0786 15.2002 83.3139 15.4737C83.5492 15.7472 83.7268 16.0651 83.8359 16.4085C83.945 16.752 83.9835 17.1138 83.949 17.4723C83.9237 17.8373 83.803 18.1894 83.5989 18.4936C83.3947 18.7978 83.1143 19.0435 82.7854 19.2063C82.1235 19.5211 81.3716 19.5947 80.6608 19.4143C80.2977 19.3506 79.9541 19.205 79.6561 18.9887C79.3581 18.7725 79.1137 18.4913 78.9415 18.1665C78.865 17.9909 78.8347 17.7988 78.8535 17.6083C78.8723 17.4178 78.9396 17.2352 79.0489 17.0778C79.2708 16.7688 79.5984 16.5513 79.97 16.4661C80.3313 16.3897 80.7048 16.3897 81.0661 16.4661C81.4253 16.5304 81.7722 16.6252 82.1192 16.723C82.823 16.9133 83.4916 17.2148 84.0995 17.616C84.7175 18.0279 85.1959 18.6164 85.4719 19.3042C85.6054 19.6512 85.667 20.0216 85.653 20.3929C85.6306 20.7678 85.5258 21.1333 85.346 21.4633C84.9794 22.1122 84.4339 22.6428 83.774 22.9925C83.4536 23.1768 83.1138 23.3255 82.7608 23.4359C82.4073 23.5488 82.0431 23.6257 81.674 23.6653C80.1823 23.8347 78.679 23.4658 77.4371 22.6255C76.2051 21.7679 75.2537 20.5682 74.7015 19.1758C74.4135 18.4844 74.2333 17.7531 74.1673 17.0075C74.0916 16.2568 74.1732 15.4987 74.4068 14.781C74.6382 14.0485 75.0946 13.4067 75.7116 12.9461C76.3322 12.5183 77.0311 12.2159 77.7687 12.0561C79.2213 11.7381 80.7114 11.6228 82.1959 11.7136C83.6666 11.787 85.1433 11.8451 86.5802 12.2029C88.0171 12.5608 89.3864 13.2978 90.2399 14.515C90.6674 15.1252 90.92 15.8399 90.9706 16.5824C91.0118 17.3117 90.8967 18.0415 90.6329 18.7231C90.1202 20.0994 89.0794 21.1973 87.9219 22.0352C87.3402 22.4537 86.7309 22.8328 86.0982 23.1698C85.4744 23.5136 84.8305 23.82 84.1701 24.0873C83.5077 24.3547 82.8163 24.5445 82.11 24.6531C81.4029 24.7526 80.6843 24.7371 79.9823 24.6072C78.6007 24.3248 77.2864 23.7808 76.1107 23.0047C74.9162 22.2722 73.8739 21.3181 73.0405 20.1942C72.2359 19.0595 71.7504 17.7312 71.6344 16.3469C71.4713 14.2908 71.9749 12.2369 73.0712 10.4873C73.2401 10.1967 73.455 9.93371 73.6453 9.65541C73.8357 9.37711 74.0721 9.13245 74.3085 8.89391C75.2375 7.92801 76.3351 7.13838 77.5476 6.56352C78.7493 6.00142 80.0392 5.64968 81.3608 5.52371C82.6688 5.41031 83.9866 5.54417 85.2447 5.91822C86.5099 6.26012 87.632 6.99637 88.4469 8.01924C89.1708 9.08116 89.5814 10.324 89.632 11.6066C89.7753 14.0983 89.3349 16.5891 88.3456 18.8822C87.8726 20.0045 87.261 21.0637 86.5249 22.0352C85.8016 23.0016 84.8874 23.8103 83.8385 24.4115C82.7919 24.9924 81.6026 25.269 80.406 25.2097C79.8159 25.1694 79.2374 25.0276 78.6959 24.7907C78.1656 24.5537 77.6708 24.245 77.2252 23.8732C76.369 23.1178 75.581 22.2888 74.8704 21.3961C74.1182 20.5622 73.4972 19.6198 73.0282 18.6008C72.8152 18.0847 72.6896 17.537 72.6567 16.9799C72.6391 16.427 72.7191 15.8752 72.8931 15.3499C73.2555 14.3284 73.8099 13.3849 74.5265 12.5699C75.8544 10.9241 77.6687 9.73645 79.7121 9.17527C80.688 8.91109 81.7071 8.8448 82.7092 8.98034C83.7112 9.11588 84.6757 9.45048 85.5455 9.96429C86.3717 10.4805 87.0942 11.1452 87.6763 11.9246C88.239 12.6839 88.6926 13.5177 89.0241 14.4018C89.6811 16.1007 89.9058 17.9351 89.6781 19.7415C89.5677 20.6047 89.3232 21.4456 88.9535 22.234C88.5886 23.0001 88.0824 23.691 87.4614 24.2708C86.2333 25.4054 84.6552 25.9957 83.1415 26.3107C81.6688 26.625 80.1533 26.6891 78.659 26.5003C77.9529 26.3979 77.2658 26.1918 76.6204 25.8886C76.0011 25.5986 75.4314 25.2137 74.9318 24.7479C73.9982 23.8704 73.3004 22.7737 72.9024 21.5581C72.5395 20.4579 72.4263 19.2912 72.5708 18.1421C72.6944 17.1166 72.9869 16.1185 73.4366 15.1878C73.8274 14.3686 74.3238 13.6037 74.9134 12.9125C75.8491 11.8425 76.965 10.9431 78.2108 10.2548C78.9717 9.82669 79.7702 9.46842 80.5963 9.18444C81.1521 8.99177 81.4468 8.91837 81.4468 8.91837L81.2349 8.98871C81.0906 9.03153 80.8788 9.10187 80.6025 9.19973C79.7799 9.49023 78.9847 9.85251 78.2261 10.2824C76.9876 10.9735 75.8792 11.8738 74.9502 12.943C74.3636 13.629 73.8702 14.3889 73.4826 15.2031C73.0385 16.1285 72.7501 17.1204 72.6291 18.139C72.4884 19.2783 72.6027 20.4345 72.9638 21.5245C73.36 22.7283 74.0537 23.8135 74.9809 24.6806C76.0016 25.6184 77.2885 26.2188 78.6652 26.3994C80.1497 26.5849 81.6551 26.5176 83.117 26.2006C84.6214 25.8947 86.1872 25.2831 87.3907 24.1791C88.0002 23.6064 88.4978 22.9262 88.8583 22.1728C89.2222 21.3917 89.4625 20.5592 89.5706 19.7048C89.793 17.9158 89.5694 16.0997 88.9197 14.4171C88.5878 13.5445 88.1374 12.7213 87.5811 11.9705C87.0069 11.2034 86.2948 10.5491 85.4811 10.0408C83.8324 9.00706 81.6985 8.77463 79.7367 9.27007C77.7183 9.82815 75.9276 11.0052 74.6186 12.6342C73.9116 13.4414 73.3655 14.3756 73.0098 15.3866C72.8395 15.8979 72.7625 16.4355 72.7826 16.9738C72.8128 17.5165 72.9353 18.0501 73.1449 18.5519C73.6163 19.5565 74.2373 20.4845 74.987 21.3043C75.6914 22.1873 76.4733 23.006 77.3235 23.7509C78.1891 24.5125 79.2793 24.9739 80.4305 25.066C81.6007 25.1239 82.7636 24.8526 83.7863 24.283C84.8193 23.6909 85.7199 22.8948 86.4328 21.9435C87.1585 20.9788 87.7627 19.9291 88.232 18.8179C89.2098 16.5455 89.6449 14.078 89.5031 11.6096C89.4534 10.3533 89.0514 9.13599 88.3425 8.0957C87.5462 7.09939 86.4511 6.38255 85.217 6.04973C83.9671 5.68249 82.6585 5.55484 81.3608 5.67356C80.0574 5.79768 78.7852 6.14424 77.5998 6.69808C76.405 7.26672 75.3233 8.04585 74.4068 8.99789C74.1734 9.23337 73.9708 9.49638 73.7528 9.74716C73.5348 9.99794 73.3537 10.2793 73.1879 10.5668C72.1159 12.2883 71.6243 14.306 71.7848 16.3255C71.8985 17.6833 72.3744 18.9862 73.1633 20.0994C73.9842 21.206 75.0096 22.1465 76.1844 22.8701C77.3405 23.6444 78.635 24.1904 79.9976 24.4788C80.6836 24.6046 81.3855 24.619 82.0762 24.5216C82.7784 24.4172 83.4658 24.2303 84.124 23.965C84.7796 23.6978 85.4183 23.3914 86.0368 23.0475C86.6627 22.7123 87.2658 22.3364 87.8421 21.9221C88.9842 21.0963 89.9912 20.0198 90.4947 18.6834C90.7511 18.0201 90.8641 17.3104 90.8263 16.6007C90.7793 15.8902 90.5383 15.206 90.1294 14.622C89.7129 14.0383 89.1785 13.5476 88.5605 13.1816C87.9393 12.8122 87.2654 12.539 86.5618 12.3711C85.1305 12.0715 83.6736 11.9097 82.2113 11.8879C80.7421 11.7971 79.2674 11.9113 77.8301 12.2274C77.1124 12.381 76.4322 12.6741 75.8283 13.0898C75.2398 13.5272 74.803 14.1366 74.5787 14.833C74.3535 15.5303 74.2752 16.2664 74.3484 16.9952C74.4126 17.7251 74.5886 18.4409 74.8704 19.1177C75.4134 20.4765 76.3455 21.6464 77.5507 22.4817C78.7546 23.306 80.2155 23.6728 81.6678 23.5154C82.0267 23.4757 82.3805 23.3999 82.724 23.2891C83.0679 23.1846 83.3986 23.0409 83.7095 22.861C84.3425 22.5266 84.8658 22.0181 85.217 21.3961C85.3831 21.0867 85.479 20.7448 85.4981 20.3945C85.5172 20.0441 85.459 19.6939 85.3276 19.3684C85.0637 18.711 84.6068 18.1482 84.0166 17.7537C83.4199 17.3645 82.7649 17.0724 82.0762 16.8882C81.3977 16.7016 80.6854 16.4753 80.0099 16.6313C79.6764 16.7046 79.3808 16.8958 79.1779 17.1695C79.0838 17.3054 79.026 17.4629 79.0099 17.6271C78.9938 17.7914 79.0199 17.957 79.0858 18.1084C79.2308 18.4175 79.4608 18.6794 79.749 18.8638C80.0366 19.0565 80.3586 19.1925 80.6977 19.2644C81.371 19.4368 82.0836 19.3687 82.7117 19.0718C83.0181 18.9222 83.2794 18.6947 83.4692 18.4122C83.659 18.1297 83.7705 17.8023 83.7924 17.4631C83.8244 17.1255 83.7875 16.7849 83.6841 16.4617C83.5808 16.1386 83.4129 15.8395 83.1908 15.5825C82.9686 15.3255 82.6966 15.1158 82.3911 14.966C82.0857 14.8162 81.753 14.7294 81.413 14.7107C80.7363 14.6484 80.056 14.7845 79.4559 15.1024C78.8559 15.4203 78.3622 15.906 78.0358 16.4998C77.8826 16.7956 77.7967 17.1214 77.784 17.454C77.7769 17.7847 77.8596 18.1112 78.0235 18.399C78.3884 18.9624 78.9404 19.3803 79.5832 19.5794C80.2185 19.7937 80.8811 19.9173 81.5512 19.9464C82.2231 19.9863 82.8973 19.9648 83.5652 19.8822C84.8933 19.7136 86.1765 19.292 87.3447 18.6406C87.6297 18.4746 87.8893 18.2686 88.1153 18.0289C88.3417 17.7998 88.4954 17.5095 88.5574 17.194C88.5909 16.8795 88.5391 16.5617 88.4073 16.2739C88.2756 15.9862 88.0687 15.7389 87.8083 15.5578C87.2697 15.1932 86.6664 14.9337 86.0306 14.7933C85.3982 14.619 84.7626 14.4569 84.124 14.3254C82.855 14.0589 81.5715 13.8659 80.2801 13.7474C77.7435 13.5196 75.1919 13.5104 72.6537 13.7198C71.4111 13.7911 70.1995 14.1335 69.1045 14.7229C68.5664 15.008 68.122 15.4411 67.8242 15.9707C67.6881 16.2321 67.6366 16.5291 67.6768 16.8209C67.721 17.1125 67.8502 17.3847 68.0483 17.6038C68.4614 18.0392 68.9641 18.3804 69.522 18.6039C70.0699 18.8545 70.6328 19.071 71.2076 19.2522C72.3493 19.5989 73.5096 19.8817 74.6831 20.0994C76.9632 20.5966 79.2757 20.9329 81.6034 21.1055C83.8524 21.2677 86.1128 21.0527 88.2903 20.4694C89.3443 20.1781 90.3564 19.7536 91.3022 19.2063C92.2348 18.6826 92.9846 17.8877 93.4514 16.9279C93.6836 16.464 93.8006 15.9513 93.7926 15.433C93.7846 14.9146 93.6518 14.4058 93.4053 13.9492C93.1483 13.5071 92.7921 13.1303 92.3645 12.8482C91.9414 12.5655 91.479 12.3461 90.9921 12.1968C90.0263 11.916 89.0154 11.8215 88.014 11.9185C87.032 11.9968 86.0619 12.1845 85.1218 12.4782C83.3153 13.0797 81.5877 13.8949 79.9761 14.9064C79.181 15.3835 78.4073 15.8759 77.6428 16.3591C76.8783 16.8423 76.1292 17.3225 75.4169 17.8332C74.7075 18.3281 74.0354 18.8739 73.4059 19.4663C72.7658 20.0079 72.2434 20.6739 71.8708 21.4236C71.7022 21.7897 71.6507 22.1986 71.7234 22.5949C71.8087 22.9814 72.0394 23.3207 72.3681 23.5429C73.0426 23.9434 73.8186 24.1419 74.6033 24.1148C75.3638 24.1483 76.1258 24.1073 76.8783 23.9925C77.6056 23.8913 78.3241 23.7349 79.0275 23.5246C80.3521 23.1276 81.6393 22.6159 82.8744 21.9955C84.0626 21.4052 85.1648 20.7722 86.2056 20.1605C87.1987 19.5777 88.16 18.9427 89.0855 18.2583C90.8233 16.9524 92.1834 15.5059 92.9693 14.0348C93.3431 13.357 93.5335 12.5939 93.522 11.8207C93.5096 11.1789 93.2947 10.5572 92.9079 10.0438C92.6413 9.70141 92.2807 9.44344 91.8698 9.30121C91.4588 9.15898 91.0153 9.1386 90.593 9.24255C90.3061 9.31549 90.0416 9.45723 89.8224 9.65541Z" fill="#495E4C"/>
<path d="M34.0976 45.4441C34.0976 45.4441 34.0392 45.4441 33.9287 45.4257L33.4313 45.3493C32.7965 45.2531 32.1772 45.0742 31.5892 44.8172C31.1598 44.623 30.7744 44.3442 30.4563 43.9975C30.0685 43.5862 29.826 43.0601 29.7655 42.499C29.7395 42.1834 29.7989 41.8666 29.9374 41.5815C30.0936 41.2829 30.324 41.0291 30.6067 40.8445C30.9086 40.6437 31.2709 40.553 31.6322 40.5876C31.8211 40.6167 32.0014 40.6865 32.1605 40.7921C32.3196 40.8977 32.4536 41.0367 32.5533 41.1992C32.7549 41.5417 32.843 41.9387 32.805 42.3339C32.7736 42.741 32.6564 43.137 32.4611 43.496C32.3603 43.6809 32.2365 43.8525 32.0927 44.0067C31.9515 44.1676 31.7975 44.317 31.6322 44.4532C31.2839 44.721 30.8981 44.9364 30.487 45.0924C30.0586 45.2473 29.6096 45.338 29.1545 45.3615C28.6853 45.3909 28.2144 45.3434 27.7606 45.2208C27.2914 45.0966 26.8484 44.8895 26.4527 44.6092C26.0476 44.3166 25.7087 43.9426 25.458 43.5113C24.9365 42.6141 24.7424 41.5651 24.9084 40.5417C24.9926 40.0153 25.1771 39.5098 25.4518 39.0523C25.5925 38.8209 25.7582 38.6055 25.9461 38.4101C26.1295 38.2024 26.3516 38.0321 26.6001 37.9086C26.8577 37.767 27.1605 37.7308 27.4444 37.8076C27.5865 37.8556 27.7165 37.9339 27.8251 38.037C27.9267 38.1469 28.0013 38.2788 28.0431 38.4223C28.1122 38.7026 28.1122 38.9953 28.0431 39.2756C27.9819 39.5517 27.8881 39.8196 27.7637 40.0738C27.4997 40.5723 27.2141 41.0463 26.9071 41.5234C26.5969 42.0066 26.2312 42.4521 25.8172 42.8507C25.3973 43.2533 24.8988 43.5655 24.3527 43.7682C23.8083 43.9696 23.2158 44.0037 22.6518 43.866C22.1014 43.7182 21.6016 43.4244 21.2057 43.0158C20.8142 42.6215 20.5017 42.1565 20.2846 41.6457C19.9155 40.6455 19.7233 39.589 19.7166 38.5233C19.6736 38.0089 19.6829 37.4914 19.7443 36.9789C19.7871 36.4474 20.0242 35.9502 20.4105 35.5812C20.611 35.4149 20.8549 35.3089 21.1136 35.2754C21.3666 35.2415 21.6241 35.2709 21.8627 35.361C22.3302 35.5371 22.7139 35.8821 22.9373 36.3274C23.1367 36.7604 23.2111 37.2401 23.1522 37.7128C23.105 38.1648 22.9837 38.6059 22.793 39.0187C22.6165 39.4182 22.3939 39.7959 22.1298 40.1441C21.8729 40.4772 21.5839 40.7845 21.2671 41.0616C20.6649 41.5804 19.9703 41.9819 19.2193 42.2452C18.5399 42.4848 17.821 42.5938 17.1008 42.5663C16.4587 42.541 15.826 42.4044 15.231 42.1626C14.2751 41.7786 13.4308 41.1625 12.7749 40.3705C12.3611 39.8704 12.0361 39.3036 11.8139 38.6945C11.7533 38.5379 11.703 38.3775 11.6634 38.2144C11.6358 38.1074 11.6235 38.0492 11.6235 38.0492C11.6235 38.0492 11.6819 38.2756 11.8446 38.6823C12.0797 39.2768 12.4117 39.8285 12.8271 40.3154C13.4821 41.0888 14.3183 41.6896 15.2618 42.0647C15.8489 42.2981 16.4721 42.4285 17.1039 42.4501C17.8109 42.4718 18.5159 42.3619 19.1824 42.1259C20.3112 41.7274 21.2984 41.0088 22.0224 40.0585C22.2783 39.7164 22.4936 39.3459 22.6641 38.9545C22.8494 38.5556 22.9667 38.1287 23.011 37.6914C23.0652 37.2436 22.994 36.7895 22.8053 36.3794C22.5972 35.9674 22.2409 35.6486 21.8075 35.4864C21.5911 35.4003 21.3554 35.3738 21.1253 35.4099C20.8951 35.446 20.6789 35.5432 20.4996 35.6913C20.1524 36.0333 19.9399 36.488 19.9009 36.9727C19.8392 37.4802 19.831 37.9927 19.8763 38.5019C19.8846 39.5457 20.0737 40.5803 20.4351 41.5601C20.6463 42.0518 20.9507 42.4983 21.3316 42.8752C21.7064 43.2647 22.181 43.545 22.704 43.6856C23.2367 43.8148 23.7961 43.7818 24.3097 43.5908C24.8343 43.3974 25.3146 43.101 25.722 42.7192C26.5418 41.9455 27.1036 40.9454 27.6317 39.9882C27.8908 39.5229 27.9869 38.9848 27.9049 38.459C27.8659 38.346 27.8042 38.242 27.7238 38.1532C27.6364 38.0687 27.5316 38.004 27.4168 37.9636C27.1718 37.8982 26.911 37.93 26.6891 38.0523C26.4562 38.1689 26.2477 38.3287 26.0751 38.5233C25.8963 38.71 25.7378 38.915 25.6023 39.1349C25.337 39.575 25.1597 40.0621 25.0803 40.5692C24.916 41.5578 25.1004 42.5725 25.6023 43.4409C25.8434 43.8479 26.1633 44.2032 26.5432 44.4861C26.9232 44.7691 27.3558 44.9741 27.8159 45.0893C28.4559 45.2646 29.128 45.2898 29.7795 45.163C30.4309 45.0362 31.0441 44.7608 31.5708 44.3584C31.8922 44.1042 32.1638 43.7932 32.3721 43.4409C32.5578 43.0916 32.6666 42.7069 32.6914 42.3124C32.7308 41.9417 32.6512 41.5681 32.4642 41.2451C32.37 41.0983 32.2454 40.9733 32.0987 40.8783C31.952 40.7834 31.7867 40.7208 31.6138 40.6946C31.2777 40.6609 30.9403 40.7441 30.6589 40.9301C30.3857 41.105 30.1625 41.3473 30.0111 41.6335C29.8773 41.9015 29.8189 42.2006 29.8422 42.499C29.8986 43.0425 30.1302 43.5533 30.5023 43.9547C30.8106 44.2962 31.1843 44.5728 31.6015 44.7682C32.189 45.0312 32.8081 45.2173 33.4436 45.3218L33.9379 45.4166L34.0976 45.4441Z" fill="#495E4C"/>
<path d="M74.6952 102.998H55.8423C55.0982 102.998 54.495 103.599 54.495 104.341V104.448C54.495 105.189 55.0982 105.79 55.8423 105.79H74.6952C75.4393 105.79 76.0425 105.189 76.0425 104.448V104.341C76.0425 103.599 75.4393 102.998 74.6952 102.998Z" fill="#495E4C"/>
<path d="M59.6621 107.461H71.2755C71.2755 107.461 69.7305 110.538 65.2296 110.538C60.5359 110.538 59.6621 107.461 59.6621 107.461Z" fill="#495E4C"/>
<path d="M70.9659 42.4315C70.5371 41.7493 69.9155 41.2087 69.1793 40.8775C68.443 40.5463 67.625 40.4392 66.8279 40.5699C66.0308 40.7005 65.2902 41.0629 64.6992 41.6116C64.1082 42.1603 63.6931 42.8708 63.5061 43.6539C63.3191 44.4369 63.3685 45.2575 63.6481 46.0127C63.9277 46.7678 64.4251 47.4238 65.0777 47.8982C65.7303 48.3725 66.509 48.6441 67.3161 48.6789C68.1231 48.7136 68.9225 48.5099 69.6137 48.0934L69.665 48.0593L66.8898 59.3952L75.8329 61.5671L75.7963 61.516C75.3853 60.8303 75.1862 60.0391 75.2241 59.2413C75.262 58.4435 75.5351 57.6745 76.0093 57.0306C76.4834 56.3866 77.1376 55.8963 77.89 55.6208C78.6424 55.3454 79.4596 55.2971 80.2394 55.482C81.0192 55.6669 81.7269 56.0768 82.2742 56.6604C82.8214 57.244 83.1838 57.9754 83.316 58.7632C83.4483 59.5509 83.3445 60.36 83.0177 61.0893C82.6908 61.8186 82.1555 62.4357 81.4785 62.8634L81.3931 62.9169L91.005 65.2541C93.0846 60.6332 94.2879 54.4387 91.7373 47.3589C90.4103 43.5606 88.1901 40.134 85.2622 37.3656C82.3344 34.5972 78.784 32.5673 74.9078 31.4457L73.7948 31.1758L71.0196 42.519L70.9659 42.4315Z" fill="#E9E9E9"/>
<path d="M70.9664 42.4315C70.9865 42.459 71.0053 42.4874 71.0225 42.5167C71.1202 42.0667 72.1087 37.976 73.7636 31.1686V31.1321H73.8002L74.7155 31.3534C75.0279 31.4239 75.3379 31.5285 75.6552 31.6234C76.2849 31.8301 76.9293 32.0636 77.5786 32.336C78.9603 32.9086 80.2884 33.602 81.5473 34.4081C82.9372 35.3023 84.2412 36.3224 85.4429 37.4555C86.7253 38.7079 87.879 40.0848 88.8869 41.5657C89.148 41.95 89.375 42.361 89.6191 42.7599L89.9877 43.3679C90.1 43.5771 90.2025 43.7935 90.3123 44.0075L90.9616 45.3038L91.5156 46.6658C92.2736 48.5502 92.7919 50.5217 93.0582 52.5344C93.3234 54.6533 93.2922 56.7986 92.9655 58.9089C92.8923 59.4488 92.7702 59.9839 92.6628 60.5238C92.5554 61.0637 92.4016 61.5939 92.2357 62.1241C91.9132 63.1966 91.521 64.2471 91.0616 65.2688L91.0421 65.3174H90.9909L84.281 63.6879L81.3765 62.9924L81.2276 62.9559L81.3594 62.8756C82.0769 62.4463 82.6418 61.8043 82.9752 61.0394C83.139 60.6621 83.2428 60.2617 83.2827 59.8526C83.3293 59.4467 83.3096 59.036 83.2242 58.6365C83.1834 58.4376 83.1288 58.2417 83.0606 58.0504C82.9868 57.8616 82.9004 57.678 82.8019 57.5007C82.6095 57.1467 82.3624 56.8249 82.0697 56.5474C81.6411 56.139 81.1273 55.8301 80.5649 55.6429C80.0025 55.4557 79.4055 55.3948 78.8167 55.4646C78.2279 55.5343 77.6618 55.733 77.1591 56.0463C76.6565 56.3596 76.2296 56.7799 75.909 57.277C75.7003 57.5978 75.5407 57.9478 75.4355 58.3155C75.3227 58.6769 75.2659 59.0533 75.2671 59.4318C75.2705 60.1818 75.4853 60.9158 75.8871 61.5501L75.9652 61.6766L75.8236 61.6426L66.8829 59.4659L66.8292 59.4513L66.8414 59.3978C67.8592 55.2632 68.7941 51.4619 69.6239 48.0642L69.6947 48.1129C69.072 48.5039 68.3557 48.7222 67.62 48.7452C66.9226 48.7635 66.2323 48.6018 65.6161 48.2758C65.0889 48.0011 64.6277 47.6157 64.2643 47.1463C63.9009 46.677 63.6439 46.1347 63.5109 45.5568C63.378 44.979 63.3723 44.3793 63.4943 43.799C63.6163 43.2188 63.863 42.6718 64.2175 42.1956C64.7817 41.4535 65.5778 40.9195 66.4802 40.678C66.8625 40.5843 67.2556 40.541 67.6493 40.5491C67.9945 40.566 68.3368 40.6215 68.6696 40.7145C69.5151 40.958 70.2574 41.4705 70.7833 42.1737C70.8527 42.2623 70.9155 42.3558 70.9713 42.4534L70.9224 42.3853C70.8907 42.3367 70.8419 42.2686 70.7736 42.181C70.5711 41.9203 70.3385 41.6844 70.0804 41.4782C69.6594 41.1445 69.1767 40.8966 68.6598 40.7485C68.3298 40.6593 67.9909 40.6071 67.6493 40.5929C67.2595 40.5855 66.8705 40.6297 66.4924 40.7242C65.6028 40.9664 64.8196 41.497 64.2663 42.2321C63.9184 42.7008 63.6766 43.2391 63.5576 43.8099C63.4385 44.3807 63.4451 44.9704 63.5769 45.5384C63.7087 46.1064 63.9625 46.6392 64.3209 47.1C64.6792 47.5608 65.1336 47.9388 65.6527 48.2077C66.2734 48.5334 66.9695 48.6896 67.6704 48.6606C68.3713 48.6315 69.052 48.4183 69.6435 48.0424L69.7411 47.9816L69.7142 48.091C68.8844 51.4959 67.9593 55.2827 66.9488 59.4294L66.9097 59.3637L75.8505 61.5307L75.7894 61.6231C75.3727 60.9684 75.1501 60.2096 75.1475 59.4342C75.1446 59.0443 75.2022 58.6562 75.3184 58.2839C75.4264 57.9048 75.5909 57.5441 75.8065 57.2137C76.2426 56.5407 76.8648 56.0077 77.5981 55.6791C78.3486 55.3416 79.1829 55.2343 79.9948 55.3707C80.8068 55.5071 81.5596 55.8812 82.1575 56.4452C82.4591 56.7288 82.7151 57.0569 82.9166 57.418C83.0176 57.601 83.1064 57.7903 83.1827 57.9847C83.2533 58.1815 83.3096 58.383 83.3511 58.5879C83.4403 59 83.4618 59.4238 83.4146 59.8428C83.3522 60.4834 83.1397 61.1003 82.7942 61.644C82.4487 62.1877 81.9798 62.6429 81.4253 62.9729L81.4082 62.8562L84.3128 63.5615L91.0201 65.1934L90.9469 65.2275C91.4036 64.2102 91.7941 63.1646 92.1161 62.0974C92.282 61.5696 92.409 61.037 92.5408 60.5044C92.6726 59.9717 92.7702 59.4367 92.841 58.9016C93.1693 56.8029 93.2021 54.6689 92.9386 52.5612C92.6784 50.5507 92.1659 48.5807 91.4131 46.6974L90.8615 45.3403C90.6467 44.9074 90.4295 44.4769 90.2171 44.0489C90.1097 43.8373 90.0072 43.6208 89.8949 43.4141L89.5288 42.8085C89.2847 42.4072 89.0553 41.9986 88.7966 41.6168C86.8913 38.7582 84.406 36.329 81.5009 34.4859C80.2481 33.681 78.9266 32.9876 77.5517 32.4138C76.9049 32.139 76.263 31.9055 75.6357 31.6988C75.3184 31.6039 75.0133 31.4993 74.7008 31.4264L73.788 31.2123L73.8319 31.1856C72.1575 37.9954 71.147 42.074 71.0225 42.5191L70.9664 42.4315Z" fill="#495E4C"/>
<path d="M79.3598 71.8577L79.4281 71.7872C79.981 71.2215 80.3538 70.5056 80.4996 69.7295C80.6454 68.9533 80.5577 68.1516 80.2476 67.4249C79.9375 66.6983 79.4188 66.0792 78.7566 65.6454C78.0944 65.2116 77.3184 64.9825 76.5259 64.9869C75.7335 64.9913 74.96 65.2289 74.3027 65.67C73.6454 66.111 73.1336 66.7358 72.8315 67.4658C72.5295 68.1959 72.4508 68.9986 72.6052 69.773C72.7596 70.5475 73.1403 71.2593 73.6995 71.8188L73.7434 71.8577H64.1998V82.5321L64.2389 82.4859C64.6069 82.1174 65.0443 81.8248 65.5259 81.6249C66.0076 81.425 66.5241 81.3217 67.0458 81.3209C67.7023 81.3201 68.3489 81.4798 68.9289 81.7861C69.5089 82.0924 70.0046 82.5359 70.3724 83.0776C70.7403 83.6194 70.9691 84.2428 71.0387 84.8932C71.1083 85.5436 71.0166 86.2011 70.7716 86.8079C70.5267 87.4147 70.136 87.9524 69.6338 88.3737C69.1316 88.7949 68.5334 89.0869 67.8915 89.224C67.2497 89.3611 66.5839 89.3391 65.9525 89.1599C65.3212 88.9808 64.7437 88.6499 64.2706 88.1964L64.1998 88.1259V100.364H74.9614C74.9614 100.364 75.4496 96.2807 75.9377 93.1773C76.4259 90.074 83.3944 83.7433 85.3935 81.1045C86.1989 80.0417 88.1882 76.5565 89.0547 71.8626L79.3598 71.8577Z" fill="#E9E9E9"/>
<path d="M82.6448 84.1664C82.5261 83.8957 82.3164 83.6747 82.0517 83.5415C81.7871 83.4084 81.4841 83.3713 81.195 83.4368C80.8069 83.5341 80.4628 83.8186 80.0551 83.7748C79.8758 83.7368 79.7086 83.6555 79.5681 83.538C79.4277 83.4206 79.3183 83.2706 79.2497 83.1012C79.0837 82.7753 78.9934 82.4129 78.7981 82.104C78.7133 81.9415 78.5832 81.8068 78.4234 81.7162C78.2636 81.6256 78.081 81.5829 77.8975 81.5933C77.4264 81.6711 77.131 82.2475 76.6526 82.2572C76.5112 82.2463 76.3746 82.2012 76.2546 82.1258C76.1347 82.0503 76.035 81.9468 75.9643 81.8243C75.8057 81.5811 75.708 81.3233 75.5445 81.0947C75.2715 80.7437 74.8716 80.513 74.4302 80.4516C73.9888 80.3903 73.5408 80.5032 73.1818 80.7664C72.7229 80.9974 72.2348 81.7635 72.1689 82.5442C71.9711 84.9033 71.0485 85.3265 71.0485 85.3265C71.0491 86.1099 70.8185 86.8762 70.3853 87.53C69.9521 88.1838 69.3355 88.6962 68.6123 89.0034C67.889 89.3106 67.091 89.399 66.3177 89.2577C65.5444 89.1163 64.8298 88.7515 64.263 88.2085L64.1923 88.138V100.376H74.9538C74.9538 100.376 75.442 96.2928 75.9302 93.1894L75.9131 93.1116C75.9206 93.0795 75.9263 93.0471 75.9302 93.0143C76.2475 90.7938 82.6448 84.1664 82.6448 84.1664Z" fill="#5CCD6A"/>
<path d="M79.3599 71.8575L89.0645 71.8234H89.106V71.8648C88.7184 73.9375 88.0927 75.9589 87.2413 77.8891C86.7546 79.02 86.1569 80.1002 85.457 81.114C84.6686 82.1331 83.7485 83.101 82.8014 84.1176C81.8544 85.1342 80.878 86.18 79.8993 87.2793C78.8768 88.406 77.9332 89.6013 77.0753 90.8569C76.6221 91.5009 76.2767 92.2139 76.0525 92.968C75.9037 93.7487 75.8085 94.561 75.6815 95.3709C75.4521 96.9955 75.2349 98.6639 75.0298 100.362V100.415H64.1365V87.9725L64.2439 88.0819C64.6739 88.5158 65.1998 88.8434 65.7796 89.0385C66.3594 89.2336 66.977 89.2908 67.5829 89.2056C67.9822 89.1551 68.3705 89.0401 68.7325 88.8651C68.9134 88.7803 69.0879 88.6827 69.2549 88.5732C69.4178 88.4588 69.5734 88.3345 69.7211 88.2011C70.2224 87.7405 70.5953 87.1581 70.8032 86.511C71.0111 85.8638 71.047 85.1739 70.9073 84.5088C70.7676 83.8437 70.4571 83.2261 70.0062 82.7163C69.5553 82.2066 68.9793 81.8221 68.3347 81.6004C67.9803 81.476 67.6093 81.4046 67.2339 81.3888C66.8614 81.3664 66.4877 81.4009 66.1257 81.491C65.4091 81.6677 64.7569 82.0419 64.2439 82.5708L64.1389 82.6778V82.5319C64.1389 78.767 64.1389 75.1992 64.1389 71.8575V71.804H64.1926H73.7362L73.7069 71.8843C73.1839 71.3813 72.8069 70.7469 72.6159 70.048C72.4402 69.3849 72.4402 68.6877 72.6159 68.0245C72.8393 67.1341 73.3619 66.3466 74.0966 65.793C74.8314 65.2394 75.7342 64.953 76.6549 64.9814C77.5757 65.0098 78.4589 65.3513 79.1579 65.9492C79.8569 66.547 80.3296 67.3652 80.4973 68.2677C80.5569 68.6015 80.5773 68.941 80.5583 69.2795C80.5231 69.8116 80.3803 70.3311 80.1385 70.8068C79.9917 71.099 79.8079 71.3711 79.5917 71.6167C79.521 71.7018 79.4599 71.7602 79.4233 71.7991L79.3623 71.8575L79.4184 71.7967C79.4551 71.7529 79.5112 71.6945 79.582 71.6094C80.1398 70.9537 80.4687 70.1352 80.5192 69.2771C80.5315 69.1151 80.5315 68.9525 80.5192 68.7906C80.489 68.2333 80.3383 67.6891 80.0775 67.1952C79.707 66.4816 79.1272 65.8973 78.4154 65.5199C77.7035 65.1426 76.8932 64.9901 76.0923 65.0828C75.2913 65.1755 74.5377 65.5089 73.9315 66.0387C73.3253 66.5685 72.8954 67.2696 72.6989 68.0489C72.528 68.6986 72.528 69.3813 72.6989 70.031C72.8885 70.7121 73.2576 71.3301 73.7679 71.821L73.8485 71.9013H73.7362H64.1926L64.2463 71.8478C64.2463 75.1895 64.2463 78.7573 64.2463 82.5222L64.1438 82.4833C64.6718 81.9355 65.3445 81.5477 66.0842 81.3645C66.8388 81.1873 67.6282 81.2261 68.3615 81.4764C68.9285 81.6711 69.4452 81.9883 69.8746 82.4053C70.3041 82.8224 70.6357 83.3289 70.8456 83.8886C71.0555 84.4483 71.1386 85.0473 71.089 85.6428C71.0393 86.2382 70.8581 86.8154 70.5583 87.3328C70.3549 87.6875 70.0971 88.0084 69.7943 88.2838C69.64 88.4221 69.4769 88.5505 69.3061 88.6681C69.1335 88.7808 68.9533 88.8816 68.7667 88.9696C68.393 89.1497 67.9923 89.268 67.5805 89.3199C67.1672 89.3786 66.7472 89.3729 66.3357 89.3028C65.5021 89.1597 64.7342 88.7609 64.1389 88.1622L64.2488 88.116V91.82C64.2488 94.7385 64.2488 97.6206 64.2488 100.354L64.1877 100.293H74.9493L74.8883 100.347C75.0982 98.6428 75.3179 96.9777 75.5473 95.3514C75.6669 94.5367 75.7694 93.7365 75.9207 92.9412C76.1487 92.1742 76.4999 91.4489 76.9605 90.7937C77.8239 89.5351 78.7723 88.3365 79.7992 87.2064C80.7755 86.0973 81.7641 85.0516 82.7087 84.0447C83.6533 83.0378 84.5783 82.0625 85.3618 81.0532C86.0599 80.0465 86.6568 78.9736 87.1436 77.8502C87.9967 75.9271 88.6264 73.9133 89.0206 71.8478L89.0523 71.8867L79.3599 71.8575Z" fill="#495E4C"/>
<path d="M72.196 79.494C72.196 79.6773 72.1414 79.8564 72.0392 80.0088C71.9371 80.1612 71.7918 80.28 71.6219 80.3501C71.452 80.4202 71.265 80.4386 71.0846 80.4028C70.9042 80.3671 70.7385 80.2788 70.6084 80.1492C70.4784 80.0196 70.3898 79.8545 70.3539 79.6748C70.318 79.495 70.3365 79.3087 70.4068 79.1394C70.4772 78.9701 70.5964 78.8254 70.7494 78.7235C70.9023 78.6217 71.0821 78.5674 71.266 78.5674C71.5126 78.5674 71.7492 78.665 71.9236 78.8388C72.098 79.0126 72.196 79.2483 72.196 79.494Z" fill="#5CCD6A"/>
<g opacity="0.2">
<path d="M67.417 89.2419C66.4699 89.3198 65.4204 88.9379 64.9761 88.094L64.2439 88.415C64.2439 88.9014 64.8517 89.8573 65.2983 90.0397C66.192 90.4364 67.1961 90.5121 68.1394 90.2537C68.6148 90.09 69.0405 89.8082 69.3762 89.435C69.7118 89.0618 69.9465 88.6095 70.0579 88.1207C69.2207 88.7288 68.364 89.1641 67.417 89.2419Z" fill="black"/>
</g>
<path d="M58.6619 45.4816C59.6844 45.3196 60.7301 45.5594 61.5787 46.1505L61.6544 46.2113L59.8628 34.8972L58.7547 35.0723C54.8731 35.8554 51.2362 37.5532 48.1482 40.0239C45.0602 42.4945 42.6108 45.6661 41.005 49.2733C37.9369 55.9882 38.6106 62.1487 40.2728 66.828L41.4542 66.6408L50.656 65.1937L50.5975 65.2764C50.1402 65.9211 49.8842 66.6861 49.8619 67.4753C49.8396 68.2645 50.0518 69.0427 50.4719 69.7121C50.892 70.3815 51.5012 70.9123 52.2231 71.2377C52.945 71.5632 53.7473 71.6688 54.5293 71.5414C55.3112 71.4139 56.0379 71.0591 56.6181 70.5214C57.1983 69.9837 57.6061 69.2872 57.7903 68.5193C57.9744 67.7514 57.9267 66.9464 57.6532 66.2054C57.3797 65.4645 56.8925 64.8206 56.2528 64.3546L56.2016 64.323L56.4579 64.2817L64.3393 63.0316L62.5477 51.7248L62.5135 51.7759C62.2079 52.1973 61.8219 52.5545 61.3775 52.8271C60.9331 53.0996 60.4391 53.2821 59.9238 53.364C58.9007 53.4753 57.8737 53.1903 57.0556 52.568C56.2374 51.9458 55.6907 51.0339 55.5286 50.0212C55.3665 49.0084 55.6013 47.9723 56.1846 47.1273C56.7678 46.2823 57.6548 45.6931 58.6619 45.4816Z" fill="#5CCD6A"/>
<path d="M58.6619 45.4816L58.3934 45.5424C58.2832 45.5659 58.1748 45.5968 58.0688 45.6348C58.0053 45.6567 57.937 45.6762 57.8638 45.7054L57.6343 45.8051C57.236 45.9872 56.8706 46.2337 56.553 46.5347C56.1221 46.9479 55.7887 47.4513 55.5767 48.0085C55.5148 48.1674 55.4626 48.3298 55.4205 48.495C55.3792 48.6727 55.3507 48.8531 55.3351 49.0349C55.294 49.4248 55.3146 49.8187 55.3961 50.2023C55.5871 51.1504 56.1204 51.9958 56.895 52.5785C57.6696 53.1612 58.6317 53.4406 59.5992 53.364C60.1621 53.3201 60.7086 53.1541 61.2004 52.8776C61.7193 52.5875 62.1657 52.1842 62.5062 51.698L62.5672 51.6104L62.5843 51.715C63.114 55.0446 63.7193 58.8459 64.3856 63.0218V63.0729H64.3344L56.2113 64.3546L56.2333 64.25C56.8485 64.6771 57.332 65.2667 57.6294 65.9524C57.7824 66.2993 57.8803 66.6677 57.9199 67.0445C57.9695 67.4244 57.9629 67.8095 57.9004 68.1875C57.8365 68.5693 57.719 68.9402 57.5513 69.2893C57.3786 69.6422 57.1577 69.9696 56.8948 70.2621C56.3548 70.8518 55.6529 71.2704 54.8762 71.466C54.0837 71.6677 53.2484 71.6235 52.4818 71.3395C51.7029 71.0512 51.0305 70.5338 50.5535 69.8559C50.3072 69.5182 50.1213 69.1405 50.0043 68.7396C49.8758 68.3404 49.8124 67.9233 49.8164 67.5041C49.8217 66.6506 50.0976 65.8207 50.6048 65.1328L50.6658 65.2326L43.9511 66.2881L40.2899 66.8645H40.2362L40.2191 66.8134C39.5061 64.8078 39.059 62.718 38.8888 60.597C38.8064 59.5645 38.7958 58.5276 38.8571 57.4937C38.901 56.9829 38.9303 56.4722 39.0084 55.9687C39.0426 55.7255 39.067 55.4653 39.1134 55.2172L39.2525 54.473C39.636 52.5423 40.2652 50.6683 41.1246 48.8962L41.769 47.6194L41.9301 47.3032C41.9862 47.1987 42.0521 47.1014 42.1107 46.9992L42.4793 46.3985C42.5989 46.1991 42.7234 45.9996 42.843 45.8026L43.0236 45.5059L43.2262 45.2262L44.0341 44.1123C44.161 43.9251 44.3148 43.7573 44.4588 43.5846L44.8957 43.0714L45.3277 42.5607C45.4742 42.3953 45.6377 42.2445 45.7915 42.0864C46.1015 41.7751 46.4017 41.4565 46.7165 41.1598L47.6929 40.311C48.9556 39.2629 50.3156 38.337 51.7544 37.5457C53.0838 36.8324 54.472 36.2335 55.9038 35.7557C57.1951 35.3177 58.5258 35.005 59.8774 34.8218H59.9165V34.8607C60.7171 39.99 61.3175 43.8278 61.6861 46.1772V46.2234L61.6544 46.2112C61.0107 45.7378 60.2398 45.4668 59.4405 45.433C59.2459 45.4254 59.051 45.4311 58.8572 45.45L58.6668 45.4694C58.6668 45.4694 58.7278 45.4573 58.8572 45.4403C59.0506 45.4157 59.2457 45.4067 59.4405 45.4135C60.2463 45.4383 61.0257 45.7053 61.6763 46.1796L61.6446 46.1991C61.2687 43.8521 60.6536 40.0143 59.8311 34.8899L59.8774 34.9239C58.5319 35.1078 57.2075 35.4222 55.9233 35.8627C52.9305 36.8474 50.1537 38.3918 47.7417 40.4131L46.7776 41.2595C46.4627 41.5562 46.1649 41.8748 45.8549 42.1837C45.7036 42.3418 45.5425 42.4926 45.3961 42.6701C45.2496 42.8477 45.1105 43.0082 44.9665 43.1784L44.532 43.6892C44.3812 43.8575 44.2394 44.0336 44.1073 44.2169L43.3067 45.3235L43.1041 45.591L42.9235 45.8853L42.5623 46.4812L42.1986 47.0795C42.1376 47.1792 42.0741 47.2789 42.018 47.3811L41.8593 47.6972C41.6445 48.118 41.4322 48.5412 41.2174 48.9668C40.3637 50.7315 39.7387 52.5973 39.3575 54.5192C39.3135 54.7624 39.2672 55.0056 39.2208 55.2488C39.1744 55.4921 39.15 55.7353 39.1158 55.9979C39.0377 56.4843 39.0084 57.0048 38.9669 57.5131C38.9056 58.5414 38.9162 59.5726 38.9987 60.5994C39.1686 62.7097 39.6142 64.7888 40.324 66.7842L40.2557 66.7429L43.9169 66.1665L50.6341 65.1109L50.7854 65.0866L50.6951 65.2082C50.3268 65.7035 50.0819 66.2788 49.9805 66.8869C49.879 67.4949 49.924 68.1182 50.1117 68.7056C50.1711 68.8987 50.2445 69.0873 50.3314 69.2698C50.4227 69.4499 50.5271 69.623 50.6438 69.7878C51.1066 70.4452 51.7585 70.9472 52.5135 71.2276C52.8848 71.3628 53.2735 71.4447 53.668 71.4708C54.0603 71.4865 54.4529 71.448 54.8347 71.3565C55.2114 71.2624 55.5724 71.1141 55.9062 70.9163C56.566 70.52 57.0959 69.9412 57.4317 69.2504C57.5926 68.9104 57.7067 68.5505 57.771 68.1802C57.8312 67.8134 57.8378 67.4399 57.7905 67.0712C57.7505 66.7058 57.6559 66.3484 57.5098 66.0108C57.221 65.3457 56.754 64.7727 56.1601 64.3546L56.0405 64.2719L56.182 64.25L64.3173 62.9926L64.2733 63.0534C63.607 58.8581 63.0163 55.0591 62.494 51.7321L62.5697 51.7466C62.2204 52.2431 61.7632 52.6546 61.2321 52.9505C60.7294 53.2304 60.1711 53.3964 59.5967 53.4369C58.6124 53.512 57.6346 53.2247 56.8487 52.6294C56.0628 52.0342 55.5234 51.1723 55.3326 50.2071C55.2526 49.8176 55.2336 49.418 55.2765 49.0227C55.3042 48.6646 55.3865 48.3128 55.5206 47.9793C55.7076 47.4921 55.9893 47.0465 56.3495 46.668C56.7097 46.2894 57.1413 45.9854 57.6197 45.7734L57.8516 45.6737L58.059 45.6081C58.1655 45.5707 58.2749 45.5423 58.3861 45.5229C58.5692 45.4816 58.6619 45.4816 58.6619 45.4816Z" fill="#495E4C"/>
<path d="M64.0291 100.395H54.2975C54.2975 100.395 53.8093 96.3117 53.3212 93.2083C52.833 90.105 45.8645 83.7743 43.8655 81.133C43.06 80.0702 41.0707 76.5875 40.2042 71.8911H49.3963L49.3256 71.9641C48.7722 72.53 48.399 73.2464 48.253 74.023C48.107 74.7997 48.1946 75.602 48.5049 76.3292C48.8151 77.0563 49.3342 77.6759 49.9968 78.11C50.6594 78.5441 51.436 78.7734 52.229 78.769C53.022 78.7647 53.796 78.5268 54.4537 78.0854C55.1114 77.6441 55.6236 77.0188 55.9257 76.2882C56.2279 75.5577 56.3066 74.7544 56.152 73.9794C55.9973 73.2044 55.6162 72.4923 55.0566 71.9325L55.0127 71.8911L63.9583 71.9568V82.6312C63.9583 82.6312 64.793 81.3641 66.8067 81.4152C68.8204 81.4662 70.341 82.8939 70.6656 84.3337C70.9903 85.7734 70.7193 88.4901 68.0051 89.2221C65.291 89.9542 63.929 88.0474 63.929 88.0474L63.9583 100.451" fill="white"/>
<path d="M63.9458 99.8506C63.98 99.8506 64.0092 99.9866 64.0092 100.154C64.0092 100.322 63.9824 100.458 63.9458 100.458C63.9093 100.458 63.8824 100.322 63.8824 100.154C63.8824 99.9866 63.9093 99.8506 63.9458 99.8506Z" fill="#495E4C"/>
<path d="M63.9385 97.3623C64.0004 97.5637 64.0227 97.7751 64.0044 97.9849C64.0257 98.1946 64.0041 98.4064 63.9409 98.6075C63.8791 98.4061 63.8575 98.1946 63.8774 97.9849C63.856 97.7754 63.8768 97.5637 63.9385 97.3623Z" fill="#495E4C"/>
<path d="M63.9338 94.8745C63.9956 95.0759 64.0171 95.2874 63.9972 95.4971C64.0186 95.7066 63.9979 95.9183 63.9362 96.1197C63.8729 95.9186 63.8505 95.707 63.8703 95.4971C63.8489 95.2874 63.8705 95.0756 63.9338 94.8745Z" fill="#495E4C"/>
<path d="M63.9267 92.3867C63.9901 92.5878 64.0125 92.7995 63.9926 93.0093C64.014 93.219 63.9924 93.4308 63.9292 93.6319C63.8674 93.4305 63.8458 93.219 63.8657 93.0093C63.8443 92.7998 63.8651 92.5881 63.9267 92.3867Z" fill="#495E4C"/>
<path d="M63.9217 89.8984C63.9835 90.0998 64.0051 90.3114 63.9851 90.5211C64.0066 90.7306 63.9858 90.9422 63.9241 91.1437C63.8619 90.9423 63.8395 90.7309 63.8582 90.5211C63.8368 90.3114 63.8584 90.0996 63.9217 89.8984Z" fill="#495E4C"/>
<path d="M64.3384 88.485C64.3384 88.4995 64.2652 88.4655 64.1775 88.3975C64.1253 88.3577 64.0756 88.3147 64.0287 88.2687L63.9483 88.1837L63.9068 88.1351L63.8873 88.1108V88.0987L64.0019 88.0622C64.0232 88.2669 64.0017 88.4737 63.9385 88.6696C63.8658 88.469 63.8359 88.2555 63.8507 88.0428L63.9653 88.0063V88.0185L63.9848 88.0428L64.0214 88.089L64.0921 88.174L64.2165 88.3198C64.3067 88.4169 64.3384 88.4728 64.3384 88.485Z" fill="#495E4C"/>
<path d="M66.5018 89.3779C66.0966 89.4355 65.6845 89.3391 65.3473 89.1079C65.5454 89.1216 65.7408 89.1616 65.9282 89.2271C66.1252 89.2524 66.318 89.3031 66.5018 89.3779Z" fill="#495E4C"/>
<path d="M68.8106 88.9084C68.8302 88.9376 68.6032 89.0933 68.2834 89.2003C68.0963 89.282 67.8913 89.3146 67.6879 89.2951C67.6879 89.2562 67.9319 89.1833 68.2419 89.0811C68.4228 88.9982 68.6141 88.9401 68.8106 88.9084Z" fill="#495E4C"/>
<path d="M70.3991 87.1986C70.3788 87.4029 70.3001 87.5971 70.1721 87.758C69.9915 88.0401 69.7791 88.2177 69.7572 88.1934C69.7352 88.169 69.8939 87.9501 70.0647 87.6875C70.2356 87.4248 70.3649 87.184 70.3991 87.1986Z" fill="#495E4C"/>
<path d="M70.7384 84.8811C70.8194 85.0678 70.8489 85.2727 70.8239 85.4745C70.8417 85.6778 70.8037 85.8821 70.714 86.0655C70.6797 85.8696 70.6739 85.6697 70.6969 85.4721C70.6814 85.2741 70.6954 85.075 70.7384 84.8811Z" fill="#495E4C"/>
<path d="M69.7797 82.7481C69.8041 82.7238 70.0238 82.8989 70.2044 83.1761C70.3378 83.3318 70.4226 83.5228 70.4485 83.7258C70.4168 83.7404 70.285 83.5118 70.1019 83.2394C69.9188 82.967 69.7529 82.7724 69.7797 82.7481Z" fill="#495E4C"/>
<path d="M67.7561 81.5514C67.9606 81.5396 68.1644 81.5851 68.3443 81.6827C68.6543 81.8092 68.8716 81.977 68.852 82.0062C68.658 81.9627 68.4708 81.8931 68.2955 81.7994C68.1056 81.7406 67.9243 81.6572 67.7561 81.5514Z" fill="#495E4C"/>
<path d="M65.4031 81.6121C65.5687 81.49 65.7662 81.4182 65.9718 81.4054C66.1689 81.3502 66.3775 81.3502 66.5747 81.4054C66.3866 81.4709 66.1902 81.5102 65.9913 81.5221C65.7995 81.5752 65.602 81.6054 65.4031 81.6121Z" fill="#495E4C"/>
<path d="M63.9459 82.0186C64.0091 82.2145 64.0307 82.4213 64.0093 82.6259L63.8923 82.5895V82.5774L63.9118 82.5506L63.9508 82.502L64.0313 82.417C64.077 82.3691 64.1267 82.3252 64.18 82.2858C64.2678 82.2178 64.3312 82.1886 64.3434 82.2008C64.3556 82.2129 64.3117 82.2688 64.241 82.3514C64.1703 82.434 64.1532 82.4534 64.1166 82.4947L64.0459 82.5822L64.0118 82.6284L63.9947 82.6527V82.6648L63.8777 82.6308C63.8586 82.4242 63.8818 82.2159 63.9459 82.0186Z" fill="#495E4C"/>
<path d="M63.9459 79.3167C64.0305 79.7626 64.0305 80.2205 63.9459 80.6665C63.8613 80.2205 63.8613 79.7626 63.9459 79.3167Z" fill="#495E4C"/>
<path d="M63.9459 76.6118C64.0305 77.0578 64.0305 77.5156 63.9459 77.9616C63.8613 77.5156 63.8613 77.0578 63.9459 76.6118Z" fill="#495E4C"/>
<path d="M63.9459 73.9124C64.0305 74.3583 64.0305 74.8162 63.9459 75.2622C63.8613 74.8162 63.8613 74.3583 63.9459 73.9124Z" fill="#495E4C"/>
<path d="M63.3358 71.9473C63.533 71.8874 63.7403 71.8676 63.9454 71.889L64.0088 71.9521V72.0663C64.0088 72.1028 64.0088 72.1416 64.0088 72.1805C64.0088 72.2194 64.0088 72.319 64.0088 72.3749C63.9966 72.4842 63.9795 72.5522 63.9625 72.5522C63.9454 72.5522 63.9283 72.4842 63.9186 72.3749C63.9186 72.319 63.9186 72.2534 63.9039 72.1805V71.9521L63.9673 72.0153C63.7544 72.0382 63.5389 72.015 63.3358 71.9473Z" fill="#495E4C"/>
<path d="M61.1293 71.9325C61.3059 71.8698 61.4948 71.849 61.6809 71.8717C61.8676 71.8535 62.056 71.8767 62.2325 71.9398C62.0552 71.9997 61.8668 72.0196 61.6809 71.9982C61.4944 72.0165 61.3062 71.9941 61.1293 71.9325Z" fill="#495E4C"/>
<path d="M58.9207 71.9158C59.2845 71.8331 59.6624 71.8331 60.0263 71.9158C59.8488 71.9783 59.6592 71.9992 59.4723 71.9766C59.2862 71.9972 59.0978 71.9764 58.9207 71.9158Z" fill="#495E4C"/>
<path d="M56.7141 71.9008C56.8907 71.8381 57.0796 71.8172 57.2657 71.84C57.4524 71.8201 57.6412 71.8434 57.8174 71.9081C57.6401 71.9679 57.4517 71.9878 57.2657 71.9665C57.0793 71.9848 56.891 71.9624 56.7141 71.9008Z" fill="#495E4C"/>
<path d="M55.4054 72.3409C55.3908 72.3409 55.3347 72.3093 55.2543 72.234C55.2128 72.1976 55.1665 72.1514 55.1177 72.1004L55.0421 72.0178L55.0031 71.974L54.9812 71.9546C54.9446 72.0518 55.0348 71.8185 55.0251 71.8428C55.2308 71.8245 55.4381 71.8477 55.6346 71.9109C55.4377 71.9722 55.2301 71.992 55.0251 71.9692C55.0251 71.9935 55.1055 71.7602 55.0665 71.8598V71.872L55.0885 71.8939L55.1299 71.94L55.2031 72.0299C55.2494 72.0882 55.2908 72.1417 55.3225 72.1878C55.3859 72.268 55.4201 72.3287 55.4054 72.3409Z" fill="#495E4C"/>
<path d="M56.2084 74.5178C56.1387 74.3338 56.0928 74.1418 56.0718 73.9463C56.0121 73.7588 55.9784 73.564 55.9717 73.3674C56.0979 73.5273 56.1758 73.7196 56.1962 73.9219C56.2577 74.1153 56.2619 74.3221 56.2084 74.5178Z" fill="#495E4C"/>
<path d="M55.65 76.7724C55.7733 76.3998 55.9234 76.0364 56.0991 75.6853C56.0837 76.0893 55.9245 76.4747 55.65 76.7724Z" fill="#495E4C"/>
<path d="M53.9265 78.3339C53.9118 78.2999 54.1388 78.1685 54.4146 77.991C54.6904 77.8135 54.8881 77.6529 54.9028 77.6797C54.9174 77.7064 54.7514 77.9229 54.4756 78.0956C54.3189 78.2252 54.1285 78.3078 53.9265 78.3339Z" fill="#495E4C"/>
<path d="M51.6222 78.6767C51.8148 78.6298 52.0149 78.6224 52.2104 78.6548C52.4066 78.6193 52.6081 78.6268 52.8011 78.6767C52.6143 78.7515 52.4141 78.7871 52.2129 78.7813C52.0108 78.7887 51.8094 78.753 51.6222 78.6767Z" fill="#495E4C"/>
<path d="M49.516 77.6868C49.5404 77.6601 49.7601 77.8181 50.0042 77.9957C50.2483 78.1732 50.4924 78.3046 50.4924 78.3386C50.2899 78.3107 50.0996 78.2264 49.9432 78.0954C49.6698 77.9179 49.4916 77.7111 49.516 77.6868Z" fill="#495E4C"/>
<path d="M48.3176 75.6973C48.4228 75.863 48.5049 76.0422 48.5617 76.2299C48.6549 76.4032 48.7246 76.588 48.7692 76.7795C48.7399 76.799 48.5715 76.585 48.4445 76.2785C48.3469 76.101 48.3028 75.8992 48.3176 75.6973Z" fill="#495E4C"/>
<path d="M48.4323 73.3777C48.4271 73.574 48.3951 73.7688 48.3371 73.9565C48.3193 74.1523 48.2742 74.3447 48.2029 74.5281C48.1369 74.1296 48.2184 73.7208 48.4323 73.3777Z" fill="#495E4C"/>
<path d="M48.7737 71.8864C48.9706 71.8248 49.1779 71.8033 49.3833 71.8232C49.4028 71.8718 49.3394 71.7163 49.4296 71.9325L49.4076 71.9544L49.3662 71.9957L49.2906 72.0807L49.1565 72.2168C49.0785 72.2921 49.0199 72.3334 49.0078 72.3237C48.9956 72.314 49.0248 72.2508 49.0882 72.1609C49.1199 72.1148 49.1589 72.0589 49.2028 72.0006L49.276 71.9107C49.2885 71.8942 49.3023 71.8787 49.3174 71.8645L49.3394 71.8427C49.4296 72.0589 49.3637 71.9034 49.3833 71.9496C49.1779 71.9708 48.9703 71.9493 48.7737 71.8864Z" fill="#495E4C"/>
<path d="M46.658 71.8864C46.658 71.8524 46.7945 71.8232 46.9627 71.8232C47.131 71.8232 47.2675 71.8524 47.2675 71.8864C47.2675 71.9204 47.131 71.9496 46.9627 71.9496C46.7945 71.9496 46.658 71.9229 46.658 71.8864Z" fill="#495E4C"/>
<path d="M64.0608 100.395H63.885H63.3749H61.4223L54.3317 100.446H54.2877V100.402C54.0437 98.4104 53.7459 96.151 53.3749 93.7213C53.2821 92.481 52.567 91.3744 51.8201 90.3164C51.0242 89.2288 50.172 88.1832 49.267 87.1839C48.0685 85.8341 46.853 84.5597 45.7034 83.3144C45.1322 82.6894 44.5708 82.0741 44.0583 81.4417C43.8053 81.1289 43.5745 80.799 43.3675 80.4543C43.1576 80.1187 42.9672 79.7758 42.7842 79.4377C42.1135 78.1586 41.5509 76.8261 41.1024 75.4539C40.7109 74.2907 40.401 73.1018 40.1749 71.8958V71.8447H40.2262L44.8198 71.8642L46.0402 71.8763H46.36H46.4674H46.36H46.0402H44.8198L40.2262 71.8958L40.2677 71.8447C40.495 73.0412 40.8033 74.221 41.1903 75.3761C41.6426 76.7409 42.2075 78.0661 42.8794 79.338C43.06 79.676 43.2504 80.0165 43.4603 80.3497C43.6664 80.6892 43.8955 81.0142 44.1461 81.3226C44.6538 81.9476 45.2152 82.5605 45.7888 83.1831C46.9384 84.4283 48.1564 85.7003 49.3548 87.055C50.2636 88.0677 51.1175 89.1279 51.9128 90.2313C52.2951 90.7583 52.6393 91.3118 52.9428 91.8875C53.0886 92.1725 53.2095 92.4695 53.3041 92.7752C53.3873 93.0776 53.4476 93.3857 53.4847 93.697C53.8508 96.1291 54.1364 98.3885 54.3781 100.388L54.3268 100.341L61.4198 100.363L63.3725 100.378H63.8826C64.0022 100.39 64.0608 100.395 64.0608 100.395Z" fill="#495E4C"/>
<path d="M63.4191 100.395C63.4191 100.359 63.5556 100.332 63.7239 100.332C63.8921 100.332 64.0286 100.359 64.0286 100.395C64.0286 100.432 63.8921 100.459 63.7239 100.459C63.5556 100.459 63.4191 100.429 63.4191 100.395Z" fill="#495E4C"/>
<path d="M60.9879 100.395C61.3902 100.31 61.806 100.31 62.2083 100.395C61.806 100.48 61.3902 100.48 60.9879 100.395Z" fill="#495E4C"/>
<path d="M58.554 100.395C58.9563 100.31 59.372 100.31 59.7744 100.395C59.372 100.48 58.9563 100.48 58.554 100.395Z" fill="#495E4C"/>
<path d="M56.1229 100.395C56.5253 100.31 56.941 100.31 57.3433 100.395C56.941 100.48 56.5253 100.48 56.1229 100.395Z" fill="#495E4C"/>
<path d="M54.222 99.792C54.239 99.792 54.2634 99.8552 54.2902 99.9621C54.2902 100.018 54.3146 100.081 54.3268 100.154C54.339 100.227 54.339 100.232 54.3439 100.266V100.326V100.358V100.385C54.3146 100.361 54.4048 100.443 54.2805 100.329C54.4859 100.308 54.6935 100.329 54.8901 100.392C54.6932 100.454 54.4859 100.475 54.2805 100.455C54.2805 100.326 54.1976 100.426 54.2171 100.397V100.339V100.278V100.166C54.2171 100.093 54.2171 100.028 54.2171 99.9718C54.1976 99.8624 54.2049 99.7944 54.222 99.792Z" fill="#495E4C"/>
<path d="M53.8995 97.2844C54.0396 97.6863 54.0953 98.1127 54.063 98.5369C53.926 98.1343 53.8704 97.7086 53.8995 97.2844Z" fill="#495E4C"/>
<path d="M53.5532 94.7869C53.6448 94.9797 53.6963 95.189 53.7046 95.4022C53.7544 95.6101 53.7635 95.8256 53.7314 96.037C53.5894 95.6361 53.5289 95.2112 53.5532 94.7869Z" fill="#495E4C"/>
<path d="M53.0454 92.3206C53.1838 92.4879 53.2763 92.6882 53.3139 92.9018C53.3827 93.106 53.4012 93.3238 53.3676 93.5366C53.3261 93.5366 53.2748 93.2618 53.1919 92.9334C53.1171 92.7362 53.0679 92.5302 53.0454 92.3206Z" fill="#495E4C"/>
<path d="M51.7513 90.1565C51.9161 90.2916 52.0536 90.4567 52.1565 90.6429C52.2927 90.8074 52.394 90.9977 52.4543 91.2023C52.425 91.2217 52.2444 91.0029 52.0491 90.7159C51.9133 90.5511 51.812 90.3609 51.7513 90.1565Z" fill="#495E4C"/>
<path d="M50.1823 88.1742C50.2091 88.1523 50.4117 88.3542 50.6338 88.6242C50.7848 88.7757 50.905 88.9549 50.9877 89.1519C50.9584 89.1738 50.7583 88.972 50.5362 88.7044C50.3843 88.5527 50.264 88.3725 50.1823 88.1742Z" fill="#495E4C"/>
<path d="M48.5081 86.28C48.5325 86.2581 48.7522 86.4479 48.9767 86.7081C49.1346 86.8529 49.2624 87.0272 49.3526 87.2213C49.3257 87.2456 49.1085 87.0534 48.8815 86.7932C48.6545 86.533 48.4739 86.3044 48.5081 86.28Z" fill="#495E4C"/>
<path d="M46.7899 84.4238C46.8143 84.3994 47.0339 84.5867 47.278 84.8445C47.4384 84.9865 47.5694 85.1583 47.6637 85.3504C47.6368 85.3723 47.4196 85.185 47.1755 84.9296C46.9314 84.6743 46.7654 84.4481 46.7899 84.4238Z" fill="#495E4C"/>
<path d="M45.0737 82.5656C45.0981 82.5413 45.3178 82.731 45.5472 82.9888C45.7046 83.1333 45.8337 83.3057 45.928 83.4971C45.9012 83.5214 45.6839 83.3317 45.4521 83.0739C45.2202 82.8161 45.0566 82.5875 45.0737 82.5656Z" fill="#495E4C"/>
<path d="M43.8605 81.1332C43.8874 81.1113 43.9946 81.2012 44.1044 81.3324C44.2141 81.4636 44.2702 81.5753 44.2433 81.6094C44.2165 81.6434 44.1092 81.5413 43.9995 81.4101C43.8898 81.2789 43.8362 81.155 43.8605 81.1332Z" fill="#495E4C"/>
</g>
<defs>
<clipPath id="clip0_100_914">
<rect width="141" height="124" fill="white" transform="translate(0 0.985352)"/>
</clipPath>
</defs>
</svg>
