<svg width="172" height="114" viewBox="0 0 172 114" fill="none" xmlns="http://www.w3.org/2000/svg">
<g opacity="0.5" clip-path="url(#clip0_101_1022)">
<path d="M147.906 113.105C148.104 110.832 147.686 108.548 146.697 106.492C145.707 104.436 144.182 102.683 142.281 101.419C140.381 100.154 138.175 99.4236 135.894 99.304C133.614 99.1845 131.344 99.6803 129.321 100.739C128.344 98.1284 127.341 95.4711 125.612 93.2868C123.884 91.1024 121.271 89.4268 118.483 89.5296V113.105H147.906Z" fill="#D0FFD4"/>
<path d="M103 56.3683H42.0455L30.657 40.209L18.7182 56.8257L4.69096 56.5996L19.8087 36.2515L87.7741 36.5342L103 56.3683Z" fill="#E0E0E0"/>
<path d="M72.5176 56.5995V113.244H11.6506V56.5995H18.6256L30.6571 40.209L42.0815 56.3528L72.5176 56.5995Z" fill="#F5F5F5"/>
<path d="M49.679 88.6868H63.9171V113.244H49.679V88.6868Z" fill="#E0E0E0"/>
<path d="M18.7182 87.9929H41.1453V101.875H18.7182V87.9929Z" fill="#E0E0E0"/>
<path d="M34.412 87.9929H34.9264V102.004H34.412V87.9929Z" fill="#EBEBEB"/>
<path d="M25.0862 87.9929H25.6006V102.004H25.0862V87.9929Z" fill="#EBEBEB"/>
<path d="M25.3437 95.1628H34.6694V95.6768H25.3437V95.1628Z" fill="#EBEBEB"/>
<path d="M18.7182 60.2129H41.1453V74.0952H18.7182V60.2129Z" fill="#E0E0E0"/>
<path d="M34.412 60.2078H34.9264V74.2186H34.412V60.2078Z" fill="#EBEBEB"/>
<path d="M25.0862 60.2078H25.6006V74.2186H25.0862V60.2078Z" fill="#EBEBEB"/>
<path d="M25.3437 67.3828H34.6694V67.8968H25.3437V67.3828Z" fill="#EBEBEB"/>
<path d="M51.1656 60.3364H65.3112V73.7202H51.1656V60.3364Z" fill="#E0E0E0"/>
<path d="M72.5126 56.5996H97.2184V113.239H72.5126V56.5996Z" fill="#E0E0E0"/>
<path d="M57.9811 60.3364H58.4955V73.7202H57.9811V60.3364Z" fill="#EBEBEB"/>
<path d="M51.1656 67.1001H65.3112V67.6141H51.1656V67.1001Z" fill="#EBEBEB"/>
<path d="M30.6879 54.0195C29.0317 54.0195 27.6891 52.678 27.6891 51.0231C27.6891 49.3682 29.0317 48.0266 30.6879 48.0266C32.3441 48.0266 33.6868 49.3682 33.6868 51.0231C33.6868 52.678 32.3441 54.0195 30.6879 54.0195Z" fill="#E0E0E0"/>
<path d="M52.0813 47.3483L48.2954 42.6814V31.4614H56.222V47.4356L52.0813 47.3483Z" fill="#F5F5F5"/>
<path d="M52.0812 47.3483V31.4614H48.2953V42.6814L52.0812 47.3483Z" fill="#EBEBEB"/>
<path d="M47.7655 29.8115H57.1067V31.4614H47.7655V29.8115Z" fill="#EBEBEB"/>
<path d="M72.5176 81.3782H118.483V113.244H72.5176V81.3782Z" fill="#F5F5F5"/>
<path d="M89.7032 81.3782H118.483V113.244H89.7032V81.3782Z" fill="#E0E0E0"/>
<path d="M93.9879 91.6523H112.809V113.188H93.9879V91.6523Z" fill="#F5F5F5"/>
<path d="M75.0483 91.5652H87.1724V94.649H75.0483V91.5652Z" fill="#EBEBEB"/>
<path d="M103 56.3685V58.008H42.0815V56.353L103 56.3685Z" fill="#EBEBEB"/>
<path d="M42.0814 58.0078L30.6878 42.0284L30.657 40.209L42.0454 56.3682L42.0814 58.0078Z" fill="#EBEBEB"/>
<path d="M4.98417 56.5996H18.6256V57.6584H4.98417V56.5996Z" fill="#EBEBEB"/>
<path d="M54.5346 84.9194H59.5704V86.8314H54.5346V84.9194Z" fill="#E0E0E0"/>
<path d="M160.396 12.4549C155.74 6.08517 148.977 3.11572 141.916 3.11572C141.916 3.11572 124.628 3.11572 119.508 18.5213C117.617 24.1988 118.037 30.3636 120.327 35.8926C121.187 37.9945 122.27 39.9988 123.558 41.8712C128.023 48.2848 141.916 65.8172 141.916 65.8172H144.937C148.807 60.4554 158.578 42.6387 161.503 36.934C165.175 29.7655 165.738 19.7718 160.396 12.4549ZM144.801 40.9532C141.879 40.9536 139.023 40.0917 136.594 38.4766C134.165 36.8614 132.272 34.5654 131.154 31.8791C130.036 29.1928 129.743 26.2367 130.313 23.3849C130.883 20.533 132.289 17.9133 134.355 15.8573C136.421 13.8012 139.052 12.401 141.918 11.8338C144.783 11.2667 147.753 11.558 150.451 12.6709C153.15 13.7838 155.457 15.6684 157.08 18.0863C158.702 20.5042 159.568 23.3467 159.568 26.2544C159.567 30.1526 158.011 33.891 155.242 36.6474C152.473 39.4039 148.717 40.9527 144.801 40.9532Z" fill="#71D281"/>
<path d="M163.436 12.5762C158.782 6.20651 152.017 3.23706 144.956 3.23706C144.956 3.23706 127.667 3.23706 122.547 18.6427C120.657 24.3202 121.077 30.4849 123.369 36.014C124.228 38.116 125.31 40.1203 126.598 41.9926C131.063 48.4104 144.956 65.9364 144.956 65.9364C144.956 65.9364 161.009 43.9562 164.543 37.0554C168.215 29.8827 168.78 19.8932 163.436 12.5762ZM144.815 41.0746C141.894 41.0746 139.038 40.2124 136.61 38.597C134.181 36.9817 132.288 34.6857 131.17 31.9995C130.052 29.3132 129.76 26.3574 130.329 23.5057C130.899 20.654 132.306 18.0346 134.372 15.9786C136.437 13.9226 139.069 12.5225 141.934 11.9553C144.799 11.388 147.768 11.6792 150.467 12.7919C153.166 13.9045 155.473 15.7888 157.096 18.2063C158.718 20.6239 159.585 23.4661 159.585 26.3737C159.599 28.3083 159.227 30.2264 158.49 32.0165C157.753 33.8067 156.666 35.433 155.291 36.801C153.917 38.169 152.283 39.2513 150.484 39.985C148.686 40.7187 146.759 41.089 144.815 41.0746Z" fill="#8EEE9E"/>
<path d="M144.801 11.5535C141.748 11.5534 138.771 12.4946 136.279 14.2475C133.786 16.0003 131.9 18.4789 130.88 21.3422C132.02 18.8359 133.954 16.7704 136.385 15.4612C138.817 14.152 141.612 13.6712 144.343 14.0923C147.075 14.5135 149.593 15.8133 151.512 17.7933C153.432 19.7732 154.647 22.3242 154.972 25.0565C155.298 27.7887 154.715 30.5519 153.314 32.9235C151.913 35.2952 149.77 37.145 147.213 38.1901C144.656 39.2352 141.825 39.4181 139.154 38.7109C136.483 38.0038 134.117 36.4454 132.42 34.274C133.816 36.4078 135.745 38.144 138.018 39.3124C140.292 40.4808 142.831 41.0414 145.387 40.9392C147.943 40.837 150.429 40.0755 152.601 38.7294C154.772 37.3832 156.555 35.4986 157.775 33.2602C158.995 31.0218 159.61 28.5063 159.559 25.9604C159.508 23.4144 158.793 20.9252 157.485 18.7368C156.177 16.5483 154.32 14.7357 152.097 13.4764C149.873 12.2172 147.359 11.5546 144.801 11.5535Z" fill="#71D281"/>
</g>
<defs>
<clipPath id="clip0_101_1022">
<rect width="172" height="113" fill="white" transform="translate(0 0.985352)"/>
</clipPath>
</defs>
</svg>
