<svg width="141" height="126" viewBox="0 0 141 126" fill="none" xmlns="http://www.w3.org/2000/svg">
<g opacity="0.5" clip-path="url(#clip0_101_1058)">
<path d="M139.318 112.582C139.318 112.582 87.1153 111.503 64.971 112.582C49.1288 113.354 1.49465 112.582 1.49465 112.582C1.49465 112.582 2.47275 77.7153 1.49465 60.0407C0.864813 48.7683 1.49465 14.8806 1.49465 14.8806C1.49465 14.8806 52.2038 14.9771 68.5055 14.3465C95.481 13.2857 139.318 14.8806 139.318 14.8806C139.318 14.8806 140.37 39.1243 139.318 53.5532C138.254 68.2715 139.318 112.582 139.318 112.582Z" fill="white"/>
<path opacity="0.5" d="M139.318 14.8806V37.0248C129.963 36.7912 104.054 36.3164 70.0912 37.1324C34.0461 37.9967 8.70074 37.4106 1.47986 37.1992V14.8806C1.47986 14.8806 52.1891 14.9808 68.4907 14.3465C95.481 13.2857 139.318 14.8806 139.318 14.8806Z" fill="#92E3A9" fill-opacity="0.7"/>
<path opacity="0.2" d="M87.0787 111.124L85.8153 35.9453H70.4062C69.7208 47.7741 70.1728 95.3786 70.3469 111.124H87.0787Z" fill="#92E3A9" fill-opacity="0.7"/>
<path opacity="0.2" d="M3.23242 37.2361L20.1347 37.1211C20.1347 37.1211 21.424 95.2783 18.4822 111.124H4.20684C4.20684 111.124 4.4032 89.9408 4.20684 72.4554C4.01047 54.97 3.23242 37.2361 3.23242 37.2361Z" fill="#92E3A9" fill-opacity="0.7"/>
<path d="M3.23254 25.5264C3.23254 25.5264 45.0981 24.9367 57.7541 25.5264C70.4101 26.1162 105.233 25.0925 110.308 24.7846C115.384 24.4767 138.466 25.5264 138.466 25.5264C139.333 18.5902 137.684 15.415 137.684 15.415C137.684 15.415 75.9267 16.2199 46.028 16.6243C16.1294 17.0286 3.23254 16.6243 3.23254 16.6243C3.23254 16.6243 3.82163 22.1028 3.23254 25.5264Z" fill="#5CCD6A"/>
<path d="M139.318 112.582C139.318 112.582 87.1153 111.503 64.971 112.582C49.1288 113.354 1.49465 112.582 1.49465 112.582C1.49465 112.582 2.47275 77.7153 1.49465 60.0407C0.864813 48.7683 1.49465 14.8806 1.49465 14.8806C1.49465 14.8806 52.2038 14.9771 68.5055 14.3465C95.481 13.2857 139.318 14.8806 139.318 14.8806C139.318 14.8806 140.37 39.1243 139.318 53.5532C138.254 68.2715 139.318 112.582 139.318 112.582Z" stroke="#495E4C" stroke-width="0.4" stroke-linecap="round" stroke-linejoin="round"/>
<path d="M5.32935 26.4092C5.32935 26.4092 21.305 25.8194 39.6258 26.4092C57.9466 26.9989 85.8076 26.6206 100.679 26.1458C115.551 25.671 133.538 25.5264 133.538 25.5264" stroke="#495E4C" stroke-width="0.4" stroke-linecap="round" stroke-linejoin="round"/>
<path d="M5.32922 37.1211C5.32922 37.1211 121.334 35.9453 133.519 35.9453" stroke="#495E4C" stroke-width="0.4" stroke-linecap="round" stroke-linejoin="round"/>
<path d="M20.134 25.5264C20.134 25.5264 21.7447 90.5346 20.134 103.298" stroke="#495E4C" stroke-width="0.4" stroke-linecap="round" stroke-linejoin="round"/>
<path d="M36.109 25.5264C36.109 25.5264 35.5251 97.0851 36.109 102.1" stroke="#495E4C" stroke-width="0.4" stroke-linecap="round" stroke-linejoin="round"/>
<path d="M52.8188 25.5264C52.8188 25.5264 53.4046 39.6215 53.5603 52.0883C53.716 64.5551 52.8188 101.51 53.5603 105.635" stroke="#495E4C" stroke-width="0.4" stroke-linecap="round" stroke-linejoin="round"/>
<path d="M70.4057 26.1196C70.4057 26.1196 69.5134 68.9614 69.8837 83.6352C70.2539 98.309 70.4057 106.236 70.4057 106.236" stroke="#495E4C" stroke-width="0.4" stroke-linecap="round" stroke-linejoin="round"/>
<path d="M85.7964 25.5264C85.7964 25.5264 87.2788 76.4617 87.1157 87.3855C86.9527 98.3092 87.1157 104.407 87.1157 104.407" stroke="#495E4C" stroke-width="0.4" stroke-linecap="round" stroke-linejoin="round"/>
<path d="M102.506 24.7842C102.506 24.7842 102.413 54.8291 103.358 63.1786C104.303 71.5281 102.932 106.25 102.932 106.25" stroke="#495E4C" stroke-width="0.4" stroke-linecap="round" stroke-linejoin="round"/>
<path d="M118.941 24.7842C118.941 24.7842 119.571 40.1516 119.682 48.7348C119.793 57.318 119.389 101.128 120.423 104.422" stroke="#495E4C" stroke-width="0.4" stroke-linecap="round" stroke-linejoin="round"/>
<path d="M5.32922 46.2165C5.32922 46.2165 29.4408 45.7788 44.7199 46.2165C44.7199 46.2165 44.6829 50.3263 44.7199 51.9399C44.7199 51.9399 9.1527 51.6468 5.32922 51.9399C5.32922 51.9399 5.62191 47.244 5.32922 46.2165Z" fill="white" stroke="#495E4C" stroke-width="0.6" stroke-linecap="round" stroke-linejoin="round"/>
<path d="M86.3373 46.0233V51.9581C86.3373 51.9581 116.425 51.6651 119.644 51.079L119.585 45.3557C119.585 45.3557 97.0186 45.0923 86.3373 46.0233Z" fill="white" stroke="#495E4C" stroke-width="0.6" stroke-linecap="round" stroke-linejoin="round"/>
<path d="M35.8467 53.5532H70.1023L69.8875 59.0207C69.8875 59.0207 55.4568 59.3508 47.6876 59.5362C39.9184 59.7217 36.1097 59.9739 36.1097 59.9739L35.8467 53.5532Z" fill="#5CCD6A" stroke="#495E4C" stroke-width="0.6" stroke-linecap="round" stroke-linejoin="round"/>
<path d="M120.385 51.9397L120.526 56.0501C120.526 56.0501 131.187 55.3081 132.754 55.4639V51.3536C132.754 51.3536 123.32 51.2052 120.385 51.9397Z" fill="#5CCD6A" stroke="#495E4C" stroke-width="0.6" stroke-linecap="round" stroke-linejoin="round"/>
<path d="M70.1023 66.621C70.1023 66.621 99.3711 65.9385 103.358 64.5884V72.7487C103.358 72.7487 74.7593 72.8637 69.7985 73.7688C69.7985 73.7836 69.5095 68.2457 70.1023 66.621Z" fill="white" stroke="#495E4C" stroke-width="0.6" stroke-linecap="round" stroke-linejoin="round"/>
<path d="M72.1178 66.5688C72.1178 66.5688 69.3206 70.8901 69.8948 71.4428C70.4691 71.9955 73.3071 66.758 74.1741 66.6207C75.041 66.4835 71.1471 73.8242 71.5176 74.0838C71.8881 74.3435 76.812 66.3277 77.9791 66.3277C79.1461 66.3277 75.3856 73.3086 76.1266 73.2752C76.8676 73.2418 80.3354 66.4612 81.5951 66.3277C82.8548 66.1941 78.6756 73.1713 79.6426 73.1417C80.6096 73.112 84.4887 65.6971 85.289 66.094C86.0893 66.4909 81.3061 72.5519 82.5732 73.0489C83.8403 73.546 87.0785 66.5614 88.6309 66.209C90.1832 65.8566 85.0407 72.5704 86.5413 72.7485C88.0418 72.9265 90.2907 65.749 91.4615 66.3203C92.6322 66.8915 89.3126 70.8753 89.8016 71.1423C90.2907 71.4094 91.8542 66.3425 93.4177 66.3203C94.9812 66.298 91.5652 70.8753 91.9357 71.428C92.3062 71.9806 93.8956 70.0778 93.8956 70.0778" stroke="#92E3A9" stroke-width="0.6" stroke-linecap="round" stroke-linejoin="round"/>
<path d="M6.79266 46.194C6.79266 46.194 5.54781 49.1614 5.8442 49.2986C6.1406 49.4359 7.32617 46.3646 8.48211 46.5093C9.63804 46.6539 6.38512 51.8877 7.14092 51.8617C7.89673 51.8357 10.4754 45.8639 11.2645 46.1829C12.0536 46.5018 9.36017 51.1681 9.87145 51.4908C10.3827 51.8135 12.9502 45.8416 13.7579 46.1717C14.5656 46.5018 11.4868 51.2682 12.2759 51.2682C13.0651 51.2682 15.7215 46.0753 16.5255 46.0753C17.3294 46.0753 14.0358 50.6043 14.8397 51.2052C15.6437 51.8061 17.6258 45.4892 18.8003 46.0753C19.9748 46.6613 17.0405 50.8973 17.9185 51.3535C18.7966 51.8098 21.0677 45.7118 21.8013 46.0382C22.5349 46.3646 19.6154 51.8098 20.1193 51.8135C20.6231 51.8172 23.8686 45.556 24.6022 46.0271C25.3358 46.4981 21.8902 51.8172 22.5497 51.8172C23.2092 51.8172 26.6547 45.3854 27.5328 45.7044C28.4109 46.0234 25.2617 50.6933 26.0508 50.9863C26.84 51.2794 28.7628 47.6851 29.1296 47.6851C29.4964 47.6851 27.844 50.9863 28.3034 50.9863C28.7628 50.9863 30.5264 45.4744 31.4007 46.0308C32.2751 46.5872 30.3745 49.6658 30.8153 49.8142C31.2562 49.9626 34.0386 45.849 34.8426 46.4388C35.6466 47.0286 31.7119 51.8617 32.9568 51.8617C34.2016 51.8617 36.3283 46.5093 37.3545 46.5835C38.3808 46.6576 35.302 51.3535 36.1097 51.4277C36.9173 51.5019 38.529 46.1458 39.4071 46.4388C40.2851 46.7318 38.1622 50.4745 38.7476 50.6933C39.333 50.9121 40.5778 46.9507 41.6041 47.0249C42.6303 47.099 39.6997 50.8417 40.9446 50.9863C42.1894 51.131 42.6303 46.806 43.8752 46.9507C45.12 47.0953 42.3006 50.9233 42.9786 51.4277C43.6566 51.9322 44.7051 49.5175 44.7051 49.5175" stroke="#5CCD6A" stroke-width="0.6" stroke-linecap="round" stroke-linejoin="round"/>
<path d="M5.78125 55.241L7.48946 54.499C7.47353 55.0615 7.35811 55.6166 7.14856 56.1387C7.39553 56.0825 7.62002 55.9535 7.79306 55.7684C7.96611 55.5832 8.07977 55.3504 8.11938 55.1L7.93041 55.701H9.52745C9.50183 55.6134 9.50572 55.5198 9.53854 55.4346C9.57136 55.3495 9.63127 55.2775 9.70902 55.2298C9.53857 55.3819 9.64232 55.6935 9.84612 55.7974C10.0638 55.8774 10.3028 55.8774 10.5205 55.7974C11.0835 55.6568 11.6255 55.4422 12.1324 55.1593C12.0914 55.3435 12.1169 55.5362 12.2044 55.7033C12.2919 55.8704 12.4358 56.001 12.6104 56.0719C12.9569 56.2061 13.3306 56.2545 13.6998 56.2129L18.4909 56.0608" stroke="#495E4C" stroke-width="0.6" stroke-linecap="round" stroke-linejoin="round"/>
<path d="M5.36633 58.583C5.36633 58.583 6.0259 57.7298 6.61507 57.8411C7.20423 57.9524 6.83369 58.8909 7.05231 59.0393C7.27093 59.1877 7.64148 57.0843 8.00461 57.8411C8.23472 58.306 8.96061 59.0467 8.96061 59.0467C8.96061 59.0467 9.76469 58.1972 9.98332 58.3604C10.2019 58.5237 10.6429 58.3604 10.6429 58.3604H17.4609" stroke="#495E4C" stroke-width="0.6" stroke-linecap="round" stroke-linejoin="round"/>
<path d="M26.8733 54.5142C26.8733 54.5142 21.364 72.5151 67.4755 70.5641" stroke="#495E4C" stroke-width="0.6" stroke-linecap="round" stroke-linejoin="round"/>
<path d="M67.4756 69.2729L68.6463 70.7119L67.4756 71.4426" stroke="#495E4C" stroke-linecap="round" stroke-linejoin="round"/>
<path d="M39.9186 71.1497C36.1099 69.3878 29.2002 70.5785 24.0725 73.8056C18.9448 77.0326 17.8889 87.6004 36.6694 84.518C55.4499 81.4356 43.5717 72.7633 36.9954 72.7633" fill="white"/>
<path d="M39.9186 71.1497C36.1099 69.3878 29.2002 70.5785 24.0725 73.8056C18.9448 77.0326 17.8889 87.6004 36.6694 84.518C55.4499 81.4356 43.5717 72.7633 36.9954 72.7633" stroke="#92E3A9" stroke-width="0.6" stroke-linecap="round" stroke-linejoin="round"/>
<path d="M25.0245 76.8731C25.0245 76.8731 26.1731 75.8308 26.6696 75.7603C27.1661 75.6898 25.7322 76.721 26.6696 76.8731C27.607 77.0252 27.4106 76.5021 28.322 76.313C29.2335 76.1238 29.5151 77.1439 29.5151 77.1439C29.5151 77.1439 30.9971 76.6431 31.8604 76.402C32.7236 76.1609 32.1531 77.5741 33.3424 77.1439C34.5317 76.7136 33.9945 76.0533 35.8655 76.402C37.7366 76.7507 41.3675 76.5281 42.9978 76.402" stroke="#92E3A9" stroke-width="0.6" stroke-linecap="round" stroke-linejoin="round"/>
<path d="M26.6881 79.9853C27.0587 79.0876 26.5992 78.9132 27.6256 79.3695C28.652 79.8258 29.2375 80.4416 29.6784 79.9853C29.8592 79.781 30.0987 79.6377 30.3642 79.5753C30.6296 79.5128 30.9078 79.5342 31.1606 79.6366C31.5978 79.8221 30.5714 80.1151 31.5978 79.8221C32.1937 79.6595 32.7458 79.3654 33.2134 78.9614C33.2134 78.9614 32.954 79.5847 34.036 80.1448C35.118 80.705 35.8887 79.5513 35.8887 79.5513C37.5403 79.4884 39.1941 79.5144 40.8429 79.6292" stroke="#92E3A9" stroke-width="0.6" stroke-linecap="round" stroke-linejoin="round"/>
<path d="M35.4774 121.362L39.3978 117.063V115.95L42.3918 113.212C42.3918 113.212 46.0453 114.477 47.7869 118.932L44.615 121.611L43.4034 121.766L38.7234 125.105C38.7234 125.105 35.4774 123.977 35.4774 121.362Z" fill="#495E4C"/>
<path opacity="0.3" d="M42.5094 114.043C42.5094 114.043 43.8471 118.027 47.3005 118.84" stroke="white" stroke-width="0.4" stroke-linecap="round" stroke-linejoin="round"/>
<path opacity="0.3" d="M40.0197 117.125C40.0197 117.125 41.235 120.334 43.8177 121.361" stroke="white" stroke-width="0.4" stroke-linecap="round" stroke-linejoin="round"/>
<path opacity="0.2" d="M45.9463 10.7148L47.2196 9.25841H50.1773C50.9753 9.08114 51.7319 8.75223 52.4061 8.28952C52.4061 8.28952 51.2811 7.14198 49.9232 7.10262H47.3708L40.5541 5.86426L2.58155 9.25841C2.31725 10.029 2.24138 10.8519 2.3603 11.6579C2.47922 12.464 2.78947 13.2297 3.26503 13.8909L45.9463 10.7148Z" fill="black" fill-opacity="0.7"/>
<path opacity="0.2" d="M63.028 13.8919L64.0533 13.0167L67.3623 12.9804C67.5747 11.9087 67.5993 10.8083 67.4349 9.72818L58.3881 6.58496C56.0652 8.03544 57.0089 13.8919 57.0089 13.8919H63.028Z" fill="black" fill-opacity="0.7"/>
<path d="M49.7598 3.72971C49.7598 3.72971 51.3507 3.52985 52.2581 4.26872C52.2581 4.26872 52.1401 5.20744 49.7477 5.44667L49.7598 3.72971Z" fill="#5CCD6A" stroke="#495E4C" stroke-width="0.5" stroke-linecap="round" stroke-linejoin="round"/>
<path d="M46.814 3.3089L44.7485 1.89795L2.53893 5.29816C0.685064 8.30172 2.99862 11.2841 2.99862 11.2841L45.4743 7.74461L46.9652 6.28219L49.9109 5.77655C50.0925 5.40662 50.1837 4.99878 50.177 4.58663C50.2008 4.13549 50.06 3.69106 49.7808 3.33615L46.814 3.3089Z" fill="#495E4C"/>
<path d="M16.4778 4.57447L35.301 3.03027C35.3394 3.119 35.356 3.21564 35.3495 3.31212C35.3429 3.4086 35.3134 3.5021 35.2634 3.58481C35.2133 3.66752 35.1442 3.73703 35.0619 3.78752C34.9795 3.83801 34.8862 3.86802 34.7899 3.87504L17.1431 5.38895C17.0588 5.39744 16.9736 5.38808 16.8931 5.36147C16.8125 5.33486 16.7385 5.29161 16.6758 5.2345C16.613 5.1774 16.563 5.10773 16.5289 5.03002C16.4948 4.9523 16.4774 4.86827 16.4778 4.78339V4.57447Z" fill="#92E3A9"/>
<path opacity="0.3" d="M44.7122 2.55176C44.7122 2.55176 46.071 4.06583 45.1116 7.09398" stroke="white" stroke-width="0.4" stroke-linecap="round" stroke-linejoin="round"/>
<path opacity="0.3" d="M46.9774 3.71484C47.2156 4.32522 47.2774 4.99032 47.1559 5.63419" stroke="white" stroke-width="0.4" stroke-linecap="round" stroke-linejoin="round"/>
<path opacity="0.3" d="M2.85962 5.86426C2.85962 5.86426 4.29719 7.12397 3.3378 10.7093" stroke="white" stroke-width="0.4" stroke-linecap="round" stroke-linejoin="round"/>
<path opacity="0.3" d="M3.66724 5.62501C3.66724 5.62501 4.12087 5.68557 4.30233 7.96246L44.7124 4.21103C44.6192 3.48469 44.333 2.79668 43.8838 2.21875L3.66724 5.62501Z" fill="white"/>
<path opacity="0.3" d="M47.3705 3.56299C47.5753 3.89446 47.6861 4.27549 47.6911 4.66523L49.9233 4.44721C49.8829 4.13843 49.7888 3.83914 49.645 3.56299H47.3705Z" fill="white"/>
<path d="M66.5727 11.5028L61.9721 10.337L61.1645 10.7669L58.0461 9.65562C58.0461 9.65562 57.547 6.53663 60.0756 3.56299L63.2243 4.81664L63.8051 5.63121L68.0033 7.7176C68.0033 7.7176 68.451 10.4944 66.5727 11.5028Z" fill="#5CCD6A"/>
<path d="M66.5727 11.5028L61.9721 10.337L61.1645 10.7669L58.0461 9.65562C58.0461 9.65562 57.547 6.53663 60.0756 3.56299L63.2243 4.81664L63.8051 5.63121L68.0033 7.7176C68.0033 7.7176 68.451 10.4944 66.5727 11.5028Z" stroke="#495E4C" stroke-width="0.4" stroke-linecap="round" stroke-linejoin="round"/>
<path d="M58.6086 9.25922C58.6086 9.25922 60.9602 6.75797 60.2127 3.95996" stroke="#495E4C" stroke-width="0.4" stroke-linecap="round" stroke-linejoin="round"/>
<path d="M61.775 9.86473C61.775 9.86473 63.6151 7.74503 63.3579 5.49512" stroke="#495E4C" stroke-width="0.4" stroke-linecap="round" stroke-linejoin="round"/>
<path d="M112.487 121.276C112.487 121.276 110.252 101.186 108.709 96.9243C107.167 92.6624 105.1 78.5235 105.1 78.5235C105.1 78.5235 109.841 78.143 111.277 78.1289C112.713 78.1148 114.568 76.7393 114.568 76.7393C114.411 77.0211 114.053 76.8492 113.789 75.1241C113.611 73.9684 111.857 73.6189 111.857 73.6189C111.857 73.6189 107.648 73.9346 104.098 73.4554C103.237 73.7267 102.314 73.7267 101.454 73.4554C100.162 72.9847 99.8999 72.4801 100.609 71.7952C100.609 71.7952 99.6042 70.4816 103.039 68.61C103.039 68.61 100.756 66.5551 101.871 65.2275C102.986 63.8999 105.612 62.5694 105.612 62.5694C105.612 62.5694 105.722 61.5659 106.206 61.3066C106.691 61.0473 109.326 59.9677 110.773 58.9642C112.22 57.9608 112.851 58.034 115.526 57.9608C118.2 57.8875 121.466 57.2166 122.691 57.7747C123.643 58.2088 124.085 59.9085 124.085 59.9085C124.974 60.1904 125.064 61.6477 125.121 62.0057C125.383 63.6039 127.221 70.228 128.038 71.378C128.854 72.5281 129.335 74.5378 129.189 75.5808C129.043 76.6237 128.668 77.8358 128.297 79.9667C127.925 82.0977 126.664 89.4434 126.044 91.5631C125.425 93.6828 125.079 97.3612 125.411 99.1455L134.014 116.326" fill="white"/>
<path opacity="0.4" d="M123.274 66.8455C123.274 66.8455 121.497 67.9195 121.497 68.6016C121.497 68.6016 118.119 71.1752 117.73 74.2054C117.73 74.2054 115.858 76.1052 115.447 76.9678C115.036 77.8303 113.251 78.8423 113.251 78.8423C112.747 78.7946 112.24 78.7757 111.733 78.7859C110.877 78.6565 110.03 78.4681 109.199 78.2221C110.044 78.1686 110.821 78.1263 111.269 78.1235C112.46 78.1235 113.938 77.1651 114.408 76.8409C114.228 76.8409 113.977 76.4068 113.78 75.1158C113.603 73.963 111.849 73.6106 111.849 73.6106C111.849 73.6106 107.64 73.9263 104.089 73.4499C103.508 73.6303 102.896 73.6935 102.29 73.636C102.304 73.4125 102.273 73.1886 102.2 72.9771C102.126 72.7657 102.011 72.5709 101.862 72.4042C101.862 72.4042 103.492 71.3189 103.067 70.4818C102.865 70.0815 102.135 69.8334 101.423 69.684C101.917 69.266 102.457 68.9039 103.031 68.6045C103.031 68.6045 100.747 66.5496 101.862 65.2219C102.977 63.8943 105.612 62.5694 105.612 62.5694C105.612 62.5694 105.722 61.5688 106.206 61.3066C106.206 61.3066 105.925 62.8541 108.062 62.716C110.199 62.5779 113.276 61.3066 113.276 61.3066C113.276 61.3066 119.076 61.4673 120.253 60.5737C120.253 60.5737 121.661 61.7774 122.691 61.9831C123.722 62.1889 123.274 66.8455 123.274 66.8455Z" fill="#92E3A9"/>
<path opacity="0.4" d="M129.184 75.5893C129.034 76.6294 128.663 77.8443 128.291 79.9753C127.919 82.1062 126.658 89.4547 126.039 91.5716C125.419 93.6885 125.073 97.3698 125.405 99.154L126.193 101.037C124.484 98.004 124.62 94.0239 124.758 92.9782C124.924 91.6956 125.884 86.9545 126.728 84.5022C127.573 82.0499 127.649 76.9197 127.649 76.7422C127.649 76.5646 127.204 77.8697 126.751 79.3157C126.298 80.7617 124.634 84.8376 124.634 84.8376C124.577 83.992 125.273 79.0451 125.399 78.4813C125.526 77.9176 126.545 74.1264 126.728 73.0552C126.911 71.9841 126.064 70.8002 125.853 69.9546C125.642 69.109 124.808 65.3375 124.586 62.7414C124.497 61.3303 124.147 59.948 123.552 58.6655C123.784 59.0638 123.964 59.4901 124.087 59.934C124.977 60.2158 125.067 61.6703 125.124 62.0283C125.385 63.6265 127.224 70.2506 128.04 71.4035C128.857 72.5563 129.33 74.5492 129.184 75.5893Z" fill="#92E3A9"/>
<path opacity="0.4" d="M112.634 121.423C111.819 114.498 110.189 101.315 109.161 97.7007C109.871 98.6328 110.678 100.139 111.245 103.041C112.386 108.883 112.734 111.455 112.782 114.134C112.827 115.847 112.792 119.004 112.634 121.423Z" fill="#92E3A9"/>
<path d="M112.28 120.511C112.28 120.511 110.054 100.663 108.517 96.4519C106.98 92.2411 104.922 78.2719 104.922 78.2719C104.922 78.2719 109.644 77.8959 111.075 77.882C112.505 77.8681 114.353 76.5091 114.353 76.5091C114.196 76.7875 113.84 76.6177 113.576 74.9133C113.4 73.7715 111.652 73.4261 111.652 73.4261C111.652 73.4261 107.46 73.7381 103.923 73.2646C103.066 73.5326 102.147 73.5326 101.29 73.2646C100.003 72.7995 99.7421 72.301 100.449 71.6243C100.449 71.6243 99.4476 70.3265 102.869 68.4773C102.869 68.4773 100.595 66.4471 101.705 65.1354C102.816 63.8237 105.432 62.5092 105.432 62.5092C105.432 62.5092 105.542 61.5178 106.024 61.2616C106.506 61.0054 109.131 59.9388 110.573 58.9473C112.014 57.9559 112.642 58.0283 115.307 57.9559C117.971 57.8835 121.224 57.2207 122.444 57.7721C123.392 58.201 123.832 59.8803 123.832 59.8803C124.718 60.1588 124.808 61.5986 124.864 61.9523C125.125 63.5313 126.956 70.0759 127.769 71.2121C128.583 72.3484 129.062 74.334 128.916 75.3645C128.771 76.3949 128.398 77.5924 128.027 79.6978C127.657 81.8032 126.401 89.0607 125.784 91.155C125.167 93.2492 124.822 96.8836 125.153 98.6464L133.723 115.621" stroke="#495E4C" stroke-width="0.4" stroke-linecap="round" stroke-linejoin="round"/>
<path d="M100.595 71.7952C100.595 71.7952 101.336 72.8015 103.898 72.39C106.46 71.9784 109.529 69.4161 109.529 69.4161L111.368 68.6382C111.368 68.6382 113.707 68.8975 114.56 68.4888" stroke="#495E4C" stroke-width="0.4" stroke-linecap="round" stroke-linejoin="round"/>
<path d="M113.251 68.7114C113.251 68.7114 114.777 70.3465 116.002 70.7186" stroke="#495E4C" stroke-width="0.4" stroke-linecap="round" stroke-linejoin="round"/>
<path d="M114.554 76.7398C115.593 76.0716 116.967 74.2026 118.229 74.0645" stroke="#495E4C" stroke-width="0.4" stroke-linecap="round" stroke-linejoin="round"/>
<path d="M114.34 74.4733C114.903 72.6101 116.593 70.7187 116.593 70.7187C116.871 70.0981 117.219 69.5117 117.632 68.971C118.05 68.3522 118.687 67.9144 119.414 67.7449C119.414 67.7449 117.938 63.5646 118.375 62.7246" stroke="#495E4C" stroke-width="0.4" stroke-linecap="round" stroke-linejoin="round"/>
<path d="M111.843 73.6186C111.843 73.6186 112.989 73.255 113.251 72.4912" stroke="#495E4C" stroke-width="0.4" stroke-linecap="round" stroke-linejoin="round"/>
<path d="M111.585 72.0576C111.585 72.0576 111.515 73.2473 109.729 73.6194" stroke="#495E4C" stroke-width="0.4" stroke-linecap="round" stroke-linejoin="round"/>
<path d="M111.362 68.6381C111.362 68.6381 112.249 68.0462 112.547 67.4487" stroke="#495E4C" stroke-width="0.4" stroke-linecap="round" stroke-linejoin="round"/>
<path d="M105.612 62.5697C105.612 62.5697 105.294 63.4633 106.623 63.8326C107.952 64.2019 111.517 63.796 113.001 62.5697C113.001 62.5697 113.367 61.5295 113.257 60.8613" stroke="#495E4C" stroke-width="0.4" stroke-linecap="round" stroke-linejoin="round"/>
<path d="M112.8 62.7247C112.8 62.7247 117.156 62.5696 117.489 62.5696C117.821 62.5696 119.158 61.8648 119.417 61.1206" stroke="#495E4C" stroke-width="0.4" stroke-linecap="round" stroke-linejoin="round"/>
<path d="M119.408 67.7446C119.408 67.7446 120.389 68.0829 121.068 67.9363" stroke="#495E4C" stroke-width="0.4" stroke-linecap="round" stroke-linejoin="round"/>
<path d="M117.237 74.4736C117.237 74.4736 117.08 72.8244 118.229 70.4902" stroke="#495E4C" stroke-width="0.4" stroke-linecap="round" stroke-linejoin="round"/>
<path d="M124.079 59.917C124.67 62.2171 125.58 69.7827 126.193 71.2147C126.807 72.6466 126.88 73.1343 126.436 74.4732C125.991 75.8121 125.273 79.0453 125.273 79.0453" stroke="#495E4C" stroke-width="0.4" stroke-linecap="round" stroke-linejoin="round"/>
<path d="M125.394 99.1546C124.912 97.6295 124.617 95.6223 124.8 94.6948" stroke="#495E4C" stroke-width="0.4" stroke-linecap="round" stroke-linejoin="round"/>
<path d="M97.1662 66.7808C97.1662 66.7808 95.9329 67.0119 95.5161 67.68C95.5161 67.68 95.8794 68.2439 97.3689 68.0916C98.8585 67.9394 97.1662 66.7808 97.1662 66.7808Z" fill="#495E4C"/>
<path d="M101.561 64.4497L136.386 59.2773L136.83 65.4983L101.857 68.971L100.224 68.2353L97.5491 68.303C97.3002 68.0777 97.1378 67.7723 97.09 67.4398C97.0422 67.1073 97.112 66.7685 97.2873 66.4821L100.041 65.8901L101.561 64.4497Z" fill="#5CCD6A"/>
<path d="M107.549 64.7762L121.909 62.7354C122.053 62.7153 122.2 62.7246 122.341 62.7628C122.482 62.8009 122.614 62.867 122.729 62.9573C122.844 63.0475 122.939 63.16 123.01 63.288C123.08 63.416 123.124 63.5569 123.139 63.7023L123.167 63.9841C123.196 64.2666 123.114 64.5494 122.937 64.7714C122.76 64.9934 122.503 65.1369 122.221 65.1708L107.837 66.9213C107.693 66.9385 107.548 66.9269 107.409 66.887C107.27 66.8472 107.141 66.7801 107.028 66.6895C106.916 66.5989 106.823 66.4867 106.754 66.3595C106.685 66.2323 106.643 66.0927 106.629 65.9488C106.604 65.6726 106.685 65.3972 106.856 65.1791C107.027 64.961 107.275 64.8168 107.549 64.7762Z" fill="#495E4C"/>
<path opacity="0.3" d="M136.83 65.4983L101.857 68.9738L100.224 68.2353L97.5492 68.303C97.4064 68.1745 97.2915 68.0181 97.2113 67.8435L100.027 67.7477L101.266 67.8604L106.133 67.4517L107.558 64.7767C107.558 64.7767 108.808 64.6189 109.81 65.8901C110.813 67.1614 111.37 66.9979 111.37 66.9979L135.327 64.4892L135.609 64.2073C135.609 64.2073 134.643 62.0143 135.609 60.2244C135.851 59.7762 136.129 59.5958 136.411 59.5987L136.83 65.4983Z" fill="black" fill-opacity="0.7"/>
<path d="M101.561 64.4497L136.386 59.2773L136.83 65.4983L101.857 68.971L100.224 68.2353L97.5491 68.303C97.3002 68.0777 97.1378 67.7723 97.09 67.4398C97.0422 67.1073 97.112 66.7685 97.2873 66.4821L100.041 65.8901L101.561 64.4497Z" stroke="#495E4C" stroke-width="0.6" stroke-linecap="round" stroke-linejoin="round"/>
<path d="M136.386 59.2768C138.799 59.0851 139.317 65.2505 136.83 65.4985C134.451 65.7354 133.936 59.4685 136.386 59.2768Z" fill="#5CCD6A"/>
<path opacity="0.3" d="M136.83 65.4985C136.18 65.5634 135.667 65.1405 135.318 64.4893L135.6 64.2074C135.6 64.2074 134.634 62.0141 135.6 60.224C135.842 59.7758 136.121 59.5954 136.402 59.5982C137.247 59.5982 138.109 61.2332 138.072 62.1156L138.438 62.2058C138.571 63.7535 138.081 65.3886 136.83 65.4985Z" fill="black" fill-opacity="0.7"/>
<path d="M136.386 59.2768C138.799 59.0851 139.317 65.2505 136.83 65.4986C134.451 65.7354 133.936 59.4685 136.386 59.2768Z" stroke="#495E4C" stroke-width="0.6" stroke-linecap="round" stroke-linejoin="round"/>
<path d="M101.561 64.4497C101.561 64.4497 100.871 65.318 101.057 66.9643C101.121 67.6975 101.399 68.3955 101.857 68.9715" stroke="#495E4C" stroke-width="0.6" stroke-linecap="round" stroke-linejoin="round"/>
<path d="M100.04 65.8901C99.9142 66.2736 99.8654 66.6784 99.8968 67.081C99.9282 67.4835 100.039 67.8758 100.223 68.235" stroke="#495E4C" stroke-width="0.6" stroke-linecap="round" stroke-linejoin="round"/>
<path d="M135.306 65.6512C132.922 65.888 132.463 59.8947 134.889 59.5" stroke="#495E4C" stroke-width="0.6" stroke-linecap="round" stroke-linejoin="round"/>
<path d="M136.433 59.6664C138.343 59.5001 138.754 64.831 136.785 65.0424C134.893 65.2482 134.496 59.8356 136.433 59.6664Z" stroke="#495E4C" stroke-width="0.6" stroke-linecap="round" stroke-linejoin="round"/>
<path d="M136.439 60.0464C136.439 60.0464 137.436 60.4157 137.614 62.2284C137.791 64.041 136.768 64.5992 136.768 64.5992" stroke="#495E4C" stroke-width="0.6" stroke-linecap="round" stroke-linejoin="round"/>
<path d="M114.554 78.7859C114.554 78.7859 112.021 78.9325 111.739 78.7859C111.457 78.6393 109.881 75.6627 109.808 74.7354C109.734 73.808 109.585 70.8314 109.509 68.971C109.433 67.1107 109.439 64.213 105.947 64.8303C104.388 65.1122 104.126 66.5864 103.608 69.904C103.09 73.2217 103.571 74.104 103.199 78.3406C102.828 82.5771 103.273 84.2599 104.165 86.3937C105.058 88.5275 105.387 93.9536 107.763 95.9606C110.14 97.9675 111.072 101.832 111.072 101.832" fill="white"/>
<path opacity="0.4" d="M108.343 68.1224C107.704 68.2775 105.246 68.4043 105.086 69.2246C104.925 70.0448 106.384 70.431 106.989 71.1667C106.967 71.1667 104.455 71.1667 103.892 72.3928C103.329 73.619 104.357 76.2517 104.357 77.7005C104.357 79.1494 103.095 82.0499 104.061 83.5551C104.906 84.8686 105.688 87.8931 105.28 90.7654C104.855 89.046 104.562 87.3829 104.154 86.3935C103.267 84.2739 102.822 82.5826 103.194 78.3545C103.565 74.1264 103.081 73.2328 103.602 69.9151C103.974 67.5333 104.213 66.0986 104.9 65.377C105.702 65.2022 106.609 65.1345 107.152 65.5235C108.315 66.3269 108.991 67.9646 108.343 68.1224Z" fill="#92E3A9"/>
<path d="M114.554 78.7859C114.554 78.7859 112.021 78.9325 111.739 78.7859C111.457 78.6393 109.881 75.6627 109.808 74.7354C109.734 73.808 109.585 70.8314 109.509 68.971C109.433 67.1107 109.439 64.213 105.947 64.8303C104.388 65.1122 104.126 66.5864 103.608 69.904C103.09 73.2217 103.571 74.104 103.199 78.3406C102.828 82.5771 103.273 84.2599 104.165 86.3937C105.058 88.5275 105.387 93.9536 107.763 95.9606C110.14 97.9675 111.072 101.832 111.072 101.832" stroke="#495E4C" stroke-width="0.4" stroke-linecap="round" stroke-linejoin="round"/>
<path d="M109.803 74.7354C109.803 74.7354 109.564 74.6592 109.423 73.2102C109.377 72.784 109.229 72.3752 108.991 72.0187C108.753 71.6623 108.432 71.3689 108.056 71.1636" stroke="#495E4C" stroke-width="0.4" stroke-linecap="round" stroke-linejoin="round"/>
<path d="M104.791 71.1636C104.791 71.1636 103.754 71.3862 103.343 72.8377" stroke="#495E4C" stroke-width="0.4" stroke-linecap="round" stroke-linejoin="round"/>
<path d="M11.9236 34.664C11.7896 34.6643 11.6864 34.6014 11.614 34.4753C11.5416 34.3466 11.505 34.0981 11.5042 33.7297C11.5029 33.096 11.6493 31.7328 11.9437 29.6403C11.9615 29.5501 11.9292 29.4961 11.8467 29.4782C11.7642 29.4578 11.4267 29.4482 10.8342 29.4495C10.0253 29.4512 9.56164 29.4999 9.44334 29.5955C9.32504 29.691 9.23322 30.1215 9.16789 30.8868C9.14279 31.1908 9.06914 31.6843 8.94696 32.3673C8.79931 33.1868 8.72585 33.7705 8.72661 34.1183L8.74259 34.3617C8.74309 34.5936 8.63256 34.7097 8.41101 34.7102C8.14566 34.7108 8.01262 34.5449 8.01191 34.2126C8.01134 33.9472 8.03273 33.7127 8.07608 33.5091C8.14747 33.1638 8.2073 32.8313 8.25555 32.5117C8.28604 32.3107 8.32163 32.093 8.36235 31.8584C8.52521 30.9255 8.60622 30.2607 8.60536 29.8639C8.60507 29.73 8.54308 29.6567 8.4194 29.6441C8.1746 29.6162 8.05201 29.516 8.05164 29.3434C8.05139 29.2275 8.08081 29.1334 8.13991 29.0611C8.20158 28.9889 8.28136 28.9501 8.37924 28.9447C8.62654 28.9339 8.80679 28.8935 8.91999 28.8237C9.02293 28.772 9.10016 28.7461 9.15168 28.746C9.25731 28.7457 9.34881 28.7687 9.4262 28.8149C9.51132 28.8663 9.75869 28.8915 10.1683 28.8906C10.1735 28.8906 10.4465 28.8823 10.9875 28.8656C11.531 28.849 11.8286 28.8355 11.8801 28.8251C11.9316 28.8147 11.9946 28.7939 12.0693 28.7628C12.1903 28.7111 12.2894 28.6851 12.3667 28.6849L12.6759 28.7306L13.0198 28.7067C13.2285 28.7062 13.333 28.7975 13.3334 28.9804C13.3336 29.0989 13.2952 29.1994 13.2181 29.282C13.141 29.3621 13.0535 29.4048 12.9556 29.4101C12.8861 29.4154 12.8256 29.4413 12.7742 29.4878C12.7227 29.5317 12.6549 29.7277 12.5706 30.0756C12.4864 30.4236 12.4039 31.0331 12.3234 31.904C12.2454 32.7749 12.2072 33.5582 12.2087 34.2537L12.209 34.3929C12.2091 34.447 12.1757 34.5024 12.1088 34.5592C12.042 34.6186 11.9802 34.6536 11.9236 34.664Z" fill="#495E4C"/>
<path d="M16.7675 31.9485C16.7957 31.8943 16.8401 31.5709 16.9006 30.9783C16.946 30.5041 17.0962 30.2668 17.3512 30.2663C17.5599 30.2658 17.6644 30.3699 17.6649 30.5786C17.665 30.6275 17.6472 30.7268 17.6114 30.8763C17.4148 31.6985 17.3171 32.3878 17.3183 32.9443C17.3196 33.5471 17.4197 33.9372 17.6184 34.1146C17.7217 34.2097 17.7734 34.2868 17.7735 34.3461C17.7736 34.4182 17.721 34.484 17.6155 34.5435C17.5126 34.603 17.4186 34.6328 17.3336 34.633C16.9317 34.6339 16.7294 34.0134 16.7267 32.7717C16.7265 32.6893 16.6955 32.6481 16.6337 32.6482C16.3915 32.6488 16.0953 32.6636 15.745 32.6927C15.3947 32.7218 15.1436 32.7584 14.9917 32.8025C14.8424 32.8466 14.7497 32.888 14.7137 32.9267C14.6803 32.9629 14.6496 33.0621 14.6216 33.2245C14.5962 33.3843 14.5837 33.5505 14.5841 33.7231L14.5851 34.1984C14.5857 34.474 14.4598 34.6121 14.2073 34.6127C13.996 34.6131 13.8901 34.4755 13.8895 34.1999C13.8891 34.0196 13.9118 33.7902 13.9576 33.5119C14.0415 33.0016 14.1246 32.1229 14.207 30.8759C14.2169 30.7136 14.2309 30.6105 14.2488 30.5666C14.2667 30.5228 14.313 30.475 14.3876 30.4234C14.4648 30.3691 14.5484 30.3419 14.6386 30.3417C14.8241 30.3413 14.917 30.4171 14.9173 30.5691C14.9174 30.5923 14.8882 30.7855 14.8297 31.1489C14.7687 31.5123 14.7383 31.7944 14.7388 31.9954C14.7391 32.1371 14.7882 32.2078 14.8861 32.2076C15.0819 32.2072 15.4399 32.1742 15.9602 32.1087C16.4804 32.0406 16.7495 31.9872 16.7675 31.9485Z" fill="#495E4C"/>
<path d="M26.688 31.191C26.6881 31.2203 26.7663 31.2709 26.9227 31.3429C27.0967 31.4245 27.2248 31.5024 27.307 31.5764C27.3911 31.6485 27.4597 31.746 27.5127 31.8689C27.5677 31.9899 27.5953 32.1354 27.5957 32.3053C27.596 32.4615 27.491 32.6747 27.2807 32.9447C27.0722 33.2127 26.8012 33.4379 26.4676 33.6203C26.136 33.8007 25.7895 33.8913 25.4282 33.892C25.3598 33.8922 25.2641 33.8719 25.1409 33.8311C25.0197 33.7904 24.9591 33.7475 24.959 33.7026C24.9585 33.4565 25.132 33.3331 25.4797 33.3323C25.5871 33.3341 25.6926 33.3329 25.7961 33.3287C25.8996 33.3226 26.0314 33.2882 26.1914 33.2253C26.3534 33.1605 26.5055 33.0704 26.6479 32.9548C26.7902 32.8393 26.8925 32.7267 26.9547 32.6172C27.017 32.5058 27.048 32.3992 27.0478 32.2977C27.0474 32.118 26.9719 31.959 26.8212 31.8206C26.6705 31.6823 26.4653 31.6134 26.2055 31.6139C26.1664 31.614 26.0737 31.6455 25.9274 31.7083C25.781 31.7731 25.6854 31.8055 25.6405 31.8056C25.4881 31.8059 25.3924 31.7866 25.3532 31.7476C25.316 31.7086 25.2973 31.6393 25.2971 31.5397C25.297 31.4714 25.4608 31.3724 25.7887 31.2428C26.1107 31.1151 26.4003 30.9201 26.6575 30.6579C26.9167 30.3956 27.0462 30.1863 27.0458 30.0301C27.0456 29.9246 26.9907 29.8319 26.8812 29.7521C26.7736 29.6703 26.626 29.6296 26.4385 29.63C26.1963 29.6305 25.9152 29.6643 25.595 29.7314C25.2748 29.7966 25.0992 29.8604 25.068 29.923C25.0389 29.9856 24.9579 30.4613 24.825 31.3503C24.6922 32.2373 24.6259 32.7502 24.6262 32.8889C24.6263 32.9631 24.6304 33.0344 24.6384 33.1027C24.6444 33.173 24.6474 33.2394 24.6476 33.3019C24.6482 33.5695 24.5186 33.7036 24.2588 33.7041C24.1865 33.7043 24.1268 33.6526 24.0797 33.5492C24.0326 33.4458 24.009 33.3511 24.0088 33.2652C24.0087 33.2281 24.0406 33.0786 24.1045 32.8167C24.1819 32.4611 24.259 31.9746 24.3358 31.3572C24.4126 30.7379 24.4509 30.4077 24.4508 30.3667C24.4506 30.2847 24.4388 30.2242 24.4153 30.1852C24.3937 30.1461 24.3429 30.1267 24.2628 30.1269C24.2315 30.127 24.2003 30.128 24.169 30.13C24.1398 30.132 24.1094 30.1136 24.0781 30.0746C24.0487 30.0356 24.034 29.9887 24.0339 29.934C24.0335 29.7797 24.289 29.6151 24.8004 29.4402C25.3117 29.2633 25.9219 29.1741 26.6309 29.1725C26.8907 29.172 27.1213 29.2594 27.3229 29.4347C27.5264 29.6101 27.6283 29.7905 27.6287 29.9761C27.629 30.1089 27.5406 30.2976 27.3634 30.5421C27.1881 30.7847 26.963 31.001 26.688 31.191Z" fill="#495E4C"/>
<path d="M30.5849 31.3467C30.4033 31.351 30.0157 31.8899 29.4223 32.9635C29.2219 33.3252 29.1052 33.5228 29.072 33.556C29.0389 33.5874 28.9774 33.6158 28.8877 33.6414C28.7998 33.667 28.7266 33.6798 28.668 33.68C28.5372 33.6802 28.4712 33.4255 28.4701 32.9157C28.4694 32.6286 28.5299 32.1089 28.6513 31.3567C28.7014 31.0519 28.7263 30.8341 28.726 30.7032C28.7258 30.5743 28.7832 30.5097 28.8985 30.5095C29.1153 30.509 29.224 30.665 29.2247 30.9775C29.225 31.124 29.1895 31.4112 29.1182 31.8391C29.0352 32.3276 28.9929 32.6245 28.9912 32.73C29.112 32.6126 29.2892 32.3554 29.5227 31.9584C29.8536 31.4147 30.097 31.0704 30.2529 30.9255C30.4108 30.7787 30.5737 30.7051 30.7417 30.7047C30.8687 30.7044 30.9694 30.7892 31.044 30.959C31.1206 31.1287 31.1673 31.5339 31.1843 32.1745C31.1886 32.3346 31.2035 32.4538 31.2291 32.5318C31.2546 32.6099 31.2733 32.6489 31.285 32.6489C31.3768 32.6487 31.5753 32.3358 31.8806 31.7101C32.044 31.3797 32.2026 31.1283 32.3565 30.9561C32.5124 30.7839 32.6851 30.6976 32.8746 30.6972C33.0328 30.6968 33.1482 30.7786 33.2208 30.9425C33.2934 31.1045 33.3457 31.3456 33.3776 31.6658C33.4076 31.99 33.4532 32.2868 33.5143 32.5562C33.5774 32.8256 33.6911 32.9982 33.8553 33.074C33.9667 33.1265 34.0225 33.1879 34.0227 33.2582C34.0228 33.3266 33.9761 33.397 33.8825 33.4695C33.7889 33.542 33.7031 33.5783 33.6249 33.5784C33.4687 33.5788 33.3288 33.4834 33.2054 33.2922C33.0819 33.1011 32.9882 32.6872 32.9243 32.0506C32.8965 31.7948 32.8697 31.6132 32.8441 31.5059C32.8184 31.3985 32.7783 31.3449 32.7236 31.345C32.6416 31.3452 32.5441 31.4235 32.4311 31.58C32.3201 31.7365 32.1402 32.0543 31.8912 32.5333C31.6967 32.9068 31.5488 33.1562 31.4475 33.2814C31.3481 33.4046 31.2516 33.4664 31.1578 33.4666C31.0739 33.4668 30.9986 33.4337 30.932 33.3675C30.8655 33.2992 30.8233 33.2183 30.8055 33.1246C30.7877 33.0289 30.7687 32.7955 30.7484 32.4245C30.7177 31.8073 30.6632 31.4481 30.5849 31.3467Z" fill="#495E4C"/>
<path d="M43.7585 32.1869C43.8502 32.1867 43.8962 32.2431 43.8965 32.3559C43.8967 32.4735 43.7666 32.6419 43.506 32.8611C43.2455 33.0804 42.9438 33.255 42.6008 33.3851C42.2601 33.5151 41.9475 33.5805 41.663 33.5811C41.2468 33.582 40.8668 33.4452 40.5229 33.1709C40.1814 32.8965 40.01 32.4983 40.0089 31.9764C40.0069 31.0241 40.414 30.0968 41.2303 29.1945C42.049 28.2898 42.838 27.8366 43.5975 27.835C43.882 27.8344 44.1091 27.9221 44.2788 28.0981C44.4508 28.2717 44.537 28.4749 44.5375 28.7077C44.538 28.924 44.5254 29.0945 44.4998 29.2192C44.4766 29.3438 44.4028 29.4498 44.2783 29.5371C44.1539 29.622 44.0541 29.6645 43.9788 29.6647C43.9247 29.6648 43.8777 29.6414 43.8376 29.5944C43.7975 29.5475 43.7774 29.4841 43.7772 29.4041C43.7771 29.35 43.7968 29.2371 43.8364 29.0654C43.8761 28.896 43.8958 28.7702 43.8956 28.6879C43.8951 28.4481 43.7902 28.3284 43.5809 28.3288C43.2564 28.3295 42.8548 28.5173 42.3759 28.8922C41.8994 29.2647 41.4948 29.7382 41.1622 30.3127C40.8295 30.8848 40.6637 31.4118 40.6648 31.8938C40.6655 32.2159 40.7613 32.4838 40.9522 32.6973C41.1454 32.9085 41.4196 33.0138 41.7746 33.013C41.9792 33.0126 42.2272 32.9615 42.5185 32.8597C42.8122 32.7556 43.0811 32.6175 43.3253 32.4453C43.5694 32.2732 43.7139 32.187 43.7585 32.1869Z" fill="#495E4C"/>
<path d="M45.735 32.8387C45.6207 33.2622 45.5139 33.8561 45.4144 34.6205L45.3171 35.2873C45.3008 35.3814 45.2575 35.4744 45.1872 35.5662C45.1169 35.6604 45.0523 35.7076 44.9935 35.7077C44.9206 35.7079 44.8371 35.6704 44.7429 35.5954C44.651 35.5227 44.605 35.464 44.6049 35.4193C44.6046 35.29 44.6337 35.1113 44.6919 34.883C45.1185 33.1445 45.3303 31.6181 45.3275 30.3037L45.3233 30.0074C45.3181 29.7535 45.3624 29.5688 45.4562 29.4534C45.55 29.338 45.658 29.2801 45.7803 29.2799C45.8367 29.2798 45.8909 29.3243 45.9428 29.4136C45.9947 29.5004 46.0208 29.625 46.0212 29.7872C46.0217 30.0153 45.9988 30.2916 45.9524 30.6162C45.8922 31.0255 45.861 31.2607 45.8587 31.3218C46.2078 30.7097 46.5782 30.2316 46.9702 29.8875C47.3621 29.5433 47.7262 29.3709 48.0624 29.3702C48.2999 29.3697 48.4999 29.4586 48.6626 29.6369C48.8275 29.8129 48.9103 30.0326 48.9109 30.2959C48.9125 31.0625 48.6201 31.7591 48.0336 32.3858C47.4472 33.0125 46.8753 33.3265 46.318 33.3277C46.1793 33.328 46.0687 33.2929 45.9863 33.2226C45.9062 33.1522 45.8224 33.0242 45.735 32.8387ZM47.9191 29.9948C47.5876 29.9955 47.178 30.3067 46.6903 30.9285C46.2025 31.5503 45.959 32.0341 45.9598 32.3797C45.96 32.4643 46.0083 32.5465 46.1049 32.6263C46.2015 32.706 46.3238 32.7457 46.472 32.7454C46.8082 32.7447 47.1945 32.4958 47.6307 31.9987C48.067 31.4993 48.2846 31.0097 48.2836 30.5301C48.2832 30.3584 48.2477 30.2268 48.1769 30.1353C48.1085 30.0414 48.0226 29.9945 47.9191 29.9948Z" fill="#495E4C"/>
<path d="M59.8413 28.9825L59.8326 29.1313C59.8225 29.1718 59.7684 29.4371 59.6703 29.9271L59.6523 30.0061C59.6343 30.1357 59.5879 30.6408 59.5128 31.5214L59.4356 32.3201C59.4238 32.4517 59.415 32.6339 59.4095 32.8667C59.3962 33.2715 59.3734 33.5003 59.3411 33.553C59.3109 33.6057 59.2594 33.6533 59.1866 33.696C59.1158 33.7407 59.0481 33.7631 58.9833 33.7632C58.9105 33.7634 58.8537 33.72 58.813 33.6331C58.7723 33.5481 58.7519 33.4429 58.7516 33.3174C58.7513 33.1697 58.7931 32.8285 58.8769 32.294C58.9348 31.9275 58.9724 31.4973 58.9895 31.0034C58.9792 30.9366 58.9498 30.9012 58.9012 30.8973C58.8466 30.8974 58.6737 30.9858 58.3826 31.1626C58.045 31.3698 57.7367 31.5131 57.4575 31.5927C57.1804 31.6702 56.9599 31.7091 56.7959 31.7095C56.5287 31.71 56.3302 31.6255 56.2003 31.4557C56.0704 31.2839 56.0048 30.9228 56.0036 30.3722C56.0031 30.1273 56.0409 29.8155 56.117 29.4369C56.1951 29.0562 56.2918 28.8373 56.407 28.7804C56.5243 28.7235 56.6123 28.695 56.671 28.6948C56.7196 28.6947 56.7631 28.721 56.8017 28.7735C56.8403 28.826 56.8597 28.9009 56.8599 28.998C56.8599 29.0183 56.8057 29.2198 56.6972 29.6026C56.5867 29.9874 56.5317 30.278 56.5321 30.4743C56.5328 30.786 56.5535 30.9833 56.5941 31.0662C56.6348 31.1471 56.7573 31.1873 56.9618 31.1869C57.0933 31.1866 57.2825 31.1457 57.5293 31.0642C57.776 30.9827 58.0217 30.8739 58.2663 30.7378C58.511 30.6016 58.6989 30.4707 58.8302 30.3449C58.9615 30.2191 59.0413 30.1309 59.0695 30.0802C59.0977 30.0275 59.1207 29.901 59.1385 29.7006C59.1424 29.6418 59.1474 29.5902 59.1533 29.5457C59.1732 29.3797 59.183 29.2207 59.1827 29.0689C59.1825 29.0062 59.2239 28.9302 59.3067 28.841C59.3915 28.7517 59.4673 28.707 59.5341 28.7069C59.609 28.7067 59.6789 28.7339 59.7438 28.7884C59.8086 28.8409 59.8412 28.9056 59.8413 28.9825Z" fill="#495E4C"/>
<path d="M63.055 31.0553C62.8668 31.0598 62.4652 31.6183 61.8502 32.7308C61.6426 33.1057 61.5216 33.3104 61.4872 33.3449C61.4529 33.3774 61.3892 33.4069 61.2961 33.4334C61.2051 33.4599 61.1292 33.4732 61.0685 33.4733C60.9329 33.4736 60.8645 33.2096 60.8634 32.6814C60.8627 32.3838 60.9253 31.8453 61.0512 31.0657C61.1031 30.7499 61.129 30.5241 61.1287 30.3885C61.1284 30.2549 61.1879 30.188 61.3074 30.1877C61.532 30.1872 61.6447 30.3489 61.6454 30.6728C61.6457 30.8246 61.6089 31.1222 61.535 31.5656C61.4491 32.0719 61.4052 32.3796 61.4034 32.4889C61.5286 32.3672 61.7123 32.1006 61.9543 31.6892C62.2971 31.1258 62.5494 30.769 62.711 30.6189C62.8746 30.4667 63.0435 30.3904 63.2175 30.3901C63.3491 30.3898 63.4535 30.4776 63.5308 30.6535C63.6101 30.8295 63.6586 31.2494 63.6762 31.9132C63.6806 32.0792 63.6961 32.2026 63.7226 32.2835C63.7491 32.3644 63.7684 32.4049 63.7805 32.4048C63.8757 32.4046 64.0814 32.0803 64.3978 31.4319C64.5671 31.0895 64.7315 30.8291 64.891 30.6506C65.0525 30.4721 65.2315 30.3827 65.4278 30.3823C65.5918 30.3819 65.7114 30.4667 65.7866 30.6365C65.8619 30.8044 65.9161 31.0542 65.9492 31.3861C65.9803 31.722 66.0275 32.0296 66.0908 32.3088C66.1562 32.588 66.274 32.7668 66.4442 32.8454C66.5597 32.8998 66.6175 32.9634 66.6176 33.0363C66.6178 33.1072 66.5694 33.1801 66.4724 33.2552C66.3754 33.3303 66.2864 33.368 66.2054 33.3681C66.0435 33.3685 65.8986 33.2696 65.7706 33.0715C65.6427 32.8735 65.5456 32.4446 65.4794 31.7848C65.4505 31.5197 65.4228 31.3316 65.3962 31.2203C65.3697 31.109 65.3281 31.0535 65.2714 31.0536C65.1864 31.0538 65.0854 31.1349 64.9683 31.2971C64.8533 31.4593 64.6668 31.7886 64.4088 32.2851C64.2072 32.6721 64.0539 32.9305 63.9489 33.0603C63.846 33.188 63.7459 33.252 63.6488 33.2522C63.5617 33.2524 63.4837 33.2182 63.4148 33.1495C63.3458 33.0788 63.3021 32.9949 63.2837 32.8978C63.2652 32.7986 63.2455 32.5568 63.2244 32.1723C63.1927 31.5327 63.1362 31.1604 63.055 31.0553Z" fill="#495E4C"/>
<path d="M76.4046 34.3285C76.2884 34.3288 76.1988 34.2742 76.136 34.1648C76.0732 34.0531 76.0414 33.8375 76.0407 33.5178C76.0395 32.9679 76.1666 31.7851 76.422 29.9693C76.4375 29.891 76.4095 29.8441 76.3379 29.8286C76.2663 29.8109 75.9735 29.8026 75.4593 29.8037C74.7574 29.8052 74.3551 29.8475 74.2524 29.9304C74.1498 30.0133 74.0701 30.3868 74.0134 31.0509C73.9916 31.3147 73.9277 31.7429 73.8217 32.3356C73.6936 33.0467 73.6298 33.5532 73.6305 33.855L73.6444 34.0662C73.6448 34.2674 73.5489 34.3682 73.3566 34.3686C73.1264 34.3691 73.011 34.2252 73.0103 33.9368C73.0098 33.7065 73.0284 33.5031 73.066 33.3264C73.128 33.0267 73.1799 32.7382 73.2218 32.4609C73.2482 32.2865 73.2791 32.0975 73.3144 31.894C73.4557 31.0845 73.526 30.5076 73.5253 30.1633C73.525 30.0471 73.4713 29.9835 73.3639 29.9725C73.1515 29.9484 73.0451 29.8615 73.0448 29.7117C73.0446 29.6111 73.0701 29.5294 73.1214 29.4667C73.1749 29.404 73.2441 29.3703 73.3291 29.3657C73.5437 29.3563 73.7001 29.3213 73.7983 29.2607C73.8876 29.2158 73.9546 29.1933 73.9994 29.1932C74.091 29.193 74.1704 29.213 74.2376 29.2531C74.3114 29.2976 74.5261 29.3195 74.8815 29.3187C74.886 29.3187 75.1229 29.3115 75.5924 29.2971C76.064 29.2827 76.3222 29.2709 76.3669 29.2619C76.4116 29.2528 76.4663 29.2348 76.5311 29.2079C76.636 29.1629 76.722 29.1404 76.7891 29.1403L77.0575 29.1799L77.3558 29.1592C77.5369 29.1588 77.6276 29.2379 77.628 29.3966C77.6282 29.4995 77.5948 29.5867 77.5279 29.6584C77.461 29.7279 77.3851 29.7649 77.3002 29.7696C77.2398 29.7742 77.1873 29.7966 77.1427 29.837C77.0981 29.8751 77.0392 30.0451 76.9661 30.347C76.893 30.649 76.8215 31.1778 76.7515 31.9336C76.6839 32.6893 76.6507 33.369 76.652 33.9725L76.6523 34.0932C76.6524 34.1402 76.6234 34.1883 76.5654 34.2376C76.5074 34.2892 76.4538 34.3195 76.4046 34.3285Z" fill="#495E4C"/>
<path d="M80.5699 31.5095C80.3621 31.5144 79.9185 32.1313 79.2394 33.36C79.01 33.7741 78.8764 34.0001 78.8384 34.0382C78.8005 34.0741 78.7302 34.1066 78.6274 34.1359C78.5269 34.1652 78.4431 34.1799 78.376 34.1801C78.2262 34.1804 78.1507 33.8888 78.1494 33.3054C78.1487 32.9768 78.2179 32.382 78.3568 31.521C78.4142 31.1722 78.4427 30.9228 78.4424 30.7731C78.4421 30.6255 78.5079 30.5516 78.6398 30.5513C78.8879 30.5508 79.0124 30.7294 79.0131 31.087C79.0135 31.2547 78.9729 31.5834 78.8912 32.0731C78.7963 32.6322 78.7478 32.9721 78.7459 33.0928C78.8842 32.9584 79.087 32.664 79.3542 32.2096C79.7329 31.5873 80.0115 31.1933 80.19 31.0275C80.3707 30.8594 80.5572 30.7752 80.7494 30.7748C80.8947 30.7745 81.0101 30.8715 81.0954 31.0658C81.183 31.2601 81.2366 31.7238 81.256 32.457C81.2609 32.6403 81.278 32.7766 81.3072 32.866C81.3365 32.9553 81.3578 33 81.3712 33C81.4763 32.9998 81.7035 32.6416 82.053 31.9255C82.2399 31.5473 82.4215 31.2596 82.5977 31.0625C82.7761 30.8654 82.9737 30.7666 83.1905 30.7662C83.3716 30.7658 83.5037 30.8594 83.5868 31.047C83.6699 31.2323 83.7298 31.5083 83.7663 31.8748C83.8007 32.2459 83.8528 32.5855 83.9228 32.8939C83.995 33.2022 84.1251 33.3998 84.313 33.4866C84.4406 33.5466 84.5045 33.6169 84.5046 33.6974C84.5048 33.7756 84.4513 33.8562 84.3442 33.9392C84.2371 34.0221 84.1388 34.0637 84.0494 34.0639C83.8705 34.0643 83.7105 33.9551 83.5692 33.7363C83.4279 33.5175 83.3206 33.0438 83.2475 32.3152C83.2156 32.0224 83.185 31.8146 83.1557 31.6917C83.1263 31.5688 83.0804 31.5075 83.0178 31.5076C82.9239 31.5078 82.8123 31.5975 82.683 31.7766C82.556 31.9557 82.35 32.3194 82.065 32.8677C81.8424 33.2952 81.6731 33.5806 81.5572 33.7239C81.4435 33.865 81.333 33.9356 81.2257 33.9358C81.1296 33.936 81.0434 33.8982 80.9673 33.8224C80.8911 33.7443 80.8428 33.6516 80.8225 33.5444C80.8021 33.4349 80.7803 33.1678 80.757 32.7431C80.722 32.0368 80.6596 31.6256 80.5699 31.5095Z" fill="#495E4C"/>
<path d="M57.7537 19.1407C57.7266 19.29 57.6375 19.3652 57.4866 19.3662L56.9036 19.3702C56.8376 19.3706 56.4746 19.401 55.8146 19.4612C55.5789 19.4826 55.4375 19.4934 55.3904 19.4937C55.3564 19.494 55.2969 19.4809 55.2117 19.4545C55.1663 19.4405 55.1334 19.4569 55.1131 19.5037L55.1158 19.4983C54.9134 21.1187 54.8125 21.9802 54.8133 22.0826C54.8139 22.1527 54.8201 22.229 54.8321 22.3116C54.846 22.4049 54.8533 22.492 54.8539 22.5729C54.8547 22.6735 54.7913 22.7638 54.6636 22.8437C54.5378 22.9254 54.4532 22.9665 54.4098 22.9668C54.34 22.9672 54.2548 22.9319 54.1543 22.8607C54.0556 22.7895 54.0059 22.7027 54.0051 22.6002C54.0041 22.4727 54.0153 22.3369 54.0387 22.193C54.0459 22.1498 54.053 22.0959 54.0601 22.0311C54.0706 21.925 54.1055 21.6885 54.1649 21.3215C54.2334 20.9024 54.2675 20.6847 54.2674 20.6685L54.3872 19.7028C54.3844 19.3362 54.3892 19.1062 54.4017 19.0126C54.4141 18.9173 54.4598 18.8397 54.5385 18.7799C54.6192 18.7182 54.7171 18.687 54.8322 18.6862C54.9152 18.6857 55.0068 18.7057 55.1072 18.7464C55.2718 18.8099 55.4456 18.8411 55.6287 18.8398L56.91 18.734C57.1211 18.7164 57.3138 18.7385 57.4879 18.8002C57.6638 18.8619 57.7523 18.9619 57.7534 19.1002L57.7537 19.1407Z" fill="#495E4C"/>
<path d="M59.447 22.5496C59.4104 22.6954 59.3653 22.9634 59.3117 23.3537C59.2582 23.7458 59.2263 24.0084 59.216 24.1415C59.2057 24.2763 59.1575 24.3907 59.0715 24.4848C58.9873 24.5788 58.9112 24.626 58.8433 24.6265C58.7584 24.6271 58.6742 24.5971 58.5907 24.5366C58.5072 24.476 58.4652 24.4098 58.4646 24.338C58.4635 24.1924 58.4858 24.0242 58.5315 23.8335C58.8061 22.7552 58.9522 21.6446 58.9697 20.5016L58.9693 20.4477C58.9675 20.2249 58.9739 20.0748 58.9884 19.9975C59.0029 19.9183 59.0495 19.8425 59.1281 19.7701C59.2068 19.6977 59.2999 19.6611 59.4075 19.6604C59.4981 19.6597 59.5719 19.6979 59.6291 19.7747C59.6882 19.8516 59.7183 19.9628 59.7195 20.1084C59.7206 20.2557 59.6943 20.5137 59.6406 20.8825C59.8474 20.5486 60.0953 20.272 60.3842 20.0526C60.6749 19.8314 60.9401 19.72 61.1797 19.7183C61.391 19.7169 61.5708 19.7875 61.7191 19.9303C61.8693 20.073 61.9452 20.2531 61.9469 20.4705C61.9514 21.0509 61.7188 21.5808 61.2489 22.0602C60.7809 22.5378 60.3158 22.7781 59.8535 22.7813C59.6384 22.7828 59.5029 22.7055 59.447 22.5496ZM61.0741 20.3309C60.8439 20.3325 60.5465 20.5483 60.1819 20.9785C59.8192 21.4087 59.6388 21.7459 59.6407 21.9903C59.6412 22.0532 59.6737 22.1096 59.7383 22.1594C59.8047 22.2075 59.8813 22.2312 59.9681 22.2306C60.2077 22.229 60.4808 22.0483 60.7875 21.6887C61.096 21.3272 61.249 20.9793 61.2464 20.6451C61.2455 20.5337 61.2269 20.4539 61.1907 20.4056C61.1545 20.3555 61.1156 20.3306 61.0741 20.3309Z" fill="#495E4C"/>
<path d="M65.4975 21.7858C65.0099 22.4091 64.5387 22.7223 64.084 22.7254C63.9142 22.7266 63.7675 22.6638 63.6439 22.5371C63.5202 22.4103 63.4576 22.2481 63.4561 22.0505C63.4524 21.5743 63.6711 21.0661 64.1122 20.5258C64.5532 19.9837 65.0002 19.7111 65.453 19.708C65.6832 19.7064 65.835 19.8159 65.9084 20.0364C66.1254 20.0349 66.2345 20.1132 66.2357 20.2714C66.2363 20.3468 66.2166 20.4835 66.1767 20.6815C66.1041 21.0521 66.0686 21.348 66.0704 21.569C66.0722 21.799 66.0895 21.9606 66.1223 22.0538C66.1569 22.147 66.1819 22.2079 66.1973 22.2366C66.2126 22.2652 66.2581 22.2955 66.3338 22.3273C66.4096 22.3609 66.4477 22.4083 66.4481 22.4694C66.4489 22.561 66.4004 22.6377 66.3028 22.6995C66.207 22.7612 66.1063 22.7925 66.0006 22.7932C65.8233 22.7944 65.6943 22.7108 65.6138 22.5425C65.5351 22.3741 65.4949 22.1767 65.4931 21.9503L65.4925 21.8694C65.4923 21.8425 65.494 21.8146 65.4975 21.7858ZM65.333 20.2856C65.1424 20.2869 64.8959 20.4899 64.5934 20.8945C64.2927 21.2972 64.1435 21.6388 64.1457 21.9191C64.1468 22.0664 64.1795 22.1399 64.2436 22.1394C64.4662 22.1379 64.7384 21.9483 65.06 21.5705C65.3834 21.1909 65.5441 20.8601 65.5419 20.578C65.5412 20.4882 65.5189 20.4173 65.4751 20.3655C65.4332 20.3119 65.3858 20.2853 65.333 20.2856Z" fill="#495E4C"/>
<path d="M70.3273 22.3593C70.309 22.4385 70.2746 22.746 70.2241 23.2818L70.138 24.2204C70.131 24.2942 70.0891 24.3663 70.0123 24.4369C69.9355 24.5075 69.8594 24.5431 69.7839 24.5436C69.6631 24.5444 69.5704 24.5127 69.5058 24.4485C69.4411 24.386 69.4086 24.3216 69.408 24.2551C69.4069 24.1041 69.4625 23.7345 69.5749 23.1461C69.6147 22.932 69.6572 22.6918 69.7023 22.4256C69.4435 22.625 69.1744 22.7257 68.8952 22.7276C68.6122 22.7295 68.3918 22.6556 68.234 22.5057C68.0781 22.3558 67.9991 22.1434 67.997 21.8685C67.9936 21.4373 68.1627 20.9887 68.5044 20.5227C68.8461 20.0568 69.1867 19.8226 69.5263 19.8203C69.7112 19.819 69.8641 19.9465 69.985 20.2026C69.9971 20.066 70.0024 19.8898 70.0007 19.6742L69.9831 18.8657C69.9817 18.6896 69.9722 18.5612 69.9546 18.4805C69.943 18.4446 69.9371 18.4195 69.937 18.4051C69.9363 18.3117 69.9677 18.2252 70.0312 18.1457C70.0948 18.0662 70.1728 18.0261 70.2652 18.0255C70.3312 18.025 70.4069 18.0524 70.4923 18.1075C70.5776 18.1608 70.6309 18.2261 70.6523 18.3032C70.6755 18.3785 70.6877 18.4898 70.6889 18.6372C70.6944 19.3505 70.6631 19.9329 70.5949 20.3844L70.5387 20.7972C70.6946 20.4601 70.8972 20.1883 71.1465 19.9817C71.3977 19.7752 71.6545 19.671 71.9168 19.6692C72.13 19.6677 72.3079 19.7393 72.4505 19.8839C72.595 20.0266 72.6681 20.2058 72.6698 20.4215C72.6731 20.8437 72.5976 21.2009 72.4432 21.4931C72.2889 21.7835 72.0513 22.0501 71.7306 22.2931C71.4098 22.5361 71.0787 22.6588 70.7372 22.6611C70.5617 22.6623 70.4251 22.5617 70.3273 22.3593ZM70.5375 21.7352C70.5382 21.8287 70.5681 21.9084 70.6271 21.9745C70.688 22.0388 70.7703 22.0706 70.8741 22.0699C71.1099 22.0682 71.3559 21.9075 71.6119 21.5877C71.8679 21.2679 71.9946 20.9382 71.9919 20.5986C71.991 20.4854 71.9706 20.4047 71.9306 20.3564C71.8925 20.3082 71.8527 20.2842 71.8112 20.2845C71.6885 20.2853 71.5691 20.3346 71.4529 20.4325C71.3366 20.5285 71.1907 20.6939 71.0152 20.9287C70.8397 21.1617 70.6804 21.4306 70.5375 21.7352ZM69.7936 21.7996C69.8364 21.4741 69.86 21.2295 69.8644 21.066C69.867 20.9168 69.8576 20.8064 69.8363 20.7346C69.8169 20.6611 69.7672 20.5869 69.6874 20.5119C69.6075 20.4352 69.5289 20.3971 69.4516 20.3976C69.361 20.3983 69.2104 20.5664 68.9998 20.9021C68.7911 21.2359 68.6879 21.5547 68.6903 21.8584C68.691 21.9518 68.719 22.028 68.7742 22.0869C68.8293 22.1458 68.9079 22.1749 69.0097 22.1742C69.1135 22.1735 69.2538 22.1303 69.4304 22.0447C69.6071 21.9572 69.7282 21.8755 69.7936 21.7996Z" fill="#495E4C"/>
<path d="M76.3327 21.6228C76.154 21.9385 75.9456 22.1897 75.7074 22.3764C75.4712 22.5631 75.2304 22.6573 74.9851 22.659C74.8398 22.66 74.6921 22.5882 74.5419 22.4437C74.3936 22.2992 74.3183 22.076 74.3159 21.7741C74.3142 21.5603 74.3683 21.2373 74.4782 20.8053C74.5735 20.4489 74.6205 20.1781 74.619 19.993C74.6933 19.8416 74.8107 19.7653 74.971 19.7642C75.0805 19.7635 75.1675 19.7979 75.2322 19.8676C75.2988 19.9354 75.3324 20.0043 75.3329 20.0744C75.3339 20.202 75.2881 20.3838 75.1956 20.6198C75.142 20.7604 75.0841 20.9593 75.022 21.2167C74.9617 21.4723 74.9318 21.636 74.9324 21.7079C74.9343 21.9469 74.9871 22.066 75.0908 22.0653C75.255 22.0642 75.4755 21.9126 75.7524 21.6106C76.0293 21.3087 76.209 21.0001 76.2915 20.6851C76.374 20.3773 76.4479 20.1755 76.5132 20.0798C76.5785 19.9841 76.6715 19.9359 76.7922 19.9351C76.9885 19.9337 77.0874 20.0373 77.089 20.2457C77.0892 20.2763 77.0737 20.3375 77.0423 20.4293C76.9335 20.7481 76.8806 21.107 76.8837 21.5059C76.8874 21.9731 76.9726 22.2519 77.1393 22.3424C77.1943 22.3726 77.2219 22.4101 77.2223 22.455C77.2228 22.5197 77.1751 22.5811 77.0794 22.6393C76.9836 22.6975 76.8923 22.7268 76.8055 22.7274C76.6564 22.7284 76.5406 22.6295 76.4579 22.4306C76.3771 22.2299 76.3354 21.9607 76.3327 21.6228Z" fill="#495E4C"/>
<path d="M80.4416 21.2066C80.5266 21.2258 80.6061 21.2603 80.6801 21.3101C80.7541 21.3599 80.8425 21.451 80.9454 21.5832C81.1437 21.8406 81.2997 22.0094 81.4136 22.0895C81.5274 22.1696 81.6513 22.2091 81.7853 22.2082C81.9249 22.2073 81.995 22.2481 81.9956 22.3308C81.9963 22.4098 81.9488 22.4901 81.8532 22.5716C81.7576 22.6532 81.606 22.6946 81.3985 22.696C81.0796 22.6982 80.7541 22.4498 80.4219 21.9507C80.229 21.6573 80.0684 21.5111 79.9401 21.5119C79.9232 21.5121 79.877 21.524 79.8017 21.5479C79.7283 21.5718 79.6804 21.5937 79.6579 21.6136C79.6354 21.6317 79.6174 21.7459 79.604 21.9563L79.5767 22.4524C79.5736 22.5333 79.5392 22.6027 79.4736 22.6607C79.408 22.7204 79.3262 22.7506 79.2281 22.7513C79.1243 22.752 79.043 22.7247 78.984 22.6694C78.9251 22.6159 78.8954 22.5613 78.895 22.5056C78.8945 22.4373 78.9169 22.2907 78.9623 22.0658C79.0711 21.499 79.1554 20.8066 79.215 19.9886C79.2218 19.8843 79.2663 19.7888 79.3487 19.702C79.431 19.6151 79.5278 19.5714 79.6392 19.5706C79.7165 19.5701 79.7809 19.6011 79.8323 19.6636C79.8838 19.7262 79.9098 19.7988 79.9105 19.8814C79.911 19.9461 79.9002 20.0118 79.878 20.0784C79.8503 20.1559 79.811 20.3143 79.76 20.5536C79.7109 20.7929 79.6812 20.9755 79.6709 21.1014C79.8949 21.0352 80.0687 20.9441 80.1924 20.8283C80.316 20.7124 80.4693 20.5272 80.6522 20.2726C80.8053 20.0631 80.9494 19.9085 81.0845 19.8087C81.2195 19.7071 81.3682 19.6558 81.5304 19.6547C81.6191 19.6541 81.7015 19.6895 81.7775 19.7608C81.8554 19.8304 81.8947 19.9047 81.8953 19.9837C81.8958 20.0502 81.8745 20.1007 81.8314 20.1351C81.7901 20.1678 81.7168 20.1997 81.6114 20.231C81.4777 20.2696 81.3351 20.373 81.1836 20.5412C80.8693 20.8901 80.622 21.1119 80.4416 21.2066Z" fill="#495E4C"/>
<path d="M93.3124 33.2074C93.4176 33.2071 93.4703 33.2717 93.4706 33.4012C93.4709 33.536 93.3216 33.7291 93.0229 33.9805C92.7241 34.2319 92.3781 34.4322 91.9847 34.5814C91.594 34.7305 91.2356 34.8054 90.9093 34.8061C90.432 34.8072 89.9962 34.6504 89.6019 34.3357C89.2102 34.0211 89.0137 33.5645 89.0124 32.9659C89.0101 31.8738 89.477 30.8104 90.4131 29.7757C91.3519 28.7382 92.2568 28.2186 93.1277 28.2167C93.454 28.216 93.7144 28.3165 93.909 28.5183C94.1063 28.7174 94.2052 28.9505 94.2058 29.2174C94.2063 29.4655 94.1919 29.661 94.1625 29.804C94.1359 29.947 94.0512 30.0685 93.9085 30.1686C93.7658 30.2659 93.6513 30.3147 93.565 30.3149C93.503 30.315 93.449 30.2882 93.4031 30.2344C93.3571 30.1805 93.334 30.1078 93.3339 30.0161C93.3337 29.9541 93.3564 29.8246 93.4018 29.6277C93.4472 29.4334 93.4698 29.2891 93.4696 29.1947C93.469 28.9197 93.3487 28.7824 93.1087 28.783C92.7366 28.7838 92.276 28.9991 91.7269 29.429C91.1804 29.8563 90.7164 30.3992 90.335 31.058C89.9535 31.7141 89.7634 32.3185 89.7645 32.8712C89.7653 33.2406 89.8752 33.5478 90.0942 33.7927C90.3158 34.0349 90.6302 34.1556 91.0373 34.1547C91.2719 34.1542 91.5563 34.0956 91.8904 33.9789C92.2272 33.8596 92.5356 33.7011 92.8156 33.5037C93.0956 33.3063 93.2612 33.2075 93.3124 33.2074Z" fill="#495E4C"/>
<path d="M97.2495 30.218C97.1464 29.9405 96.9085 29.6403 96.5357 29.3176C96.1845 29.0163 96.0087 28.7578 96.0082 28.5421C96.0079 28.3695 96.0642 28.2306 96.1772 28.1252C96.2902 28.0171 96.5003 27.9195 96.8075 27.8326C97.1902 27.7266 97.5796 27.6071 97.9757 27.4741C98.3717 27.3385 98.6102 27.2517 98.691 27.2137C98.7422 27.1894 98.7947 27.1771 98.8487 27.177C98.9376 27.1768 98.9823 27.2562 98.9827 27.4153C98.9828 27.5043 98.8753 27.6259 98.6599 27.78C98.4445 27.9342 98.0633 28.0779 97.5162 28.2112C97.1712 28.2983 96.9597 28.3635 96.8816 28.4068C96.8062 28.4474 96.7685 28.4892 96.7686 28.5324C96.7688 28.6295 96.8743 28.7694 97.085 28.9524C97.8792 29.6436 98.2775 30.5124 98.2797 31.5586C98.2807 32.0089 98.1631 32.4918 97.9269 33.0073C97.6908 33.5201 97.3748 33.9024 96.9789 34.154C96.5858 34.4056 96.2005 34.5318 95.823 34.5326C95.4832 34.5334 95.2254 34.3681 95.0494 34.0368C94.8734 33.7055 94.785 33.3404 94.7841 32.9413C94.7826 32.2348 94.9982 31.5683 95.431 30.9418C95.8664 30.3153 96.3269 30.0015 96.8122 30.0005C96.8769 30.0004 96.9579 30.042 97.0552 30.1254C97.1443 30.2061 97.2091 30.2369 97.2495 30.218ZM95.4919 32.9559C95.4926 33.2552 95.5322 33.4897 95.6108 33.6595C95.692 33.8292 95.7974 33.9139 95.9268 33.9136C96.0994 33.9132 96.3324 33.8062 96.6258 33.5926C96.9193 33.3789 97.1545 33.0629 97.3316 32.6446C97.5113 32.2262 97.6008 31.8351 97.6 31.4711C97.5994 31.1691 97.5557 30.9251 97.469 30.7393C97.385 30.5507 97.3066 30.4565 97.2338 30.4566C96.7539 30.4577 96.3433 30.7511 96.0021 31.337C95.6609 31.9228 95.4909 32.4625 95.4919 32.9559Z" fill="#495E4C"/>
<path d="M109.05 30.4383C109.051 30.4824 109.168 30.5587 109.404 30.6671C109.666 30.7901 109.859 30.9074 109.983 31.019C110.11 31.1276 110.213 31.2746 110.293 31.4598C110.376 31.6421 110.418 31.8613 110.418 32.1173C110.419 32.3528 110.26 32.6739 109.944 33.0808C109.629 33.4847 109.221 33.824 108.718 34.0988C108.219 34.3707 107.697 34.5072 107.152 34.5083C107.049 34.5086 106.905 34.478 106.719 34.4166C106.537 34.3552 106.445 34.2906 106.445 34.2229C106.444 33.8521 106.706 33.6661 107.23 33.665C107.392 33.6676 107.551 33.6657 107.706 33.6595C107.862 33.6504 108.061 33.5984 108.302 33.5037C108.546 33.4061 108.775 33.2702 108.99 33.0961C109.204 32.922 109.359 32.7524 109.452 32.5874C109.546 32.4194 109.593 32.2589 109.593 32.1059C109.592 31.8351 109.478 31.5955 109.251 31.387C109.024 31.1785 108.715 31.0747 108.323 31.0756C108.265 31.0757 108.125 31.1231 107.904 31.2177C107.684 31.3153 107.54 31.3642 107.472 31.3644C107.242 31.3649 107.098 31.3357 107.039 31.277C106.983 31.2183 106.955 31.1138 106.955 30.9637C106.954 30.8607 107.201 30.7116 107.695 30.5163C108.18 30.3239 108.617 30.0301 109.005 29.6349C109.395 29.2397 109.59 28.9243 109.59 28.6889C109.589 28.53 109.507 28.3903 109.342 28.27C109.179 28.1468 108.957 28.0854 108.675 28.086C108.31 28.0868 107.886 28.1378 107.403 28.2389C106.921 28.3371 106.656 28.4333 106.609 28.5276C106.565 28.6218 106.443 29.3388 106.243 30.6783C106.043 32.0149 105.943 32.7877 105.944 32.9967C105.944 33.1085 105.95 33.216 105.962 33.3189C105.971 33.4249 105.976 33.5249 105.976 33.6191C105.977 34.0223 105.781 34.2243 105.39 34.2252C105.281 34.2254 105.191 34.1476 105.12 33.9918C105.049 33.836 105.014 33.6933 105.013 33.5638C105.013 33.5079 105.061 33.2826 105.158 32.888C105.274 32.3521 105.39 31.619 105.506 30.6887C105.622 29.7555 105.679 29.258 105.679 29.1962C105.679 29.0726 105.661 28.9814 105.626 28.9226C105.593 28.8638 105.517 28.8345 105.396 28.8348C105.349 28.8349 105.302 28.8365 105.255 28.8395C105.211 28.8425 105.165 28.8147 105.118 28.7559C105.073 28.6972 105.051 28.6266 105.051 28.5442C105.051 28.3117 105.436 28.0636 106.206 27.8C106.977 27.5335 107.896 27.399 108.964 27.3967C109.356 27.3959 109.703 27.5276 110.007 27.7918C110.314 28.056 110.467 28.3279 110.468 28.6075C110.468 28.8077 110.335 29.092 110.068 29.4604C109.804 29.826 109.465 30.1519 109.05 30.4383Z" fill="#495E4C"/>
<path d="M112.803 34.4211C112.361 34.4221 112.021 34.2962 111.782 34.0436C111.546 33.791 111.428 33.4366 111.427 32.9805C111.425 32.2123 111.728 31.4023 112.335 30.5504C112.943 29.6956 113.508 29.2676 114.032 29.2665C114.271 29.2659 114.475 29.395 114.647 29.6536C114.821 29.9093 114.908 30.1814 114.909 30.4698C114.909 30.6434 114.871 30.7936 114.795 30.9203C114.722 31.0441 114.647 31.1061 114.57 31.1062C114.4 31.1066 114.279 30.9347 114.207 30.5905C114.127 30.2198 114.012 30.0347 113.862 30.035C113.556 30.0357 113.194 30.3999 112.778 31.1278C112.362 31.8556 112.154 32.4697 112.155 32.9701C112.156 33.4704 112.441 33.7199 113.009 33.7187C113.441 33.7178 113.95 33.5136 114.535 33.1062C114.741 32.9615 114.892 32.8891 114.989 32.8889C115.089 32.8887 115.139 32.946 115.14 33.0607C115.14 33.2844 114.877 33.5675 114.351 33.9101C113.825 34.2497 113.309 34.42 112.803 34.4211Z" fill="#495E4C"/>
</g>
<defs>
<clipPath id="clip0_101_1058">
<rect width="141" height="125" fill="white" transform="translate(0 0.985352)"/>
</clipPath>
</defs>
</svg>
