<svg width="165" height="104" viewBox="0 0 165 104" fill="none" xmlns="http://www.w3.org/2000/svg">
<g opacity="0.5" clip-path="url(#clip0_102_1199)">
<path d="M37.6957 39.6758H5.9873V63.9758H37.6957V39.6758Z" fill="#8FE89A"/>
<path d="M29.7519 63.8035C29.7245 63.8035 29.7002 58.3877 29.7002 51.7079C29.7002 45.0281 29.7245 39.6123 29.7519 39.6123C29.7793 39.6123 29.8037 45.0251 29.8037 51.7079C29.8037 58.3907 29.7824 63.8035 29.7519 63.8035Z" fill="#495D4C"/>
<path d="M34.5506 58.4453H32.1188V61.1759H34.5506V58.4453Z" fill="#F5F5F5"/>
<path d="M19.2606 39.7397H15.66V44.9257H19.2606V39.7397Z" fill="#495D4C"/>
<path d="M19.2606 58.7178H15.66V63.9038H19.2606V58.7178Z" fill="#495D4C"/>
<path d="M36.9641 39.691C36.9369 39.6956 36.9091 39.6956 36.882 39.691H36.6445H35.7315H32.3622L21.2499 39.7061L10.1347 39.691H6.76843H5.85534H5.61794C5.59075 39.6956 5.56296 39.6956 5.53577 39.691H5.61794H5.85534H6.76843L10.1347 39.6729H21.2499H32.3622L35.7315 39.691H36.6445H36.882H36.9641Z" fill="#263238"/>
<path d="M64.0929 39.6489H32.3845V63.949H64.0929V39.6489Z" fill="#E0E0E0"/>
<path d="M56.1429 63.7766C56.1155 63.7766 56.0912 58.3578 56.0912 51.681C56.0912 45.0043 56.1155 39.5854 56.1429 39.5854C56.1703 39.5854 56.1947 45.0012 56.1947 51.681C56.1947 58.3608 56.1764 63.7766 56.1429 63.7766Z" fill="#495D4C"/>
<path d="M61.4055 58.415H58.9736V61.1456H61.4055V58.415Z" fill="#F5F5F5"/>
<path opacity="0.5" d="M45.6577 39.7095H42.0571V44.8955H45.6577V39.7095Z" fill="white"/>
<path opacity="0.5" d="M45.6577 58.6904H42.0571V63.8764H45.6577V58.6904Z" fill="white"/>
<path d="M64.6537 39.6489H64.5898H64.3493H63.4363L60.067 39.6671H48.9547H37.8395H34.458H33.5449H33.3045H33.2253C33.2517 39.6645 33.2782 39.6645 33.3045 39.6671H33.5449H34.458L37.8242 39.652H48.9395H60.0518L63.421 39.6671H64.3341H64.5746C64.6003 39.6584 64.6268 39.6523 64.6537 39.6489Z" fill="#0A0D0E"/>
<path d="M65.8734 15.3491H34.165V39.6492H65.8734V15.3491Z" fill="#E0E0E0"/>
<path d="M57.9297 39.4768C57.9023 39.4768 57.8779 34.061 57.8779 27.3812C57.8779 20.7014 57.9023 15.2856 57.9297 15.2856C57.9571 15.2856 57.9814 20.7014 57.9814 27.3812C57.9814 34.061 57.9692 39.4768 57.9297 39.4768Z" fill="#495D4C"/>
<path d="M63.186 34.1147H60.7542V36.8453H63.186V34.1147Z" fill="#F5F5F5"/>
<path d="M47.4382 15.4121H43.8376V20.5981H47.4382V15.4121Z" fill="#F5F5F5"/>
<path d="M47.4382 34.3901H43.8376V39.5761H47.4382V34.3901Z" fill="#F5F5F5"/>
<path d="M65.3613 15.3486H65.2822H65.0387H64.1256L60.7594 15.3668L49.6472 15.3819L38.5319 15.3668L35.1626 15.3486H34.2495H34.0091H33.9299H34.0091H34.2495H35.1626H38.5319L49.6472 15.3335L60.7594 15.3486H64.1256H65.0387H65.2792H65.3613Z" fill="#263238"/>
<path d="M59.8183 91.031V88.1855H1.23181C1.1274 88.1855 1.02403 88.2062 0.92775 88.2464C0.831473 88.2865 0.744223 88.3453 0.671103 88.4194C0.597983 88.4934 0.540461 88.5812 0.501906 88.6776C0.46335 88.774 0.444535 88.8771 0.446559 88.9808V90.269C0.447364 90.4754 0.530449 90.6731 0.677626 90.8187C0.824802 90.9644 1.02407 91.0462 1.23181 91.0462H2.86319V92.3434C2.86238 92.5466 2.78058 92.7412 2.63568 92.8846C2.49079 93.0279 2.29462 93.1085 2.09011 93.1085H1.21964C1.0146 93.1085 0.817969 93.1894 0.672988 93.3334C0.528008 93.4775 0.446559 93.6728 0.446559 93.8765V95.1889C0.452109 95.3889 0.536001 95.5789 0.680384 95.7184C0.824767 95.8579 1.01824 95.9359 1.21964 95.9358H59.8183V93.0933H46.1738V91.031H59.8183ZM16.9034 91.031H20.4127V93.0933H16.9064L16.9034 91.031ZM14.5628 93.0933H11.0536V91.031H14.5659L14.5628 93.0933ZM22.7532 91.031H26.2686V93.0933H22.7563L22.7532 91.031ZM28.6061 91.031H32.1154V93.0933H28.6091L28.6061 91.031ZM34.4559 91.031H37.9682V93.0933H34.459L34.4559 91.031ZM5.20068 91.031H8.70997V93.0933H5.20373L5.20068 91.031ZM43.8181 93.0933H40.3088V91.031H43.8211L43.8181 93.0933Z" fill="#89948F"/>
<path d="M109.175 45.2566C109.272 45.1685 109.347 45.0643 109.398 44.9499C109.449 44.8355 109.474 44.7132 109.471 44.5902C109.468 44.4672 109.438 44.3459 109.382 44.2334C109.326 44.121 109.245 44.0196 109.144 43.9352L99.2176 35.5766C99.0193 35.4107 98.7575 35.3184 98.4854 35.3184C98.2134 35.3184 97.9516 35.4107 97.7532 35.5766C97.6513 35.6625 97.5694 35.7656 97.5122 35.8798C97.4551 35.994 97.4237 36.1171 97.42 36.2422C97.4163 36.3672 97.4404 36.4916 97.4907 36.6084C97.5411 36.7251 97.6168 36.8318 97.7135 36.9225L101.673 40.6359L99.612 42.4013L98.5389 41.6494L91.0487 49.2969L87.0468 45.8668L82.2225 58.511L83.1794 75.6751H94.2772L93.5037 55.2798L100.936 45.8232L100.994 43.5728L103.134 41.6221L107.747 45.292C107.947 45.4511 108.208 45.5354 108.476 45.5273C108.743 45.5191 108.997 45.4192 109.184 45.2484L109.175 45.2566Z" fill="#B8B8B8"/>
<path d="M104.627 74.4706L111.697 58.1982L109.043 57.3064V54.1507L128.374 53.9012C128.829 53.8933 129.265 53.7488 129.601 53.4945C129.938 53.2402 130.151 52.8934 130.202 52.5184L133.039 31.6014C133.102 31.1331 133.371 30.7004 133.795 30.3861C134.218 30.0718 134.767 29.8978 135.335 29.8975C135.647 29.8976 135.955 29.9499 136.242 30.0513C136.529 30.1527 136.788 30.301 137.004 30.4874C137.22 30.6738 137.388 30.8944 137.498 31.136C137.609 31.3776 137.66 31.6352 137.647 31.8933L136.578 53.4474L146.671 53.4925L147.013 57.4259L117.163 58.392L109.379 74.237L104.627 74.4706Z" fill="#E9E9E9"/>
<path d="M109.33 74.1245L84.6447 74.2915V75.6752L94.8706 75.5639L111.158 75.4605L150.646 70.7605L146.17 56.4007H119.434C118.972 56.3949 118.515 56.4841 118.102 56.6605C117.69 56.837 117.335 57.0953 117.068 57.4133L109.33 74.1245Z" fill="#B8B8B8"/>
<path d="M96.9598 5.4667L79.5959 60.4805L79.7177 75.7814H85.2418V60.5772L99.4677 5.61184L138.012 5.39715L145.384 62.6486H149.733L140.763 5.79933C140.624 5.05591 140.227 4.38434 139.642 3.90068C139.057 3.41701 138.32 3.15163 137.559 3.15039H100.089C99.3856 3.15048 98.7014 3.37594 98.1377 3.79326C97.574 4.21057 97.1609 4.79746 96.9598 5.4667Z" fill="#E9E9E9"/>
<path d="M76.4794 93.4592V78.76L79.7299 75.7815L110.166 75.3944L115.645 70.9674C116.666 70.1433 117.922 69.6598 119.236 69.5855L125.08 69.2589C125.08 69.2589 127.709 67.4446 130.254 65.6726C133.477 63.4047 137.329 62.1865 141.278 62.186H158.149C158.761 62.186 159.349 62.4278 159.782 62.8583C160.215 63.2887 160.459 63.8725 160.459 64.4812V93.4592H76.4794Z" fill="#5CCD6A"/>
<path d="M160.456 88.7207H76.181V93.5529H160.456V88.7207Z" fill="#495D4C"/>
<path d="M80.5426 93.4044C80.5127 95.452 81.0947 97.4625 82.2148 99.1815C83.335 100.901 84.9431 102.251 86.8358 103.062C88.7285 103.873 90.8207 104.108 92.8478 103.738C94.875 103.367 96.7461 102.408 98.2245 100.981C99.7029 99.5539 100.722 97.7235 101.153 95.721C101.585 93.7185 101.409 91.6339 100.647 89.7308C99.8863 87.8278 98.5741 86.1917 96.877 85.0295C95.1799 83.8674 93.174 83.2313 91.1131 83.2018C89.7446 83.1818 88.3856 83.4299 87.1137 83.9318C85.8418 84.4338 84.6819 85.1798 83.7003 86.1273C82.7186 87.0748 81.9345 88.2051 81.3927 89.4538C80.8509 90.7024 80.562 92.0448 80.5426 93.4044Z" fill="#495D4C"/>
<path d="M80.5456 93.3774C80.5456 93.3774 80.5456 93.3956 80.5456 93.4047C80.5298 96.1347 81.6 98.7604 83.5232 100.71C85.4464 102.66 88.067 103.777 90.8146 103.817C93.5622 103.857 96.2144 102.817 98.1941 100.923C100.174 99.0299 101.321 96.4364 101.385 93.707C101.385 93.707 101.385 93.6889 101.385 93.6798L80.5456 93.3774Z" fill="#495D4C"/>
<path d="M83.6471 93.4502C83.6286 94.8845 84.0384 96.292 84.8246 97.4951C85.6108 98.6981 86.7382 99.6428 88.0645 100.21C89.3907 100.776 90.8563 100.94 92.2761 100.68C93.6959 100.42 95.0062 99.7475 96.0417 98.7478C97.0771 97.7482 97.7912 96.4662 98.0937 95.0636C98.3962 93.6611 98.2736 92.2009 97.7413 90.8675C97.2091 89.5341 96.2911 88.3874 95.1032 87.5721C93.9154 86.7567 92.511 86.3094 91.0674 86.2866C90.1064 86.2714 89.1517 86.4448 88.2582 86.7968C87.3648 87.1489 86.55 87.6727 85.8606 88.3382C85.1713 89.0036 84.6209 89.7978 84.2411 90.675C83.8612 91.5522 83.6594 92.4953 83.6471 93.4502Z" fill="#FAFAFA"/>
<path d="M91.0674 86.2866C90.1064 86.2714 89.1517 86.4448 88.2583 86.7968C87.3648 87.1489 86.55 87.6727 85.8607 88.3382C85.1713 89.0036 84.6209 89.7978 84.2411 90.675C83.8612 91.5522 83.6594 92.4953 83.6471 93.4502L98.2778 93.6588C98.293 92.704 98.1185 91.7555 97.7642 90.8679C97.4098 89.9802 96.8826 89.1707 96.2128 88.4858C95.543 87.8009 94.7437 87.2541 93.8607 86.8767C92.9778 86.4993 92.0285 86.2988 91.0674 86.2866Z" fill="#E0E0E0"/>
<path d="M86.505 93.4895C86.4919 94.3656 86.7405 95.226 87.2196 95.9617C87.6986 96.6975 88.3865 97.2755 89.1963 97.6228C90.0061 97.9701 90.9013 98.071 91.7688 97.9127C92.6362 97.7544 93.437 97.3441 94.0697 96.7337C94.7024 96.1232 95.1387 95.3401 95.3234 94.4832C95.5081 93.6264 95.4329 92.7344 95.1073 91.92C94.7817 91.1057 94.2203 90.4055 93.4942 89.9082C92.768 89.4109 91.9097 89.1387 91.0278 89.126C90.4424 89.1172 89.861 89.2231 89.3168 89.4377C88.7726 89.6522 88.2763 89.9713 87.8562 90.3765C87.4362 90.7817 87.1007 91.2653 86.8688 91.7994C86.637 92.3335 86.5133 92.9078 86.505 93.4895Z" fill="#495D4C"/>
<path d="M131.535 93.4049C131.505 95.4525 132.087 97.4629 133.208 99.1819C134.328 100.901 135.936 102.251 137.828 103.062C139.721 103.873 141.813 104.108 143.841 103.738C145.868 103.368 147.739 102.408 149.217 100.981C150.696 99.5544 151.715 97.7239 152.146 95.7214C152.577 93.7189 152.401 91.6343 151.64 89.7313C150.879 87.8282 149.567 86.1921 147.87 85.03C146.173 83.8678 144.167 83.2318 142.106 83.2022C139.342 83.1627 136.676 84.2153 134.694 86.1287C132.712 88.042 131.575 90.6593 131.535 93.4049Z" fill="#495D4C"/>
<path d="M131.538 93.3774C131.538 93.3774 131.538 93.3956 131.538 93.4047C131.523 96.1347 132.593 98.7604 134.516 100.71C136.439 102.66 139.06 103.777 141.807 103.817C144.555 103.857 147.207 102.817 149.187 100.923C151.166 99.0299 152.313 96.4364 152.378 93.707C152.376 93.698 152.376 93.6888 152.378 93.6798L131.538 93.3774Z" fill="#495D4C"/>
<path d="M134.64 93.4502C134.621 94.8845 135.031 96.292 135.817 97.4951C136.603 98.6981 137.731 99.6428 139.057 100.21C140.383 100.776 141.849 100.94 143.269 100.68C144.689 100.42 145.999 99.7475 147.034 98.7478C148.07 97.7482 148.784 96.4662 149.086 95.0636C149.389 93.6611 149.266 92.2009 148.734 90.8675C148.202 89.5341 147.284 88.3874 146.096 87.5721C144.908 86.7567 143.504 86.3094 142.06 86.2866C141.099 86.2714 140.144 86.4448 139.251 86.7968C138.357 87.1489 137.543 87.6727 136.853 88.3382C136.164 89.0036 135.614 89.7978 135.234 90.675C134.854 91.5522 134.652 92.4953 134.64 93.4502Z" fill="#FAFAFA"/>
<path d="M142.06 86.2866C141.099 86.2714 140.144 86.4448 139.251 86.7968C138.357 87.1489 137.543 87.6727 136.853 88.3382C136.164 89.0036 135.614 89.7978 135.234 90.675C134.854 91.5522 134.652 92.4953 134.64 93.4502L149.27 93.6588C149.286 92.704 149.111 91.7555 148.757 90.8679C148.402 89.9802 147.875 89.1707 147.205 88.4858C146.536 87.8009 145.736 87.2541 144.853 86.8767C143.97 86.4993 143.021 86.2988 142.06 86.2866Z" fill="#E0E0E0"/>
<path d="M137.501 93.4895C137.488 94.3649 137.737 95.2244 138.216 95.9593C138.695 96.6941 139.383 97.2713 140.192 97.6179C141.002 97.9645 141.896 98.0649 142.763 97.9064C143.63 97.7479 144.429 97.3376 145.061 96.7274C145.693 96.1173 146.129 95.3346 146.314 94.4785C146.498 93.6223 146.422 92.7311 146.097 91.9174C145.772 91.1038 145.211 90.4043 144.485 89.9075C143.759 89.4106 142.902 89.1386 142.021 89.126C141.435 89.1172 140.854 89.2231 140.31 89.4377C139.766 89.6523 139.27 89.9714 138.85 90.3767C138.43 90.782 138.095 91.2655 137.864 91.7996C137.632 92.3337 137.509 92.908 137.501 93.4895Z" fill="#495D4C"/>
<path d="M155.516 86.1835C155.516 86.1835 155.498 86.1623 155.464 86.1139L155.33 85.8962L155.117 85.5394C155.026 85.3737 154.925 85.2141 154.813 85.0616C154.144 84.0626 153.355 83.1486 152.463 82.3401C152.195 82.071 151.854 81.8351 151.55 81.569C151.246 81.3029 150.865 81.0701 150.5 80.813C150.135 80.556 149.733 80.3171 149.304 80.1085C149.091 79.9996 148.878 79.8817 148.659 79.7759L147.974 79.4735C147.003 79.0651 145.991 78.761 144.955 78.5663C141.664 77.9438 138.258 78.4783 135.321 80.0782L134.67 80.4441C134.46 80.5681 134.262 80.7072 134.061 80.8342C133.651 81.0852 133.297 81.3846 132.935 81.6476C132.573 81.9107 132.26 82.2131 131.961 82.5004C131.663 82.7877 131.371 83.0598 131.127 83.3561C130.317 84.2451 129.619 85.2291 129.049 86.2863C128.954 86.45 128.869 86.6185 128.793 86.7913C128.723 86.9364 128.662 87.0604 128.613 87.1663C128.565 87.2721 128.531 87.3356 128.501 87.3931C128.488 87.4202 128.474 87.4464 128.458 87.4717C128.463 87.4422 128.472 87.4136 128.486 87.387L128.583 87.1511L128.75 86.7701C128.821 86.5951 128.902 86.4244 128.994 86.2591C129.547 85.1837 130.237 84.1828 131.045 83.2806C131.286 82.9782 131.587 82.7121 131.876 82.4127C132.165 82.1133 132.512 81.8412 132.853 81.5479C133.194 81.2545 133.571 80.9733 133.982 80.7193C134.183 80.5893 134.384 80.4502 134.591 80.3202L135.245 79.9512C137.189 78.8862 139.348 78.2663 141.564 78.1369C143.782 78.0539 145.99 78.4672 148.026 79.3465L148.713 79.6489C148.936 79.7577 149.149 79.8756 149.362 79.9875C149.797 80.1992 150.177 80.4714 150.579 80.7042C150.981 80.937 151.307 81.2092 151.632 81.4723C151.958 81.7353 152.277 81.9833 152.545 82.2585C153.437 83.0788 154.218 84.0097 154.871 85.0284C154.981 85.185 155.083 85.3475 155.175 85.5152C155.252 85.6563 155.319 85.7773 155.376 85.8781L155.495 86.1049C155.505 86.13 155.512 86.1565 155.516 86.1835Z" fill="#495D4C"/>
<path d="M104.569 88.0917C104.551 88.0657 104.538 88.0371 104.529 88.007L104.426 87.7621L104.262 87.3569L104.015 86.8186C103.485 85.6755 102.824 84.5969 102.046 83.6042C100.911 82.1148 99.463 80.889 97.803 80.0118C96.8085 79.5306 95.7544 79.1818 94.668 78.9747C93.5037 78.7379 92.3165 78.6304 91.1283 78.6541C89.9402 78.6722 88.7578 78.8233 87.6038 79.1047C86.5297 79.3766 85.4947 79.7831 84.5237 80.3142C82.8639 81.1902 81.3795 82.3606 80.1439 83.7675C79.3175 84.7192 78.598 85.7575 77.9982 86.864C77.7851 87.2571 77.6268 87.5625 77.5234 87.7712L77.4016 88.007C77.3894 88.0358 77.3741 88.0632 77.356 88.0887C77.3629 88.0584 77.3731 88.0291 77.3864 88.001L77.496 87.7561C77.5873 87.5383 77.7395 87.2269 77.9434 86.8277C78.5253 85.7017 79.235 84.6455 80.0587 83.6798C81.2926 82.2505 82.7829 81.0612 84.4537 80.1721C85.4343 79.6386 86.4796 79.2321 87.5642 78.9626C88.7298 78.6754 89.9245 78.5212 91.1253 78.5029C92.3259 78.4782 93.5255 78.5878 94.7015 78.8295C95.8 79.0419 96.8654 79.3978 97.8699 79.8879C99.5428 80.7802 100.998 82.0273 102.131 83.5407C102.908 84.5437 103.562 85.6349 104.079 86.7914C104.164 86.9971 104.243 87.1785 104.31 87.3388C104.377 87.499 104.42 87.6411 104.462 87.75C104.505 87.8589 104.526 87.9375 104.551 88.001C104.561 88.0303 104.567 88.0608 104.569 88.0917Z" fill="#495D4C"/>
<path d="M76.4581 88.1855H30.2621V93.553H76.4581V88.1855Z" fill="#495D4C"/>
<path d="M75.2072 90.4625C75.2072 90.7269 75.1283 90.9853 74.9804 91.2051C74.8326 91.4249 74.6225 91.5962 74.3767 91.6974C74.1309 91.7985 73.8604 91.825 73.5994 91.7734C73.3385 91.7218 73.0988 91.5946 72.9106 91.4076C72.7225 91.2207 72.5944 90.9826 72.5425 90.7233C72.4905 90.464 72.5172 90.1953 72.619 89.9511C72.7208 89.7068 72.8933 89.4981 73.1145 89.3512C73.3357 89.2044 73.5958 89.126 73.8619 89.126C74.0385 89.126 74.2135 89.1605 74.3767 89.2277C74.5399 89.2949 74.6882 89.3933 74.8131 89.5174C74.9381 89.6416 75.0372 89.7889 75.1048 89.9511C75.1724 90.1132 75.2072 90.287 75.2072 90.4625Z" fill="#89948F"/>
<path d="M130.692 83.1719C130.692 83.2172 124.191 83.2535 116.174 83.2535C108.157 83.2535 101.656 83.2172 101.656 83.1719C101.656 83.1265 108.154 83.0933 116.174 83.0933C124.194 83.0933 130.692 83.1296 130.692 83.1719Z" fill="#495D4C"/>
<path d="M124.775 82.0256C124.73 82.0256 124.696 79.2164 124.696 75.7541C124.696 72.2917 124.73 69.4795 124.775 69.4795C124.821 69.4795 124.855 72.2887 124.855 75.7541C124.855 79.2195 124.818 82.0256 124.775 82.0256Z" fill="#495D4C"/>
<path d="M76.458 78.2095H71.3904V88.2549H76.458V78.2095Z" fill="#495D4C"/>
<path d="M65.149 63.9551H33.4407V88.2551H65.149V63.9551Z" fill="#8FE89A"/>
<path d="M57.2052 88.0735C57.1778 88.0735 57.1534 82.6577 57.1534 75.9779C57.1534 69.2981 57.1778 63.8823 57.2052 63.8823C57.2326 63.8823 57.2569 69.2951 57.2569 75.9779C57.2569 82.6607 57.2326 88.0735 57.2052 88.0735Z" fill="#495D4C"/>
<path d="M62.4616 82.7241H60.0298V85.4547H62.4616V82.7241Z" fill="#F5F5F5"/>
<path d="M57.7611 64.0186H54.1605V69.2045H57.7611V64.0186Z" fill="#495D4C"/>
<path d="M46.7139 82.9995H43.1133V88.1855H46.7139V82.9995Z" fill="#495D4C"/>
<path d="M67.442 63.9551C67.4159 63.9596 67.3891 63.9596 67.3629 63.9551H67.1255H66.2124L62.8431 63.9702H51.7309H40.6156L37.2494 63.9551H36.3363H36.0989C36.0717 63.9597 36.0439 63.9597 36.0167 63.9551H36.0989H36.3363H37.2494L40.6156 63.9399H51.7309H62.8431L66.2124 63.9551H67.1255H67.3629H67.442Z" fill="#263238"/>
<path d="M32.964 63.9551H1.25562V88.2551H32.964V63.9551Z" fill="#E0E0E0"/>
<path d="M23.9477 88.0735C23.9173 88.0735 23.896 82.6577 23.896 75.9779C23.896 69.2981 23.9173 63.8823 23.9477 63.8823C23.9782 63.8823 23.9964 69.2951 23.9964 75.9779C23.9964 82.6607 23.9751 88.0735 23.9477 88.0735Z" fill="#263238"/>
<path d="M29.2042 82.7241H26.7723V85.4547H29.2042V82.7241Z" fill="#F5F5F5"/>
<path opacity="0.5" d="M13.4564 64.0186H9.85583V69.2045H13.4564V64.0186Z" fill="white"/>
<path opacity="0.5" d="M13.4564 82.9995H9.85583V88.1855H13.4564V82.9995Z" fill="white"/>
<path d="M31.1569 63.9551C31.1297 63.9597 31.1019 63.9597 31.0747 63.9551H30.8373H29.9242L26.558 63.9702H15.4457H4.33047L0.961185 63.9551H0.0481012H-0.1893C-0.215482 63.9596 -0.24225 63.9596 -0.268433 63.9551H-0.1893H0.0481012H0.961185L4.33047 63.9399H15.4457H26.558L29.9242 63.9551H30.8373H31.0747H31.1569Z" fill="#263238"/>
<path d="M161.786 70.562C163.42 70.9521 164.793 72.6031 164.765 74.2723C164.731 75.1101 164.421 75.9135 163.883 76.5592C163.345 77.2049 162.608 77.6572 161.786 77.8466" fill="#E8505B"/>
<g opacity="0.6">
<path d="M161.786 70.562C163.42 70.9521 164.793 72.6031 164.765 74.2723C164.731 75.1101 164.421 75.9135 163.883 76.5592C163.345 77.2049 162.608 77.6572 161.786 77.8466" fill="white"/>
</g>
<path d="M161.853 69.6216H160.456V78.8173H161.853V69.6216Z" fill="#498D51"/>
<path d="M174.867 103.907C174.867 103.949 130.814 103.985 76.4853 103.985C22.1568 103.985 -21.9087 103.949 -21.9087 103.907C-21.9087 103.864 22.1354 103.828 76.4853 103.828C130.835 103.828 174.867 103.861 174.867 103.907Z" fill="#495D4C"/>
</g>
<defs>
<clipPath id="clip0_102_1199">
<rect width="165" height="103" fill="white" transform="translate(0 0.985352)"/>
</clipPath>
</defs>
</svg>
