<svg width="264" height="66" viewBox="0 0 264 66" fill="none" xmlns="http://www.w3.org/2000/svg">
<g opacity="0.5" clip-path="url(#clip0_102_1261)">
<path d="M152.434 33.72C152.434 33.72 146.607 31.8119 142.888 29.604C139.169 27.396 136.657 26.5401 135.352 26.7309C134.048 26.9217 131.13 26.9217 129.018 27.3061C126.907 27.6904 125.603 28.072 125.199 29.0288C124.796 29.9856 126.507 32.6678 128.618 33.2429C130.729 33.8181 134.949 36.4976 134.949 36.4976C134.949 36.4976 116.557 53.2559 117.26 54.9787C117.964 56.7014 126.006 63.7013 127.11 63.7885C128.215 63.8757 144.799 59.002 145.803 58.8084C148.049 58.3359 150.192 57.4937 152.134 56.3198C153.441 55.5201 154.655 54.5889 155.753 53.5421L164.101 50.0967L154.66 32.7632L152.434 33.72Z" fill="white" stroke="#495E4C" stroke-width="0.6" stroke-linecap="round" stroke-linejoin="round"/>
<path d="M143.972 49.8296C143.972 49.8296 148.215 53.4359 148.673 54.965C148.934 55.9748 148.894 57.034 148.558 58.0234L145.792 58.8085L143.972 49.8296Z" fill="#495E4C" stroke="#495E4C" stroke-width="0.6" stroke-linecap="round" stroke-linejoin="round"/>
<path d="M157.158 38.686L161.057 51.1403L164.093 50.0963L157.158 38.686Z" fill="#495E4C" stroke="#495E4C" stroke-width="0.6" stroke-linecap="round" stroke-linejoin="round"/>
<path d="M128.627 33.2427C128.627 33.2427 136.065 34.4884 137.469 35.0609C138.874 35.6333 146.515 43.3937 149.227 45.787C151.94 48.1803 153.35 51.9146 153.45 54.3079C153.55 56.7012 152.537 59.8631 151.227 60.3402C149.917 60.8172 149.016 60.1493 148.615 59.1926C148.215 58.2358 148.012 56.415 148.012 56.415L146.404 53.2557C146.512 54.5036 146.444 55.7596 146.201 56.9901C145.8 58.8082 145.096 62.638 143.489 63.5975C141.881 64.557 139.97 63.9791 139.77 63.5021C139.608 63.0632 139.474 62.6154 139.369 62.161C139.369 62.161 138.866 63.8837 137.366 64.3635C135.867 64.8432 133.747 64.2681 133.747 64.2681C133.747 64.2681 132.031 66.1761 130.632 65.8C129.233 65.4238 127.82 63.9791 127.82 63.9791C127.82 63.9791 123.097 61.2042 118.774 58.3312C114.451 55.4582 106.715 46.4575 106.715 46.4575L102.996 44.2551L114.354 29.124L119.186 31.997L128.627 33.2427Z" fill="white" stroke="#495E4C" stroke-width="0.6" stroke-linecap="round" stroke-linejoin="round"/>
<path d="M115.767 33.3325L107.957 47.6485L106.71 46.4574L115.767 33.3325Z" fill="#495E4C" stroke="#495E4C" stroke-width="0.6" stroke-linecap="round" stroke-linejoin="round"/>
<path d="M130.83 27.2104C130.83 27.2104 126.604 27.1041 125.603 27.4966C123.886 28.1672 123.795 30.3696 123.795 30.7512C123.795 31.1328 122.588 34.1994 122.387 35.3497C122.187 36.5 123.592 37.0724 126.81 36.0203C130.029 34.9681 130.93 33.6243 130.93 30.7512" fill="white"/>
<path d="M130.83 27.2104C130.83 27.2104 126.604 27.1041 125.603 27.4966C123.886 28.1672 123.795 30.3696 123.795 30.7512C123.795 31.1328 122.588 34.1994 122.387 35.3497C122.187 36.5 123.592 37.0724 126.81 36.0203C130.029 34.9681 130.93 33.6243 130.93 30.7512" stroke="#495E4C" stroke-width="0.6" stroke-linecap="round" stroke-linejoin="round"/>
<path d="M122.688 34.6791C122.851 34.5073 123.054 34.3745 123.281 34.2912C123.509 34.2078 123.753 34.1764 123.995 34.1994C124.799 34.2948 126.407 34.104 126.507 32.9537C126.607 31.8034 126.206 31.231 125.403 31.231C124.863 31.256 124.342 31.422 123.895 31.7107L122.688 34.6791Z" stroke="#495E4C" stroke-width="0.6" stroke-linecap="round" stroke-linejoin="round"/>
<path d="M141.08 45.6128C141.552 46.3897 142.015 47.5917 142.888 48.5621C146.081 52.1057 146.407 53.256 146.407 53.256" stroke="#495E4C" stroke-width="0.6" stroke-linecap="round" stroke-linejoin="round"/>
<path d="M140.176 42.5298L140.376 44.4379L140.739 45.043" stroke="#495E4C" stroke-width="0.6" stroke-linecap="round" stroke-linejoin="round"/>
<path d="M134.749 47.7002L134.849 49.9981C134.849 49.9981 138.969 57.6604 139.572 58.5217C140.176 59.3831 139.773 61.6809 139.372 62.1607" stroke="#495E4C" stroke-width="0.6" stroke-linecap="round" stroke-linejoin="round"/>
<path d="M130.266 56.9219C130.768 57.7437 131.325 58.534 131.934 59.2879C133.542 61.196 133.742 64.268 133.742 64.268" stroke="#495E4C" stroke-width="0.6" stroke-linecap="round" stroke-linejoin="round"/>
<path d="M128.315 52.2988V53.5418C128.315 53.5418 128.913 54.6839 129.728 56.0468" stroke="#495E4C" stroke-width="0.6" stroke-linecap="round" stroke-linejoin="round"/>
<path d="M112.08 53.4221C112.08 53.4221 109.657 52.7761 108.976 51.9584C108.295 51.1406 108.006 48.4939 107.96 47.6625C107.914 46.8311 107.388 45.9997 108.444 45.629C109.499 45.2583 110.915 46.3677 111.45 47.4771C111.985 48.5865 112.023 50.1103 112.023 50.3392C112.023 50.5682 112.846 51.8194 112.846 51.8194C112.846 51.8194 113.63 53.2368 112.08 53.4221Z" fill="white" stroke="#495E4C" stroke-width="0.6" stroke-linecap="round" stroke-linejoin="round"/>
<path d="M108.238 49.4068C108.238 49.4068 109.096 50.2246 109.725 50.1837C110.355 50.1428 109.917 48.1284 109.917 48.1284C109.474 48.0223 109.063 47.8188 108.718 47.5342C108.432 47.2893 108.16 47.03 107.903 46.7573L108.238 49.4068Z" fill="white" stroke="#495E4C" stroke-width="0.6" stroke-linecap="round" stroke-linejoin="round"/>
<path d="M116.588 57.9552C116.588 57.9552 114.014 58.4649 113.387 57.6335C112.761 56.8021 111.496 53.4766 111.545 52.3209C111.593 51.1651 114.795 48.3493 116.408 47.1936C118.022 46.0378 119.026 45.6699 119.996 46.2232C120.965 46.7765 121.741 47.4716 121.449 48.442C121.157 49.4124 118.831 53.5693 118.445 54.308C118.059 55.0467 117.667 57.6335 117.667 57.6335L116.588 57.9552Z" fill="white" stroke="#495E4C" stroke-width="0.6" stroke-linecap="round" stroke-linejoin="round"/>
<path d="M115.619 47.9703C115.619 47.9703 114.552 48.9407 115.084 49.6794C115.616 50.4181 116.975 51.1132 117.558 50.9278C118.142 50.7424 120.03 48.848 120.368 48.2483C120.705 47.6486 118.622 46.2148 118.622 46.2148C117.485 46.555 116.453 47.158 115.619 47.9703Z" fill="white" stroke="#495E4C" stroke-width="0.6" stroke-linecap="round" stroke-linejoin="round"/>
<path d="M120.788 61.4986C120.788 61.4986 117.982 62.0438 117.292 61.1442C116.603 60.2447 115.227 56.603 115.29 55.341C115.353 54.0789 118.837 51.0042 120.585 49.7421C122.333 48.4801 123.446 48.0766 124.504 48.6818C125.563 49.2869 126.41 50.0447 126.092 51.105C125.775 52.1654 123.231 56.7039 122.808 57.5107C122.384 58.3176 121.95 61.1442 121.95 61.1442L120.788 61.4986Z" fill="white" stroke="#495E4C" stroke-width="0.6" stroke-linecap="round" stroke-linejoin="round"/>
<path d="M119.729 50.5955C119.729 50.5955 118.562 51.6558 119.157 52.4626C119.752 53.2695 121.223 54.0273 121.858 53.8256C122.493 53.6238 124.559 51.5549 124.93 50.9007C125.302 50.2465 123.022 48.6792 123.022 48.6792C121.775 49.0489 120.644 49.7073 119.729 50.5955Z" fill="white" stroke="#495E4C" stroke-width="0.6" stroke-linecap="round" stroke-linejoin="round"/>
<path d="M126.246 63.1097C126.246 63.1097 125.505 60.9972 125.505 60.8037C125.505 60.6101 126.85 57.5327 126.716 56.1889C126.581 54.845 125.437 53.3049 124.713 53.6893C123.989 54.0736 122.627 55.1639 121.417 56.8948C120.207 58.6257 119.804 59.9696 120.207 60.6101C120.611 61.2507 123.031 63.6876 124.041 64.0719C125.051 64.4563 127.125 63.7994 127.125 63.7994L126.246 63.1097Z" fill="white" stroke="#495E4C" stroke-width="0.6" stroke-linecap="round" stroke-linejoin="round"/>
<path d="M121.537 57.4726C121.537 57.4726 122.413 57.985 123.017 57.985C123.62 57.985 125.168 56.6385 125.102 55.2919C125.036 53.9454 124.161 54.267 124.161 54.267C124.161 54.267 121.806 55.9325 121.537 57.4726Z" fill="white" stroke="#495E4C" stroke-width="0.6" stroke-linecap="round" stroke-linejoin="round"/>
<path d="M153.851 32.1442L164.224 53.5419L170.449 50.9824L159.587 29.7046L153.851 32.1442Z" fill="white" stroke="#495E4C" stroke-width="0.6" stroke-linecap="round" stroke-linejoin="round"/>
<path d="M204.116 4.01611L157.513 30.0532L172.918 60.0536L263.431 21.0268" stroke="#495E4C" stroke-width="0.6" stroke-linecap="round" stroke-linejoin="round"/>
<path d="M200.228 8.48535L157.612 29.8892L173.318 59.1103L255.463 22.7914L200.228 8.48535Z" fill="#9BF9A6"/>
<path d="M117.604 30.5168L103.449 51.4484L98.0787 48.8916L112.967 27.8428L117.604 30.5168Z" fill="white" stroke="#495E4C" stroke-width="0.6" stroke-linecap="round" stroke-linejoin="round"/>
<path d="M70.6947 1.12158L115.164 27.96L93.7273 59.2607L0.284424 16.4229" stroke="#495E4C" stroke-width="0.6" stroke-linecap="round" stroke-linejoin="round"/>
<path d="M93.4429 59.2606L114.879 27.9599L70.9254 3.17285L8.20898 18.4854L93.4429 59.2606Z" fill="#9BF9A6"/>
</g>
<defs>
<clipPath id="clip0_102_1261">
<rect width="264" height="65" fill="white" transform="translate(0 0.985352)"/>
</clipPath>
</defs>
</svg>
